<svg width="64" height="64" viewBox="0 0 64 64" fill="none" xmlns="http://www.w3.org/2000/svg">
<path d="M0 16C0 7.16344 7.16344 0 16 0H48C56.8366 0 64 7.16344 64 16V48C64 56.8366 56.8366 64 48 64H16C7.16344 64 0 56.8366 0 48V16Z" fill="#06B25F"/>
<path d="M22.56 25.3333L22.5616 41.0733C22.5616 42.5083 23.7031 43.6667 25.1151 43.6667H25.84V49.57C25.84 50.91 26.9995 52 28.3164 52C29.6382 52 30.76 50.91 30.76 49.5683V43.6667H34.04V49.57C34.04 50.91 35.1995 52 36.518 52C37.8399 52 38.96 50.91 38.96 49.5683V43.6667L39.6882 43.665C41.0953 43.665 42.24 42.505 42.24 41.07V25.3333H22.56ZM48.8 27.785C48.8 26.4433 47.6602 25.3333 46.34 25.3333C45.0198 25.3317 43.88 26.445 43.88 27.7867V37.9633C43.88 39.3067 45.0182 40.3333 46.34 40.3333C47.6602 40.3333 48.8 39.3083 48.8 37.9633V27.785ZM20.92 27.785C20.92 26.4433 19.7802 25.3333 18.46 25.3333C17.1398 25.3317 16 26.445 16 27.7867V37.9633C16 39.3067 17.1382 40.3333 18.46 40.3333C19.7802 40.3333 20.92 39.3083 20.92 37.9633V27.785ZM37.2396 15.5983L38.7812 12.5C38.8928 12.28 38.7501 12 38.5139 12C38.4057 12 38.3007 12.0633 38.245 12.175L36.6886 15.305C34.1778 14.0767 30.8764 13.9517 28.113 15.305L26.555 12.175C26.5009 12.0633 26.396 12 26.2861 12C26.0499 12 25.9072 12.28 26.0188 12.5L27.5604 15.5983C24.5346 17.3217 22.56 19.905 22.56 23.665H42.24C42.24 19.905 40.2654 17.3217 37.2396 15.5983ZM28.3016 20.3333C27.849 20.3333 27.48 19.96 27.48 19.5C27.48 19.0433 27.849 18.6667 28.3016 18.6667C28.7543 18.6667 29.12 19.0433 29.12 19.5C29.12 19.96 28.7543 20.3333 28.3016 20.3333ZM36.4984 20.3333C36.0457 20.3333 35.68 19.96 35.68 19.5C35.68 19.0433 36.0457 18.6667 36.4984 18.6667C36.951 18.6667 37.32 19.0433 37.32 19.5C37.32 19.96 36.951 20.3333 36.4984 20.3333Z" fill="white"/>
</svg>
