<svg width="64" height="64" viewBox="0 0 64 64" fill="none" xmlns="http://www.w3.org/2000/svg">
<rect width="64" height="64" rx="16" fill="#276ED8"/>
<path d="M47.16 39.8787C45.9354 43.4888 42.2694 49.8809 38.4928 49.9506C35.9876 49.9996 35.1821 48.4416 32.3185 48.4416C29.4564 48.4416 28.5606 49.9031 26.1924 49.9981C22.1853 50.1548 16 40.7717 16 32.5887C16 25.0724 21.1539 21.3467 25.6565 21.2786C28.0714 21.2343 30.3523 22.9333 31.8246 22.9333C33.3031 22.9333 36.0733 20.8907 38.9852 21.19C40.2035 21.2422 43.6265 21.6887 45.8232 24.9537C39.9948 28.8203 40.9031 36.9066 47.16 39.8787ZM39.0241 12C34.6212 12.1805 31.0285 16.8752 31.5301 20.7577C35.5996 21.0791 39.504 16.443 39.0241 12Z" fill="white"/>
</svg>
