<svg width="160" height="20" viewBox="0 0 160 20" fill="none" xmlns="http://www.w3.org/2000/svg">
<g clip-path="url(#clip0_863_5677)">
<path d="M12 1.61804L13.9941 7.75532L14.1064 8.10081H14.4697H20.9228L15.7021 11.8939L15.4082 12.1074L15.5205 12.4529L17.5146 18.5902L12.2939 14.7971L12 14.5836L11.7061 14.7971L6.48542 18.5902L8.47954 12.4529L8.5918 12.1074L8.29791 11.8939L3.07722 8.10081H9.53035H9.89362L10.0059 7.75532L12 1.61804Z" stroke="#717171"/>
<path d="M80 1.61804L81.9941 7.75532L82.1064 8.10081H82.4697H88.9228L83.7021 11.8939L83.4082 12.1074L83.5205 12.4529L85.5146 18.5902L80.2939 14.7971L80 14.5836L79.7061 14.7971L74.4854 18.5902L76.4795 12.4529L76.5918 12.1074L76.2979 11.8939L71.0772 8.10081H77.5303H77.8936L78.0059 7.75532L80 1.61804Z" stroke="#717171"/>
<path d="M46 1.61804L47.9941 7.75532L48.1064 8.10081H48.4697H54.9228L49.7021 11.8939L49.4082 12.1074L49.5205 12.4529L51.5146 18.5902L46.2939 14.7971L46 14.5836L45.7061 14.7971L40.4854 18.5902L42.4795 12.4529L42.5918 12.1074L42.2979 11.8939L37.0772 8.10081H43.5303H43.8936L44.0059 7.75532L46 1.61804Z" stroke="#717171"/>
<path d="M114 1.61804L115.994 7.75532L116.106 8.10081H116.47H122.923L117.702 11.8939L117.408 12.1074L117.52 12.4529L119.515 18.5902L114.294 14.7971L114 14.5836L113.706 14.7971L108.485 18.5902L110.48 12.4529L110.592 12.1074L110.298 11.8939L105.077 8.10081H111.53H111.894L112.006 7.75532L114 1.61804Z" stroke="#717171"/>
<path d="M148 1.61804L149.994 7.75532L150.106 8.10081H150.47H156.923L151.702 11.8939L151.408 12.1074L151.52 12.4529L153.515 18.5902L148.294 14.7971L148 14.5836L147.706 14.7971L142.485 18.5902L144.48 12.4529L144.592 12.1074L144.298 11.8939L139.077 8.10081H145.53H145.894L146.006 7.75532L148 1.61804Z" stroke="#717171"/>
</g>
<defs>
<clipPath id="clip0_863_5677">
<rect width="160" height="20" fill="white"/>
</clipPath>
</defs>
</svg>
