<svg width="320" height="400" viewBox="0 0 320 400" fill="none" xmlns="http://www.w3.org/2000/svg">
<g clip-path="url(#clip0_100_5924)">
<g filter="url(#filter0_d_100_5924)">
<rect width="320" height="400" rx="16" fill="white"/>
</g>
<path d="M76.9492 54.1582C75.8266 54.8063 74.3896 54.4213 73.7415 53.2988L70.678 47.9925C70.0299 46.87 70.4149 45.433 71.5375 44.7849C72.66 44.1368 74.097 44.5219 74.7451 45.6444L77.8086 50.9506C78.4567 52.0731 78.0717 53.5102 76.9492 54.1582Z" fill="#84B5FF"/>
<path d="M99.0253 51.2516C98.5047 51.5521 97.8699 51.6548 97.2439 51.4847C95.9908 51.149 95.2472 49.861 95.583 48.6079L97.169 42.6888C97.5047 41.4357 98.7927 40.6921 100.046 41.0279C101.299 41.3636 102.042 42.6516 101.707 43.9047L100.121 49.8238C99.9507 50.4498 99.5459 50.951 99.0253 51.2516V51.2516Z" fill="#84B5FF"/>
<path d="M122 61.7455L116.694 64.8091C115.572 65.4571 114.135 65.0721 113.487 63.9496C112.838 62.827 113.224 61.39 114.346 60.7419L119.652 57.6784C120.775 57.0303 122.212 57.4154 122.86 58.5379C123.508 59.6604 123.123 61.0974 122 61.7455Z" fill="#84B5FF"/>
<path d="M125.52 88.4717C125 88.7723 124.365 88.8749 123.739 88.7049L117.82 87.1189C116.566 86.7831 115.823 85.4952 116.159 84.2421C116.494 82.9889 117.782 82.2454 119.035 82.5811L124.955 84.1672C126.208 84.5029 126.951 85.7909 126.615 87.044C126.447 87.6727 126.041 88.1712 125.52 88.4717Z" fill="#84B5FF"/>
<path d="M82.3808 113.379C81.8602 113.679 81.2253 113.782 80.5993 113.612C79.3462 113.276 78.6026 111.988 78.9384 110.735L80.5245 104.816C80.8602 103.563 82.1481 102.819 83.4013 103.155C84.6544 103.491 85.3979 104.779 85.0622 106.032L83.4761 111.951C83.3077 112.579 82.9014 113.078 82.3808 113.379V113.379Z" fill="#84B5FF"/>
<path d="M66.2973 93.9037L60.9911 96.9673C59.8686 97.6153 58.4315 97.2303 57.7834 96.1078C57.1354 94.9853 57.5204 93.5482 58.6429 92.9001L63.9492 89.8366C65.0717 89.1885 66.5087 89.5736 67.1568 90.6961C67.8049 91.8186 67.4198 93.2556 66.2973 93.9037Z" fill="#84B5FF"/>
<path d="M63.3912 71.8252C62.8706 72.1258 62.2357 72.2284 61.6097 72.0584L55.6906 70.4724C54.4375 70.1366 53.6939 68.8487 54.0297 67.5956C54.3655 66.3425 55.6534 65.5989 56.9065 65.9347L62.8256 67.5207C64.0787 67.8565 64.8223 69.1444 64.4866 70.3975C64.3138 71.025 63.9118 71.5247 63.3912 71.8252V71.8252Z" fill="#84B5FF"/>
<path d="M112.546 97.0293L114.503 100.419C116.005 103.021 115.1 106.4 112.497 107.903L105.719 111.817C103.441 113.132 99.9718 112.821 97.7802 109.025L96.2773 106.422L112.546 97.0293Z" fill="#84B5FF"/>
<path d="M93.7634 55.6691C87.2347 54.6303 80.564 56.6017 75.5474 61.1249C69.2231 66.7645 66.7749 75.9869 69.432 84.0331C72.1716 92.2847 79.1639 98.0088 87.6578 99.07C89.9463 99.3394 92.1225 100.541 93.7388 102.464L93.7544 102.491C93.793 102.433 93.8743 102.386 93.9286 102.355L110.197 92.962C110.251 92.9307 110.278 92.9151 110.348 92.9109L110.333 92.8837C109.522 90.6039 109.647 88.0015 110.672 85.4572C113.157 79.1783 112.683 72.2214 109.302 66.3647C105.983 60.6165 100.335 56.7195 93.7634 55.6691ZM101.273 72.8081C100.161 73.4499 98.7067 73.0603 98.0649 71.9486C95.6854 67.8273 90.4249 66.4177 86.3036 68.7972C85.1919 69.439 83.7378 69.0494 83.096 67.9377C82.4541 66.826 82.8438 65.3719 83.9554 64.73C90.3001 61.0669 98.4689 63.2558 102.132 69.6004C102.774 70.7121 102.384 72.1663 101.273 72.8081Z" fill="#84B5FF"/>
<path d="M93.7383 102.463L93.9281 102.353C93.8738 102.385 93.7925 102.432 93.7539 102.49L93.7383 102.463Z" fill="#84B5FF"/>
<path d="M110.331 92.8827L110.347 92.9098C110.277 92.914 110.25 92.9296 110.195 92.9609L110.331 92.8827Z" fill="#84B5FF"/>
<path opacity="0.2" d="M101.665 192.761L110 194.329V201.802L101.665 203.239C101.025 206.309 99.81 209.183 98.1377 211.73L102.919 218.746L97.6283 224.037L90.7173 219.151C88.1698 220.823 85.3088 222.025 82.2256 222.665L80.6579 231H73.1852L71.7482 222.665C68.6782 222.025 65.804 220.81 63.2565 219.138L56.2541 223.919L50.9632 218.628L55.8492 211.717C54.1769 209.17 52.975 206.296 52.3349 203.226L44 201.658V194.185L52.3349 192.748C52.975 189.665 54.19 186.804 55.8622 184.257L51.0808 177.254L56.3717 171.963L63.2957 176.849C65.8432 175.177 68.7173 173.962 71.7874 173.335L73.3551 165H80.8278L82.2648 173.335C85.348 173.975 88.209 175.19 90.7565 176.862L97.7589 172.081L103.05 177.372L98.1639 184.283C99.823 186.817 101.025 189.678 101.665 192.761ZM77 182.519C68.456 182.519 61.5321 189.456 61.5321 197.987C61.5321 206.518 68.456 213.455 77 213.455C85.5439 213.455 92.4679 206.531 92.4679 197.987C92.4679 189.443 85.5439 182.519 77 182.519Z" fill="#84B5FF"/>
<mask id="mask0_100_5924" style="mask-type:alpha" maskUnits="userSpaceOnUse" x="0" y="18" width="320" height="383">
<rect y="18" width="320" height="383" rx="16" fill="#3D27C7"/>
</mask>
<g mask="url(#mask0_100_5924)">
<path opacity="0.1" d="M189.974 207.801L178.158 203.172L177.757 203.015L165.941 198.386C165.941 198.386 165.285 239.449 83.4481 375.058L102.07 383.041L109.552 386.343L128.409 394.845C160.46 239.729 189.974 207.801 189.974 207.801Z" fill="#84B5FF"/>
<path opacity="0.5" d="M183.104 198.745L178.386 197.825L178.759 196.873L175.19 194.007C175.19 194.007 104.108 395.293 75.2276 419.06L73.4326 425.958L85.1646 432.455L87.7353 432.523L99.5544 437.46L102.631 437.607C97.5818 400.548 183.104 198.745 183.104 198.745Z" fill="white"/>
<path d="M190.3 222.433C185.833 234.383 157.697 251.854 157.697 251.854C157.697 251.854 148.468 218.751 152.935 206.801C157.402 194.852 166.994 195.07 177.311 199.386C187.629 203.703 194.767 210.484 190.3 222.433Z" fill="#06B25F"/>
<path opacity="0.5" d="M185.674 217.542C182.58 225.801 162.022 240.73 162.022 240.73C162.022 240.73 156.699 215.001 159.794 206.74C162.888 198.481 169.532 198.631 176.678 201.614C183.824 204.597 188.769 209.283 185.674 217.542Z" fill="#66D6A0"/>
<path d="M182.076 211.175C180.27 215.972 166.809 228.527 166.809 228.527C166.809 228.527 165.165 209.7 166.971 204.903C168.777 200.106 172.655 200.193 176.826 201.925C180.997 203.657 183.883 206.378 182.076 211.175Z" fill="#66D6A0"/>
<path d="M177.156 164.457C177.156 164.457 146.308 165.625 136.734 192.029C136.734 192.029 137.334 195.619 141.24 193.24C145.144 190.861 150.93 182.249 167.778 189.274L177.156 164.457Z" fill="#A6CAFF"/>
<path d="M201.828 176.42C201.828 176.42 223.839 199.627 214.265 226.031C214.265 226.031 211.562 228.244 210.18 223.66C208.8 219.078 209.958 208.537 193.111 201.512L201.828 176.42Z" fill="#84B5FF"/>
<path d="M230.088 154.511C234.152 143.583 235.798 132.417 235.9 122.11L210.586 111.871L207.191 121C216.557 124.788 221.756 134.293 218.805 142.228C215.853 150.164 205.868 153.53 196.502 149.741L179.325 195.926L195.893 202.627C208.639 194.713 221.678 177.125 230.088 154.511Z" fill="#276ED8"/>
<path d="M186.625 129.509C189.577 121.573 199.561 118.21 208.925 121.997L212.32 112.868L187.008 102.631C180.418 110.313 174.416 119.718 170.352 130.645C161.941 153.26 160.198 175.417 164.495 190.223L181.06 196.923L198.237 150.737C188.873 146.949 183.674 137.445 186.625 129.509Z" fill="#3E85EE"/>
<path d="M163.987 193.172C163.607 193.011 163.204 193.16 163.087 193.502L162.09 196.404C161.972 196.748 162.184 197.155 162.564 197.316L177.057 203.456L178.481 199.309L163.988 193.17L163.987 193.172Z" fill="#3E85EE"/>
<path d="M192.38 205.146L177.898 199.012L176.474 203.158L190.955 209.292C191.335 209.453 191.738 209.306 191.856 208.962L192.853 206.06C192.973 205.718 192.76 205.307 192.38 205.146Z" fill="#276ED8"/>
<path d="M213.387 140.372C215.349 134.81 211.92 128.125 205.727 125.438L199.519 146.938C205.71 149.624 211.426 145.932 213.387 140.372Z" fill="#84B5FF"/>
<path d="M191.882 131.522C189.918 137.092 193.351 143.787 199.551 146.478L206.663 126.31C200.465 123.619 193.846 125.952 191.882 131.522Z" fill="#A6CAFF"/>
<path d="M213.379 139.514C211.354 145.082 204.953 145.492 199.547 145.964L197.863 150.596C204.602 152.034 216.112 152.022 219.088 141.685C222.042 133.56 217.079 124.912 208.03 121.149L205.042 124.881C211.24 127.461 215.404 133.945 213.379 139.514Z" fill="#06B25F"/>
<path d="M186.635 129.294C183.652 137.499 188.594 146.907 198.575 151.072L200.275 146.395C194.062 143.811 189.757 137.068 191.801 131.445C193.845 125.821 200.536 123.357 206.749 125.941L208.449 121.264C199.386 117.49 189.618 121.086 186.635 129.294Z" fill="#66D6A0"/>
<path d="M225.406 77.4375L213.324 110.718L237.311 120.784C237.644 98.095 230.646 79.6365 225.406 77.4375Z" fill="#84B5FF"/>
<path d="M225.391 77.5024C220.153 75.3043 203.373 83.785 189.324 100.718L213.309 110.783L225.391 77.5024Z" fill="#A6CAFF"/>
<path opacity="0.07" d="M138.75 366.539C132.38 356.84 123.646 348.378 112.88 342.189C78.8535 322.627 37.4172 333.09 20.3261 365.56C20.2516 365.702 20.1771 365.843 20.1026 365.985C24.2433 374.893 27.1984 384.204 28.9486 393.604L207.638 496.333L279.3 405.271C271.848 397 248.105 372.895 237.947 367.056C204.972 348.09 167.052 349.147 138.75 366.539Z" fill="#276ED8"/>
<path d="M90.5713 419.063C88.3773 403.054 83.7454 388.818 76.4897 377.364C55.5941 344.344 18.4531 343.022 -18.7886 368.66C-19.3599 352.602 -22.9131 338.349 -29.7334 327.558C-33.235 322.017 -37.3938 317.747 -42.0423 314.67C-42.6387 332.515 -47.7079 352.862 -57.317 372.867L40.1439 429.02L91.3616 458.529C92.4855 444.631 92.2433 431.328 90.5713 419.063Z" fill="white" fill-opacity="0.3"/>
<path opacity="0.07" d="M67.492 395.153C67.2775 381.653 62.3441 370.385 52.9827 365.048L52.8646 364.981C53.3252 364.174 53.7779 363.363 54.2178 362.538C70.9275 331.18 68.2208 296.497 48.1718 285.067C41.8247 281.449 34.5038 280.601 26.9286 282.118C31.5667 252.223 23.6958 225.643 4.26464 214.565C-1.48442 211.288 -7.7981 209.618 -14.4094 209.413L-86.5307 344.755L21.4384 406.307L59.6985 428.119C65.0945 416.934 67.6539 405.401 67.492 395.153Z" fill="#276ED8"/>
<path opacity="0.6" d="M136.012 381.063C125.701 367.347 111.267 358.437 95.822 357.97L95.6273 357.964C95.5914 356.892 95.5425 355.819 95.4671 354.738C92.6036 313.687 63.4698 279.6 30.3921 278.599C19.9202 278.282 10.3175 281.324 2.16296 286.923C-14.4054 253.819 -43.8367 230.791 -75.8951 229.82C-85.3802 229.533 -94.36 231.196 -102.615 234.516L-90.2561 411.698L87.8765 417.089L151 419C149.287 404.659 143.839 391.476 136.012 381.063Z" fill="white"/>
<path opacity="0.07" d="M65.6419 407.128C61.5041 390.808 50.64 379.212 34.5524 376.733L34.3525 376.7C34.8383 375.522 35.3184 374.341 35.7756 373.147C52.9785 327.871 38.9955 286.844 4.5311 281.525C-6.38101 279.843 -18.0294 281.946 -29.4051 287.036C-29.9578 269.267 -34.4969 253.517 -42.5391 241.213L-96.0904 341.596L66.5609 435.019C68.1048 424.886 67.7411 415.392 65.6419 407.128Z" fill="#276ED8"/>
<path opacity="0.6" d="M289.614 365.06C281.995 358.022 272.52 352.388 261.678 348.968C227.42 338.166 192.521 353.517 183.739 383.242C183.504 384.023 183.305 384.813 183.115 385.601L182.915 385.539C166.923 380.497 150.764 382.128 138.178 388.795C128.624 393.859 121.129 401.822 117.322 411.963L182.712 432.578L317.43 475.04L383.807 351.487C381.982 350.799 380.13 350.16 378.246 349.567C345.039 339.096 311.407 346.06 289.614 365.06Z" fill="white"/>
</g>
</g>
<defs>
<filter id="filter0_d_100_5924" x="-18" y="-15" width="356" height="436" filterUnits="userSpaceOnUse" color-interpolation-filters="sRGB">
<feFlood flood-opacity="0" result="BackgroundImageFix"/>
<feColorMatrix in="SourceAlpha" type="matrix" values="0 0 0 0 0 0 0 0 0 0 0 0 0 0 0 0 0 0 127 0" result="hardAlpha"/>
<feMorphology radius="2" operator="dilate" in="SourceAlpha" result="effect1_dropShadow_100_5924"/>
<feOffset dy="3"/>
<feGaussianBlur stdDeviation="8"/>
<feColorMatrix type="matrix" values="0 0 0 0 0.113976 0 0 0 0 0.199896 0 0 0 0 0.420833 0 0 0 0.15 0"/>
<feBlend mode="normal" in2="BackgroundImageFix" result="effect1_dropShadow_100_5924"/>
<feBlend mode="normal" in="SourceGraphic" in2="effect1_dropShadow_100_5924" result="shape"/>
</filter>
<clipPath id="clip0_100_5924">
<rect width="320" height="400" rx="16" fill="white"/>
</clipPath>
</defs>
</svg>
