<svg width="320" height="400" viewBox="0 0 320 400" fill="none" xmlns="http://www.w3.org/2000/svg">
<g clip-path="url(#clip0_100_5957)">
<g filter="url(#filter0_d_100_5957)">
<rect width="320" height="400" rx="16" fill="white"/>
</g>
<g opacity="0.2" clip-path="url(#clip1_100_5957)">
<path d="M186.763 96.4724C177.746 87.4545 177.746 72.7813 186.763 63.7634C195.781 54.7455 210.454 54.7455 219.472 63.7634C227.123 71.4138 228.281 82.792 222.951 91.6771C222.951 91.6771 222.568 92.3194 223.085 92.8361C226.035 95.7858 234.886 104.636 234.886 104.636C237.234 106.985 237.793 110.269 235.711 112.352L235.352 112.71C233.269 114.793 229.985 114.235 227.636 111.886C227.636 111.886 218.805 103.054 215.861 100.11C215.319 99.5686 214.677 99.9515 214.677 99.9515C205.792 105.281 194.414 104.123 186.763 96.4724ZM215.202 92.2023C221.865 85.539 221.865 74.6972 215.202 68.0339C208.539 61.3708 197.697 61.3706 191.034 68.0339C184.371 74.697 184.371 85.539 191.034 92.2023C197.697 98.8652 208.539 98.8652 215.202 92.2023Z" fill="#84B5FF"/>
<path d="M213.727 78.745C214.037 78.745 214.352 78.684 214.656 78.5556C215.87 78.0419 216.438 76.6412 215.924 75.4271C212.695 67.7959 203.859 64.2148 196.228 67.4439C195.015 67.9577 194.447 69.3584 194.96 70.5725C195.474 71.7866 196.875 72.3542 198.089 71.8406C203.296 69.6375 209.324 72.0809 211.527 77.2874C211.913 78.198 212.797 78.745 213.727 78.745Z" fill="#84B5FF"/>
</g>
<g opacity="0.2" clip-path="url(#clip2_100_5957)">
<path d="M141.604 172.916H77.3959C76.5584 172.916 76 173.474 76 174.312V193.854C76 197.762 79.0709 200.833 82.9791 200.833H136.021C139.929 200.833 143 197.762 143 193.854V174.312C143 173.474 142.442 172.916 141.604 172.916ZM85.7709 184.083H96.9375C97.775 184.083 98.3334 184.641 98.3334 185.479C98.3334 186.316 97.775 186.875 96.9375 186.875H85.7709C84.9334 186.874 84.375 186.316 84.375 185.479C84.375 184.641 84.9334 184.083 85.7709 184.083ZM105.312 192.458H85.7709C84.9334 192.458 84.375 191.899 84.375 191.062C84.375 190.224 84.9334 189.666 85.7709 189.666H105.312C106.15 189.666 106.708 190.224 106.708 191.062C106.708 191.899 106.15 192.458 105.312 192.458ZM129.042 192.458C127.925 192.458 127.088 192.179 126.25 191.62C125.412 192.179 124.575 192.458 123.458 192.458C120.387 192.458 117.875 189.945 117.875 186.874C117.875 183.804 120.387 181.291 123.458 181.291C124.575 181.291 125.412 181.57 126.25 182.129C127.088 181.57 127.925 181.291 129.042 181.291C132.113 181.291 134.625 183.804 134.625 186.874C134.625 189.945 132.113 192.458 129.042 192.458Z" fill="#84B5FF"/>
<path d="M136.021 156.166H82.9791C79.0709 156.166 76 159.237 76 163.145V165.937C76 166.774 76.5584 167.333 77.3959 167.333H141.604C142.442 167.333 143 166.774 143 165.937V163.145C143 159.237 139.929 156.166 136.021 156.166Z" fill="#84B5FF"/>
</g>
<g opacity="0.2" clip-path="url(#clip3_100_5957)">
<path d="M239.602 229.668H204.667C203.802 229.668 203.044 229.096 202.809 228.266L195.075 201.195C194.908 200.611 195.022 199.984 195.388 199.499C195.755 199.016 196.325 198.73 196.933 198.73H244.065L245.448 192.511C245.644 191.625 246.43 190.996 247.336 190.996H259.066C260.135 190.996 261 191.861 261 192.93C261 193.999 260.135 194.863 259.066 194.863H248.888L241.905 226.284C243.96 227.177 245.402 229.222 245.402 231.602C245.402 234.801 242.8 237.403 239.602 237.403H204.667C203.598 237.403 202.734 236.538 202.734 235.469C202.734 234.401 203.598 233.536 204.667 233.536H239.602C240.667 233.536 241.535 232.669 241.535 231.602C241.535 230.535 240.667 229.668 239.602 229.668V229.668Z" fill="#84B5FF"/>
<path d="M241.535 243.203C241.535 246.402 238.933 249.004 235.734 249.004C232.535 249.004 229.933 246.402 229.933 243.203C229.933 240.005 232.535 237.402 235.734 237.402C238.933 237.402 241.535 240.005 241.535 243.203Z" fill="#84B5FF"/>
<path d="M214.336 243.203C214.336 246.402 211.734 249.004 208.535 249.004C205.336 249.004 202.734 246.402 202.734 243.203C202.734 240.005 205.336 237.402 208.535 237.402C211.734 237.402 214.336 240.005 214.336 243.203Z" fill="#84B5FF"/>
</g>
<g filter="url(#filter1_d_100_5957)">
<path d="M199.654 85H130.346C125.185 85 121 89.1732 121 94.3237V209.379V235.628C121 240.819 125.229 244.952 130.346 244.952H199.654C204.814 244.952 209 240.78 209 235.628V120.573V94.3237C209 89.1275 204.765 85 199.654 85Z" fill="#276ED8"/>
<path d="M204.47 97.707H125.531V232.244H204.47V97.707Z" fill="#F0F6FF"/>
<path d="M180.61 132.323L159.347 138.569L156.2 144.657L149.814 144.605L134.25 161.667L149.814 178.727L156.197 178.675L159.35 184.759L180.61 191.004L186.305 167.703L183.069 161.667L186.305 155.632L180.61 132.323ZM156.712 145.637L172.977 141.054L163.64 158.785H144.964L156.712 145.637ZM156.712 177.695L144.964 164.546H163.64L172.977 182.277L156.712 177.695ZM177.529 179.395L168.189 161.667L177.529 143.933L182.039 161.667L177.529 179.395Z" fill="#06B25F"/>
<path d="M181.276 93.4793H148.855C148.48 93.4793 148.176 93.1769 148.176 92.8017V92.4707C148.176 92.0969 148.479 91.793 148.855 91.793H181.276C181.65 91.793 181.955 92.0954 181.955 92.4707V92.8017C181.954 93.1754 181.65 93.4793 181.276 93.4793Z" fill="white"/>
<path opacity="0.2" d="M204.47 224.287H125.531V232.245H204.47V224.287Z" fill="#84B5FF"/>
<path opacity="0.2" d="M204.47 97.707H125.531V104.846H204.47V97.707Z" fill="#84B5FF"/>
</g>
</g>
<defs>
<filter id="filter0_d_100_5957" x="-18" y="-15" width="356" height="436" filterUnits="userSpaceOnUse" color-interpolation-filters="sRGB">
<feFlood flood-opacity="0" result="BackgroundImageFix"/>
<feColorMatrix in="SourceAlpha" type="matrix" values="0 0 0 0 0 0 0 0 0 0 0 0 0 0 0 0 0 0 127 0" result="hardAlpha"/>
<feMorphology radius="2" operator="dilate" in="SourceAlpha" result="effect1_dropShadow_100_5957"/>
<feOffset dy="3"/>
<feGaussianBlur stdDeviation="8"/>
<feColorMatrix type="matrix" values="0 0 0 0 0.113976 0 0 0 0 0.199896 0 0 0 0 0.420833 0 0 0 0.15 0"/>
<feBlend mode="normal" in2="BackgroundImageFix" result="effect1_dropShadow_100_5957"/>
<feBlend mode="normal" in="SourceGraphic" in2="effect1_dropShadow_100_5957" result="shape"/>
</filter>
<filter id="filter1_d_100_5957" x="109" y="77" width="112" height="183.951" filterUnits="userSpaceOnUse" color-interpolation-filters="sRGB">
<feFlood flood-opacity="0" result="BackgroundImageFix"/>
<feColorMatrix in="SourceAlpha" type="matrix" values="0 0 0 0 0 0 0 0 0 0 0 0 0 0 0 0 0 0 127 0" result="hardAlpha"/>
<feOffset dy="4"/>
<feGaussianBlur stdDeviation="6"/>
<feColorMatrix type="matrix" values="0 0 0 0 0.160784 0 0 0 0 0.0941176 0 0 0 0 0.435294 0 0 0 0.25 0"/>
<feBlend mode="normal" in2="BackgroundImageFix" result="effect1_dropShadow_100_5957"/>
<feBlend mode="normal" in="SourceGraphic" in2="effect1_dropShadow_100_5957" result="shape"/>
</filter>
<clipPath id="clip0_100_5957">
<rect width="320" height="400" rx="16" fill="white"/>
</clipPath>
<clipPath id="clip1_100_5957">
<rect width="57" height="57" fill="white" transform="matrix(-1 0 0 1 237 57)"/>
</clipPath>
<clipPath id="clip2_100_5957">
<rect width="67" height="67" fill="white" transform="translate(76 145)"/>
</clipPath>
<clipPath id="clip3_100_5957">
<rect width="66" height="66" fill="white" transform="matrix(-1 0 0 1 261 187)"/>
</clipPath>
</defs>
</svg>
