<svg width="322" height="400" viewBox="0 0 322 400" fill="none" xmlns="http://www.w3.org/2000/svg">
<g clip-path="url(#clip0_100_6013)">
<g opacity="0.2">
<path d="M112.641 131.413L97.8298 122.521C97.6804 122.431 97.4993 122.417 97.3447 122.484C97.1901 122.551 97.0868 122.689 97.0682 122.851L95.9392 132.148L81.9884 123.772C81.839 123.682 81.6579 123.669 81.5033 123.736C81.3508 123.803 81.2454 123.941 81.2268 124.102L78.5448 146.213C78.5224 146.391 78.53 146.423 78.6838 146.534C78.8376 146.646 78.9633 146.521 79.1295 146.447L94.8416 139.626L102.905 136.126L112.461 131.976C112.63 131.903 112.813 131.894 112.818 131.715C112.826 131.535 112.804 131.511 112.641 131.413Z" fill="#84B5FF"/>
<path d="M99.9404 110.843C101.238 113.377 100.208 116.337 97.6373 117.451C95.0667 118.566 91.9292 117.417 90.6314 114.883C89.3336 112.349 90.3638 109.389 92.9345 108.275C95.5054 107.158 98.6426 108.309 99.9404 110.843Z" fill="#84B5FF"/>
<path d="M173.17 70.0788L181 71.5515V78.5713L173.17 79.9212C172.569 82.8052 171.428 85.5051 169.857 87.8983L174.348 94.4885L169.378 99.4588L162.886 94.869C160.493 96.4398 157.805 97.5689 154.909 98.1702L153.436 106H146.416L145.067 98.1702C142.183 97.5689 139.483 96.4276 137.089 94.8567L130.511 99.3484L125.541 94.3781L130.131 87.886C128.56 85.4929 127.431 82.793 126.83 79.9089L119 78.4363V71.4165L126.83 70.0665C127.431 67.1702 128.572 64.4826 130.143 62.0895L125.652 55.5115L130.622 50.5412L137.126 55.131C139.519 53.5602 142.219 52.4188 145.103 51.8298L146.576 44H153.596L154.946 51.8298C157.842 52.4311 160.53 53.5724 162.923 55.1433L169.501 50.6516L174.471 55.6219L169.881 62.114C171.44 64.4949 172.569 67.1825 173.17 70.0788ZM150 60.4572C141.974 60.4572 135.47 66.9739 135.47 74.9877C135.47 83.0016 141.974 89.5182 150 89.5182C158.026 89.5182 164.53 83.0139 164.53 74.9877C164.53 66.9616 158.026 60.4572 150 60.4572Z" fill="#84B5FF"/>
<path d="M215.145 202.754L195.869 192C194.623 191.256 194 190.106 194 188.551C194 186.928 194.656 185.778 195.967 185.101L215.145 174.246V178.203C215.145 178.473 215.046 178.845 214.85 179.319C214.653 179.725 214.358 180.029 213.965 180.232L200.294 187.942C199.77 188.348 199.77 188.754 200.294 189.159L215.145 197.377V202.754Z" fill="#84B5FF"/>
<path d="M231.564 171H235.399L225.86 204.681C225.597 205.56 225.007 206 224.089 206H221.631L231.564 171Z" fill="#84B5FF"/>
<path d="M241.59 174.246L260.768 185.101C262.145 185.845 262.833 186.995 262.833 188.551C262.833 190.106 262.145 191.222 260.768 191.899L241.59 202.754V198.797C241.59 198.594 241.656 198.256 241.787 197.783C241.984 197.309 242.279 196.971 242.672 196.768L256.441 189.159C256.965 188.754 256.965 188.348 256.441 187.942L241.59 179.623V174.246Z" fill="#84B5FF"/>
</g>
<g filter="url(#filter0_d_100_6013)">
<rect width="322" height="400" rx="16" fill="white"/>
</g>
<path d="M182.876 63.0774L119.912 89.204C117.86 90.0556 116.787 92.0855 117.519 93.7352L138.693 141.407C139.426 143.058 141.66 143.642 143.679 142.715L205.618 114.28C207.461 113.433 208.386 111.476 207.688 109.905L187.528 64.5159C186.831 62.9454 184.75 62.3004 182.876 63.0774Z" fill="#276ED8"/>
<g opacity="0.5" filter="url(#filter1_d_100_6013)">
<path d="M186.442 64.97L206.616 110.393C207.092 111.464 206.465 112.795 205.209 113.372L176.757 126.41L143.228 141.776C141.855 142.406 140.308 142.019 139.809 140.895L118.653 93.2631C118.155 92.1414 118.912 90.7474 120.309 90.1674L183.267 63.9932C184.326 63.5534 185.484 63.7782 186.119 64.479C186.248 64.6238 186.361 64.7875 186.442 64.97Z" fill="white"/>
</g>
<path d="M183.195 74.926L183.845 76.3871L187.441 74.8597L186.793 73.4023L183.195 74.926Z" fill="white"/>
<path d="M132.528 99.4403L125.697 102.363L125 100.794L131.835 97.8789L132.528 99.4403Z" fill="white"/>
<path d="M169.74 83.5215L136.911 97.5654L136.219 96.0077L169.065 82L169.74 83.5215Z" fill="white"/>
<path d="M145.596 99.9466L138.875 102.836L138.184 101.279L144.908 98.3965L145.596 99.9466Z" fill="white"/>
<path d="M182.216 84.2023L149.909 98.093L149.223 96.5474L181.546 82.6914L182.216 84.2023Z" fill="white"/>
<path d="M139.082 112.444L132.267 115.405L131.57 113.835L138.388 110.883L139.082 112.444Z" fill="white"/>
<path d="M176.207 96.3191L143.458 110.545L142.766 108.987L175.531 94.7969L176.207 96.3191Z" fill="white"/>
<path d="M152.122 111.89L145.418 114.817L144.727 113.26L151.434 110.34L152.122 111.89Z" fill="white"/>
<path d="M188.652 95.9425L156.424 110.013L155.738 108.467L187.982 94.4316L188.652 95.9425Z" fill="white"/>
<path d="M195.197 97.1318L168.892 108.791L168.211 107.258L194.528 95.627L195.197 97.1318Z" fill="white"/>
<path d="M145.565 128.791L138.795 131.852L138.098 130.282L144.871 127.229L145.565 128.791Z" fill="white"/>
<path d="M182.44 112.116L149.907 126.826L149.215 125.269L181.764 110.594L182.44 112.116Z" fill="white"/>
<path d="M158.531 128.074L151.871 131.1L151.18 129.542L157.843 126.523L158.531 128.074Z" fill="white"/>
<path d="M194.819 111.582L162.803 126.13L162.117 124.585L194.148 110.072L194.819 111.582Z" fill="white"/>
<path d="M186.441 64.969L206.616 110.392C207.091 111.463 206.464 112.794 205.209 113.371L176.758 126.408L155.328 78.1583L186.129 64.4727C186.26 64.6175 186.36 64.7865 186.441 64.969Z" fill="white"/>
<path d="M182.876 63.0757L119.912 89.2023C117.86 90.0539 116.787 92.0838 117.519 93.7335L118.471 95.8765L188.435 66.5554L187.528 64.515C186.831 62.9437 184.75 62.298 182.876 63.0757Z" fill="#276ED8"/>
<path d="M123.745 90.7987C123.984 91.3366 123.695 91.9724 123.098 92.2199C122.502 92.4673 121.823 92.2319 121.584 91.6933C121.344 91.1548 121.636 90.5181 122.233 90.2715C122.83 90.0248 123.507 90.2617 123.745 90.7987Z" fill="white"/>
<path d="M127.525 89.237C127.763 89.7726 127.476 90.4063 126.883 90.6522C126.289 90.8981 125.615 90.6627 125.377 90.1256C125.138 89.5885 125.426 88.9549 126.021 88.7097C126.613 88.4653 127.286 88.7014 127.525 89.237Z" fill="white"/>
<path d="M131.278 87.6832C131.515 88.2173 131.23 88.8487 130.641 89.0931C130.051 89.3375 129.38 89.1021 129.142 88.5673C128.905 88.0325 129.19 87.4003 129.78 87.1567C130.371 86.913 131.041 87.1484 131.278 87.6832Z" fill="white"/>
<path opacity="0.35" d="M162.739 90.69L189.143 79.4642C189.233 79.4258 189.304 79.3533 189.339 79.2621C189.376 79.1708 189.372 79.069 189.333 78.9792L185.633 70.6493C185.552 70.466 185.34 70.3815 185.155 70.4577L158.657 81.47C158.568 81.5069 158.497 81.5786 158.462 81.6691C158.427 81.7596 158.429 81.8607 158.469 81.9505L162.266 90.4999C162.347 90.6824 162.558 90.7669 162.739 90.69Z" fill="#84B5FF"/>
<path opacity="0.35" d="M190.96 83.1644L164.32 94.5983C164.232 94.6361 164.163 94.7077 164.129 94.7967C164.095 94.8865 164.098 94.9861 164.137 95.0743L175.998 121.781C176.038 121.871 176.113 121.942 176.204 121.977C176.296 122.013 176.398 122.01 176.487 121.97L202.842 109.894C203.022 109.812 203.102 109.602 203.021 109.42L191.444 83.3545C191.362 83.1704 191.146 83.0852 190.96 83.1644Z" fill="#84B5FF"/>
<path d="M109.307 141L100 162L114 160.988L109.307 141Z" fill="#195BBE"/>
<path d="M219.881 139.918V210.441L159.219 213.996L159.088 213.998L155.148 173.889L159.078 132.207L159.22 132.215L219.881 139.918Z" fill="#276ED8"/>
<path d="M158.992 132.207V213.998L109.336 208.403V140.881L119.449 139.107L137.275 135.996L158.992 132.207Z" fill="#3E85EE"/>
<path d="M158.961 132.209L186.122 157.551L238.998 160.521L219.62 139.918L158.961 132.209Z" fill="#195BBE"/>
<path d="M228.523 133.821C227.994 134.071 227.433 134.153 226.899 134.059L175.503 125.004C174.792 124.879 174.198 124.479 173.832 123.876C173.446 123.24 173.356 122.428 173.586 121.649L182.287 92.218L238.452 103.711L230.259 131.782C229.997 132.669 229.348 133.432 228.523 133.821Z" fill="#2DA531"/>
<path d="M183.123 93.6L174.763 121.879C174.486 122.819 174.97 123.704 175.843 123.858L227.231 132.912C228.018 133.051 228.868 132.443 229.131 131.553L237.05 104.765L183.123 93.6Z" fill="white"/>
<path d="M238.568 100.151L185.504 88.9931C184.608 88.8041 183.656 89.4101 183.38 90.3467L182.526 93.2374L238.748 104.805L239.557 102.066C239.817 101.178 239.375 100.321 238.568 100.151Z" fill="#06B25F"/>
<path opacity="0.2" d="M188.621 121.153L184.734 120.496L190.94 100.005L194.804 100.741L188.621 121.153Z" fill="#A7CFFF"/>
<path d="M188.58 120.929L184.702 120.273L187.288 111.416L191.161 112.092L188.58 120.929Z" fill="#84B5FF"/>
<path opacity="0.2" d="M199.114 123.347L195.308 122.704L201.448 102.431L205.23 103.152L199.114 123.347Z" fill="#A7CFFF"/>
<path d="M198.996 123.347L195.194 122.705L199.037 109.64L202.821 110.344L198.996 123.347Z" fill="#84B5FF"/>
<path opacity="0.2" d="M209.386 125.495L205.66 124.866L211.736 104.807L215.438 105.512L209.386 125.495Z" fill="#A7CFFF"/>
<path d="M209.431 125.165L205.707 124.536L210.897 107.397L214.601 108.092L209.431 125.165Z" fill="#84B5FF"/>
<path opacity="0.2" d="M219.444 127.599L215.796 126.982L221.808 107.133L225.434 107.824L219.444 127.599Z" fill="#A7CFFF"/>
<path d="M219.207 127.258L215.572 126.642L217.652 119.764L221.279 120.405L219.207 127.258Z" fill="#84B5FF"/>
</g>
<defs>
<filter id="filter0_d_100_6013" x="-18" y="-15" width="358" height="436" filterUnits="userSpaceOnUse" color-interpolation-filters="sRGB">
<feFlood flood-opacity="0" result="BackgroundImageFix"/>
<feColorMatrix in="SourceAlpha" type="matrix" values="0 0 0 0 0 0 0 0 0 0 0 0 0 0 0 0 0 0 127 0" result="hardAlpha"/>
<feMorphology radius="2" operator="dilate" in="SourceAlpha" result="effect1_dropShadow_100_6013"/>
<feOffset dy="3"/>
<feGaussianBlur stdDeviation="8"/>
<feColorMatrix type="matrix" values="0 0 0 0 0.113976 0 0 0 0 0.199896 0 0 0 0 0.420833 0 0 0 0.15 0"/>
<feBlend mode="normal" in2="BackgroundImageFix" result="effect1_dropShadow_100_6013"/>
<feBlend mode="normal" in="SourceGraphic" in2="effect1_dropShadow_100_6013" result="shape"/>
</filter>
<filter id="filter1_d_100_6013" x="106.5" y="55.7676" width="112.273" height="102.311" filterUnits="userSpaceOnUse" color-interpolation-filters="sRGB">
<feFlood flood-opacity="0" result="BackgroundImageFix"/>
<feColorMatrix in="SourceAlpha" type="matrix" values="0 0 0 0 0 0 0 0 0 0 0 0 0 0 0 0 0 0 127 0" result="hardAlpha"/>
<feOffset dy="4"/>
<feGaussianBlur stdDeviation="6"/>
<feColorMatrix type="matrix" values="0 0 0 0 0.160784 0 0 0 0 0.0941176 0 0 0 0 0.435294 0 0 0 0.15 0"/>
<feBlend mode="normal" in2="BackgroundImageFix" result="effect1_dropShadow_100_6013"/>
<feBlend mode="normal" in="SourceGraphic" in2="effect1_dropShadow_100_6013" result="shape"/>
</filter>
<clipPath id="clip0_100_6013">
<rect width="322" height="400" rx="16" fill="white"/>
</clipPath>
</defs>
</svg>
