<svg width="112" height="106" viewBox="0 0 112 106" fill="none" xmlns="http://www.w3.org/2000/svg">
<path d="M96.9947 42.6246C95.4119 41.7402 93.4123 42.2914 92.5215 43.8614C91.6275 45.4379 92.1818 47.4406 93.7583 48.3346C101.151 52.5228 105.439 57.6752 105.439 62.8439C105.439 71.8257 93.092 80.3139 75.0386 83.9701C73.2601 84.3321 72.113 86.0624 72.472 87.8378C72.8371 89.6304 74.591 90.7644 76.3397 90.4044C97.8695 86.0434 112.002 75.2255 112.002 62.8439C112.002 55.208 106.531 48.027 96.9947 42.6246V42.6246Z" fill="#06B25F"/>
<path d="M39.5938 91.0877V102.219C39.5938 103.43 40.2603 104.542 41.3273 105.112C42.3795 105.677 43.6778 105.627 44.6952 104.949L64.3827 91.824C65.296 91.2152 65.844 90.1897 65.844 89.094C65.844 87.9983 65.296 86.9728 64.3827 86.364L44.6952 73.239C43.6859 72.5725 42.3881 72.502 41.3273 73.0756C40.2603 73.6457 39.5938 74.7576 39.5938 75.9688V84.3729C20.4089 81.0862 6.5625 72.3568 6.5625 62.8438C6.5625 57.6752 10.8509 52.5225 18.2431 48.3345C19.8196 47.4405 20.3739 45.4378 19.4799 43.8613C18.5892 42.2911 16.5928 41.7401 15.0067 42.6245C5.47072 48.027 0 55.2079 0 62.8438C0 76.2112 15.9324 87.3582 39.5938 91.0877V91.0877Z" fill="#06B25F"/>
<path d="M82.2511 13.2374L57.4687 0.84613C56.5458 0.384786 55.4564 0.384786 54.5335 0.84613L29.75 13.2381L56.0011 26.3624L82.2511 13.2374Z" fill="#276ED8"/>
<path d="M85.5312 49.7189V18.9349L59.2812 32.0599C59.2812 32.7336 59.2812 65.5461 59.2812 64.8724L83.7176 52.6543C84.8295 52.0965 85.5312 50.9623 85.5312 49.7189V49.7189Z" fill="#276ED8"/>
<path d="M26.4688 49.7188C26.4688 50.9622 27.1705 52.0964 28.2824 52.654L52.7188 64.8723C52.7188 62.5688 52.7188 31.3856 52.7188 32.0598L26.4688 18.9359V49.7188Z" fill="#276ED8"/>
</svg>
