<svg width="94" height="94" viewBox="0 0 94 94" fill="none" xmlns="http://www.w3.org/2000/svg">
<path d="M52.0107 45.0598C53.0936 44.506 54.3 44.2132 55.5516 44.2132C57.6257 44.2132 59.5758 45.0184 61.0458 46.4807L64.2102 43.3166C72.0412 46.0616 81.0984 44.3043 87.3587 38.0443C92.6261 32.7768 94.7035 25.5295 93.5946 18.6981C93.4724 17.9458 92.9398 17.3253 92.2147 17.0912C91.4897 16.8568 90.6937 17.0473 90.155 17.5863L85.4564 22.2849C81.6301 26.1112 75.4259 26.1112 71.5996 22.2849C67.7729 18.4586 67.7729 12.2544 71.5996 8.42808L76.2982 3.72951C76.8372 3.19045 77.0293 2.39452 76.7946 1.66915C76.5602 0.943457 75.9387 0.412093 75.1861 0.289915C68.355 -0.81899 61.1073 1.25836 55.8402 6.52582C49.4869 12.8791 47.7771 22.1121 50.6991 30.0216L43.8359 36.8847L52.0107 45.0598Z" fill="#276ED8"/>
<path d="M39.5024 57.4963L31.362 49.3559L2.89704 77.8205C-0.804222 81.5218 -0.804222 87.5226 2.89704 91.2239C6.59831 94.9252 12.5992 94.9252 16.3004 91.2239L40.839 66.6856C38.364 64.1975 37.918 60.4411 39.5024 57.4963Z" fill="#276ED8"/>
<path d="M57.6564 49.8965C57.0744 49.3145 56.3112 49.0233 55.5483 49.0233C54.7854 49.0233 54.0222 49.3145 53.4402 49.8965L51.7409 51.5958L21.4715 21.3264L22.8863 19.9115C24.1754 18.6227 24.0154 16.4848 22.5461 15.4028L10.1961 6.30742C9.00928 5.43357 7.36228 5.55768 6.32008 6.59988L1.07635 11.8439C0.0341473 12.8861 -0.089955 14.5335 0.783892 15.72L9.87896 28.0699C10.9609 29.5389 13.0976 29.7006 14.3877 28.4102L15.8025 26.995L46.072 57.2644L44.2531 59.0833C43.0887 60.2477 43.0887 62.1352 44.2531 63.2996L72.1774 91.2239C75.8786 94.9252 81.8795 94.9252 85.5808 91.2239C89.282 87.5226 89.282 81.5218 85.5808 77.8205L57.6564 49.8965Z" fill="#06B25F"/>
</svg>
