<svg width="67" height="115" viewBox="0 0 67 115" fill="none" xmlns="http://www.w3.org/2000/svg">
<g clip-path="url(#clip0_608_5690)">
<path d="M59.8769 0H7.12534C3.19632 0 0 3.24398 0 7.23V12H67V7.23C67.0002 3.24398 63.8041 0 59.8769 0ZM43.3537 9.22992H23.649C22.5614 9.22992 21.6786 8.33391 21.6786 7.23C21.6786 6.12609 22.5614 5.23008 23.649 5.23008H43.3537C44.4413 5.23008 45.3241 6.12609 45.3241 7.23C45.3241 8.33391 44.4413 9.22992 43.3537 9.22992Z" fill="#276ED8"/>
<path d="M34.8779 101.583H30.1189C29.3177 101.583 28.6641 102.235 28.6641 103.038V103.964C28.6641 104.765 29.3157 105.417 30.1189 105.417H34.8779C35.6791 105.417 36.3307 104.765 36.3307 103.964V103.038C36.3327 102.235 35.6791 101.583 34.8779 101.583Z" fill="#276ED8"/>
<path d="M67 15.0001H0V92.0001H67V15.0001Z" fill="#276ED8"/>
<path d="M48.0748 56.5957L53 55.6693V51.2536L48.0748 50.4045C47.6966 48.5903 46.9786 46.892 45.9905 45.3866L48.8159 41.2412L45.6894 38.1147L41.6057 41.0018C40.1003 40.0137 38.4097 39.3035 36.5879 38.9252L35.6615 34.0001H31.2458L30.3967 38.9252C28.5825 39.3035 26.8842 40.0214 25.3789 41.0096L21.2411 38.1841L18.1146 41.3106L21.0018 45.3944C20.0137 46.8997 19.3034 48.598 18.9252 50.4122L14 51.3385V55.7542L18.9252 56.6034C19.3034 58.4252 20.0214 60.1159 21.0095 61.6212L18.1841 65.759L21.3106 68.8855L25.402 65.9983C26.9074 66.9864 28.6057 67.7043 30.4198 68.0749L31.3462 73.0001H35.7619L36.611 68.0749C38.4329 67.6966 40.1235 66.9787 41.6289 65.9906L45.7666 68.816L48.8931 65.6895L46.0059 61.6058C46.9863 60.1081 47.6966 58.4175 48.0748 56.5957ZM33.5 62.6479C28.4513 62.6479 24.3599 58.5488 24.3599 53.5078C24.3599 48.4668 28.4513 44.3676 33.5 44.3676C38.5487 44.3676 42.6401 48.4591 42.6401 53.5078C42.6401 58.5565 38.5487 62.6479 33.5 62.6479Z" fill="#66D6A0"/>
<path d="M0 95.9999V108.131C0 111.918 3.19618 115 7.12346 115H59.8765C63.8038 115 67 111.918 67 108.131V95.9999H0Z" fill="#276ED8"/>
</g>
<defs>
<clipPath id="clip0_608_5690">
<rect width="67" height="115" fill="white"/>
</clipPath>
</defs>
</svg>
