<svg width="112" height="112" viewBox="0 0 112 112" fill="none" xmlns="http://www.w3.org/2000/svg">
<g clip-path="url(#clip0_616_5720)">
<path d="M42.0013 0C29.1353 0 18.668 10.4673 18.668 23.3333C18.668 36.1993 29.1353 46.6667 42.0013 46.6667C54.8673 46.6667 65.3346 36.1993 65.3346 23.3333C65.3346 10.4673 54.8673 0 42.0013 0Z" fill="#276ED8"/>
<path d="M77.3839 111.907C75.4986 111.473 74.3273 109.597 74.7566 107.711L81.7566 77.378C82.1953 75.4974 84.0759 74.3073 85.9519 74.7553C87.8373 75.1893 89.0086 77.0654 88.5793 78.9507L81.5793 109.284C81.1359 111.216 79.1993 112.35 77.3839 111.907Z" fill="#06B25F"/>
<path d="M96.834 107.333C95.8774 107.333 94.9254 106.941 94.23 106.176C92.9374 104.734 93.054 102.527 94.4914 101.229L103.269 93.3334L94.4914 85.4374C93.054 84.1447 92.9374 81.9327 94.23 80.4907C95.5274 79.0534 97.7394 78.9414 99.1767 80.2294L110.843 90.7294C111.581 91.3967 112.001 92.3394 112.001 93.3334C112.001 94.3274 111.581 95.27 110.843 95.9374L99.1767 106.437C98.5047 107.039 97.6694 107.333 96.834 107.333Z" fill="#06B25F"/>
<path d="M66.4987 107.333C65.6634 107.333 64.828 107.039 64.156 106.437L52.4894 95.9373C51.752 95.27 51.332 94.3273 51.332 93.3333C51.332 92.3393 51.752 91.3966 52.4894 90.7293L64.156 80.2293C65.5934 78.9413 67.8054 79.058 69.1027 80.4906C70.3954 81.9326 70.2787 84.14 68.8414 85.4373L60.0634 93.3333L68.8414 101.229C70.2787 102.522 70.3954 104.734 69.1027 106.176C68.4074 106.941 67.4554 107.333 66.4987 107.333Z" fill="#06B25F"/>
<path d="M43.1667 93.3333C43.1667 89.712 44.7113 86.2353 47.3993 83.8087L59.08 73.2947C61.4507 71.1667 64.4933 70.0047 67.662 70.0047C70.2893 70.0047 72.828 70.8353 74.9607 72.3053C76.5473 69.202 79.31 66.906 82.6093 65.9027C78.6287 59.9387 71.8527 56 64.1667 56H22.1667C9.94467 56 0 65.9447 0 78.1667V96.8333C0 98.7653 1.568 100.333 3.5 100.333H45.304C43.9507 98.2613 43.1667 95.844 43.1667 93.3333V93.3333Z" fill="#276ED8"/>
</g>
<defs>
<clipPath id="clip0_616_5720">
<rect width="112" height="112" fill="white"/>
</clipPath>
</defs>
</svg>
