<svg width="86" height="86" viewBox="0 0 86 86" fill="none" xmlns="http://www.w3.org/2000/svg">
<g clip-path="url(#clip0_616_5738)">
<circle cx="43" cy="61" r="18" fill="#DFECFC"/>
<path d="M43.0013 48.4084C36.1513 48.4084 30.5781 53.9815 30.5781 60.8315C30.5781 67.6815 36.1513 73.2546 43.0013 73.2546C49.8512 73.2546 55.4244 67.6815 55.4244 60.8315C55.4244 53.9815 49.8512 48.4084 43.0013 48.4084ZM38.3821 68.6775V52.9855L51.34 60.8315L38.3821 68.6775Z" fill="#06B25F"/>
<path d="M86.0019 19.037C85.998 16.1723 84.5381 11.958 77.6146 8.13084C72.8223 5.4814 66.2137 3.46184 58.5036 2.29065L55.6055 1.84973V32.5257C62.6241 31.7449 69.041 30.3106 74.3287 28.3022C81.2253 25.6823 85.5098 22.2619 86.0019 19.037Z" fill="#276ED8"/>
<path d="M42.9999 38.247C30.5302 38.247 18.7692 36.3882 9.88389 33.0131C5.77851 31.4534 2.46113 29.6196 0 27.5856V66.0936C0 71.3217 4.78776 76.0195 13.4814 79.3218C21.4061 82.3321 31.8891 83.9895 42.9999 83.9895C54.1108 83.9895 64.5944 82.3321 72.5184 79.3218C81.2121 76.0195 85.9998 71.3217 85.9998 66.0936V27.5856C83.5387 29.6196 80.2213 31.4534 76.1159 33.0131C67.2307 36.3882 55.4696 38.247 42.9999 38.247V38.247ZM42.9999 78.2943C33.3713 78.2943 25.5378 70.4602 25.5378 60.8315C25.5378 51.2022 33.3713 43.3687 42.9999 43.3687C52.6292 43.3687 60.4627 51.2022 60.4627 60.8315C60.4627 70.4602 52.6292 78.2943 42.9999 78.2943V78.2943Z" fill="#276ED8"/>
<path d="M11.6732 28.3022C16.9583 30.3093 23.3713 31.7436 30.3866 32.5244V1.84778L27.4885 2.28804C19.779 3.45857 13.1724 5.47879 8.38138 8.12955C1.46317 11.9574 0.00393677 16.1717 0 19.037C0.492752 22.2619 4.77661 25.6823 11.6732 28.3022Z" fill="#276ED8"/>
</g>
<defs>
<clipPath id="clip0_616_5738">
<rect width="86" height="86" fill="white"/>
</clipPath>
</defs>
</svg>
