<svg width="113" height="67" viewBox="0 0 113 67" fill="none" xmlns="http://www.w3.org/2000/svg">
<path d="M85.9309 12.7285H70.4803V28.0925H41.9481V12.7285H26.4907C20.5657 12.7285 15.6185 16.987 14.543 22.6032V56.3536C15.6185 61.9698 20.5657 66.2274 26.4907 66.2274H34.5145L37.7043 48.0442H74.7242L77.914 66.2274H85.9309C91.8559 66.2274 96.8031 61.9698 97.8787 56.3536V22.6032C96.804 16.987 91.8559 12.7285 85.9309 12.7285Z" fill="#276ED8"/>
<path d="M48.5312 0H63.8952V21.5076H48.5312V0Z" fill="#06B25F"/>
<path d="M0 23.1169H7.95858V55.839H0V23.1169Z" fill="#276ED8"/>
<path d="M104.465 23.1169H112.422V55.839H104.465V23.1169Z" fill="#276ED8"/>
<path d="M43.2345 54.6274L41.1992 66.227H71.2298L69.1945 54.6274H43.2345Z" fill="#06B25F"/>
</svg>
