<svg width="126" height="230" viewBox="0 0 126 230" fill="none" xmlns="http://www.w3.org/2000/svg">
<g opacity="0.12">
<path d="M112.618 0H13.382C5.99171 0 0 5.97522 0 13.3498V178.088V215.672C0 223.104 6.05519 229.022 13.382 229.022H112.618C120.006 229.022 126 223.049 126 215.672V50.9335V13.3498C126 5.90985 119.937 0 112.618 0Z" fill="#276ED8"/>
<path d="M119.514 18.1934H6.48828V210.827H119.514V18.1934Z" fill="white"/>
<path d="M86.3032 12.1411H39.8828C39.3463 12.1411 38.9102 11.7081 38.9102 11.1708V10.6969C38.9102 10.1617 39.3443 9.72656 39.8828 9.72656H86.3032C86.8397 9.72656 87.2759 10.1596 87.2759 10.6969V11.1708C87.2739 11.706 86.8397 12.1411 86.3032 12.1411Z" fill="white"/>
<path d="M119.514 199.434H6.48828V210.828H119.514V199.434Z" fill="#84B5FF"/>
<path d="M119.514 18.1934H6.48828V28.4156H119.514V18.1934Z" fill="#84B5FF"/>
</g>
</svg>
