<svg width="515" height="414" viewBox="0 0 515 414" fill="none" xmlns="http://www.w3.org/2000/svg">
<g clip-path="url(#clip0_440_5574)">
<path d="M67.7881 29.3484C14.2585 15.1111 -65.3789 -40 -65.3789 -40L-73.9997 413.501C-73.9997 413.501 65.2242 340.843 157.379 340.998C226.743 341.114 271.255 352.107 340.279 366.706C420.153 383.599 538.698 420.198 538.698 420.198L544.881 94.9471C544.881 94.9471 413.673 27.8787 324.874 11.4185C223.675 -7.33991 168.479 56.1292 67.7881 29.3484Z" fill="#276ED8" fill-opacity="0.1"/>
<path d="M112.186 64.8892C66.8862 57.1073 -1.05078 17 -1.05078 17V399C-1.05078 399 115.013 327.009 192.61 319.927C251.016 314.596 288.671 320.356 347.024 327.229C414.548 335.182 514.949 356.679 514.949 356.679V82.7085C514.949 82.7085 403.399 36.5831 328.366 29.6924C242.856 21.8396 197.397 79.5273 112.186 64.8892Z" fill="#276ED8"/>
</g>
<defs>
<clipPath id="clip0_440_5574">
<rect width="515" height="414" fill="white"/>
</clipPath>
</defs>
</svg>
