<svg width="50" height="50" viewBox="0 0 50 50" fill="none" xmlns="http://www.w3.org/2000/svg">
<g clip-path="url(#clip0_623_5687)">
<path d="M18.7487 -7.62939e-06C13.0049 -7.62939e-06 8.33203 4.67291 8.33203 10.4167C8.33203 16.1604 13.0049 20.8333 18.7487 20.8333C24.4924 20.8333 29.1654 16.1604 29.1654 10.4167C29.1654 4.67291 24.4924 -7.62939e-06 18.7487 -7.62939e-06Z" fill="#276ED8"/>
<path d="M34.5445 49.9584C33.7029 49.7646 33.1799 48.9271 33.3716 48.0854L36.4966 34.5438C36.6924 33.7042 37.532 33.1729 38.3695 33.3729C39.2112 33.5667 39.7341 34.4042 39.5424 35.2458L36.4174 48.7875C36.2195 49.65 35.3549 50.1563 34.5445 49.9584Z" fill="#06B25F"/>
<path d="M43.2314 47.9167C42.8043 47.9167 42.3793 47.7417 42.0689 47.4C41.4918 46.7563 41.5439 45.7709 42.1855 45.1917L46.1043 41.6667L42.1855 38.1417C41.5439 37.5646 41.4918 36.5771 42.0689 35.9334C42.648 35.2917 43.6355 35.2417 44.2772 35.8167L49.4855 40.5042C49.8147 40.8021 50.0022 41.2229 50.0022 41.6667C50.0022 42.1104 49.8147 42.5313 49.4855 42.8292L44.2772 47.5167C43.9772 47.7854 43.6043 47.9167 43.2314 47.9167Z" fill="#06B25F"/>
<path d="M29.6888 47.9167C29.3159 47.9167 28.943 47.7854 28.643 47.5167L23.4346 42.8292C23.1055 42.5313 22.918 42.1104 22.918 41.6667C22.918 41.2229 23.1055 40.8021 23.4346 40.5042L28.643 35.8167C29.2846 35.2417 30.2721 35.2938 30.8513 35.9333C31.4284 36.5771 31.3763 37.5625 30.7346 38.1417L26.8159 41.6667L30.7346 45.1917C31.3763 45.7688 31.4284 46.7563 30.8513 47.4C30.5409 47.7417 30.1159 47.9167 29.6888 47.9167Z" fill="#06B25F"/>
<path d="M19.2708 41.6667C19.2708 40.05 19.9604 38.4979 21.1604 37.4146L26.375 32.7208C27.4333 31.7708 28.7917 31.2521 30.2062 31.2521C31.3792 31.2521 32.5125 31.6229 33.4646 32.2792C34.1729 30.8937 35.4062 29.8687 36.8792 29.4208C35.1021 26.7583 32.0771 25 28.6458 25H9.89583C4.43958 25 0 29.4396 0 34.8958V43.2292C0 44.0917 0.7 44.7917 1.5625 44.7917H20.225C19.6208 43.8667 19.2708 42.7875 19.2708 41.6667V41.6667Z" fill="#276ED8"/>
</g>
<defs>
<clipPath id="clip0_623_5687">
<rect width="50" height="50" fill="white"/>
</clipPath>
</defs>
</svg>
