<svg width="65" height="38" viewBox="0 0 65 38" fill="none" xmlns="http://www.w3.org/2000/svg">
<path d="M49.2395 7.29395H40.3859V16.098H24.0361V7.29395H15.1785C11.7833 7.29395 8.94836 9.73418 8.33203 12.9524V32.2925C8.94836 35.5107 11.7833 37.9505 15.1785 37.9505H19.7763L21.6042 27.531H42.8178L44.6456 37.9505H49.2395C52.6347 37.9505 55.4696 35.5107 56.086 32.2925V12.9524C55.4701 9.73418 52.6347 7.29395 49.2395 7.29395Z" fill="#276ED8"/>
<path d="M27.8086 0H36.6126V12.3245H27.8086V0Z" fill="#06B25F"/>
<path d="M0 13.2467H4.56052V31.9975H0V13.2467Z" fill="#276ED8"/>
<path d="M59.8594 13.2467H64.4189V31.9975H59.8594V13.2467Z" fill="#276ED8"/>
<path d="M24.7757 31.3033L23.6094 37.9502H40.8178L39.6515 31.3033H24.7757Z" fill="#06B25F"/>
</svg>
