<svg width="31" height="53" viewBox="0 0 31 53" fill="none" xmlns="http://www.w3.org/2000/svg">
<g clip-path="url(#clip0_613_5707)">
<g clip-path="url(#clip1_613_5707)">
<path d="M27.0887 1H3.41627C1.65311 1 0.21875 2.45575 0.21875 4.24449V6.38504H30.2852V4.24449C30.2853 2.45575 28.8511 1 27.0887 1ZM19.6739 5.14196H10.8313C10.3433 5.14196 9.94711 4.73987 9.94711 4.24449C9.94711 3.74911 10.3433 3.34702 10.8313 3.34702H19.6739C20.1619 3.34702 20.5581 3.74911 20.5581 4.24449C20.5581 4.73987 20.1619 5.14196 19.6739 5.14196Z" fill="#276ED8"/>
<path d="M15.8705 46.5859H13.7349C13.3753 46.5859 13.082 46.8783 13.082 47.2388V47.6542C13.082 48.0138 13.3744 48.3062 13.7349 48.3062H15.8705C16.23 48.3062 16.5224 48.0138 16.5224 47.6542V47.2388C16.5234 46.8783 16.23 46.5859 15.8705 46.5859Z" fill="#276ED8"/>
<path d="M30.2852 7.73137H0.21875V42.2854H30.2852V7.73137Z" fill="#276ED8"/>
<path d="M21.7912 26.3975L24.0014 25.9818V24.0003L21.7912 23.6192C21.6214 22.8051 21.2993 22.043 20.8558 21.3675L22.1238 19.5072L20.7207 18.1041L18.8882 19.3998C18.2126 18.9563 17.454 18.6376 16.6364 18.4679L16.2207 16.2577H14.2391L13.8581 18.4679C13.044 18.6376 12.2818 18.9598 11.6063 19.4032L9.74946 18.1353L8.34645 19.5383L9.64207 21.3709C9.19865 22.0464 8.87994 22.8086 8.71019 23.6227L6.5 24.0384V26.0199L8.71019 26.401C8.87994 27.2186 9.20211 27.9772 9.64554 28.6528L8.37762 30.5096L9.78064 31.9126L11.6167 30.617C12.2922 31.0604 13.0544 31.3826 13.8685 31.5489L14.2842 33.7591H16.2657L16.6468 31.5489C17.4643 31.3791 18.223 31.057 18.8985 30.6135L20.7554 31.8815L22.1584 30.4784L20.8628 28.6458C21.3027 27.9738 21.6214 27.2151 21.7912 26.3975ZM15.2507 29.1135C12.9851 29.1135 11.149 27.274 11.149 25.0118C11.149 22.7497 12.9851 20.9102 15.2507 20.9102C17.5163 20.9102 19.3524 22.7462 19.3524 25.0118C19.3524 27.2775 17.5163 29.1135 15.2507 29.1135Z" fill="#66D6A0"/>
<path d="M0.21875 44.0802V49.5243C0.21875 51.2236 1.65305 52.6066 3.41543 52.6066H27.0886C28.8509 52.6066 30.2852 51.2236 30.2852 49.5243V44.0802H0.21875Z" fill="#276ED8"/>
</g>
</g>
<defs>
<clipPath id="clip0_613_5707">
<rect width="31" height="53" fill="white"/>
</clipPath>
<clipPath id="clip1_613_5707">
<rect width="51.6066" height="51.6066" fill="white" transform="translate(-11 1)"/>
</clipPath>
</defs>
</svg>
