<svg width="50" height="50" viewBox="0 0 50 50" fill="none" xmlns="http://www.w3.org/2000/svg">
<path d="M36.0813 17.5735C31.6316 17.5735 29.8749 20.6415 28.9424 22.864C28.2247 21.41 26.7268 20.4082 24.9994 20.4082C23.2721 20.4082 21.7742 21.41 21.0565 22.864C20.1239 20.6415 18.3683 17.5735 13.9175 17.5735C3.65491 17.5735 0.0117188 38.296 0.0117188 42.486C0.0117188 48.0323 3.12371 49.9999 5.78848 49.9999C10.4765 49.9999 15.518 41.987 17.9503 37.9845H32.0485C34.4789 41.9841 39.539 49.9999 44.2104 49.9999C46.8752 49.9999 49.9871 48.0323 49.9871 42.486C49.9871 40.7245 47.2413 17.5735 36.0813 17.5735Z" fill="#276ED8"/>
<path d="M14.7338 30.1515H16.1985C17.007 30.1515 17.6632 29.4953 17.6632 28.6868C17.6632 27.8783 17.007 27.2221 16.1985 27.2221H14.7338V25.7574C14.7338 24.9489 14.0776 24.2927 13.2691 24.2927C12.4606 24.2927 11.8044 24.9489 11.8044 25.7574V27.2221H10.3397C9.53118 27.2221 8.875 27.8783 8.875 28.6868C8.875 29.4953 9.53118 30.1515 10.3397 30.1515H11.8044V31.6162C11.8044 32.4247 12.4606 33.0809 13.2691 33.0809C14.0776 33.0809 14.7338 32.4247 14.7338 31.6162V30.1515Z" fill="#66D6A0"/>
<path d="M22.0573 33.0809H27.916C28.7246 33.0809 29.3807 32.4247 29.3807 31.6162C29.3807 30.8077 28.7246 30.1515 27.916 30.1515H22.0573C21.2488 30.1515 20.5926 30.8077 20.5926 31.6162C20.5926 32.4247 21.2488 33.0809 22.0573 33.0809Z" fill="#66D6A0"/>
<path d="M38.1689 25.7574C38.1689 24.9489 37.5127 24.2927 36.7042 24.2927C35.8957 24.2927 35.2395 24.9489 35.2395 25.7574C35.2395 26.5659 35.8957 27.2221 36.7042 27.2221C37.5127 27.2221 38.1689 26.5659 38.1689 25.7574Z" fill="#66D6A0"/>
<path d="M32.3101 28.6868C32.3101 29.4953 32.9663 30.1515 33.7748 30.1515C34.5833 30.1515 35.2395 29.4953 35.2395 28.6868C35.2395 27.8783 34.5833 27.2221 33.7748 27.2221C32.9663 27.2221 32.3101 27.8783 32.3101 28.6868Z" fill="#66D6A0"/>
<path d="M35.2395 31.6162C35.2395 32.4247 35.8957 33.0809 36.7042 33.0809C37.5127 33.0809 38.1689 32.4247 38.1689 31.6162C38.1689 30.8077 37.5127 30.1515 36.7042 30.1515C35.8957 30.1515 35.2395 30.8077 35.2395 31.6162Z" fill="#66D6A0"/>
<path d="M38.1689 28.6868C38.1689 29.4953 38.8251 30.1515 39.6336 30.1515C40.4421 30.1515 41.0983 29.4953 41.0983 28.6868C41.0983 27.8783 40.4421 27.2221 39.6336 27.2221C38.8251 27.2221 38.1689 27.8783 38.1689 28.6868Z" fill="#66D6A0"/>
<path d="M26.5829 17.6499C26.0703 17.5376 25.5401 17.479 24.9991 17.479C24.5353 17.479 24.0803 17.5219 23.6379 17.604C23.5061 15.7213 23.0921 13.7518 22.0853 12.7451C19.4964 10.1561 13.0693 11.9677 9.34346 11.9112C3.08354 11.8166 -0.0823481 8.28274 0.00162778 3.81659C0.018423 2.92244 0.0698826 1.99089 0.358037 1.04216C0.591412 0.266849 1.40871 -0.170607 2.18305 0.0627683C2.95543 0.296143 3.39386 1.10954 3.16439 1.88192C1.77205 6.63838 4.85036 10.2023 13.0198 8.71424C16.3981 8.07505 21.6331 8.14975 24.1564 10.673C25.5821 12.0987 26.3984 14.4461 26.5829 17.6499V17.6499Z" fill="#276ED8"/>
</svg>
