<svg width="52" height="52" viewBox="0 0 52 52" fill="none" xmlns="http://www.w3.org/2000/svg">
<path d="M28.7058 24.9264C29.3048 24.62 29.9722 24.4581 30.6646 24.4581C31.812 24.4581 32.8907 24.9035 33.7039 25.7125L35.4545 23.9621C39.7865 25.4806 44.7969 24.5085 48.26 21.0455C51.1739 18.1316 52.3231 14.1224 51.7097 10.3434C51.6421 9.9272 51.3474 9.58393 50.9463 9.45443C50.5452 9.32476 50.1049 9.43013 49.8069 9.72833L47.2077 12.3275C45.091 14.4442 41.6589 14.4442 39.5422 12.3275C37.4253 10.2109 37.4253 6.77877 39.5422 4.66207L42.1414 2.06286C42.4396 1.76466 42.5459 1.32436 42.416 0.92309C42.2864 0.521642 41.9426 0.227696 41.5262 0.160108C37.7473 -0.453328 33.738 0.695845 30.8242 3.60976C27.3097 7.12433 26.3638 12.2319 27.9802 16.6074L24.1836 20.404L28.7058 24.9264Z" fill="#276ED8"/>
<path d="M21.7854 31.8061L17.2822 27.3029L1.53563 43.0493C-0.511877 45.0969 -0.511877 48.4165 1.53563 50.464C3.58314 52.5115 6.90276 52.5115 8.95026 50.464L22.5248 36.8896C21.1557 35.5132 20.9089 33.4352 21.7854 31.8061Z" fill="#276ED8"/>
<path d="M31.8296 27.6021C31.5076 27.2801 31.0854 27.1191 30.6634 27.1191C30.2413 27.1191 29.8191 27.2801 29.4972 27.6021L28.5571 28.5421L11.8123 11.7973L12.595 11.0147C13.3081 10.3017 13.2196 9.11902 12.4068 8.52048L5.57491 3.48899C4.91837 3.00559 4.00726 3.07424 3.43072 3.65078L0.529936 6.55174C-0.046602 7.12828 -0.115254 8.03956 0.368151 8.69593L5.39946 15.5278C5.998 16.3405 7.17999 16.4299 7.89366 15.716L8.67633 14.9332L25.4211 31.678L24.4149 32.6842C23.7708 33.3283 23.7708 34.3724 24.4149 35.0166L39.8624 50.4641C41.9099 52.5116 45.2295 52.5116 47.2771 50.4641C49.3246 48.4166 49.3246 45.0969 47.2771 43.0494L31.8296 27.6021Z" fill="#06B25F"/>
</svg>
