<svg width="58" height="55" viewBox="0 0 58 55" fill="none" xmlns="http://www.w3.org/2000/svg">
<path d="M50.2294 21.8145C49.4097 21.3565 48.3742 21.642 47.9129 22.455C47.4499 23.2714 47.737 24.3085 48.5534 24.7715C52.3816 26.9404 54.6024 29.6086 54.6024 32.2852C54.6024 36.9365 48.2084 41.3322 38.8593 43.2256C37.9383 43.413 37.3442 44.3091 37.5301 45.2285C37.7192 46.1568 38.6275 46.7441 39.5331 46.5576C50.6824 44.2992 58.0008 38.6972 58.0008 32.2852C58.0008 28.3309 55.1678 24.6122 50.2294 21.8145V21.8145Z" fill="#06B25F"/>
<path d="M20.5039 46.9114V52.6757C20.5039 53.303 20.8491 53.8788 21.4017 54.1742C21.9465 54.4665 22.6189 54.4408 23.1457 54.0896L33.3411 47.2927C33.814 46.9775 34.0978 46.4464 34.0978 45.879C34.0978 45.3116 33.814 44.7805 33.3411 44.4652L23.1457 37.6684C22.6231 37.3232 21.951 37.2867 21.4017 37.5837C20.8491 37.879 20.5039 38.4548 20.5039 39.082V43.4342C10.5689 41.7321 3.39844 37.2115 3.39844 32.2851C3.39844 29.6085 5.6192 26.9402 9.44732 24.7714C10.2637 24.3084 10.5508 23.2713 10.0878 22.4549C9.62653 21.6418 8.59272 21.3564 7.77132 21.8144C2.83305 24.6121 0 28.3308 0 32.2851C0 39.2075 8.25073 44.9801 20.5039 46.9114V46.9114Z" fill="#06B25F"/>
<path d="M42.5943 6.59611L29.7606 0.179183C29.2826 -0.0597275 28.7185 -0.0597275 28.2406 0.179183L15.4062 6.59645L29.0006 13.393L42.5943 6.59611Z" fill="#276ED8"/>
<path d="M44.293 25.4883V9.54652L30.6992 16.3434C30.6992 16.6923 30.6992 33.6845 30.6992 33.3356L43.3538 27.0084C43.9296 26.7195 44.293 26.1321 44.293 25.4883V25.4883Z" fill="#276ED8"/>
<path d="M13.707 25.4882C13.707 26.1321 14.0704 26.7194 14.6462 27.0082L27.3008 33.3355C27.3008 32.1427 27.3008 15.9942 27.3008 16.3433L13.707 9.54701V25.4882Z" fill="#276ED8"/>
</svg>
