<svg width="50" height="50" viewBox="0 0 50 50" fill="none" xmlns="http://www.w3.org/2000/svg">
<g clip-path="url(#clip0_623_5703)">
<ellipse cx="25.0003" cy="35.4651" rx="10.4651" ry="10.4651" fill="#DFECFC"/>
<path d="M25.0001 28.1444C21.0175 28.1444 17.7773 31.3846 17.7773 35.3671C17.7773 39.3497 21.0175 42.5899 25.0001 42.5899C28.9826 42.5899 32.2228 39.3497 32.2228 35.3671C32.2228 31.3846 28.9826 28.1444 25.0001 28.1444ZM22.3145 39.9287V30.8055L29.8482 35.3671L22.3145 39.9287Z" fill="#06B25F"/>
<path d="M50.0005 11.0681C49.9982 9.40257 49.1494 6.95239 45.1241 4.72728C42.3379 3.1869 38.4957 2.01274 34.0131 1.33182L32.3281 1.07547V18.9103C36.4087 18.4564 40.1395 17.6225 43.2137 16.4548C47.2234 14.9316 49.7144 12.943 50.0005 11.0681Z" fill="#276ED8"/>
<path d="M25 22.2367C17.7501 22.2367 10.9123 21.156 5.74645 19.1937C3.3596 18.2869 1.43089 17.2207 0 16.0382V38.4266C0 41.4661 2.78358 44.1975 7.83804 46.1174C12.4454 47.8676 18.5402 48.8312 25 48.8312C31.4597 48.8312 37.5549 47.8676 42.1619 46.1174C47.2163 44.1975 49.9999 41.4661 49.9999 38.4266V16.0382C48.569 17.2207 46.6403 18.2869 44.2535 19.1937C39.0876 21.156 32.2498 22.2367 25 22.2367V22.2367ZM25 45.52C19.4019 45.52 14.8475 40.9653 14.8475 35.3672C14.8475 29.7688 19.4019 25.2144 25 25.2144C30.5984 25.2144 35.1527 29.7688 35.1527 35.3672C35.1527 40.9653 30.5984 45.52 25 45.52V45.52Z" fill="#276ED8"/>
<path d="M6.78673 16.4548C9.85947 17.6217 13.588 18.4556 17.6666 18.9095V1.07431L15.9817 1.33028C11.4994 2.01082 7.65839 3.18536 4.87289 4.7265C0.850677 6.952 0.00228882 9.40218 0 11.0681C0.286484 12.943 2.7771 14.9316 6.78673 16.4548Z" fill="#276ED8"/>
</g>
<defs>
<clipPath id="clip0_623_5703">
<rect width="50" height="50" fill="white"/>
</clipPath>
</defs>
</svg>
