<svg width="44" height="51" viewBox="0 0 44 51" fill="none" xmlns="http://www.w3.org/2000/svg">
<path d="M43.239 14.388L43.2374 14.3491C43.2157 13.8689 43.2012 13.3607 43.1924 12.7954C43.1516 10.0385 40.9601 7.75812 38.2028 7.604C32.4541 7.28319 28.0069 5.40865 24.2071 1.70497L24.1747 1.67407C22.9353 0.537679 21.0657 0.537679 19.8259 1.67407L19.7935 1.70497C15.9937 5.40865 11.5465 7.28319 5.7978 7.60439C3.04093 7.75812 0.849011 10.0385 0.808194 12.7958C0.799802 13.3573 0.784925 13.8654 0.763181 14.3491L0.760892 14.4395C0.649122 20.3016 0.510267 27.5972 2.9509 34.2191C4.29291 37.8606 6.32538 41.026 8.99146 43.628C12.028 46.5912 16.0051 48.9438 20.8124 50.6199C20.9688 50.6745 21.1313 50.7187 21.2969 50.7519C21.5303 50.7985 21.7653 50.8217 22.0003 50.8217C22.2353 50.8217 22.4707 50.7985 22.7037 50.7519C22.8693 50.7187 23.0329 50.6741 23.1901 50.6192C27.9917 48.94 31.9646 46.5863 34.9985 43.6234C37.6634 41.0207 39.6959 37.8545 41.039 34.2122C43.4888 27.5705 43.3503 20.2611 43.239 14.388ZM38.2863 33.1971C35.7122 40.1765 30.4575 44.9696 22.2219 47.8497C22.1926 47.8596 22.1613 47.8684 22.1289 47.8749C22.0438 47.8917 21.9572 47.8917 21.871 47.8745C21.8389 47.868 21.8077 47.8596 21.7787 47.8497C13.5344 44.975 8.27621 40.1845 5.70396 33.2047C3.45444 27.1009 3.58185 20.4038 3.69439 14.4956L3.69515 14.4628C3.71804 13.9551 3.7333 13.4233 3.74169 12.8389C3.76 11.6148 4.73503 10.602 5.96145 10.5337C9.21462 10.3521 12.0726 9.72344 14.6986 8.61184C17.3212 7.50177 19.6505 5.93699 21.8187 3.82823C21.929 3.73515 22.072 3.73477 22.1819 3.82823C24.3505 5.93699 26.6798 7.50177 29.302 8.61184C31.928 9.72344 34.786 10.3521 38.0395 10.5337C39.266 10.602 40.241 11.6148 40.2589 12.8393C40.2677 13.4267 40.283 13.9585 40.3058 14.4628C40.418 20.3779 40.5424 27.0803 38.2863 33.1971Z" fill="#244D4D"/>
<path d="M21.9998 13.3618C15.1287 13.3618 9.53906 18.9519 9.53906 25.8225C9.53906 32.6936 15.1287 38.2836 21.9998 38.2836C28.8704 38.2836 34.4605 32.6936 34.4605 25.8225C34.4605 18.9519 28.8704 13.3618 21.9998 13.3618ZM21.9998 35.3493C16.7466 35.3493 12.4729 31.0757 12.4729 25.8225C12.4729 20.5693 16.7466 16.2957 21.9998 16.2957C27.2526 16.2957 31.5262 20.5693 31.5262 25.8225C31.5262 31.0757 27.2526 35.3493 21.9998 35.3493Z" fill="#244D4D"/>
<path d="M25.5806 21.9539L19.7929 27.7416L18.222 26.1707C17.6491 25.5977 16.7202 25.5977 16.1472 26.1707C15.5746 26.7437 15.5746 27.6726 16.1472 28.2451L18.7557 30.8536C19.0422 31.1401 19.4176 31.2832 19.7929 31.2832C20.1683 31.2832 20.5437 31.1401 20.8301 30.8536L27.6554 24.0284C28.228 23.4554 28.228 22.5265 27.6554 21.9539C27.0824 21.3806 26.1535 21.3806 25.5806 21.9539Z" fill="#244D4D"/>
</svg>
