<svg width="50" height="50" viewBox="0 0 50 50" fill="none" xmlns="http://www.w3.org/2000/svg">
<path d="M47.3217 17.538C46.6619 15.4951 46.9432 12.4284 45.2283 10.0605C43.5 7.67396 40.494 6.99564 38.7967 5.75423C37.1172 4.52591 35.5547 1.85296 32.7296 0.931087C29.9842 0.0351888 27.1768 1.25091 25 1.25091C22.8235 1.25091 20.0163 0.0348959 17.2704 0.93099C14.4458 1.85267 12.882 4.5262 11.2036 5.75394C9.50811 6.99388 6.4999 7.67406 4.77187 10.0602C3.0585 12.4261 3.33691 15.4998 2.67832 17.5379C2.05156 19.4777 0 21.8057 0 24.8205C0 27.8372 2.04922 30.1563 2.67832 32.1031C3.33809 34.146 3.05684 37.2127 4.77168 39.5806C6.4999 41.9672 9.50576 42.6454 11.2033 43.887C12.8825 45.1151 14.4453 47.7882 17.2704 48.71C20.014 49.6053 22.8258 48.3902 25 48.3902C27.1712 48.3902 29.9896 49.604 32.7296 48.7101C35.5543 47.7884 37.1171 45.1155 38.7964 43.8871C40.4919 42.6472 43.5001 41.967 45.2281 39.5809C46.9416 37.2149 46.663 34.1414 47.3217 32.1032C47.9484 30.1633 50 27.8353 50 24.8205C50 21.804 47.9513 19.4857 47.3217 17.538V17.538ZM43.6048 30.902C42.8357 33.2824 43.0372 35.9463 42.0646 37.2895C41.0788 38.6505 38.4891 39.2722 36.4907 40.7339C34.5143 42.1793 33.129 44.4706 31.5179 44.9963C29.9937 45.4938 27.5097 44.4837 25.0001 44.4837C22.4722 44.4837 20.0138 45.4959 18.4822 44.9963C16.8713 44.4706 15.488 42.1809 13.5094 40.7338C11.5229 39.281 8.91836 38.6465 7.93545 37.2893C6.96592 35.9506 7.15977 33.2682 6.39541 30.9021C5.64619 28.5838 3.90625 26.5765 3.90625 24.8205C3.90625 23.0628 5.64463 21.0624 6.39521 18.7391C7.16426 16.3588 6.96279 13.6947 7.93545 12.3516C8.92061 10.9914 11.5123 10.3677 13.5094 8.90716C15.4921 7.45706 16.8687 5.17122 18.482 4.64476C20.005 4.14788 22.4971 5.15736 24.9999 5.15736C27.5324 5.15736 29.9847 4.14447 31.5178 4.64476C33.1285 5.17035 34.513 7.46097 36.4907 8.90726C38.477 10.3601 41.0816 10.9946 42.0646 12.3517C43.0343 13.6907 42.8394 16.3703 43.6046 18.7389V18.739C44.3538 21.0573 46.0938 23.0646 46.0938 24.8205C46.0938 26.5783 44.3554 28.5786 43.6048 30.902V30.902ZM33.9983 18.5515C34.7611 19.3143 34.7611 20.5509 33.9983 21.3136L24.2224 31.0896C23.4596 31.8524 22.2229 31.8523 21.4602 31.0896L16.0018 25.6312C15.239 24.8684 15.2389 23.6318 16.0017 22.8691C16.7645 22.1064 18.0013 22.1063 18.7638 22.8691L22.8412 26.9464L31.236 18.5516C31.9988 17.7888 33.2355 17.7888 33.9983 18.5515V18.5515Z" fill="#244D4D"/>
</svg>
