<svg width="50" height="51" viewBox="0 0 50 51" fill="none" xmlns="http://www.w3.org/2000/svg">
<g clip-path="url(#clip0_2_3195)">
<path d="M40.6901 20.7187H35.8789V17.4766C35.8789 16.6676 35.223 16.0117 34.4141 16.0117H1.46484C0.655859 16.0117 0 16.6676 0 17.4766V44.1497C0 44.9587 0.655859 45.6146 1.46484 45.6146H6.45313C8.04727 51.8529 16.851 51.8487 18.4427 45.6146H31.5572C33.1514 51.8529 41.9551 51.8487 43.5468 45.6146H48.5352C49.3441 45.6146 50 44.9587 50 44.1497V30.0286C50 24.8951 45.8235 20.7187 40.6901 20.7187V20.7187ZM12.4479 47.3919C10.6602 47.3919 9.20576 45.9374 9.20576 44.1497C9.38379 39.8485 15.5128 39.8498 15.6901 44.1497C15.6901 45.9374 14.2356 47.3919 12.4479 47.3919V47.3919ZM32.9492 40.0437C32.2866 40.7857 31.8009 41.6881 31.5572 42.6848H18.4427C16.8485 36.4465 8.04482 36.4507 6.45313 42.6848H2.92969V18.9413H32.9492V40.0437ZM37.552 47.3919C35.7643 47.3919 34.3099 45.9374 34.3099 44.1497C34.4879 39.8485 40.6169 39.8498 40.7942 44.1497C40.7942 45.9374 39.3398 47.3919 37.552 47.3919ZM47.0703 42.6849H43.5484C42.8891 39.9864 40.4508 37.9778 37.5521 37.9778H35.8789V23.6484H39.2253V33.1667C39.2253 33.9757 39.8812 34.6315 40.6901 34.6315H47.0703V42.6849ZM47.0703 31.7018H42.155V23.8181C44.9692 24.4818 47.0703 27.0145 47.0703 30.0286V31.7018Z" fill="#244D4D"/>
<path d="M35.9828 12.6655H39.9053C41.8489 12.5881 41.8474 9.8125 39.9053 9.73584H37.712L38.0082 7.9585H39.9053C41.8489 7.88105 41.8474 5.10547 39.9053 5.02881H38.4964L38.7926 3.25146H41.4743C43.4178 3.17402 43.4164 0.398438 41.4743 0.321777H37.5517C36.8356 0.321777 36.2245 0.839453 36.1068 1.5458L34.5378 10.9599C34.389 11.8529 35.0789 12.6655 35.9828 12.6655V12.6655Z" fill="#222222"/>
<path d="M26.5686 12.6655H30.4912C32.4347 12.5881 32.4333 9.8125 30.4912 9.73584H28.2978L28.594 7.9585H30.4912C32.4347 7.88105 32.4333 5.10547 30.4912 5.02881H29.0824L29.3787 3.25146H32.0602C34.0038 3.17402 34.0023 0.398438 32.0602 0.321777H28.1377C27.4216 0.321777 26.8105 0.839453 26.6928 1.5458L25.1238 10.9599C24.975 11.8529 25.6648 12.6655 26.5686 12.6655V12.6655Z" fill="#244D4D"/>
<path d="M15.3455 12.6456C16.4828 12.8352 16.9631 11.8497 17.0312 11.4415L17.2714 10.0003L20.1553 12.3385C20.8219 12.8788 21.7379 12.7126 22.2158 12.1231C22.7253 11.4947 22.6289 10.5723 22.0004 10.0628L20.3724 8.74297H21.7313C22.4473 8.74297 23.0584 8.22529 23.1762 7.51904L24.0917 2.02754C24.2406 1.13438 23.5507 0.321777 22.6468 0.321777H17.1553C16.4392 0.321777 15.8281 0.839453 15.7104 1.5458L14.8013 6.9999C14.8009 7.00186 14.8007 7.00391 14.8003 7.00586C14.7996 7.00977 14.7991 7.01367 14.7984 7.01758C14.7952 7.03545 14.7919 7.05342 14.7894 7.07148L14.1413 10.9599C14.0082 11.7578 14.5474 12.5126 15.3455 12.6456V12.6456ZM18.3962 3.25146H20.9175L20.4905 5.81328H17.9692L18.3962 3.25146Z" fill="#244D4D"/>
<path d="M6.7155 12.6455C7.8528 12.8351 8.33317 11.8495 8.40124 11.4414L8.85095 8.74297H10.8788C12.8223 8.66553 12.8209 5.88994 10.8788 5.81328H9.33923L9.76618 3.25146H12.4478C14.3914 3.17402 14.3899 0.398437 12.4478 0.321777H8.52526C7.80915 0.321777 7.19802 0.839453 7.08034 1.5458L5.5114 10.9599C5.37829 11.7577 5.91745 12.5125 6.7155 12.6455V12.6455Z" fill="#244D4D"/>
</g>
<defs>
<clipPath id="clip0_2_3195">
<rect width="50" height="50" fill="white" transform="translate(0 0.306641)"/>
</clipPath>
</defs>
</svg>
