<svg width="126" height="40" viewBox="0 0 126 40" fill="none" xmlns="http://www.w3.org/2000/svg">
<g clip-path="url(#clip0_2_3247)">
<path d="M66.2625 10.6588C66.2625 12.0441 65.1145 13.1776 63.7114 13.1776C62.3084 13.1776 61.1604 12.0441 61.1604 10.6588C61.1604 9.27347 62.2446 8.14001 63.7114 8.14001C65.1783 8.17149 66.2625 9.30495 66.2625 10.6588ZM55.8033 15.6964C55.8033 15.9168 55.8033 16.3261 55.8033 16.3261C55.8033 16.3261 54.5915 14.7833 52.0086 14.7833C47.7676 14.7833 44.4194 17.9948 44.4194 22.4027C44.4194 26.8106 47.7038 30.022 52.0086 30.022C54.6234 30.022 55.8033 28.4478 55.8033 28.4478V29.109C55.8033 29.4238 56.0265 29.6442 56.3454 29.6442H59.5023V15.1611C59.5023 15.1611 56.6005 15.1611 56.3454 15.1611C56.0265 15.1611 55.8033 15.4445 55.8033 15.6964ZM55.8033 24.9844C55.2293 25.8345 54.0495 26.5587 52.6464 26.5587C50.1591 26.5587 48.2459 25.0159 48.2459 22.4027C48.2459 19.7894 50.1591 18.2467 52.6464 18.2467C54.0176 18.2467 55.2612 19.0023 55.8033 19.8209V24.9844ZM61.862 15.1611H65.6247V29.6442H61.862V15.1611ZM117.825 14.7833C115.242 14.7833 114.03 16.3261 114.03 16.3261V8.20298H110.268V29.6757C110.268 29.6757 113.169 29.6757 113.424 29.6757C113.743 29.6757 113.967 29.3923 113.967 29.1405V28.4793C113.967 28.4793 115.178 30.0535 117.761 30.0535C122.002 30.0535 125.35 26.8106 125.35 22.4342C125.382 18.0263 122.034 14.7833 117.825 14.7833ZM117.219 26.5272C115.784 26.5272 114.636 25.8031 114.062 24.953V19.7894C114.636 19.0338 115.912 18.2152 117.219 18.2152C119.706 18.2152 121.62 19.7579 121.62 22.3712C121.62 24.9844 119.706 26.5272 117.219 26.5272ZM108.354 21.0488V29.6757H104.592V21.4896C104.592 19.0968 103.826 18.1207 101.69 18.1207C100.542 18.1207 99.3938 18.6875 98.6604 19.5376V29.6442H94.8977V15.1611H97.8632C98.1821 15.1611 98.4053 15.4445 98.4053 15.6964V16.3261C99.4895 15.1926 100.956 14.7833 102.391 14.7833C104.018 14.7833 105.389 15.2556 106.505 16.1687C107.844 17.2392 108.354 18.6245 108.354 21.0488ZM85.8097 14.7833C83.2267 14.7833 82.015 16.3261 82.015 16.3261V8.20298H78.2523V29.6757C78.2523 29.6757 81.154 29.6757 81.4091 29.6757C81.728 29.6757 81.9512 29.3923 81.9512 29.1405V28.4793C81.9512 28.4793 83.163 30.0535 85.7459 30.0535C89.987 30.0535 93.3352 26.8106 93.3352 22.4342C93.3989 18.0263 90.0826 14.7833 85.8097 14.7833ZM85.2038 26.5272C83.7688 26.5272 82.6209 25.8031 82.0469 24.953V19.7894C82.6209 19.0338 83.8964 18.2152 85.2038 18.2152C87.691 18.2152 89.6043 19.7579 89.6043 22.3712C89.6043 24.9844 87.691 26.5272 85.2038 26.5272ZM75.0316 14.7833C76.1796 14.7833 76.7535 14.9722 76.7535 14.9722V18.4041C76.7535 18.4041 73.6285 17.3651 71.6834 19.569V29.7072H67.9206V15.1611C67.9206 15.1611 70.8224 15.1611 71.0775 15.1611C71.3964 15.1611 71.6196 15.4445 71.6196 15.6964V16.3261C72.353 15.5075 73.8836 14.7833 75.0316 14.7833ZM36.1285 28.3533C35.9372 27.8811 35.7459 27.3773 35.5546 26.968C35.2357 26.2753 34.9168 25.6141 34.6617 25.0159L34.6298 24.9844C31.9512 19.1912 29.0495 13.335 25.9882 7.57328L25.8607 7.35288C25.5418 6.78616 25.2229 6.15646 24.9359 5.52676C24.5533 4.83409 24.1706 4.10994 23.5329 3.41727C22.2892 1.87451 20.5035 1.02441 18.5903 1.02441C16.6451 1.02441 14.8913 1.87451 13.5839 3.32282C13.0099 4.01548 12.5635 4.73964 12.1808 5.4323C11.862 6.062 11.5431 6.66022 11.2561 7.25843L11.1285 7.47883C8.13108 13.2721 5.19741 19.1283 2.48695 24.89L2.45506 24.953C2.16807 25.5827 1.88108 26.2124 1.56221 26.905C1.37088 27.3143 1.17955 27.7866 0.988227 28.2904C0.478023 29.7072 0.318584 31.061 0.509911 32.4464C0.924451 35.343 2.90149 37.7673 5.58006 38.8378C6.60047 39.2471 7.65277 39.4675 8.73695 39.4675C9.05583 39.4675 9.43848 39.436 9.75736 39.4045C11.0329 39.2471 12.3722 38.8378 13.6477 38.0822C15.2421 37.2006 16.7727 35.9097 18.4946 34.0836C20.2165 35.9412 21.779 37.2006 23.3415 38.0822C24.6171 38.8063 25.9563 39.2471 27.2318 39.4045C27.5507 39.436 27.9334 39.4675 28.2523 39.4675C29.3364 39.4675 30.4525 39.2786 31.4091 38.8378C34.1515 37.7673 36.0648 35.28 36.4793 32.4464C36.7982 31.124 36.6387 29.7702 36.1285 28.3533ZM18.5265 30.3369C16.4219 27.7236 15.0507 25.2363 14.5724 23.1583C14.3811 22.2767 14.3492 21.4896 14.4449 20.797C14.5086 20.1673 14.7637 19.632 15.0826 19.1912C15.816 18.1522 17.0597 17.491 18.5265 17.491C19.9933 17.491 21.2688 18.1207 21.9704 19.1912C22.2892 19.6635 22.5125 20.1987 22.6081 20.797C22.7357 21.4896 22.6719 22.3082 22.4806 23.1583C22.0023 25.2363 20.6311 27.6922 18.5265 30.3369ZM34.0877 32.163C33.8007 34.178 32.4614 35.9097 30.5482 36.6654C29.6234 37.0432 28.603 37.1691 27.5826 37.0432C26.5941 36.9172 25.6375 36.6339 24.6171 36.0357C23.214 35.28 21.8109 34.0836 20.1528 32.289C22.7357 29.1719 24.2982 26.3068 24.8722 23.7565C25.1591 22.5601 25.191 21.4896 25.0635 20.4821C24.904 19.5061 24.5533 18.6245 24.0112 17.8689C22.7994 16.1372 20.7586 15.1297 18.4946 15.1297C16.2306 15.1297 14.1898 16.1687 12.978 17.8689C12.4359 18.6245 12.0852 19.5376 11.9257 20.4821C11.7663 21.4896 11.7982 22.5916 12.1171 23.7565C12.691 26.3068 14.3173 29.2034 16.8364 32.3204C15.2421 34.0836 13.8071 35.28 12.3722 36.0671C11.3517 36.6339 10.3951 36.9487 9.40659 37.0747C8.3543 37.2006 7.33389 37.0432 6.44103 36.6968C4.52777 35.9412 3.15659 34.178 2.90149 32.1945C2.77394 31.2185 2.8696 30.2739 3.25226 29.2034C3.37981 28.8256 3.57114 28.4478 3.76246 27.9755C4.04945 27.3458 4.33644 26.7161 4.65532 26.0549L4.68721 25.992C7.36578 20.2617 10.2676 14.374 13.265 8.67525L13.3926 8.45486C13.7114 7.88813 14.0303 7.25843 14.3173 6.6917C14.6362 6.062 14.987 5.49527 15.4015 4.99151C16.2306 4.07845 17.3148 3.57469 18.5265 3.57469C19.7382 3.57469 20.8224 4.07845 21.6515 4.99151C22.066 5.49527 22.4168 6.062 22.7357 6.6917C23.0546 7.25843 23.3734 7.88813 23.6604 8.45486L23.788 8.67525C26.7535 14.4055 29.6553 20.2932 32.3339 26.0234V26.0549C32.6528 26.6846 32.9079 27.3773 33.2267 27.9755C33.4181 28.4478 33.6094 28.8256 33.7369 29.2034C34.1196 30.1795 34.2472 31.1555 34.0877 32.163Z" fill="#244D4D"/>
</g>
<defs>
<clipPath id="clip0_2_3247">
<rect width="125" height="39" fill="white" transform="translate(0.382812 0.689453)"/>
</clipPath>
</defs>
</svg>
