<svg width="25" height="25" viewBox="0 0 25 25" fill="none" xmlns="http://www.w3.org/2000/svg">
<path d="M24.0557 7.12354V2.43604C24.0557 1.53139 23.3197 0.79541 22.415 0.79541H13.9775C13.0729 0.79541 12.3369 1.53139 12.3369 2.43604V7.12354C12.3369 8.02818 13.0729 8.76416 13.9775 8.76416H15.8895L15.538 10.1704H11.6026L11.4597 7.02777C11.4084 5.89864 10.4828 5.01416 9.35252 5.01416H5.4776C4.34735 5.01416 3.42176 5.89864 3.37038 7.02777L3.22755 10.1704H0.758789C0.370477 10.1704 0.0556641 10.4852 0.0556641 10.8735V23.061C0.0556641 23.4493 0.370477 23.7642 0.758789 23.7642C1.1471 23.7642 1.46191 23.4493 1.46191 23.061V14.3892H3.05988C3.11107 14.968 3.35402 15.5076 3.76329 15.9359C4.17945 16.3714 4.71841 16.6403 5.30571 16.7125V17.9048C5.30571 18.7298 5.91799 19.4143 6.71196 19.5284V21.2181L3.94066 22.01C3.63874 22.0962 3.43066 22.3721 3.43066 22.686V24.0923C3.43066 24.4806 3.74548 24.7954 4.13379 24.7954C4.5221 24.7954 4.83691 24.4806 4.83691 24.0923V23.2164L6.71191 22.6806V23.6235C6.71191 24.0118 7.02673 24.3267 7.41504 24.3267C7.80335 24.3267 8.11816 24.0118 8.11816 23.6235V22.6807L9.99316 23.2164V24.0923C9.99316 24.4806 10.308 24.7954 10.6963 24.7954C11.0846 24.7954 11.3994 24.4806 11.3994 24.0923V22.686C11.3994 22.3721 11.1913 22.0962 10.8895 22.01L8.11816 21.2182V19.5284C8.91213 19.4143 9.52441 18.7299 9.52441 17.9048V16.7126C10.1117 16.6404 10.6507 16.3715 11.0668 15.936C11.4761 15.5077 11.7191 14.9681 11.7702 14.3892H13.2744V23.0611C13.2744 23.4494 13.5892 23.7642 13.9775 23.7642C14.3659 23.7642 14.6807 23.4494 14.6807 23.0611V20.9517H22.6494V23.0611C22.6494 23.4494 22.9642 23.7642 23.3525 23.7642C23.7409 23.7642 24.0557 23.4494 24.0557 23.0611V10.8735C24.0557 10.4852 23.7409 10.1704 23.3525 10.1704H20.8546L20.5031 8.76416H22.415C23.3197 8.76416 24.0557 8.02818 24.0557 7.12354ZM3.09968 12.9829H1.46191V11.5767H3.16362L3.09968 12.9829ZM8.11816 17.9048C8.11816 18.034 8.01302 18.1392 7.88379 18.1392H6.94629C6.81705 18.1392 6.71191 18.034 6.71191 17.9048V16.7329H8.11816V17.9048ZM10.0501 14.9644C9.8269 15.198 9.52601 15.3267 9.2029 15.3267H5.62723C5.30412 15.3267 5.00323 15.198 4.78001 14.9644C4.55674 14.7308 4.4419 14.4243 4.45657 14.1015L4.77518 7.09157C4.79229 6.71525 5.10082 6.42041 5.47755 6.42041H9.35248C9.72926 6.42041 10.0378 6.71525 10.0549 7.09161L10.3735 14.1016C10.3882 14.4244 10.2734 14.7308 10.0501 14.9644ZM22.6494 19.5454H14.6807V14.3892H22.6494V19.5454ZM22.6494 11.5767V12.9829H11.7304L11.6665 11.5767H22.6494ZM16.9874 10.1704L17.339 8.76416H19.0535L19.4051 10.1704H16.9874ZM13.9775 7.35791C13.8483 7.35791 13.7432 7.25277 13.7432 7.12354V2.43604C13.7432 2.3068 13.8483 2.20166 13.9775 2.20166H22.415C22.5443 2.20166 22.6494 2.3068 22.6494 2.43604V7.12354C22.6494 7.25277 22.5443 7.35791 22.415 7.35791H13.9775Z" fill="#666666"/>
<path d="M17.2588 17.2017H20.0713C20.4596 17.2017 20.7744 16.8868 20.7744 16.4985C20.7744 16.1102 20.4596 15.7954 20.0713 15.7954H17.2588C16.8705 15.7954 16.5557 16.1102 16.5557 16.4985C16.5557 16.8868 16.8705 17.2017 17.2588 17.2017Z" fill="#666666"/>
</svg>
