<svg width="25" height="25" viewBox="0 0 25 25" fill="none" xmlns="http://www.w3.org/2000/svg">
<g clip-path="url(#clip0_2_3000)">
<path d="M19.6538 9.87763C19.9347 9.87763 20.1624 9.64994 20.1624 9.36904V7.73759C20.1624 7.45669 19.9347 7.229 19.6538 7.229L18.93 7.23341L16.5547 9.87763H19.6538Z" fill="#666666"/>
<path d="M4.40898 9.87755H7.53249L5.11604 7.229H4.40898C4.12808 7.229 3.90039 7.45669 3.90039 7.73759V9.36891C3.90039 9.64986 4.12808 9.87755 4.40898 9.87755Z" fill="#666666"/>
<path d="M12.3228 12.5002L17.036 7.229H7.02637L11.817 12.5022C11.9528 12.6517 12.1881 12.6508 12.3228 12.5002Z" fill="#666666"/>
<path d="M13.6493 19.9182H12.7737V13.9996C12.5637 14.1208 12.3237 14.1871 12.0761 14.1881C12.0743 14.1881 12.0724 14.1881 12.0706 14.1881C11.8212 14.1881 11.5791 14.1217 11.3674 13.9995V19.9182H10.4122C10.0238 19.9182 9.70898 20.233 9.70898 20.6214C9.70898 21.0097 10.0238 21.3245 10.4122 21.3245H13.6494C14.0377 21.3245 14.3526 21.0097 14.3526 20.6214C14.3526 20.233 14.0377 19.9182 13.6493 19.9182Z" fill="#666666"/>
<path d="M5.96192 11.8338H1.43858V3.49859C1.43858 3.11025 1.12374 2.79541 0.735402 2.79541C0.347062 2.79541 0.0322266 3.11025 0.0322266 3.49859V20.6775C0.0322266 21.0658 0.347062 21.3807 0.735402 21.3807C1.12374 21.3807 1.43858 21.0658 1.43858 20.6775V15.4252H6.55128V20.6775C6.55128 21.0658 6.86611 21.3807 7.25445 21.3807C7.64279 21.3807 7.95763 21.0658 7.95763 20.6775V13.8295C7.95763 12.729 7.06234 11.8338 5.96192 11.8338Z" fill="#666666"/>
<path d="M23.3284 2.79541C22.94 2.79541 22.6252 3.11025 22.6252 3.49859V11.8338H18.2066C17.1062 11.8338 16.2109 12.729 16.2109 13.8295V20.6775C16.2109 21.0658 16.5258 21.3807 16.9141 21.3807C17.3024 21.3807 17.6173 21.0658 17.6173 20.6775V15.424H22.6252V20.6775C22.6252 21.0658 22.9401 21.3807 23.3284 21.3807C23.7167 21.3807 24.0316 21.0658 24.0316 20.6775V3.49859C24.0315 3.11025 23.7167 2.79541 23.3284 2.79541Z" fill="#666666"/>
</g>
<defs>
<clipPath id="clip0_2_3000">
<rect width="24" height="24" fill="white" transform="translate(0.0322266 0.0878906)"/>
</clipPath>
</defs>
</svg>
