<svg width="25" height="25" viewBox="0 0 25 25" fill="none" xmlns="http://www.w3.org/2000/svg">
<g clip-path="url(#clip0_2_3015)">
<path d="M2.29748 14.2292H22.314C23.139 14.2292 23.8078 13.5605 23.8078 12.7355C23.8078 11.9105 23.139 11.2417 22.314 11.2417H2.29748C1.47248 11.2417 0.803711 11.9105 0.803711 12.7355C0.803664 13.5605 1.47248 14.2292 2.29748 14.2292Z" fill="#666666"/>
<path d="M13.7994 8.01953C13.3634 8.01953 13.0088 8.37419 13.0088 8.81017V9.83519H19.1278V8.81017C19.1278 8.37419 18.7731 8.01953 18.3372 8.01953H13.7994Z" fill="#666666"/>
<path d="M4.07717 8.81041C4.07717 7.59902 5.06267 6.61352 6.27406 6.61352H10.8118C11.3883 6.61352 11.9133 6.83702 12.3056 7.20152C12.6979 6.83702 13.2229 6.61352 13.7993 6.61352H18.3371C19.5485 6.61352 20.534 7.59902 20.534 8.81041V9.83543H22.8162V4.9923C22.8162 4.1673 22.1474 3.49854 21.3225 3.49854H3.28869C2.46369 3.49854 1.79492 4.1673 1.79492 4.9923V9.83543H4.07717V8.81041Z" fill="#666666"/>
<path d="M6.27404 8.01953C5.83805 8.01953 5.4834 8.37419 5.4834 8.81017V9.83519H11.6024V8.81017C11.6024 8.37419 11.2478 8.01953 10.8118 8.01953H6.27404Z" fill="#666666"/>
<path d="M0.305664 15.6353V22.1048H1.71191V19.5409H22.8994V22.1048H24.3057V15.6353H0.305664Z" fill="#666666"/>
</g>
<defs>
<clipPath id="clip0_2_3015">
<rect width="24" height="24" fill="white" transform="translate(0.305664 0.801758)"/>
</clipPath>
</defs>
</svg>
