<svg width="25" height="25" viewBox="0 0 25 25" fill="none" xmlns="http://www.w3.org/2000/svg">
<g clip-path="url(#clip0_2_3023)">
<path d="M24.3838 7.4187H1.13379C0.926331 7.4187 0.758789 7.25116 0.758789 7.0437V5.54297C0.758789 5.33551 0.926331 5.16797 1.13379 5.16797H24.3838C24.5912 5.16797 24.7588 5.33551 24.7588 5.54297V7.0437C24.7588 7.25116 24.5912 7.4187 24.3838 7.4187ZM1.50879 6.6687H24.0088V5.91797H1.50879V6.6687Z" fill="#666666"/>
<path d="M1.50879 19.0503C1.30133 19.0503 1.13379 18.8828 1.13379 18.6753V7.11035C1.13379 6.90289 1.30133 6.73535 1.50879 6.73535C1.71625 6.73535 1.88379 6.90289 1.88379 7.11035V18.6753C1.88379 18.8828 1.71625 19.0503 1.50879 19.0503Z" fill="#666666"/>
<path d="M2.63379 19.0503C2.42633 19.0503 2.25879 18.8828 2.25879 18.6753V7.11035C2.25879 6.90289 2.42633 6.73535 2.63379 6.73535C2.84125 6.73535 3.00879 6.90289 3.00879 7.11035V18.6753C3.00879 18.8828 2.84125 19.0503 2.63379 19.0503Z" fill="#666666"/>
<path d="M22.8838 19.0503C22.6763 19.0503 22.5088 18.8828 22.5088 18.6753V7.11035C22.5088 6.90289 22.6763 6.73535 22.8838 6.73535C23.0912 6.73535 23.2588 6.90289 23.2588 7.11035V18.6753C23.2588 18.8828 23.0912 19.0503 22.8838 19.0503Z" fill="#666666"/>
<path d="M24.0088 19.0503C23.8013 19.0503 23.6338 18.8828 23.6338 18.6753V7.11035C23.6338 6.90289 23.8013 6.73535 24.0088 6.73535C24.2162 6.73535 24.3838 6.90289 24.3838 7.11035V18.6753C24.3838 18.8828 24.2162 19.0503 24.0088 19.0503Z" fill="#666666"/>
<path d="M2.63379 19.0503H1.50879C1.30133 19.0503 1.13379 18.8828 1.13379 18.6753C1.13379 18.4678 1.30133 18.3003 1.50879 18.3003H2.63379C2.84125 18.3003 3.00879 18.4678 3.00879 18.6753C3.00879 18.8828 2.84125 19.0503 2.63379 19.0503Z" fill="#666666"/>
<path d="M24.0088 19.0503H22.8838C22.6763 19.0503 22.5088 18.8828 22.5088 18.6753C22.5088 18.4678 22.6763 18.3003 22.8838 18.3003H24.0088C24.2162 18.3003 24.3838 18.4678 24.3838 18.6753C24.3838 18.8828 24.2162 19.0503 24.0088 19.0503Z" fill="#666666"/>
<path d="M22.8838 12.6733H2.63379C2.42633 12.6733 2.25879 12.5056 2.25879 12.2983C2.25879 12.0909 2.42633 11.9233 2.63379 11.9233H22.8838C23.0912 11.9233 23.2588 12.0909 23.2588 12.2983C23.2588 12.5056 23.0912 12.6733 22.8838 12.6733Z" fill="#666666"/>
<path d="M22.8838 13.7988H2.63379C2.42633 13.7988 2.25879 13.6311 2.25879 13.4238C2.25879 13.2164 2.42633 13.0488 2.63379 13.0488H22.8838C23.0912 13.0488 23.2588 13.2164 23.2588 13.4238C23.2588 13.6311 23.0912 13.7988 22.8838 13.7988Z" fill="#666666"/>
<path d="M4.13281 12.6738C3.92535 12.6738 3.75781 12.5061 3.75781 12.2988C3.75781 11.2648 4.59863 10.4238 5.63245 10.4238C5.83972 10.4238 6.00745 10.5914 6.00745 10.7988C6.00745 11.0061 5.83972 11.1738 5.63245 11.1738C5.01263 11.1738 4.50781 11.6785 4.50781 12.2988C4.50781 12.5061 4.34009 12.6738 4.13281 12.6738Z" fill="#666666"/>
<path d="M7.88342 12.6738C7.67596 12.6738 7.50842 12.5061 7.50842 12.2988C7.50842 11.6785 7.0036 11.1738 6.38379 11.1738C6.17651 11.1738 6.00879 11.0061 6.00879 10.7988C6.00879 10.5914 6.17651 10.4238 6.38379 10.4238C7.4176 10.4238 8.25842 11.2648 8.25842 12.2988C8.25842 12.5061 8.09088 12.6738 7.88342 12.6738Z" fill="#666666"/>
<path d="M4.50781 11.6819C4.30035 11.6819 4.13281 11.5142 4.13281 11.3069V9.29883C4.13281 9.09137 4.30035 8.92383 4.50781 8.92383C4.71509 8.92383 4.88281 9.09137 4.88281 9.29883V11.3069C4.88281 11.5142 4.71509 11.6819 4.50781 11.6819Z" fill="#666666"/>
<path d="M7.50781 11.6819C7.30035 11.6819 7.13281 11.5142 7.13281 11.3069V9.29883C7.13281 9.09137 7.30035 8.92383 7.50781 8.92383C7.71509 8.92383 7.88281 9.09137 7.88281 9.29883V11.3069C7.88281 11.5142 7.71509 11.6819 7.50781 11.6819Z" fill="#666666"/>
<path d="M5.25879 10.0496C5.05133 10.0496 4.88379 9.88184 4.88379 9.67456V8.54883C4.88379 8.34137 5.05133 8.17383 5.25879 8.17383C5.46625 8.17383 5.63379 8.34137 5.63379 8.54883V9.67456C5.63379 9.88184 5.46625 10.0496 5.25879 10.0496Z" fill="#666666"/>
<path d="M6.75879 8.92383H5.25879C5.05133 8.92383 4.88379 8.7561 4.88379 8.54883C4.88379 8.34137 5.05133 8.17383 5.25879 8.17383H6.75879C6.96625 8.17383 7.13379 8.34137 7.13379 8.54883C7.13379 8.7561 6.96625 8.92383 6.75879 8.92383Z" fill="#666666"/>
<path d="M6.75879 10.0496C6.55133 10.0496 6.38379 9.88184 6.38379 9.67456V8.54883C6.38379 8.34137 6.55133 8.17383 6.75879 8.17383C6.96625 8.17383 7.13379 8.34137 7.13379 8.54883V9.67456C7.13379 9.88184 6.96625 10.0496 6.75879 10.0496Z" fill="#666666"/>
<path d="M5.25854 9.67383H4.50781C4.30035 9.67383 4.13281 9.5061 4.13281 9.29883C4.13281 9.09137 4.30035 8.92383 4.50781 8.92383H5.25854C5.466 8.92383 5.63354 9.09137 5.63354 9.29883C5.63354 9.5061 5.466 9.67383 5.25854 9.67383Z" fill="#666666"/>
<path d="M7.50732 9.67383H6.75879C6.55133 9.67383 6.38379 9.5061 6.38379 9.29883C6.38379 9.09137 6.55133 8.92383 6.75879 8.92383H7.50732C7.7146 8.92383 7.88232 9.09137 7.88232 9.29883C7.88232 9.5061 7.7146 9.67383 7.50732 9.67383Z" fill="#666666"/>
<path d="M6.38428 11.1738H5.63281C5.42535 11.1738 5.25781 11.0061 5.25781 10.7988C5.25781 10.5914 5.42535 10.4238 5.63281 10.4238H6.38428C6.59174 10.4238 6.75928 10.5914 6.75928 10.7988C6.75928 11.0061 6.59174 11.1738 6.38428 11.1738Z" fill="#666666"/>
<path d="M9.00781 12.6738C8.80035 12.6738 8.63281 12.5061 8.63281 12.2988C8.63281 11.2648 9.47363 10.4238 10.5074 10.4238C10.7147 10.4238 10.8824 10.5914 10.8824 10.7988C10.8824 11.0061 10.7147 11.1738 10.5074 11.1738C9.88763 11.1738 9.38281 11.6785 9.38281 12.2988C9.38281 12.5061 9.21509 12.6738 9.00781 12.6738Z" fill="#666666"/>
<path d="M12.7584 12.6738C12.551 12.6738 12.3834 12.5061 12.3834 12.2988C12.3834 11.6785 11.8786 11.1738 11.2588 11.1738C11.0515 11.1738 10.8838 11.0061 10.8838 10.7988C10.8838 10.5914 11.0515 10.4238 11.2588 10.4238C12.2926 10.4238 13.1334 11.2648 13.1334 12.2988C13.1334 12.5061 12.9659 12.6738 12.7584 12.6738Z" fill="#666666"/>
<path d="M9.38281 11.6819C9.17535 11.6819 9.00781 11.5142 9.00781 11.3069V9.29883C9.00781 9.09137 9.17535 8.92383 9.38281 8.92383C9.59009 8.92383 9.75781 9.09137 9.75781 9.29883V11.3069C9.75781 11.5142 9.59009 11.6819 9.38281 11.6819Z" fill="#666666"/>
<path d="M12.3828 11.6819C12.1754 11.6819 12.0078 11.5142 12.0078 11.3069V9.29883C12.0078 9.09137 12.1754 8.92383 12.3828 8.92383C12.5901 8.92383 12.7578 9.09137 12.7578 9.29883V11.3069C12.7578 11.5142 12.5901 11.6819 12.3828 11.6819Z" fill="#666666"/>
<path d="M10.1338 10.0496C9.92633 10.0496 9.75879 9.88184 9.75879 9.67456V8.54883C9.75879 8.34137 9.92633 8.17383 10.1338 8.17383C10.3412 8.17383 10.5088 8.34137 10.5088 8.54883V9.67456C10.5088 9.88184 10.3412 10.0496 10.1338 10.0496Z" fill="#666666"/>
<path d="M11.6338 8.92383H10.1338C9.92633 8.92383 9.75879 8.7561 9.75879 8.54883C9.75879 8.34137 9.92633 8.17383 10.1338 8.17383H11.6338C11.8412 8.17383 12.0088 8.34137 12.0088 8.54883C12.0088 8.7561 11.8412 8.92383 11.6338 8.92383Z" fill="#666666"/>
<path d="M11.6338 10.0496C11.4263 10.0496 11.2588 9.88184 11.2588 9.67456V8.54883C11.2588 8.34137 11.4263 8.17383 11.6338 8.17383C11.8412 8.17383 12.0088 8.34137 12.0088 8.54883V9.67456C12.0088 9.88184 11.8412 10.0496 11.6338 10.0496Z" fill="#666666"/>
<path d="M10.1335 9.67383H9.38281C9.17535 9.67383 9.00781 9.5061 9.00781 9.29883C9.00781 9.09137 9.17535 8.92383 9.38281 8.92383H10.1335C10.341 8.92383 10.5085 9.09137 10.5085 9.29883C10.5085 9.5061 10.341 9.67383 10.1335 9.67383Z" fill="#666666"/>
<path d="M12.3823 9.67383H11.6338C11.4263 9.67383 11.2588 9.5061 11.2588 9.29883C11.2588 9.09137 11.4263 8.92383 11.6338 8.92383H12.3823C12.5896 8.92383 12.7573 9.09137 12.7573 9.29883C12.7573 9.5061 12.5896 9.67383 12.3823 9.67383Z" fill="#666666"/>
<path d="M11.2593 11.1738H10.5078C10.3004 11.1738 10.1328 11.0061 10.1328 10.7988C10.1328 10.5914 10.3004 10.4238 10.5078 10.4238H11.2593C11.4667 10.4238 11.6343 10.5914 11.6343 10.7988C11.6343 11.0061 11.4667 11.1738 11.2593 11.1738Z" fill="#666666"/>
<path d="M12.7666 18.2996C12.5591 18.2996 12.3916 18.1318 12.3916 17.9246C12.3916 17.3038 12.8968 16.7988 13.5173 16.7988C13.7248 16.7988 13.8923 16.9664 13.8923 17.1738C13.8923 17.3811 13.7248 17.5488 13.5173 17.5488C13.3101 17.5488 13.1416 17.7171 13.1416 17.9246C13.1416 18.1318 12.9737 18.2996 12.7666 18.2996Z" fill="#666666"/>
<path d="M16.5176 18.2998C16.3103 18.2998 16.1426 18.1321 16.1426 17.9248C16.1426 17.7177 15.9747 17.5498 15.7676 17.5498C15.5603 17.5498 15.3926 17.3821 15.3926 17.1748C15.3926 16.9673 15.5603 16.7998 15.7676 16.7998C16.3879 16.7998 16.8926 17.3044 16.8926 17.9248C16.8926 18.1321 16.725 18.2998 16.5176 18.2998Z" fill="#666666"/>
<path d="M16.5177 19.0503H12.7666C12.5591 19.0503 12.3916 18.8828 12.3916 18.6753C12.3916 18.4678 12.5591 18.3003 12.7666 18.3003H16.5181C16.7255 18.3003 16.8931 18.4678 16.8931 18.6753C16.8931 18.8828 16.7252 19.0503 16.5177 19.0503Z" fill="#666666"/>
<path d="M15.7981 17.5488H13.4873C13.28 17.5488 13.1123 17.3811 13.1123 17.1738C13.1123 16.9664 13.28 16.7988 13.4873 16.7988H15.7981C16.0056 16.7988 16.1731 16.9664 16.1731 17.1738C16.1731 17.3811 16.0056 17.5488 15.7981 17.5488Z" fill="#666666"/>
<path d="M13.5166 17.5491C13.3091 17.5491 13.1416 17.3813 13.1416 17.1741V14.9248C13.1416 14.7173 13.3091 14.5498 13.5166 14.5498C13.7241 14.5498 13.8916 14.7173 13.8916 14.9248V17.1741C13.8916 17.3813 13.7241 17.5491 13.5166 17.5491Z" fill="#666666"/>
<path d="M15.7686 17.5498C15.5613 17.5498 15.3936 17.3821 15.3936 17.1748V14.9248C15.3936 14.7173 15.5613 14.5498 15.7686 14.5498C15.976 14.5498 16.1436 14.7173 16.1436 14.9248V17.1748C16.1436 17.3821 15.976 17.5498 15.7686 17.5498Z" fill="#666666"/>
<path d="M12.7666 19.0505C12.5591 19.0505 12.3916 18.883 12.3916 18.6755V17.9248C12.3916 17.7173 12.5591 17.5498 12.7666 17.5498C12.9741 17.5498 13.1416 17.7173 13.1416 17.9248V18.6755C13.1416 18.883 12.9737 19.0505 12.7666 19.0505Z" fill="#666666"/>
<path d="M16.5176 19.0505C16.3103 19.0505 16.1426 18.883 16.1426 18.6755V17.9248C16.1426 17.7173 16.3103 17.5498 16.5176 17.5498C16.725 17.5498 16.8926 17.7173 16.8926 17.9248V18.6755C16.8926 18.883 16.725 19.0505 16.5176 19.0505Z" fill="#666666"/>
<path d="M15.7681 15.2998H13.5166C13.3091 15.2998 13.1416 15.1321 13.1416 14.9248C13.1416 14.7173 13.3091 14.5498 13.5166 14.5498H15.7681C15.9755 14.5498 16.1431 14.7173 16.1431 14.9248C16.1431 15.1321 15.9755 15.2998 15.7681 15.2998Z" fill="#666666"/>
<path d="M16.1427 16.4248H13.1416C12.9341 16.4248 12.7666 16.2571 12.7666 16.0498C12.7666 15.8423 12.9341 15.6748 13.1416 15.6748H16.1427C16.3502 15.6748 16.5177 15.8423 16.5177 16.0498C16.5177 16.2571 16.3502 16.4248 16.1427 16.4248Z" fill="#666666"/>
<path d="M17.6416 18.2996C17.4341 18.2996 17.2666 18.1318 17.2666 17.9246C17.2666 17.3038 17.7718 16.7988 18.3923 16.7988C18.5998 16.7988 18.7673 16.9664 18.7673 17.1738C18.7673 17.3811 18.5998 17.5488 18.3923 17.5488C18.1851 17.5488 18.0166 17.7171 18.0166 17.9246C18.0166 18.1318 17.8487 18.2996 17.6416 18.2996Z" fill="#666666"/>
<path d="M21.3926 18.2998C21.1853 18.2998 21.0176 18.1321 21.0176 17.9248C21.0176 17.7177 20.8497 17.5498 20.6426 17.5498C20.4353 17.5498 20.2676 17.3821 20.2676 17.1748C20.2676 16.9673 20.4353 16.7998 20.6426 16.7998C21.2629 16.7998 21.7676 17.3044 21.7676 17.9248C21.7676 18.1321 21.6 18.2998 21.3926 18.2998Z" fill="#666666"/>
<path d="M21.3927 19.0503H17.6416C17.4341 19.0503 17.2666 18.8828 17.2666 18.6753C17.2666 18.4678 17.4341 18.3003 17.6416 18.3003H21.3931C21.6005 18.3003 21.7681 18.4678 21.7681 18.6753C21.7681 18.8828 21.6002 19.0503 21.3927 19.0503Z" fill="#666666"/>
<path d="M20.6731 17.5488H18.3623C18.155 17.5488 17.9873 17.3811 17.9873 17.1738C17.9873 16.9664 18.155 16.7988 18.3623 16.7988H20.6731C20.8806 16.7988 21.0481 16.9664 21.0481 17.1738C21.0481 17.3811 20.8806 17.5488 20.6731 17.5488Z" fill="#666666"/>
<path d="M18.3916 17.5491C18.1841 17.5491 18.0166 17.3813 18.0166 17.1741V14.9248C18.0166 14.7173 18.1841 14.5498 18.3916 14.5498C18.5991 14.5498 18.7666 14.7173 18.7666 14.9248V17.1741C18.7666 17.3813 18.5991 17.5491 18.3916 17.5491Z" fill="#666666"/>
<path d="M20.6436 17.5498C20.4363 17.5498 20.2686 17.3821 20.2686 17.1748V14.9248C20.2686 14.7173 20.4363 14.5498 20.6436 14.5498C20.851 14.5498 21.0186 14.7173 21.0186 14.9248V17.1748C21.0186 17.3821 20.851 17.5498 20.6436 17.5498Z" fill="#666666"/>
<path d="M17.6416 19.0505C17.4341 19.0505 17.2666 18.883 17.2666 18.6755V17.9248C17.2666 17.7173 17.4341 17.5498 17.6416 17.5498C17.8491 17.5498 18.0166 17.7173 18.0166 17.9248V18.6755C18.0166 18.883 17.8487 19.0505 17.6416 19.0505Z" fill="#666666"/>
<path d="M21.3926 19.0505C21.1853 19.0505 21.0176 18.883 21.0176 18.6755V17.9248C21.0176 17.7173 21.1853 17.5498 21.3926 17.5498C21.6 17.5498 21.7676 17.7173 21.7676 17.9248V18.6755C21.7676 18.883 21.6 19.0505 21.3926 19.0505Z" fill="#666666"/>
<path d="M20.6431 15.2998H18.3916C18.1841 15.2998 18.0166 15.1321 18.0166 14.9248C18.0166 14.7173 18.1841 14.5498 18.3916 14.5498H20.6431C20.8505 14.5498 21.0181 14.7173 21.0181 14.9248C21.0181 15.1321 20.8505 15.2998 20.6431 15.2998Z" fill="#666666"/>
<path d="M21.0177 16.4248H18.0166C17.8091 16.4248 17.6416 16.2571 17.6416 16.0498C17.6416 15.8423 17.8091 15.6748 18.0166 15.6748H21.0177C21.2252 15.6748 21.3927 15.8423 21.3927 16.0498C21.3927 16.2571 21.2252 16.4248 21.0177 16.4248Z" fill="#666666"/>
</g>
<defs>
<clipPath id="clip0_2_3023">
<rect width="24" height="24" fill="white" transform="translate(0.758789 0.105469)"/>
</clipPath>
</defs>
</svg>
