<svg width="25" height="25" viewBox="0 0 25 25" fill="none" xmlns="http://www.w3.org/2000/svg">
<path d="M0.764648 24.9675H10.6506V19.2983H0.764648V24.9675ZM2.9268 20.7664H8.53531V22.172H2.9268V20.7664Z" fill="#666666"/>
<path d="M0.764648 17.8929H10.6506V12.3174H0.764648V17.8929ZM2.9268 13.813H8.53531V15.2186H2.9268V13.813Z" fill="#666666"/>
<path d="M12.0566 24.9677H24.7538V12.3174H12.0566V24.9677ZM20.4902 13.813H21.8958V15.2533H20.4902V13.813ZM17.679 13.813H19.0846V15.2533H17.679V13.813ZM14.8678 13.813H16.2734V15.2533H14.8678V13.813ZM14.8678 16.5107H21.8958V22.1565H14.8678V16.5107Z" fill="#666666"/>
<path d="M20.4902 4.20829V0.967773H16.2734V4.21063L12.0566 7.02177V9.50629H24.7538V7.01943L20.4902 4.20829Z" fill="#666666"/>
</svg>
