<svg width="25" height="25" viewBox="0 0 25 25" fill="none" xmlns="http://www.w3.org/2000/svg">
<g clip-path="url(#clip0_2_2983)">
<path d="M5.18848 12.2646H11.3291C11.869 12.2646 12.3619 12.4687 12.7354 12.8035C13.1089 12.4687 13.6017 12.2646 14.1416 12.2646H20.2822V4.7241C20.2822 4.33762 19.973 4.01601 19.5865 4.01465C19.5807 4.01465 19.8264 4.01465 5.8916 4.01465C5.49148 4.01465 5.18848 4.34268 5.18848 4.7241V12.2646Z" fill="#666666"/>
<path d="M13.4385 14.374V16.0146H20.2822C20.2822 14.976 20.2822 14.7628 20.2822 13.6709H14.1416C13.7539 13.6709 13.4385 13.9863 13.4385 14.374Z" fill="#666666"/>
<path d="M22.4625 8.89075C22.0291 8.90425 21.6885 9.26781 21.6885 9.70141C21.6885 9.81269 21.6885 17.1172 21.6885 16.7178C21.6885 17.1061 21.3737 17.4209 20.9854 17.4209C20.4232 17.4209 3.95159 17.4209 4.48535 17.4209C4.09704 17.4209 3.78223 17.1061 3.78223 16.7178C3.78223 16.4584 3.78223 9.63377 3.78223 9.70141C3.78223 9.26781 3.44159 8.90425 3.00818 8.89075C1.75896 8.85185 0.735352 9.85122 0.735352 11.0928V18.3116C0.735352 19.4765 1.67974 20.4209 2.84473 20.4209H3.78223V21.1979C3.78223 21.5765 4.07318 21.9023 4.45137 21.9201C4.85515 21.9392 5.18848 21.6174 5.18848 21.2178V20.4209H20.2822V21.1979C20.2822 21.5765 20.5732 21.9023 20.9514 21.9201C21.3551 21.9392 21.6885 21.6174 21.6885 21.2178V20.4209H22.626C23.791 20.4209 24.7354 19.4765 24.7354 18.3116V11.1324C24.7354 9.83439 23.7037 8.85208 22.4625 8.89075Z" fill="#666666"/>
<path d="M12.0322 14.374C12.0322 13.9863 11.7168 13.6709 11.3291 13.6709H5.18848V16.0146H12.0322V14.374Z" fill="#666666"/>
</g>
<defs>
<clipPath id="clip0_2_2983">
<rect width="24" height="24" fill="white" transform="translate(0.735352 0.967773)"/>
</clipPath>
</defs>
</svg>
