<svg width="20" height="21" viewBox="0 0 20 21" fill="none" xmlns="http://www.w3.org/2000/svg">
<g clip-path="url(#clip0_2_3157)">
<path d="M9.99902 20.1719C15.5219 20.1719 19.999 15.6947 19.999 10.1719C19.999 4.64903 15.5219 0.171875 9.99902 0.171875C4.47618 0.171875 -0.000976562 4.64903 -0.000976562 10.1719C-0.000976562 15.6947 4.47618 20.1719 9.99902 20.1719Z" fill="white"/>
<path d="M12.5129 10.5633H10.7285V17.1004H8.02504V10.5633H6.73926V8.26586H8.02504V6.77917C8.02504 5.71603 8.53005 4.05127 10.7526 4.05127L12.7552 4.05965V6.28967H11.3022C11.0638 6.28967 10.7287 6.40875 10.7287 6.9159V8.268H12.7491L12.5129 10.5633Z" fill="#305F64"/>
</g>
<defs>
<clipPath id="clip0_2_3157">
<rect width="20" height="20" fill="white" transform="translate(-0.000976562 0.171875)"/>
</clipPath>
</defs>
</svg>
