<svg width="28" height="29" viewBox="0 0 28 29" fill="none" xmlns="http://www.w3.org/2000/svg">
<circle cx="13.999" cy="14.7129" r="14" fill="#FFB624"/>
<g clip-path="url(#clip0_2_3145)">
<path d="M21.7811 14.1867L17.0198 9.4254C16.7293 9.13489 16.2582 9.13489 15.9677 9.4254C15.6771 9.71596 15.6771 10.187 15.9677 10.4775L19.459 13.9688H6.74298C6.33214 13.9688 5.99902 14.302 5.99902 14.7128C5.99902 15.1236 6.33214 15.4568 6.74298 15.4568H19.459L15.9678 18.9481C15.6772 19.2386 15.6772 19.7096 15.9678 20.0002C16.113 20.1454 16.3035 20.2181 16.4938 20.2181C16.6842 20.2181 16.8746 20.1454 17.0199 20.0002L21.7811 15.2389C22.0717 14.9483 22.0717 14.4773 21.7811 14.1867Z" fill="white"/>
</g>
<defs>
<clipPath id="clip0_2_3145">
<rect width="16" height="16" fill="white" transform="translate(5.99902 6.71289)"/>
</clipPath>
</defs>
</svg>
