<svg width="20" height="21" viewBox="0 0 20 21" fill="none" xmlns="http://www.w3.org/2000/svg">
<g clip-path="url(#clip0_2_3169)">
<path d="M11.9131 10.1719C11.9131 11.229 11.0562 12.0859 9.99902 12.0859C8.94189 12.0859 8.08496 11.229 8.08496 10.1719C8.08496 9.11475 8.94189 8.25781 9.99902 8.25781C11.0562 8.25781 11.9131 9.11475 11.9131 10.1719Z" fill="white"/>
<path d="M14.475 6.78531C14.383 6.53598 14.2362 6.3103 14.0454 6.12506C13.8602 5.93433 13.6347 5.78754 13.3852 5.69553C13.1829 5.61694 12.8789 5.52341 12.3191 5.49792C11.7134 5.47031 11.5319 5.46436 9.99866 5.46436C8.4653 5.46436 8.28372 5.47015 7.67825 5.49777C7.11841 5.52341 6.8143 5.61694 6.61212 5.69553C6.36264 5.78754 6.13696 5.93433 5.95187 6.12506C5.76114 6.3103 5.61435 6.53583 5.52219 6.78531C5.4436 6.98764 5.35007 7.29175 5.32458 7.85159C5.29697 8.45706 5.29102 8.63864 5.29102 10.172C5.29102 11.7052 5.29697 11.8868 5.32458 12.4924C5.35007 13.0522 5.4436 13.3562 5.52219 13.5585C5.61435 13.808 5.76099 14.0335 5.95172 14.2188C6.13696 14.4095 6.36249 14.5563 6.61197 14.6483C6.8143 14.7271 7.11841 14.8206 7.67825 14.8461C8.28372 14.8737 8.46515 14.8795 9.9985 14.8795C11.532 14.8795 11.7136 14.8737 12.3189 14.8461C12.8788 14.8206 13.1829 14.7271 13.3852 14.6483C13.886 14.4551 14.2818 14.0593 14.475 13.5585C14.5536 13.3562 14.6471 13.0522 14.6727 12.4924C14.7003 11.8868 14.7061 11.7052 14.7061 10.172C14.7061 8.63864 14.7003 8.45706 14.6727 7.85159C14.6472 7.29175 14.5537 6.98764 14.475 6.78531ZM9.99866 13.1205C8.37009 13.1205 7.0499 11.8004 7.0499 10.1718C7.0499 8.54327 8.37009 7.22324 9.99866 7.22324C11.6271 7.22324 12.9473 8.54327 12.9473 10.1718C12.9473 11.8004 11.6271 13.1205 9.99866 13.1205ZM13.0638 7.79575C12.6833 7.79575 12.3748 7.48721 12.3748 7.10666C12.3748 6.7261 12.6833 6.41757 13.0638 6.41757C13.4444 6.41757 13.7529 6.7261 13.7529 7.10666C13.7528 7.48721 13.4444 7.79575 13.0638 7.79575Z" fill="white"/>
<path d="M9.99902 0.171875C4.47702 0.171875 -0.000976562 4.64987 -0.000976562 10.1719C-0.000976562 15.6939 4.47702 20.1719 9.99902 20.1719C15.521 20.1719 19.999 15.6939 19.999 10.1719C19.999 4.64987 15.521 0.171875 9.99902 0.171875ZM15.7066 12.5393C15.6788 13.1505 15.5816 13.5679 15.4397 13.9332C15.1414 14.7045 14.5316 15.3142 13.7603 15.6125C13.3952 15.7545 12.9777 15.8515 12.3666 15.8794C11.7542 15.9073 11.5586 15.9141 9.99918 15.9141C8.43958 15.9141 8.24411 15.9073 7.63162 15.8794C7.02051 15.8515 6.60303 15.7545 6.23788 15.6125C5.85458 15.4684 5.5076 15.2424 5.22073 14.9502C4.92868 14.6635 4.7027 14.3163 4.5585 13.9332C4.4166 13.568 4.3194 13.1505 4.29163 12.5394C4.2634 11.9269 4.25684 11.7313 4.25684 10.1719C4.25684 8.61243 4.2634 8.41681 4.29147 7.80447C4.31924 7.19321 4.41629 6.77588 4.5582 6.41058C4.70239 6.02744 4.92853 5.6803 5.22073 5.39359C5.50745 5.10138 5.85458 4.8754 6.23773 4.7312C6.60303 4.58929 7.02036 4.49225 7.63162 4.46432C8.24396 4.4364 8.43958 4.42969 9.99902 4.42969C11.5585 4.42969 11.7541 4.4364 12.3664 4.46448C12.9777 4.49225 13.395 4.58929 13.7603 4.73105C14.1435 4.87524 14.4906 5.10138 14.7775 5.39359C15.0695 5.68045 15.2957 6.02744 15.4397 6.41058C15.5818 6.77588 15.6788 7.19321 15.7067 7.80447C15.7346 8.41681 15.7412 8.61243 15.7412 10.1719C15.7412 11.7313 15.7346 11.9269 15.7066 12.5393V12.5393Z" fill="white"/>
</g>
<defs>
<clipPath id="clip0_2_3169">
<rect width="20" height="20" fill="white" transform="translate(-0.000976562 0.171875)"/>
</clipPath>
</defs>
</svg>
