<svg width="11" height="10" viewBox="0 0 11 10" fill="none" xmlns="http://www.w3.org/2000/svg">
<path d="M5.9414 9.18437C5.79903 9.18437 5.66178 9.1328 5.55482 9.03911C5.15084 8.68587 4.76136 8.35391 4.41773 8.0611L4.41598 8.05957C3.40852 7.20104 2.53854 6.45961 1.93323 5.72925C1.25658 4.91276 0.941406 4.1386 0.941406 3.29289C0.941406 2.4712 1.22316 1.71315 1.73471 1.15826C2.25236 0.596816 2.96266 0.287598 3.73498 0.287598C4.31222 0.287598 4.84086 0.470092 5.30617 0.82997C5.54101 1.01163 5.75387 1.23395 5.9414 1.49327C6.129 1.23395 6.34179 1.01163 6.5767 0.82997C7.04201 0.470092 7.57065 0.287598 8.14789 0.287598C8.92014 0.287598 9.63051 0.596816 10.1482 1.15826C10.6597 1.71315 10.9414 2.4712 10.9414 3.29289C10.9414 4.1386 10.6263 4.91276 9.94964 5.72918C9.34433 6.45961 8.47443 7.20096 7.46712 8.05942C7.12288 8.35269 6.73279 8.68518 6.3279 9.03926C6.22101 9.1328 6.08368 9.18437 5.9414 9.18437V9.18437ZM3.73498 0.873381C3.12822 0.873381 2.57081 1.11554 2.16531 1.5553C1.75378 2.00169 1.52711 2.61875 1.52711 3.29289C1.52711 4.00417 1.79147 4.64031 2.3842 5.35549C2.95709 6.04679 3.80921 6.77295 4.79585 7.61379L4.79768 7.61531C5.1426 7.90927 5.53361 8.24252 5.94056 8.59836C6.34995 8.24184 6.74157 7.90805 7.08718 7.61363C8.07373 6.7728 8.92578 6.04679 9.49867 5.35549C10.0913 4.64031 10.3557 4.00417 10.3557 3.29289C10.3557 2.61875 10.129 2.00169 9.71748 1.5553C9.31206 1.11554 8.75458 0.873381 8.14789 0.873381C7.7034 0.873381 7.29531 1.01468 6.93497 1.2933C6.61385 1.54172 6.39016 1.85574 6.25901 2.07547C6.19156 2.18846 6.07285 2.2559 5.9414 2.2559C5.80994 2.2559 5.69123 2.18846 5.62379 2.07547C5.49271 1.85574 5.26902 1.54172 4.94782 1.2933C4.58749 1.01468 4.17939 0.873381 3.73498 0.873381V0.873381Z" fill="black"/>
</svg>
