<svg width="67" height="53" viewBox="0 0 67 53" fill="none" xmlns="http://www.w3.org/2000/svg">
<g clip-path="url(#clip0_2_3251)">
<path d="M12.1877 52.1638V48.7143C12.1877 47.392 11.3829 46.5296 10.0031 46.5296C9.31319 46.5296 8.56581 46.7596 8.04839 47.507C7.64595 46.8746 7.07103 46.5296 6.20866 46.5296C5.63375 46.5296 5.05885 46.7021 4.59892 47.3345V46.6446H3.3916V52.1638H4.59892V49.1167C4.59892 48.1394 5.11633 47.6794 5.92121 47.6794C6.72608 47.6794 7.12852 48.1969 7.12852 49.1167V52.1638H8.33584V49.1167C8.33584 48.1394 8.91075 47.6794 9.65813 47.6794C10.463 47.6794 10.8654 48.1969 10.8654 49.1167V52.1638H12.1877V52.1638ZM30.0675 46.6446H28.1128V44.9774H26.9055V46.6446H25.8131V47.7369H26.9055V50.2665C26.9055 51.5314 27.4229 52.2787 28.8027 52.2787C29.3201 52.2787 29.895 52.1063 30.2974 51.8763L29.9525 50.8415C29.6075 51.0714 29.2051 51.1289 28.9177 51.1289C28.3427 51.1289 28.1128 50.784 28.1128 50.2091V47.7369H30.0675V46.6446V46.6446ZM40.3009 46.5296C39.611 46.5296 39.1511 46.8746 38.8636 47.3345V46.6446H37.6563V52.1638H38.8636V49.0592C38.8636 48.1394 39.2661 47.622 40.0134 47.622C40.2434 47.622 40.5309 47.6795 40.7608 47.7369L41.1058 46.5871C40.8758 46.5296 40.5309 46.5296 40.3009 46.5296V46.5296ZM24.8358 47.1045C24.2609 46.7021 23.456 46.5296 22.5936 46.5296C21.2138 46.5296 20.294 47.2195 20.294 48.3119C20.294 49.2317 20.9839 49.7491 22.1912 49.9216L22.7661 49.9791C23.3985 50.0941 23.7435 50.2665 23.7435 50.554C23.7435 50.9564 23.2835 51.2439 22.4786 51.2439C21.6738 51.2439 21.0414 50.9564 20.6389 50.669L20.064 51.5889C20.6964 52.0488 21.5588 52.2787 22.4212 52.2787C24.0309 52.2787 24.9508 51.5314 24.9508 50.4965C24.9508 49.5192 24.2034 49.0017 23.0536 48.8293L22.4786 48.7718C21.9612 48.7143 21.5588 48.5993 21.5588 48.2544C21.5588 47.8519 21.9612 47.622 22.5936 47.622C23.2835 47.622 23.9734 47.9094 24.3184 48.0819L24.8358 47.1045V47.1045ZM56.9158 46.5296C56.2259 46.5296 55.766 46.8746 55.4786 47.3345V46.6446H54.2712V52.1638H55.4786V49.0592C55.4786 48.1394 55.881 47.622 56.6284 47.622C56.8584 47.622 57.1458 47.6795 57.3758 47.7369L57.7207 46.5871C57.4907 46.5296 57.1458 46.5296 56.9158 46.5296V46.5296ZM41.5082 49.4042C41.5082 51.0714 42.658 52.2787 44.4403 52.2787C45.2451 52.2787 45.82 52.1063 46.395 51.6463L45.82 50.669C45.3601 51.0139 44.9002 51.1864 44.3828 51.1864C43.4054 51.1864 42.7155 50.4965 42.7155 49.4042C42.7155 48.3693 43.4054 47.6795 44.3828 47.622C44.9002 47.622 45.3601 47.7944 45.82 48.1394L46.395 47.162C45.82 46.7021 45.2451 46.5296 44.4403 46.5296C42.658 46.5296 41.5082 47.7369 41.5082 49.4042V49.4042ZM52.6615 49.4042V46.6446H51.4542V47.3345C51.0517 46.8171 50.4768 46.5296 49.7295 46.5296C48.1772 46.5296 46.9699 47.7369 46.9699 49.4042C46.9699 51.0714 48.1772 52.2787 49.7295 52.2787C50.5343 52.2787 51.1092 51.9913 51.4542 51.4739V52.1638H52.6615V49.4042ZM48.2347 49.4042C48.2347 48.4268 48.8671 47.622 49.9019 47.622C50.8793 47.622 51.5692 48.3693 51.5692 49.4042C51.5692 50.3815 50.8793 51.1864 49.9019 51.1864C48.8671 51.1289 48.2347 50.3815 48.2347 49.4042ZM33.8044 46.5296C32.1947 46.5296 31.0448 47.6794 31.0448 49.4042C31.0448 51.1289 32.1947 52.2787 33.8619 52.2787C34.6668 52.2787 35.4716 52.0488 36.104 51.5314L35.5291 50.669C35.0692 51.0139 34.4943 51.2439 33.9194 51.2439C33.172 51.2439 32.4246 50.899 32.2521 49.9216H36.334C36.334 49.7491 36.334 49.6341 36.334 49.4617C36.3915 47.6795 35.3567 46.5296 33.8044 46.5296V46.5296ZM33.8044 47.5645C34.5518 47.5645 35.0692 48.0244 35.1842 48.8868H32.3096C32.4246 48.1394 32.942 47.5645 33.8044 47.5645ZM63.7573 49.4042V44.46H62.55V47.3345C62.1475 46.8171 61.5726 46.5296 60.8252 46.5296C59.273 46.5296 58.0657 47.7369 58.0657 49.4042C58.0657 51.0714 59.273 52.2787 60.8252 52.2787C61.6301 52.2787 62.205 51.9913 62.55 51.4739V52.1638H63.7573V49.4042ZM59.3305 49.4042C59.3305 48.4268 59.9629 47.622 60.9977 47.622C61.975 47.622 62.665 48.3693 62.665 49.4042C62.665 50.3815 61.975 51.1864 60.9977 51.1864C59.9629 51.1289 59.3305 50.3815 59.3305 49.4042ZM18.9717 49.4042V46.6446H17.7644V47.3345C17.3619 46.8171 16.787 46.5296 16.0396 46.5296C14.4874 46.5296 13.2801 47.7369 13.2801 49.4042C13.2801 51.0714 14.4874 52.2787 16.0396 52.2787C16.8445 52.2787 17.4194 51.9913 17.7644 51.4739V52.1638H18.9717V49.4042ZM14.4874 49.4042C14.4874 48.4268 15.1198 47.622 16.1546 47.622C17.132 47.622 17.8219 48.3693 17.8219 49.4042C17.8219 50.3815 17.132 51.1864 16.1546 51.1864C15.1198 51.1289 14.4874 50.3815 14.4874 49.4042Z" fill="black"/>
<path d="M42.5423 4.7334H24.4326V37.2734H42.5423V4.7334Z" fill="#FF5F00"/>
<path d="M25.5836 21.0034C25.5836 14.392 28.6881 8.52788 33.4598 4.73347C29.9529 1.97389 25.5261 0.306641 20.6968 0.306641C9.25607 0.306641 0 9.56271 0 21.0034C0 32.4442 9.25607 41.7003 20.6968 41.7003C25.5261 41.7003 29.9529 40.033 33.4598 37.2735C28.6881 33.5365 25.5836 27.6149 25.5836 21.0034Z" fill="#EB001B"/>
<path d="M66.9774 21.0034C66.9774 32.4442 57.7213 41.7003 46.2806 41.7003C41.4514 41.7003 37.0245 40.033 33.5176 37.2735C38.3468 33.479 41.3939 27.6149 41.3939 21.0034C41.3939 14.392 38.2893 8.52788 33.5176 4.73347C37.0245 1.97389 41.4514 0.306641 46.2806 0.306641C57.7213 0.306641 66.9774 9.62021 66.9774 21.0034Z" fill="#F79E1B"/>
</g>
<defs>
<clipPath id="clip0_2_3251">
<rect width="66.9772" height="51.972" fill="white" transform="translate(0 0.306641)"/>
</clipPath>
</defs>
</svg>
