<svg width="17" height="17" viewBox="0 0 17 17" fill="none" xmlns="http://www.w3.org/2000/svg">
<path d="M16.1897 6.58963C16.085 6.26564 15.7976 6.03553 15.4577 6.00489L10.8396 5.58557L9.01353 1.31141C8.87888 0.998174 8.57223 0.79541 8.23153 0.79541C7.89082 0.79541 7.58417 0.998174 7.44952 1.31215L5.62343 5.58557L1.00466 6.00489C0.665292 6.03627 0.378664 6.26564 0.273314 6.58963C0.167965 6.91361 0.265258 7.26896 0.521978 7.49297L4.01267 10.5543L2.98335 15.0885C2.90803 15.4219 3.03742 15.7665 3.31404 15.9665C3.46273 16.0739 3.63668 16.1286 3.8121 16.1286C3.96335 16.1286 4.11338 16.0878 4.24803 16.0072L8.23153 13.6264L12.2136 16.0072C12.505 16.1825 12.8723 16.1665 13.1483 15.9665C13.425 15.7659 13.5543 15.4212 13.479 15.0885L12.4497 10.5543L15.9403 7.49358C16.1971 7.26896 16.2951 6.91422 16.1897 6.58963V6.58963Z" fill="#FFB624"/>
</svg>
