<svg width="107" height="38" viewBox="0 0 107 38" fill="none" xmlns="http://www.w3.org/2000/svg">
<path d="M13.0507 0.308228H4.76953C4.20275 0.308228 3.72085 0.850897 3.63243 1.58832L0.28311 29.5712C0.216495 30.1231 0.541084 30.6211 0.96604 30.6211H4.91963C5.48631 30.6211 5.9682 30.0787 6.05663 29.3399L6.95993 21.7925C7.04717 21.0536 7.53025 20.511 8.09575 20.511H10.7173C16.1724 20.511 19.3207 17.0325 20.143 10.1392C20.5134 7.12341 20.1586 4.75393 19.087 3.09447C17.91 1.27205 15.8224 0.308228 13.0507 0.308228V0.308228ZM14.0062 10.5286C13.5533 14.4444 11.2828 14.4444 9.08748 14.4444H7.83787L8.71453 7.13151C8.76665 6.68945 9.05719 6.36395 9.39629 6.36395H9.96898C11.4644 6.36395 12.8752 6.36395 13.6041 7.48717C14.0388 8.15745 14.1721 9.15309 14.0062 10.5286Z" fill="#283B82"/>
<path d="M37.8043 10.4029H33.8388C33.501 10.4029 33.2092 10.7285 33.1569 11.1705L32.9816 12.6321L32.7042 12.1023C31.8457 10.4603 29.9312 9.9115 28.0204 9.9115C23.6383 9.9115 19.8954 14.2852 19.1665 20.4205C18.7875 23.4809 19.3263 26.4074 20.6438 28.4481C21.8522 30.3246 23.5813 31.1064 25.6387 31.1064C29.1697 31.1064 31.1277 28.1148 31.1277 28.1148L30.9508 29.5668C30.8841 30.1221 31.2088 30.6199 31.6315 30.6199H35.2033C35.7713 30.6199 36.2508 30.0773 36.3405 29.3387L38.4837 11.4528C38.5516 10.9023 38.2283 10.4029 37.8043 10.4029V10.4029ZM32.2767 20.5737C31.8942 23.559 30.0959 25.5634 27.8026 25.5634C26.6511 25.5634 25.7307 25.0766 25.1397 24.1543C24.5537 23.2384 24.3309 21.9347 24.5174 20.4826C24.8746 17.5227 26.7031 15.4533 28.9613 15.4533C30.0876 15.4533 31.0029 15.9463 31.6059 16.8764C32.2103 17.8162 32.4498 19.1279 32.2767 20.5737Z" fill="#283B82"/>
<path d="M58.9256 10.4026H54.9406C54.5604 10.4026 54.2032 10.6515 53.9876 11.0681L48.4914 21.7366L46.1617 11.4845C46.0152 10.8429 45.566 10.4026 45.0574 10.4026H41.1414C40.6654 10.4026 40.335 11.0153 40.4863 11.6057L44.8757 28.5803L40.749 36.2571C40.4244 36.8617 40.7513 37.6934 41.3122 37.6934H45.2924C45.6701 37.6934 46.0238 37.4507 46.238 37.0422L59.4923 11.8308C59.8096 11.2275 59.4839 10.4026 58.9256 10.4026" fill="#283B82"/>
<path d="M72.1191 0.308228H63.8366C63.2712 0.308228 62.7892 0.850897 62.7007 1.58832L59.3514 29.5712C59.285 30.1231 59.6094 30.6211 60.0321 30.6211H64.2823C64.6769 30.6211 65.015 30.2415 65.0766 29.7244L66.0271 21.7925C66.1142 21.0536 66.5975 20.511 67.1629 20.511H69.7834C75.2395 20.511 78.3867 17.0325 79.21 10.1392C79.5819 7.12341 79.2247 4.75393 78.153 3.09447C76.9772 1.27205 74.8908 0.308228 72.1191 0.308228V0.308228ZM73.0746 10.5286C72.6228 14.4444 70.3526 14.4444 68.1558 14.4444H66.9075L67.7855 7.13151C67.8375 6.68945 68.1255 6.36395 68.4658 6.36395H69.0386C70.533 6.36395 71.9447 6.36395 72.6736 7.48717C73.1084 8.15745 73.2403 9.15309 73.0746 10.5286Z" fill="#469BDB"/>
<path d="M96.8726 10.4029H92.9094C92.5691 10.4029 92.2795 10.7285 92.2288 11.1705L92.0532 12.6321L91.7748 12.1023C90.9163 10.4603 89.003 9.9115 87.0923 9.9115C82.7099 9.9115 78.9685 14.2852 78.2393 20.4205C77.8616 23.4809 78.398 26.4074 79.7155 28.4481C80.9265 30.3246 82.653 31.1064 84.7103 31.1064C88.2413 31.1064 90.1993 28.1148 90.1993 28.1148L90.0224 29.5668C89.956 30.1221 90.2804 30.6199 90.7056 30.6199H94.2764C94.8419 30.6199 95.3239 30.0773 95.4123 29.3387L97.5568 11.4528C97.622 10.9023 97.2976 10.4029 96.8726 10.4029V10.4029ZM91.3448 20.5737C90.9645 23.559 89.1639 25.5634 86.8707 25.5634C85.7214 25.5634 84.7987 25.0766 84.2078 24.1543C83.6219 23.2384 83.4014 21.9347 83.5856 20.4826C83.9451 17.5227 85.7712 15.4533 88.0296 15.4533C89.1556 15.4533 90.0709 15.9463 90.674 16.8764C91.2806 17.8162 91.5203 19.1279 91.3448 20.5737Z" fill="#469BDB"/>
<path d="M101.547 1.07594L98.1483 29.5712C98.0819 30.1231 98.4063 30.6211 98.8289 30.6211H102.246C102.814 30.6211 103.296 30.0787 103.383 29.3399L106.735 1.35859C106.801 0.806271 106.477 0.306885 106.054 0.306885H102.228C101.89 0.308217 101.599 0.634149 101.547 1.07594" fill="#469BDB"/>
</svg>
