<svg width="25" height="25" viewBox="0 0 25 25" fill="none" xmlns="http://www.w3.org/2000/svg">
<g clip-path="url(#clip0_2_3218)">
<path d="M10.9158 0.787109C5.08813 0.787109 0.34668 5.53196 0.34668 11.3638C0.34668 17.1959 5.08813 21.9404 10.9158 21.9404C16.7437 21.9404 21.4849 17.1959 21.4849 11.3638C21.4849 5.53196 16.7437 0.787109 10.9158 0.787109ZM10.9158 19.9879C6.16391 19.9879 2.2979 16.1191 2.2979 11.3638C2.2979 6.60855 6.16391 2.73972 10.9158 2.73972C15.6676 2.73972 19.5336 6.60851 19.5336 11.3638C19.5336 16.119 15.6676 19.9879 10.9158 19.9879Z" fill="#244D4D"/>
<path d="M24.0607 23.1375L18.4671 17.54C18.086 17.1586 17.4688 17.1586 17.0876 17.54C16.7065 17.9211 16.7065 18.5394 17.0876 18.9205L22.6811 24.518C22.8717 24.7087 23.1211 24.804 23.3709 24.804C23.6203 24.804 23.8701 24.7087 24.0607 24.518C24.4418 24.1369 24.4418 23.5186 24.0607 23.1375Z" fill="#244D4D"/>
</g>
<defs>
<clipPath id="clip0_2_3218">
<rect width="24" height="24.0333" fill="white" transform="translate(0.34668 0.769531)"/>
</clipPath>
</defs>
</svg>
