<svg width="10" height="11" viewBox="0 0 10 11" fill="none" xmlns="http://www.w3.org/2000/svg">
<path d="M7.87109 7.2251C7.29227 7.2251 6.77795 7.50639 6.45746 7.93938L3.69828 6.52932C3.74457 6.37205 3.76953 6.20574 3.76953 6.03369C3.76953 5.80066 3.72385 5.57814 3.64113 5.37445L6.53293 3.63699C6.85559 4.0157 7.33574 4.25635 7.87109 4.25635C8.84035 4.25635 9.62891 3.46779 9.62891 2.49854C9.62891 1.52928 8.84035 0.740723 7.87109 0.740723C6.90184 0.740723 6.11328 1.52928 6.11328 2.49854C6.11328 2.72256 6.15549 2.93688 6.23223 3.13408L3.3332 4.87588C3.01078 4.50834 2.53791 4.27588 2.01172 4.27588C1.04246 4.27588 0.253906 5.06443 0.253906 6.03369C0.253906 7.00295 1.04246 7.7915 2.01172 7.7915C2.60004 7.7915 3.12172 7.50096 3.44096 7.05584L6.19213 8.4618C6.1409 8.62652 6.11328 8.80154 6.11328 8.98291C6.11328 9.95217 6.90184 10.7407 7.87109 10.7407C8.84035 10.7407 9.62891 9.95217 9.62891 8.98291C9.62891 8.01365 8.84035 7.2251 7.87109 7.2251ZM7.87109 1.32666C8.51727 1.32666 9.04297 1.85236 9.04297 2.49854C9.04297 3.14471 8.51727 3.67041 7.87109 3.67041C7.22492 3.67041 6.69922 3.14471 6.69922 2.49854C6.69922 1.85236 7.22492 1.32666 7.87109 1.32666ZM2.01172 7.20557C1.36555 7.20557 0.839844 6.67986 0.839844 6.03369C0.839844 5.38752 1.36555 4.86182 2.01172 4.86182C2.65789 4.86182 3.18359 5.38752 3.18359 6.03369C3.18359 6.67986 2.65789 7.20557 2.01172 7.20557ZM7.87109 10.1548C7.22492 10.1548 6.69922 9.62908 6.69922 8.98291C6.69922 8.33674 7.22492 7.81104 7.87109 7.81104C8.51727 7.81104 9.04297 8.33674 9.04297 8.98291C9.04297 9.62908 8.51727 10.1548 7.87109 10.1548Z" fill="black"/>
</svg>
