<svg width="40" height="41" viewBox="0 0 40 41" fill="none" xmlns="http://www.w3.org/2000/svg">
<circle cx="20" cy="20.8682" r="20" fill="#ECF4FF"/>
<g clip-path="url(#clip0_43_1761)">
<path d="M24.4444 20.2438L17.3242 13.1238C17.1596 12.959 16.9397 12.8682 16.7053 12.8682C16.4709 12.8682 16.2511 12.959 16.0864 13.1238L15.562 13.648C15.2208 13.9896 15.2208 14.5448 15.562 14.8858L21.5411 20.8648L15.5554 26.8505C15.3907 27.0153 15.2998 27.235 15.2998 27.4693C15.2998 27.7038 15.3907 27.9235 15.5554 28.0885L16.0798 28.6126C16.2446 28.7774 16.4643 28.8682 16.6987 28.8682C16.9331 28.8682 17.1529 28.7774 17.3176 28.6126L24.4444 21.486C24.6095 21.3206 24.7002 21.0999 24.6997 20.8652C24.7002 20.6297 24.6095 20.409 24.4444 20.2438Z" fill="#666666"/>
</g>
<defs>
<clipPath id="clip0_43_1761">
<rect width="16" height="16" fill="white" transform="translate(28 28.8682) rotate(-180)"/>
</clipPath>
</defs>
</svg>
