<svg width="40" height="41" viewBox="0 0 40 41" fill="none" xmlns="http://www.w3.org/2000/svg">
<circle cx="20" cy="20.8682" r="20" fill="#ECF4FF"/>
<g clip-path="url(#clip0_43_1761)">
<path d="M15.5546 21.4925L22.6748 28.6126C22.8395 28.7774 23.0593 28.8682 23.2937 28.8682C23.5281 28.8682 23.7479 28.7774 23.9126 28.6126L24.437 28.0883C24.7782 27.7467 24.7782 27.1916 24.437 26.8505L18.458 20.8715L24.4436 14.8858C24.6083 14.721 24.6992 14.5013 24.6992 14.267C24.6992 14.0325 24.6083 13.8128 24.4436 13.6479L23.9193 13.1238C23.7544 12.959 23.5347 12.8682 23.3003 12.8682C23.0659 12.8682 22.8461 12.959 22.6814 13.1238L15.5546 20.2503C15.3895 20.4157 15.2988 20.6364 15.2994 20.8711C15.2988 21.1067 15.3895 21.3273 15.5546 21.4925Z" fill="#666666"/>
</g>
<defs>
<clipPath id="clip0_43_1761">
<rect width="16" height="16" fill="white" transform="translate(28 28.8682) rotate(-180)"/>
</clipPath>
</defs>
</svg>
