<svg width="112" height="47" viewBox="0 0 112 47" fill="none" xmlns="http://www.w3.org/2000/svg">
<g clip-path="url(#clip0_2_3291)">
<path d="M8.55731 18.354C8.55731 17.1494 9.54576 16.686 11.1832 16.686C13.5306 16.686 16.496 17.3966 18.8437 18.6631V11.4038C16.2799 10.3845 13.747 9.98287 11.1832 9.98287C4.91234 9.98287 0.742188 13.2573 0.742188 18.725C0.742188 27.2503 12.4803 25.8913 12.4803 29.5674C12.4803 30.988 11.2449 31.4515 9.51492 31.4515C6.95115 31.4515 3.67671 30.4012 1.08188 28.9803V36.3321C3.95472 37.5678 6.85841 38.0927 9.51492 38.0927C15.94 38.0927 20.3573 34.9112 20.3573 29.3819C20.3265 20.1767 8.55731 21.8137 8.55731 18.354V18.354ZM29.4389 3.80497L21.9018 5.41113L21.8709 30.154C21.8709 34.726 25.2998 38.0927 29.8715 38.0927C32.4045 38.0927 34.2578 37.6294 35.2771 37.0734V30.8028C34.2889 31.2044 29.4081 32.6253 29.4081 28.0535V17.0875H35.2771V10.508H29.4081L29.4389 3.80497V3.80497ZM44.8841 12.7938L44.3897 10.508H37.7175V37.5367H45.4401V19.2191C47.2624 16.8406 50.3515 17.273 51.3092 17.6127V10.508C50.3207 10.1373 46.7066 9.45769 44.8841 12.7938V12.7938ZM53.1933 10.508H60.9468V37.5367H53.1933V10.508V10.508ZM53.1933 8.16038L60.9468 6.49232V0.22168L53.1933 1.8589V8.16017V8.16038ZM77.0713 9.98287C74.0441 9.98287 72.098 11.4038 71.017 12.3924L70.6152 10.4772H63.8196V46.4947L71.542 44.8577L71.573 36.1158C72.6851 36.919 74.3221 38.0619 77.0405 38.0619C82.5698 38.0619 87.6049 33.6137 87.6049 23.8217C87.574 14.8635 82.4771 9.98287 77.0713 9.98287V9.98287ZM75.218 31.2661C73.3955 31.2661 72.3141 30.6175 71.573 29.8143L71.542 18.354C72.3452 17.4583 73.4572 16.8406 75.218 16.8406C78.029 16.8406 79.975 19.9912 79.975 24.0378C79.975 28.1771 78.0598 31.2661 75.218 31.2661V31.2661ZM111.946 24.1305C111.946 16.2227 108.116 9.98287 100.795 9.98287C93.4429 9.98287 88.9947 16.2229 88.9947 24.0689C88.9947 33.3665 94.2463 38.0619 101.783 38.0619C105.459 38.0619 108.239 37.2278 110.34 36.0541V29.876C108.24 30.9264 105.83 31.5751 102.772 31.5751C99.7754 31.5751 97.1189 30.5248 96.7792 26.8798H111.884C111.884 26.478 111.946 24.8718 111.946 24.1305ZM96.6865 21.196C96.6865 17.7055 98.818 16.2535 100.764 16.2535C102.648 16.2535 104.656 17.7055 104.656 21.196H96.6865Z" fill="#154444" fill-opacity="0.86"/>
</g>
<defs>
<clipPath id="clip0_2_3291">
<rect width="111.204" height="46.4833" fill="white" transform="translate(0.742188 0.219727)"/>
</clipPath>
</defs>
</svg>
