<svg width="17" height="17" viewBox="0 0 17 17" fill="none" xmlns="http://www.w3.org/2000/svg">
<g clip-path="url(#clip0_2_4471)">
<path d="M10.623 8.44804L16.017 11.858V4.89404L10.623 8.44804Z" fill="#7F7F7F"/>
<path d="M0.0175781 4.89404V11.858L5.41158 8.44804L0.0175781 4.89404Z" fill="#7F7F7F"/>
<path d="M15.0179 2.86621H1.01785C0.518852 2.86621 0.122852 3.23821 0.0478516 3.71721L8.01785 8.96821L15.9879 3.71721C15.9129 3.23821 15.5169 2.86621 15.0179 2.86621Z" fill="#7F7F7F"/>
<path d="M9.7078 9.05227L8.2928 9.98427C8.2088 10.0393 8.1138 10.0663 8.0178 10.0663C7.9218 10.0663 7.8268 10.0393 7.7428 9.98427L6.3278 9.05127L0.0498047 13.0223C0.126805 13.4973 0.520805 13.8663 1.0178 13.8663H15.0178C15.5148 13.8663 15.9088 13.4973 15.9858 13.0223L9.7078 9.05227Z" fill="#7F7F7F"/>
</g>
<defs>
<clipPath id="clip0_2_4471">
<rect width="16" height="16" fill="white" transform="translate(0.0175781 0.366211)"/>
</clipPath>
</defs>
</svg>
