<svg width="20" height="21" viewBox="0 0 20 21" fill="none" xmlns="http://www.w3.org/2000/svg">
<g clip-path="url(#clip0_2_3162)">
<path d="M9.99991 20.1717C15.5227 20.1717 19.9998 15.6946 19.9998 10.1718C19.9998 4.64899 15.5227 0.171875 9.99991 0.171875C4.47711 0.171875 0 4.64899 0 10.1718C0 15.6946 4.47711 20.1717 9.99991 20.1717Z" fill="white"/>
<path d="M16.1242 7.35868C15.6957 7.5487 15.2347 7.67723 14.7513 7.73462C15.2449 7.43889 15.6237 6.97097 15.8025 6.41249C15.3406 6.68647 14.8288 6.88523 14.2846 6.99236C13.8486 6.528 13.2273 6.23779 12.5394 6.23779C11.2196 6.23779 10.1492 7.30823 10.1492 8.62805C10.1492 8.8154 10.1704 8.99776 10.2114 9.17281C8.22489 9.07316 6.46353 8.12162 5.28453 6.67506C5.07882 7.02801 4.96081 7.43889 4.96081 7.87687C4.96081 8.70595 5.3831 9.43788 6.02412 9.86641C5.63249 9.85411 5.26367 9.74662 4.94156 9.56712C4.94138 9.57728 4.94138 9.58744 4.94138 9.59742C4.94138 10.7556 5.76565 11.7215 6.8589 11.941C6.65854 11.9959 6.44695 12.0249 6.22929 12.0249C6.07492 12.0249 5.92537 12.0101 5.77955 11.9823C6.08366 12.9317 6.96621 13.6228 8.01241 13.6423C7.1942 14.2835 6.1637 14.6655 5.04352 14.6655C4.851 14.6655 4.66027 14.6542 4.47363 14.632C5.53088 15.3104 6.7876 15.706 8.13737 15.706C12.5339 15.706 14.9383 12.0638 14.9383 8.90489C14.9383 8.80132 14.9359 8.69811 14.9313 8.59579C15.3987 8.25888 15.8039 7.83801 16.1242 7.35868Z" fill="#305F64"/>
</g>
<defs>
<clipPath id="clip0_2_3162">
<rect width="20" height="20" fill="white" transform="translate(-0.000976562 0.171875)"/>
</clipPath>
</defs>
</svg>
