<svg width="99" height="35" viewBox="0 0 99 35" fill="none" xmlns="http://www.w3.org/2000/svg">
<g clip-path="url(#clip0_2_3239)">
<path d="M6.57441 24.589C6.98558 25.6874 7.55483 26.6265 8.28228 27.4064C9.00972 28.1864 9.87153 28.7833 10.8677 29.1972C11.864 29.6111 12.9472 29.818 14.1174 29.818C15.256 29.818 16.3233 29.603 17.3196 29.1732C18.3159 28.7434 19.1855 28.1385 19.9287 27.3586C20.6719 26.5786 21.2491 25.6475 21.6603 24.5651C22.0715 23.4827 22.277 22.2731 22.277 20.9359V0.306641H27.2582V33.7336H22.3245V30.6297C21.2175 31.8075 19.9129 32.7148 18.4106 33.3517C16.9083 33.9883 15.2876 34.3066 13.5481 34.3066C11.7769 34.3066 10.1245 33.9962 8.59058 33.3754C7.05675 32.7547 5.72835 31.8713 4.6057 30.7252C3.48304 29.5791 2.59741 28.2024 1.94911 26.5946C1.30071 24.9869 0.976562 23.1963 0.976562 21.2224V0.306641H5.95771V20.9359C5.95771 22.2731 6.16324 23.4906 6.57441 24.589Z" fill="#154444"/>
<path d="M35.8441 0.306641V12.4836C36.951 11.3694 38.232 10.486 39.6867 9.83334C41.1415 9.18066 42.7229 8.85437 44.4307 8.85437C46.2018 8.85437 47.862 9.18859 49.4118 9.85712C50.9615 10.5256 52.3055 11.433 53.4441 12.5791C54.5828 13.7252 55.4841 15.0781 56.1483 16.6381C56.8124 18.1981 57.1445 19.8535 57.1445 21.6044C57.1445 23.3553 56.8124 25.0028 56.1483 26.5467C55.4841 28.0908 54.5828 29.4359 53.4441 30.5818C52.3055 31.7279 50.9615 32.6353 49.4118 33.3038C47.862 33.9723 46.2017 34.3065 44.4307 34.3065C42.7228 34.3065 41.1337 33.9802 39.663 33.3276C38.1924 32.675 36.9036 31.7915 35.7967 30.6773V33.7335H31.0527V0.306641H35.8441ZM36.3896 24.8993C36.8165 25.9181 37.4096 26.8095 38.1687 27.5736C38.9277 28.3376 39.8132 28.9425 40.8253 29.3882C41.8374 29.8339 42.9284 30.0568 44.0986 30.0568C45.2373 30.0568 46.3125 29.8339 47.3245 29.3882C48.3365 28.9425 49.2141 28.3377 49.9575 27.5736C50.7006 26.8096 51.2936 25.9181 51.7364 24.8993C52.1791 23.8806 52.4005 22.7824 52.4005 21.6044C52.4005 20.4265 52.1791 19.3202 51.7364 18.2856C51.2936 17.2509 50.7006 16.3516 49.9575 15.5876C49.2142 14.8236 48.3366 14.2266 47.3245 13.7969C46.3124 13.3671 45.2372 13.1521 44.0986 13.1521C42.9601 13.1521 41.8848 13.367 40.8728 13.7969C39.8608 14.2267 38.9753 14.8236 38.2161 15.5876C37.4572 16.3516 36.8562 17.2509 36.4135 18.2856C35.9707 19.3202 35.7493 20.4265 35.7493 21.6044C35.7492 22.7824 35.9627 23.8806 36.3896 24.8993Z" fill="#154444"/>
<path d="M59.848 16.6859C60.4805 15.1578 61.3504 13.8128 62.4572 12.6509C63.564 11.4889 64.8766 10.5736 66.3947 9.90509C67.9128 9.23656 69.5574 8.90234 71.3284 8.90234C73.0679 8.90234 74.6809 9.22071 76.1673 9.85733C77.6537 10.4941 78.9346 11.3775 80.0099 12.5077C81.0852 13.6377 81.9234 14.9749 82.5241 16.5189C83.1251 18.0629 83.4255 19.7422 83.4255 21.5569V23.1328H63.7381C63.8963 24.1196 64.2126 25.0349 64.687 25.8784C65.1614 26.722 65.7543 27.4543 66.4659 28.075C67.1775 28.6959 67.984 29.1814 68.8853 29.5315C69.7867 29.8817 70.7433 30.0569 71.7554 30.0569C74.6335 30.0569 76.9581 28.863 78.7291 26.4753L82.1922 29.0539C80.9904 30.6775 79.504 31.951 77.733 32.8742C75.9618 33.7973 73.9694 34.259 71.7555 34.259C69.9528 34.259 68.2687 33.9405 66.7032 33.3039C65.1377 32.6673 63.7778 31.7758 62.6234 30.6297C61.4691 29.4835 60.5598 28.1386 59.8957 26.5946C59.2315 25.0506 58.8994 23.3712 58.8994 21.5567C58.8992 19.8376 59.2156 18.214 59.848 16.6859ZM66.5133 14.7996C65.1692 15.9298 64.2758 17.434 63.833 19.3123H78.5868C78.1756 17.434 77.298 15.9298 75.9538 14.7996C74.6097 13.6696 73.0363 13.1045 71.2336 13.1045C69.4309 13.1045 67.8575 13.6696 66.5133 14.7996Z" fill="#154444"/>
<path d="M92.3916 15.3486C91.3796 16.4629 90.8735 17.975 90.8735 19.8852V33.7336H86.082V9.37962H90.8259V12.3881C91.4269 11.4012 92.2097 10.6212 93.1742 10.0482C94.1388 9.47504 95.2853 9.18848 96.6137 9.18848H98.274V13.6773H96.2816C94.7003 13.6774 93.4036 14.2344 92.3916 15.3486Z" fill="#154444"/>
</g>
<defs>
<clipPath id="clip0_2_3239">
<rect width="97.2975" height="34" fill="white" transform="translate(0.976562 0.306641)"/>
</clipPath>
</defs>
</svg>
