<svg width="91" height="33" viewBox="0 0 91 33" fill="none" xmlns="http://www.w3.org/2000/svg">
<g clip-path="url(#clip0_2_3262)">
<path d="M33.5977 30.0668L38.1488 4.4668H45.2599L40.851 30.0668H33.5977Z" fill="#3C58BF"/>
<path d="M33.5977 30.0668L39.4288 4.4668H45.2599L40.851 30.0668H33.5977Z" fill="#293688"/>
<path d="M66.593 4.75106C65.1708 4.18217 62.8952 3.61328 60.0508 3.61328C52.9397 3.61328 47.8197 7.16883 47.8197 12.2888C47.8197 16.1288 51.3752 18.1199 54.2197 19.3999C57.0641 20.6799 57.9175 21.5333 57.9175 22.6711C57.9175 24.3777 55.6419 25.2311 53.6508 25.2311C50.8063 25.2311 49.2419 24.8044 46.8241 23.8088L45.8286 23.3822L44.833 29.2133C46.5397 29.9244 49.6686 30.6355 52.9397 30.6355C60.4775 30.6355 65.4552 27.0799 65.4552 21.6755C65.4552 18.6888 63.6063 16.4133 59.3397 14.5644C56.7797 13.2844 55.2152 12.5733 55.2152 11.2933C55.2152 10.1555 56.4952 9.01772 59.3397 9.01772C61.7575 9.01772 63.4641 9.44439 64.7441 10.0133L65.4552 10.2977L66.593 4.75106Z" fill="#3C58BF"/>
<path d="M66.593 4.75106C65.1708 4.18217 62.8952 3.61328 60.0508 3.61328C52.9397 3.61328 49.0997 7.16883 49.0997 12.2888C49.0997 16.1288 51.3752 18.1199 54.2197 19.3999C57.0641 20.6799 57.9175 21.5333 57.9175 22.6711C57.9175 24.3777 55.6419 25.2311 53.6508 25.2311C50.8063 25.2311 49.2419 24.8044 46.8241 23.8088L45.8286 23.3822L44.833 29.2133C46.5397 29.9244 49.6686 30.6355 52.9397 30.6355C60.4775 30.6355 65.4552 27.0799 65.4552 21.6755C65.4552 18.6888 63.6063 16.4133 59.3397 14.5644C56.7797 13.2844 55.2152 12.5733 55.2152 11.2933C55.2152 10.1555 56.4952 9.01772 59.3397 9.01772C61.7575 9.01772 63.4641 9.44439 64.7441 10.0133L65.4552 10.2977L66.593 4.75106Z" fill="#293688"/>
<path d="M78.8244 4.4668C77.1177 4.4668 75.8377 4.60902 75.1266 6.31569L64.46 30.0668H72.14L73.5622 25.8001H82.6644L83.5177 30.0668H90.3444L84.3711 4.4668H78.8244V4.4668ZM75.5533 21.5335C75.98 20.2535 78.3977 13.9957 78.3977 13.9957C78.3977 13.9957 78.9666 12.4312 79.3933 11.4357L79.8199 13.8535C79.8199 13.8535 81.2422 20.2535 81.5266 21.6757H75.5533V21.5335Z" fill="#3C58BF"/>
<path d="M80.5311 4.4668C78.8244 4.4668 77.5444 4.60902 76.8333 6.31569L64.46 30.0668H72.14L73.5622 25.8001H82.6644L83.5177 30.0668H90.3444L84.3711 4.4668H80.5311V4.4668ZM75.5533 21.5335C76.1222 20.1112 78.3977 13.9957 78.3977 13.9957C78.3977 13.9957 78.9666 12.4312 79.3933 11.4357L79.8199 13.8535C79.8199 13.8535 81.2422 20.2535 81.5266 21.6757H75.5533V21.5335Z" fill="#293688"/>
<path d="M20.5133 22.3872L19.8022 18.6894C18.5222 14.4227 14.3978 9.72938 9.84668 7.45382L16.2467 30.2094H23.9267L35.4467 4.60938H27.7667L20.5133 22.3872Z" fill="#3C58BF"/>
<path d="M20.5133 22.3872L19.8022 18.6894C18.5222 14.4227 14.3978 9.72938 9.84668 7.45382L16.2467 30.2094H23.9267L35.4467 4.60938H29.1889L20.5133 22.3872Z" fill="#293688"/>
<path d="M0.744141 4.4668L2.02414 4.75124C11.1264 6.88458 17.3841 12.289 19.8019 18.689L17.2419 6.60013C16.8153 4.89346 15.5353 4.4668 13.9708 4.4668H0.744141V4.4668Z" fill="#FFBC00"/>
<path d="M0.744141 4.4668C9.84636 6.60013 17.3841 12.1468 19.8019 18.5468L17.3841 8.44902C16.9575 6.74235 15.5353 5.7468 13.9708 5.7468L0.744141 4.4668Z" fill="#F7981D"/>
<path d="M0.744141 4.4668C9.84636 6.60013 17.3841 12.1468 19.8019 18.5468L18.0953 13.0001C17.6686 11.2935 17.0997 9.5868 15.1086 8.87569L0.744141 4.4668Z" fill="#ED7C00"/>
<path d="M27.6238 21.5337L22.7883 16.6982L20.5127 22.1026L19.9438 18.5471C18.6638 14.2804 14.5394 9.58708 9.98828 7.31152L16.3883 30.0671H24.0683L27.6238 21.5337Z" fill="#051244"/>
<path d="M40.85 30.0673L34.7345 23.8096L33.5967 30.0673H40.85Z" fill="#051244"/>
<path d="M57.2063 21.249C57.7752 21.8179 58.0597 22.2446 57.9175 22.8135C57.9175 24.5201 55.6419 25.3735 53.6508 25.3735C50.8063 25.3735 49.2419 24.9468 46.8241 23.9512L45.8286 23.5246L44.833 29.3557C46.5397 30.0668 49.6686 30.7779 52.9397 30.7779C57.4908 30.7779 61.1886 29.4979 63.3219 27.2224L57.2063 21.249Z" fill="#051244"/>
<path d="M65.4551 30.0667H72.1395L73.5617 25.8H82.664L83.5173 30.0667H90.344L87.9262 19.6844L79.3929 11.4355L79.8195 13.7111C79.8195 13.7111 81.2417 20.1111 81.5262 21.5333H75.5529C76.1217 20.1111 78.3973 13.9955 78.3973 13.9955C78.3973 13.9955 78.9662 12.4311 79.3929 11.4355" fill="#051244"/>
</g>
<defs>
<clipPath id="clip0_2_3262">
<rect width="89.6" height="32" fill="white" transform="translate(0.744141 0.306641)"/>
</clipPath>
</defs>
</svg>
