<svg width="20" height="21" viewBox="0 0 20 21" fill="none" xmlns="http://www.w3.org/2000/svg">
<g clip-path="url(#clip0_2_3173)">
<path d="M9.99904 20.1719C15.5219 20.1719 19.9991 15.6948 19.9991 10.1719C19.9991 4.64904 15.5219 0.171875 9.99904 0.171875C4.47619 0.171875 -0.000976562 4.64904 -0.000976562 10.1719C-0.000976562 15.6948 4.47619 20.1719 9.99904 20.1719Z" fill="white"/>
<path d="M17.0698 3.09961C20.9751 7.0052 20.9754 13.3371 17.0698 17.2427C13.1646 21.1479 6.83235 21.1481 2.92676 17.2427L17.0698 3.09961Z" fill="white"/>
<path d="M19.7988 12.1743L14.8495 7.2251L9.0123 7.88971L5.48145 13.356L12.0791 19.9535C15.9582 19.1329 19.0078 16.0645 19.7988 12.1743Z" fill="white"/>
<path d="M15.2328 8.24189C15.2328 7.40359 14.5537 6.72412 13.7159 6.72412H6.59871C5.76103 6.72412 5.08203 7.40376 5.08203 8.24189V12.3119C5.08203 13.1502 5.76116 13.8296 6.59871 13.8296H13.7157C14.5537 13.8296 15.2327 13.15 15.2327 12.3119V8.24189H15.2328ZM9.14203 11.9938V8.17117L12.041 10.0826L9.14203 11.9938Z" fill="#305F64"/>
</g>
<defs>
<clipPath id="clip0_2_3173">
<rect width="20" height="20" fill="white" transform="translate(-0.000976562 0.171875)"/>
</clipPath>
</defs>
</svg>
