<svg width="482" height="360" viewBox="0 0 482 360" fill="none" xmlns="http://www.w3.org/2000/svg">
<g clip-path="url(#clip0_915_5681)">
<path opacity="0.08" d="M147.539 344.501C245.7 372.678 404.835 342.974 458.171 285.972C511.507 228.97 455.229 161.481 416.417 136.086C404.342 128.231 390.81 122.446 380.982 111.72C359.522 88.2298 351.995 50.756 325.256 34.1421C302.129 19.7532 274.889 32.8498 249.234 24.3477C238.037 20.71 219.695 5.27932 200.757 2.02152C158.873 -5.18367 30.6842 91.4924 19.1009 131.062C7.51762 170.632 13.1239 305.916 147.539 344.501Z" fill="#84B5FF"/>
<path d="M360.238 266.369H337.844C336.963 266.369 336.242 265.656 336.242 264.766C336.242 263.885 336.955 263.164 337.844 263.164H360.238C361.12 263.164 361.84 263.877 361.84 264.766C361.84 265.648 361.12 266.369 360.238 266.369Z" fill="#66D6A0"/>
<path d="M360.238 274.365H337.844C336.963 274.365 336.242 273.652 336.242 272.762C336.242 271.881 336.955 271.16 337.844 271.16H360.238C361.12 271.16 361.84 271.873 361.84 272.762C361.84 273.644 361.12 274.365 360.238 274.365Z" fill="#66D6A0"/>
<mask id="mask0_915_5681" style="mask-type:alpha" maskUnits="userSpaceOnUse" x="-52" y="4" width="533" height="355">
<path d="M148.067 347.361C246.228 375.539 405.363 345.834 458.699 288.832C512.034 231.83 455.756 164.342 416.945 138.947C404.869 131.092 391.338 125.307 381.509 114.581C360.05 91.0906 352.522 53.6167 325.783 37.0029C302.657 22.6139 275.416 35.7106 249.761 27.2085C238.565 23.5708 220.223 8.1401 201.285 4.8823C159.4 -2.3229 -38.5046 103.219 -50.0879 142.789C-61.6712 182.358 13.6516 308.777 148.067 347.361Z" fill="#276ED8"/>
</mask>
<g mask="url(#mask0_915_5681)">
<path opacity="0.2" d="M147.072 160.583L155.654 158.969V151.275L147.072 149.796C146.413 146.635 145.162 143.676 143.441 141.053L148.364 133.831L142.916 128.383L135.801 133.414C133.178 131.692 130.233 130.455 127.058 129.795L125.444 121.214H117.751L116.271 129.795C113.111 130.455 110.152 131.705 107.529 133.427L100.319 128.504L94.8721 133.952L99.9025 141.067C98.1808 143.69 96.9434 146.649 96.2843 149.809L87.7031 151.423V159.117L96.2843 160.596C96.9434 163.771 98.1943 166.716 99.9159 169.339L94.9931 176.548L100.44 181.996L107.569 176.965C110.192 178.687 113.151 179.938 116.312 180.583L117.926 189.165H125.619L127.099 180.583C130.273 179.924 133.219 178.674 135.841 176.952L143.051 181.875L148.498 176.427L143.468 169.312C145.176 166.703 146.413 163.757 147.072 160.583ZM121.678 171.128C112.882 171.128 105.753 163.986 105.753 155.203C105.753 146.42 112.882 139.278 121.678 139.278C130.475 139.278 137.603 146.406 137.603 155.203C137.603 163.999 130.475 171.128 121.678 171.128Z" fill="#84B5FF"/>
<path d="M261.441 206.339C274.76 216.548 294.091 220.683 308.982 212.783C313.652 210.312 317.953 206.362 318.878 201.28C319.988 195.159 316.034 188.83 317.699 182.824C319.155 177.512 324.474 174.255 328.428 170.328C334.162 164.646 337.492 156.723 337.469 148.754C337.446 140.785 334.116 132.885 328.358 127.226C323.479 122.422 317.121 119.326 311.525 115.307C307.109 112.12 303.131 107.985 301.027 102.973C298.946 98.0295 300.657 95.1191 300.958 90.2684C301.582 79.8972 298.969 68.3017 291.501 60.5868C281.836 50.562 267.476 50.7237 254.782 53.3107C248.354 54.6043 241.255 56.6138 235.613 60.0324C233.209 61.4876 231.613 63.2662 229.971 65.5992C229.44 66.3383 226.48 73.7068 226.595 73.6837C207.774 77.98 217.878 104.035 212.098 116C210.271 119.765 207.08 122.676 204.282 125.794C199.38 131.291 195.542 137.898 194.339 145.151C193.137 152.404 194.779 160.303 199.658 165.801C200.444 166.702 201.369 167.579 201.669 168.734C202.132 170.467 201.161 172.199 200.444 173.839C196.166 183.656 201.068 195.02 207.242 203.775C211.381 209.665 216.26 215.255 222.595 218.673C232.7 224.148 245.464 223.293 255.869 218.396" fill="url(#paint0_linear_915_5681)"/>
<path opacity="0.42" d="M258.583 77.5565C252.224 74.4613 244.108 77.903 240.177 83.7931C236.27 89.6833 231.183 94.9266 232.108 101.926C232.57 105.39 233.333 108.924 232.639 112.366C230.882 121.282 225.379 127.796 219.645 134.841C214.789 140.8 213.216 148.723 211.968 156.299C211.228 160.827 210.627 165.816 213.031 169.72C216.084 174.663 219.575 181.038 222.859 185.819C228.269 193.65 225.101 201.295 231.645 208.225C233.587 210.258 236.316 211.32 238.998 212.175C244.432 213.861 250.051 214.854 255.739 215.155C260.595 215.409 265.52 215.108 270.098 213.515C281.336 209.565 288.851 196.953 286.816 185.219C285.267 176.326 279.139 168.934 276.226 160.365C274.145 154.221 273.798 147.499 275.208 141.17C277.012 133.178 281.613 125.232 279.625 117.286" fill="#148951"/>
<path d="M68.1857 63.8035C59.8364 63.8035 53.0703 70.5696 53.0703 78.9188C53.0703 87.2681 59.8364 94.0342 68.1857 94.0342C76.5349 94.0342 83.3011 87.2681 83.3011 78.9188C83.3011 70.5696 76.5349 63.8035 68.1857 63.8035ZM68.1857 90.268C61.9111 90.268 56.8293 85.1862 56.8293 78.9116C56.8293 72.637 61.9111 67.5552 68.1857 67.5552C74.4603 67.5552 79.5421 72.637 79.5421 78.9116C79.5421 85.1862 74.4603 90.268 68.1857 90.268Z" fill="#66D6A0"/>
<path d="M17.7979 288.329H-3.31731C-4.14862 288.329 -4.82812 287.657 -4.82812 286.818C-4.82812 285.987 -4.15585 285.307 -3.31731 285.307H17.7979C18.6292 285.307 19.3087 285.98 19.3087 286.818C19.3087 287.65 18.6292 288.329 17.7979 288.329Z" fill="#66D6A0"/>
<path d="M17.7979 295.868H-3.31731C-4.14862 295.868 -4.82812 295.196 -4.82812 294.358C-4.82812 293.526 -4.15585 292.847 -3.31731 292.847H17.7979C18.6292 292.847 19.3087 293.519 19.3087 294.358C19.3087 295.189 18.6292 295.868 17.7979 295.868Z" fill="#66D6A0"/>
<path d="M102.625 207.559C102.625 207.559 104.842 211.409 106.914 225.822C108.986 240.234 107.721 242.375 107.721 242.375C107.721 242.375 113.357 245.962 110.026 222.649C110.026 201.642 104.674 206.278 104.674 206.278L102.625 207.559Z" fill="url(#paint1_linear_915_5681)" fill-opacity="0.5"/>
<path d="M104.09 206.494C104.09 206.494 106.411 205.794 107.341 207.654C108.271 209.515 111.181 231.848 110.371 238.129C109.551 244.409 107.23 242.089 107.23 242.089C107.23 242.089 107.46 245.809 108.971 246.859L108.98 246.85C108.998 246.841 109.035 246.813 109.081 246.776C109.118 246.758 109.164 246.721 109.219 246.684H109.229C110.122 246.095 113.216 244.05 116.071 242.089C119.442 239.759 121.422 237.779 121.422 237.779C121.422 237.779 120.952 234.058 120.952 233.017C120.952 231.967 128.403 207.185 135.724 199.513C142.558 192.358 135.844 152.048 134.905 146.605L134.794 145.997C134.794 145.997 128.863 147.747 126.303 149.617C123.752 151.495 114.552 174.151 114.091 185.782C113.622 197.414 109.44 204.017 109.44 204.017C109.44 204.017 108.041 203.169 105.711 204.017L104.09 206.494Z" fill="url(#paint2_linear_915_5681)"/>
<path opacity="0.83" d="M109.229 246.684C110.122 246.095 113.216 244.05 116.071 242.089C119.442 239.759 121.422 237.779 121.422 237.779C121.422 237.779 120.952 234.058 120.952 233.017C120.952 231.967 128.403 207.185 135.724 199.513C142.558 192.358 135.844 152.048 134.905 146.605L134.794 145.997C134.794 145.997 129.968 152.048 127.878 164.085C125.778 176.131 128.743 199.863 128.743 199.863C128.743 199.863 124.562 219.056 114.266 219.406C114.266 219.406 122.905 232.05 119.497 238.396C118.843 239.602 110.803 245.57 109.229 246.684Z" fill="#3E64F9"/>
<path d="M128.924 357.777C129.117 359.895 129.485 361.608 129.928 363.1V363.109C130.673 365.679 131.613 367.603 132.129 369.814C132.939 373.304 133.869 386.888 133.869 386.888H158.302C157.372 381.86 156.211 377.964 154.811 365.393C153.476 353.375 160.659 311.951 161.276 308.405C161.304 308.249 161.322 308.166 161.322 308.166C167.603 334.449 183.02 364.933 184.595 366.673C186.16 368.423 189.301 369.989 189.301 369.989C191.051 373.304 194.716 386.888 194.716 386.888H222.805C221.239 379.705 214.083 368.948 211.809 364.933C209.543 360.917 200.997 333.519 198.722 315.377C197.773 307.816 197.046 299.831 196.512 293.081V293.062C195.766 283.632 195.407 276.633 195.407 276.633C188.26 269.311 132.35 262.091 132.35 262.091L130.581 267.828C130.581 267.828 130.564 268.668 130.297 270.067C130.039 271.458 129.928 272.332 129.928 272.332C123.656 307.926 128.408 352.021 128.924 357.777Z" fill="url(#paint3_linear_915_5681)"/>
<path opacity="0.62" d="M195.562 279.414C195.562 279.414 178.654 277.333 168.008 282.389C157.362 287.445 158.32 296.175 158.32 296.175L161.322 308.157L150.98 297.336L129.918 272.323C129.918 272.323 133.859 274.708 138.98 275.758C138.98 275.758 131.796 271.31 130.581 267.82L132.349 262.082L195.562 275.583V279.414V279.414Z" fill="#220786"/>
<path d="M207.628 198.463L209.543 187.992C209.543 187.992 214.433 187.992 221.58 194.623C221.58 194.623 221.755 198.215 224.205 202.7C224.205 202.7 232.438 206.669 236.26 212.075C240.082 217.481 241.527 218.024 245.515 214.957C246.574 214.147 247.293 211.393 247.67 207.645C248.232 201.981 248.02 194.043 247.044 187.053C246.233 181.288 244.898 176.177 243.047 173.515C243.047 173.515 243.222 169.96 241.472 167.17C241.389 167.225 241.297 167.28 241.214 167.345C240.643 167.704 239.17 168.496 237.641 168.22C235.661 167.87 234.003 164.84 234.003 164.84C234.003 164.84 232.871 164.959 232.29 165.779C232.29 165.779 224.379 160.981 219.37 152.904C214.369 144.837 213.558 143.842 213.558 143.842C213.558 143.842 212.278 143.317 210.547 142.995C209.184 142.737 207.535 142.617 205.997 142.976C205.997 142.976 181.685 180.551 207.628 198.463Z" fill="url(#paint4_linear_915_5681)"/>
<path d="M155.854 145.997C155.854 145.997 159.247 140.727 159.247 130.191L182.478 119.428C182.478 119.428 181.29 127.551 185.287 134.596C186.346 136.456 191.273 139.403 191.273 139.403C191.273 139.403 169.714 165.991 159.363 163.44C149.011 160.889 151.083 149.617 151.083 149.617C151.083 149.617 152.833 150.298 155.854 145.997Z" fill="#FF9B8B"/>
<path d="M188.365 137.479C188.365 137.479 176.679 149.129 166.622 149.783C155.847 150.483 157.624 141.522 157.624 141.522C157.624 141.522 152.752 148.355 154.143 153.734C155.543 159.112 166.18 159.379 174.385 155.797C182.591 152.223 190.438 138.326 190.438 138.326L188.365 137.479Z" fill="#CEC5FF"/>
<path opacity="0.83" d="M207.621 198.463L209.537 187.992C209.537 187.992 214.427 187.992 221.574 194.623C221.574 194.623 221.749 198.215 224.198 202.7C224.198 202.7 232.432 206.669 236.254 212.075C240.075 217.481 241.521 218.024 245.509 214.957C246.568 214.147 247.286 211.393 247.664 207.645L247.038 206.144V187.053C246.227 181.288 244.892 176.177 243.041 173.515C243.041 173.515 243.216 169.96 241.466 167.17C241.383 167.225 241.291 167.28 241.208 167.345C234.439 171.756 232.045 184.732 231.584 194.393C231.52 191.943 229.964 182.467 228.794 182.642C227.284 182.872 224.723 200.324 224.723 200.324C221.703 185.358 231.446 167.308 232.229 165.871C223.324 178.175 221.813 192.302 221.813 192.302L207.971 182.181C207.971 182.181 199.637 173.8 202.519 159.378C205.402 144.957 210.541 142.995 210.541 142.995C209.178 142.737 207.529 142.617 205.991 142.976C205.991 142.976 181.678 180.551 207.621 198.463Z" fill="#446EF7"/>
<path d="M138.53 208.005C138.53 208.005 142.011 226.212 137.48 245.929C137.48 245.929 134.69 247.845 134.34 250.285C134.34 250.285 134.34 250.304 134.33 250.331C133.999 252.763 133.606 254.585 133.606 254.585C133.606 254.585 133.29 256.225 132.24 257.966C132.047 258.297 131.936 258.684 131.899 259.108C131.733 260.913 132.765 263.197 132.765 263.197C132.765 263.197 134.865 268.612 156.673 270.528C178.481 272.452 195.407 276.633 195.407 276.633C195.407 276.633 198.9 272.719 196.497 269.404C196.497 269.404 198.032 265.647 197.857 264.422C197.682 263.197 189.652 249.245 191.742 239.473C193.842 229.702 201.688 221.773 206.054 202.7C206.054 202.7 208.964 201.724 209.139 200.324C209.314 198.933 207.859 196.659 207.859 196.659L207.334 197.653C207.334 197.653 197.387 191.953 200.067 167.87C202.738 143.787 205.565 142.323 210.548 142.995C210.548 142.995 210.989 144.791 204.81 142.995C204.81 142.995 201.255 142.48 197.59 141.199C193.925 139.919 190.352 138.202 190.352 138.202C190.352 138.202 169.372 156.192 159.675 155.041C148.605 153.733 156.415 141.623 156.415 141.623C156.415 141.623 149.462 142.977 145.741 143.843C142.011 144.717 140.621 143.843 140.621 143.843C140.621 143.843 135.675 144.314 132.765 146.515C129.855 148.707 128.989 157.049 130.149 176.591C131.31 196.134 138.53 208.005 138.53 208.005Z" fill="url(#paint5_linear_915_5681)"/>
<path d="M171.808 178.072L164.573 165.544L161.968 170.206L166.309 178.072L162.547 184.773L165.441 189.435L171.808 178.072Z" fill="#135BC6"/>
<path d="M161.389 171.371L163.994 176.033L163.126 177.198H157.917L161.389 171.371Z" fill="#135BC6"/>
<path d="M162.836 182.734L165.441 178.072H152.129L144.894 190.6H150.103L154.733 182.734H162.836Z" fill="#135BC6"/>
<path d="M155.601 183.608H160.521L164.862 190.6H173.544L176.148 194.97L161.968 195.262L155.601 183.608Z" fill="#135BC6"/>
<path d="M153.865 185.938H155.891L158.495 190.6H151.261L153.865 185.938Z" fill="#135BC6"/>
<path d="M166.888 188.269L169.492 183.899L173.254 189.435H167.756L166.888 188.269Z" fill="#135BC6"/>
<path d="M185.719 125.083C185.719 125.083 175.785 141.504 158.16 139.942C158.16 139.942 159.421 134.582 159.246 130.19C159.246 130.19 167.59 130.669 173.667 128.419C180.526 125.883 185.719 119.379 185.719 119.379L185.719 125.083Z" fill="url(#paint6_linear_915_5681)" fill-opacity="0.7"/>
<path opacity="0.5" d="M209.539 187.992C209.539 187.992 202.475 185.072 199.759 179.786C199.759 179.786 200.173 192.882 207.329 197.653C207.329 197.653 209.106 192.348 209.539 187.992Z" fill="#446EF7"/>
<path opacity="0.62" d="M161.32 308.157L157.6 294.545C157.6 294.545 151.135 285.179 140.636 280.906L150.978 296.755L161.32 308.157Z" fill="#1B0C78"/>
<path opacity="0.62" d="M184.595 366.674C186.16 368.424 189.301 369.989 189.301 369.989C191.051 373.305 194.716 386.889 194.716 386.889H222.805C221.239 379.705 214.083 368.949 211.809 364.933C209.543 360.918 200.997 333.52 198.722 315.377C197.773 307.816 197.046 299.832 196.512 293.081C196.484 293.597 195.554 298.874 198.271 324.495C201.061 350.788 202.968 362.143 202.737 364.464C202.507 366.794 191.106 372.375 184.595 366.674Z" fill="#281C6F"/>
<path opacity="0.62" d="M129.925 363.109C130.67 365.679 131.61 367.604 132.126 369.814C132.936 373.304 133.866 386.888 133.866 386.888H158.299C157.369 381.86 156.208 377.964 154.808 365.393C153.473 353.375 160.656 311.951 161.273 308.405C160.463 312.218 151.438 355.18 149.402 358.827C144.973 366.729 132.973 369.409 129.925 363.109Z" fill="#281C6F"/>
<path opacity="0.83" d="M191.344 145.684C191.325 145.758 191.297 145.823 191.27 145.898C191.307 145.795 191.334 145.721 191.344 145.684Z" fill="url(#paint7_linear_915_5681)"/>
<path opacity="0.62" d="M195.559 302.576C195.559 302.576 197.944 321.391 193.8 341.661L195.559 302.576Z" fill="#281C6F"/>
<path opacity="0.62" d="M156.494 306.996C156.494 306.996 150.029 332.589 144.798 343.466C144.798 343.466 155.103 329.329 158.842 319.788L161.273 308.405L158.317 296.184L156.494 306.996Z" fill="#281C6F"/>
<path d="M156.404 141.614L157.62 141.513C157.62 141.513 155.105 145.537 154.58 148.852C154.056 152.168 156.257 154.304 159.664 155.032C159.664 155.032 154.175 154.71 153.475 150.934C152.775 147.158 156.404 141.614 156.404 141.614Z" fill="url(#paint8_linear_915_5681)"/>
<path d="M147.25 113.282C150.799 125.278 157.645 128.828 161.733 132.051C167.539 135.309 172.601 134.237 172.601 134.237C192.127 125.785 194.035 117.275 195.321 107.775C195.964 103.088 196.546 94.3651 194.578 83.5827C194.317 82.1114 193.875 80.7873 193.312 79.5682C189.737 71.7704 181.299 68.7438 181.299 68.7438C176.257 66.8941 170.512 66.4948 165.269 67.5037C157.716 68.9539 151.77 73.0525 149.861 81.1446C149.239 83.7509 148.897 86.4412 148.596 89.1106C147.933 94.5963 147.591 100.145 147.411 105.673C147.33 108.195 147.27 110.738 147.25 113.282Z" fill="#FFADA0"/>
<path d="M165.834 83.9628C165.834 83.9628 155.349 81.8456 152.062 89.5683C152.062 89.5683 163.777 86.0396 166.016 87.7939L165.834 83.9628Z" fill="#38368E"/>
<path d="M176.984 85.1033C176.984 85.1033 187.308 82.3409 191.078 89.8417C191.078 89.8417 179.161 87.0592 177.044 88.9344L176.984 85.1033Z" fill="#38368E"/>
<path d="M188.597 97.5049C188.381 100.728 185.309 103.172 181.74 102.934C178.171 102.696 175.446 99.8843 175.662 96.6397C175.878 93.4167 178.95 90.994 182.519 91.232C186.088 91.4699 188.814 94.2819 188.597 97.5049Z" fill="white"/>
<path d="M177.801 96.5727C177.606 99.428 179.272 101.872 181.5 102.024C183.728 102.175 185.696 99.9688 185.891 97.1135C186.085 94.2582 184.441 91.8139 182.192 91.6625C179.964 91.5111 177.995 93.7174 177.801 96.5727Z" fill="#7F9EC9"/>
<path d="M178.969 96.6591C178.839 98.6924 180.007 100.423 181.586 100.531C183.165 100.639 184.571 99.0818 184.701 97.0485C184.831 95.0152 183.663 93.2847 182.084 93.1765C180.505 93.0467 179.099 94.6258 178.969 96.6591Z" fill="#38368E"/>
<path d="M179.011 93.1563C178.968 93.697 179.595 94.1945 180.417 94.2594C181.239 94.3243 181.931 93.9133 181.975 93.3509C182.018 92.7885 181.369 92.3126 180.547 92.2478C179.747 92.2045 179.054 92.6155 179.011 93.1563Z" fill="white" fill-opacity="0.8"/>
<path d="M165.496 96.9998C165.286 100.178 162.297 102.577 158.825 102.345C155.353 102.114 152.701 99.3358 152.911 96.158C153.122 92.9592 156.11 90.5812 159.583 90.8127C163.055 91.0442 165.707 93.8221 165.496 96.9998Z" fill="white"/>
<path d="M155.872 96.1559C155.683 98.9338 157.303 101.312 159.471 101.459C161.638 101.606 163.553 99.4599 163.743 96.682C163.932 93.9041 162.312 91.526 160.144 91.3787C157.977 91.2314 156.061 93.378 155.872 96.1559Z" fill="#7F9EC9"/>
<path d="M157.007 96.2414C156.881 98.2196 158.017 99.9032 159.554 100.008C161.09 100.114 162.458 98.5773 162.584 96.5991C162.71 94.6209 161.574 92.9373 160.038 92.8321C158.501 92.7269 157.155 94.2632 157.007 96.2414Z" fill="#38368E"/>
<path d="M157.052 92.831C157.01 93.3572 157.642 93.8412 158.42 93.9043C159.22 93.9675 159.893 93.5676 159.935 93.0204C159.978 92.4733 159.367 92.0103 158.568 91.9472C157.768 91.9051 157.094 92.2839 157.052 92.831Z" fill="white" fill-opacity="0.8"/>
<path d="M147.949 94.5231C147.949 94.5231 144.099 82.3642 140.924 91.9329C138.393 99.5537 142.611 107.025 146.016 106.489C149.421 105.976 147.949 94.5231 147.949 94.5231Z" fill="#FFADA0"/>
<path d="M147.861 96.695C147.861 96.695 144.824 88.4829 143.241 91.4383C141.657 94.3938 141.674 98.4322 141.674 98.4322C141.674 98.4322 142.8 94.1456 145.004 96.9657C145.004 96.9657 142.049 103.666 146.98 102.268C146.996 102.268 149.135 100.395 147.861 96.695Z" fill="#FF9B8B"/>
<path d="M194.26 94.5376C194.26 94.5376 198.591 81.364 202.163 91.7313C205.01 99.988 200.265 108.059 196.434 107.503C192.603 106.946 194.26 94.5376 194.26 94.5376Z" fill="#FFADA0"/>
<path d="M194.328 96.444C194.328 96.444 197.602 87.8748 199.31 90.9588C201.018 94.0428 201 98.2567 201 98.2567C201 98.2567 199.785 93.7838 197.409 96.7265C197.409 96.7265 200.595 103.718 195.278 102.259C195.278 102.259 192.972 100.305 194.328 96.444Z" fill="#FF9B8B"/>
<path d="M179.484 115.244C179.41 115.468 177.932 119.041 175.538 121.715C172.657 124.932 168.449 126.84 163.792 119.957C162.801 118.498 161.809 116.665 160.781 114.365C160.781 114.365 162.389 114.982 164.746 115.655C168.449 116.703 173.948 117.881 177.764 116.179C178.4 116.16 178.961 115.655 179.484 115.244Z" fill="#712311"/>
<path d="M175.539 121.754C172.659 124.971 168.45 126.86 163.793 119.977C166.281 119.304 172.172 118.256 175.539 121.754Z" fill="#D5503B"/>
<path d="M177.766 116.274C171.687 123.063 167.273 119.491 164.748 115.713C168.451 116.76 173.95 117.826 177.766 116.274Z" fill="white"/>
<path d="M164.623 106.983C164.623 106.983 170.039 115.769 176.087 106.968L164.623 106.983Z" fill="#D8826C"/>
<path d="M148.077 100.938C148.721 99.0271 149.108 95.0081 149.108 95.0081C149.108 95.0081 149.225 88.0766 149.237 87.168C149.26 84.9662 150.362 74.9877 155.145 74.7198C156.259 74.6616 159.201 78.1447 163.104 79.7407C163.808 80.032 169.762 76.2226 172.857 75.1392C182.07 71.9239 190.569 80.6843 190.569 80.6843C193.253 83.6433 192.433 88.8933 192.444 90.2796C192.362 86.7265 192.456 91.1999 192.444 90.2796C192.491 92.3066 193.148 95.2031 193.804 97.1253C194.261 94.9701 195.03 95.1061 196.144 90.9938C197.996 84.1673 200.075 78.7622 199.736 77.2361L194.824 68.3126C188.154 56.2088 172.447 52.4344 160.947 60.1696L156.634 63.0703C150.609 60.9618 149.179 63.9208 147.502 66.1458C144.396 70.293 143.188 74.1439 143.071 79.9686C143.024 82.1354 144.791 83.5035 146.444 89.7359C147.487 93.6735 147.655 98.9689 148.077 100.938Z" fill="#293AA1"/>
<path d="M210.062 67.8825C206.099 75.4546 199.066 69.2688 196.464 63.6887C190.064 49.9307 182.351 52.0742 182.351 52.0742C166.561 39.9121 162.412 52.214 162.412 52.214C150.057 51.0141 149.599 57.8756 151.463 63.9683C153.327 70.0376 157.606 75.0819 163.08 78.3321C163.326 78.4718 163.572 78.6233 163.806 78.7631C167.874 72.1345 175.446 71.5521 178.787 71.9831C183.277 72.5539 185.035 74.9304 187.93 77.3186C192.396 80.9998 194.389 82.6773 202.852 81.8968C216.427 80.6386 210.062 67.8825 210.062 67.8825Z" fill="#5A65BA"/>
<path d="M210.062 67.8825C206.099 75.4546 199.066 69.2688 196.464 63.6887C190.064 49.9307 182.351 52.0742 182.351 52.0742C166.561 39.9121 162.412 52.214 162.412 52.214C150.057 51.0141 149.599 57.8756 151.463 63.9683C153.327 70.0376 157.606 75.0819 163.08 78.3321C163.326 78.4718 163.572 78.6233 163.806 78.7631C166.831 70.7832 174.767 70.0609 178.119 69.8046C180.135 69.6532 183.769 70.0027 186.571 72.1695C194.19 78.0641 194.377 82.6656 202.852 81.8851C216.427 80.6386 210.062 67.8825 210.062 67.8825Z" fill="#293AA1"/>
<path d="M209.208 66.6942C205.246 74.2664 199.066 69.2688 196.464 63.6887C190.064 49.9307 182.351 52.0742 182.351 52.0742C166.561 39.9121 162.412 52.214 162.412 52.214C150.057 51.0141 149.599 57.8756 151.463 63.9683C153.327 70.0376 157.606 75.0819 163.08 78.332C163.326 78.4718 163.572 78.6233 163.806 78.7631C166.831 70.7832 174.227 64.574 177.592 64.3178C179.608 64.1663 183.242 64.5158 186.043 66.6942C193.662 72.5889 194.389 82.6656 202.852 81.8851C216.945 80.5632 209.805 66.6067 209.208 66.6942Z" fill="#5A65BA"/>
<path d="M163.396 78.4411C163.396 78.4411 152.924 45.3282 171.807 46.4179C171.807 46.4179 178.858 48.7839 184.361 53.3654C184.361 53.3654 172.052 49.5623 167.877 55.0445C162.63 61.9389 162.247 70.8016 163.396 78.4411Z" fill="#293AA1"/>
<path d="M191.938 60.0414C191.938 60.0414 188.445 55.7311 181.095 55.4283C174.015 55.1254 164.274 58.3173 163.102 78.3427C163.102 78.3427 168.189 60.1463 181.728 57.5951C183.791 57.2106 186.675 57.3504 191.938 60.0414Z" fill="#293AA1"/>
<path d="M267.929 145.592C267.929 145.592 271.56 134.07 272.27 126.76C272.979 119.45 275.682 111.538 275.682 111.538C275.682 111.538 277.583 111.177 278.715 112.175C279.846 113.174 281.279 121.185 278.689 126.838C270.228 133.865 274.141 146.938 274.141 146.938L276.15 147.36L281.805 142.291L284.067 142.136C284.067 142.136 293.944 156.227 292.322 163.035L290.019 165.747L280.319 162.112L270.691 151.54L267.929 145.592Z" fill="#F88A7F"/>
<path d="M284.018 141.988C284.018 141.988 282.086 149.603 278.987 155.823C278.987 155.823 278.71 158.577 281.822 159.422L282.785 158.718C282.785 158.718 282.692 161.892 285.428 162.709L288.635 160.613L287.491 162.659C287.491 162.659 287.954 165.195 290.489 165.627C290.489 165.627 295.382 163.22 296.555 158.982L293.142 154.587L293.708 151.894L289.505 147.383L289.832 145.396C289.81 145.402 287.37 142.652 284.018 141.988Z" fill="url(#paint9_linear_915_5681)"/>
<path opacity="0.3" d="M272.758 124.588C272.758 124.588 273.087 126.617 273.958 127.563C274.828 128.51 271.674 135.31 271.674 135.31L274.198 146.909L276.152 147.319L281.691 142.203C281.691 142.203 278.798 145.183 278.125 147.734L279.638 148.937L282.185 144.096L282.102 147.947L280.438 152.411C280.438 152.411 278.37 149.645 273.804 148.595L272.849 149.73C272.849 149.73 279.666 158.509 280.701 163.058C280.701 163.058 277.726 156.866 269.614 149.02L269.316 146.003L269.551 139.008C269.569 139.012 272.731 129.526 272.758 124.588Z" fill="url(#paint10_linear_915_5681)"/>
<path d="M266.933 105.176L265.396 107.763L266.164 125.696L267.25 125.721L266.933 105.176Z" fill="url(#paint11_linear_915_5681)"/>
<path d="M243.047 173.506C243.047 173.506 239.943 177.18 237.871 191.593C235.799 206.006 241.49 214.607 241.49 214.607C241.49 214.607 235.725 213.521 234.003 196.649C232.281 179.777 239.382 172.281 239.382 172.281L243.047 173.506Z" fill="url(#paint12_linear_915_5681)" fill-opacity="0.7"/>
<path d="M113.792 177.033V245.724C113.792 247.49 112.361 248.921 110.594 248.921H5.84565C4.07918 248.921 2.64844 247.49 2.64844 245.724V177.033C2.64844 172.958 5.95412 169.647 10.0346 169.647H106.405C110.486 169.647 113.792 172.958 113.792 177.033Z" fill="white" stroke="#84B5FF" stroke-miterlimit="10"/>
<path d="M54.1231 186.078H41.6562V187.126H54.1231V186.078Z" fill="#84B5FF"/>
<path d="M68.7481 186.078H56.2812V187.125H68.7481V186.078Z" fill="#06B25F"/>
<path d="M64.8396 191.732H45.5078V192.779H64.8396V191.732Z" fill="#276ED8"/>
<path d="M77.855 191.732H68.0312V192.779H77.855V191.732Z" fill="#84B5FF"/>
<path d="M60.6996 197.378H52.2109V198.426H60.6996V197.378Z" fill="#06B25F"/>
<path d="M93.7726 197.378H65.6094V198.426H93.7726V197.378Z" fill="#06B25F"/>
<path d="M90.9912 203.029H58.8047V204.077H90.9912V203.029Z" fill="#276ED8"/>
<path d="M60.6627 208.676H50.7578V209.724H60.6627V208.676Z" fill="#84B5FF"/>
<path d="M74.8112 208.676H64.9062V209.724H74.8112V208.676Z" fill="#276ED8"/>
<path d="M56.0626 237.993H41.6562V239.04H56.0626V237.993Z" fill="#84B5FF"/>
<path d="M75.5079 237.993H61.1016V239.04H75.5079V237.993Z" fill="#06B25F"/>
<path d="M94.4454 237.993H80.0391V239.04H94.4454V237.993Z" fill="#84B5FF"/>
<path d="M73.671 232.337H45.5078V233.385H73.671V232.337Z" fill="#276ED8"/>
<path d="M106.218 232.336H78.0547V233.384H106.218V232.336Z" fill="#84B5FF"/>
<path d="M80.1576 226.692H52.2109V227.74H80.1576V226.692Z" fill="#84B5FF"/>
<path d="M90.3697 226.692H82.5938V227.74H90.3697V226.692Z" fill="#06B25F"/>
<path d="M60.909 221.039H50.3906V222.087H60.909V221.039Z" fill="#06B25F"/>
<path d="M77.0105 221.039H66.4922V222.087H77.0105V221.039Z" fill="#276ED8"/>
<path d="M94.2996 221.039H83.7812V222.086H94.2996V221.039Z" fill="#84B5FF"/>
<path d="M77.3351 215.395H62.5859V216.442H77.3351V215.395Z" fill="#06B25F"/>
<path d="M57.0226 215.395H42.2734V216.442H57.0226V215.395Z" fill="#276ED8"/>
<path d="M38.18 185.076H36.8359V186.422H38.18V185.076Z" fill="#84B5FF"/>
<path d="M38.18 234.335H36.8359V231.598H38.18V234.335V234.335ZM38.18 227.489H36.8359V224.752H38.18V227.489V227.489ZM38.18 220.643H36.8359V217.906H38.18V220.643V220.643ZM38.18 213.797H36.8359V211.06H38.18V213.797V213.797ZM38.18 206.951H36.8359V204.214H38.18V206.951V206.951ZM38.18 200.105H36.8359V197.368H38.18V200.105V200.105ZM38.18 193.259H36.8359V190.522H38.18V193.259V193.259Z" fill="#84B5FF"/>
<path d="M38.18 238.443H36.8359V239.789H38.18V238.443Z" fill="#84B5FF"/>
<path opacity="0.7" d="M2.39844 181.065C2.39844 177.751 5.08473 175.065 8.39844 175.065H31.3231V248.926H8.39844C5.08473 248.926 2.39844 246.24 2.39844 242.926V181.065Z" fill="#84B5FF"/>
<path d="M17.1778 187.112H4.71094V188.16H17.1778V187.112Z" fill="#06B25F"/>
<path d="M26.7224 193.514H7.39062V194.561H26.7224V193.514Z" fill="#84B5FF"/>
<path d="M26.7224 199.917H7.39062V200.964H26.7224V199.917Z" fill="#84B5FF"/>
<path d="M26.7224 206.319H7.39062V207.367H26.7224V206.319Z" fill="#84B5FF"/>
<path d="M26.7224 212.72H7.39062V213.768H26.7224V212.72Z" fill="#84B5FF"/>
<path d="M27.7224 225.524H8.39062V226.572H27.7224V225.524Z" fill="#84B5FF"/>
<path d="M27.7224 231.927H8.39062V232.975H27.7224V231.927Z" fill="#84B5FF"/>
<path d="M27.7224 238.328H8.39062V239.375H27.7224V238.328Z" fill="#84B5FF"/>
<path d="M17.1778 219.122H4.71094V220.17H17.1778V219.122Z" fill="#06B25F"/>
<path d="M113.792 177.033V177.343H2.64844V177.033C2.64844 172.958 5.95412 169.647 10.0346 169.647H106.405C110.486 169.647 113.792 172.958 113.792 177.033Z" fill="#84B5FF"/>
<path opacity="0.3" d="M96.9136 173.853C96.9136 174.385 96.4849 174.814 95.9529 174.814C95.4209 174.814 94.9922 174.385 94.9922 173.853C94.9922 173.321 95.4209 172.892 95.9529 172.892C96.4797 172.892 96.9136 173.321 96.9136 173.853Z" fill="white"/>
<path opacity="0.3" d="M102.171 173.852C102.171 174.384 101.743 174.812 101.211 174.812C100.679 174.812 100.25 174.384 100.25 173.852C100.25 173.32 100.679 172.891 101.211 172.891C101.738 172.891 102.171 173.32 102.171 173.852Z" fill="white"/>
<path opacity="0.3" d="M107.195 173.852C107.195 174.384 106.766 174.812 106.234 174.812C105.702 174.812 105.273 174.384 105.273 173.852C105.273 173.32 105.702 172.891 106.234 172.891C106.766 172.891 107.195 173.32 107.195 173.852Z" fill="white"/>
<path d="M113.792 177.033V245.724C113.792 247.49 112.361 248.921 110.594 248.921H5.84565C4.07918 248.921 2.64844 247.49 2.64844 245.724V177.033C2.64844 172.958 5.95412 169.647 10.0346 169.647H106.405C110.486 169.647 113.792 172.958 113.792 177.033Z" stroke="#84B5FF" stroke-miterlimit="10"/>
<path d="M57.0631 161.777C57.0631 161.777 54.6013 161.086 52.556 164.109L52.7843 165.199C52.7843 165.199 50.2787 165.361 47.393 169.015C47.393 169.015 48.9905 173.103 53.9418 175.5C53.9418 175.5 56.4402 175.136 57.1199 173.154L56.8185 171.785L58.5137 173.445C58.5137 173.445 60.6777 174.418 62.1077 171.204L57.0631 161.777Z" fill="#FFA49C"/>
<path d="M64.0631 160.645C64.0631 160.645 61.6013 159.953 59.556 162.977L59.7843 164.067C59.8032 164.056 60.1412 165.933 63.8185 170.652L65.5137 172.313C65.5137 172.313 67.6777 173.285 69.1077 170.072L64.0631 160.645Z" fill="#FFA49C"/>
<path d="M44.8445 173.428C44.8445 173.428 44.2697 171.011 46.8181 169.382L51.9393 174.813C51.9393 174.813 51.8247 176.593 49.6614 177.021C49.6614 177.021 46.2146 175.93 44.8445 173.428Z" fill="#FFA49C"/>
<path d="M52.7789 165.208C52.7789 165.208 54.6706 169.494 56.813 171.793L57.1145 173.162C57.1145 173.162 52.8551 169.4 51.6149 165.544C51.6066 165.543 52.2226 165.211 52.7789 165.208Z" fill="#E28183"/>
<path d="M47.343 169.244C47.343 169.244 49.4472 172.257 51.4213 173.691L51.8665 174.702C51.8665 174.702 48.0713 172.477 46.5242 169.692C46.5178 169.692 46.9265 169.336 47.343 169.244Z" fill="#E28183"/>
<path d="M57.3503 161.944C57.3503 161.944 60.2279 164.949 62.7578 169.286L60.9505 169.286C60.9505 169.286 59.5628 167.335 57.88 163.471C57.88 163.471 56.794 161.947 57.3503 161.944Z" fill="#E28183"/>
<path d="M64.2705 160.659C64.2705 160.659 68.343 165.375 70.712 169.286L68.5434 169.286C68.5434 169.286 67.2401 168.251 64.9799 162.81C64.9799 162.81 63.5145 160.667 64.2705 160.659Z" fill="#FF9E8D"/>
<path d="M274.195 85.4177V97.0945L284.204 90.7222L274.195 85.4177Z" fill="white"/>
<path d="M278.712 228.188C279.429 225.37 293.719 153.926 293.719 153.926C293.719 153.926 255.613 142.7 231.241 153.926L246.849 228.812L278.712 228.188Z" fill="white"/>
<path opacity="0.83" d="M272.031 230.368C272.49 229.962 274.081 228.553 275.548 227.201C277.281 225.595 278.299 224.23 278.299 224.23C278.299 224.23 278.057 221.666 278.057 220.948C278.057 220.225 281.888 203.144 285.651 197.857C289.164 192.925 285.713 165.142 285.23 161.391L285.173 160.972C285.173 160.972 282.692 165.142 281.618 173.438C280.538 181.741 282.063 198.098 282.063 198.098C282.063 198.098 279.913 211.326 274.62 211.567C274.62 211.567 279.061 220.282 277.309 224.655C276.973 225.487 272.84 229.6 272.031 230.368Z" fill="#CAC3CD" fill-opacity="0.3"/>
<path d="M280.586 191.855C280.586 191.855 251.937 194.811 244.029 188.898C244.052 188.898 253.926 212.574 280.586 191.855Z" fill="#CAC3CD" fill-opacity="0.3"/>
<path d="M280.567 227.929C280.567 227.929 303.735 276.436 294.278 430.781C294.278 430.781 284.289 432.883 281.145 431.82C281.145 431.82 252.565 297.687 259.502 230.355L280.567 227.929Z" fill="#84B5FF"/>
<path d="M267.475 259.114C267.475 259.114 268.007 384.586 246.457 428.681L230.155 428.15C230.155 428.15 221.461 278.355 246.827 227.77L266.273 229.918L267.475 259.114Z" fill="#84B5FF"/>
<path d="M281.93 231.028C281.93 231.028 263.94 236.387 245.673 229.18L245.442 221.997C245.442 221.997 254.807 224.815 262.784 224.33C270.738 223.868 281.513 222.459 281.513 222.459L281.93 231.028Z" fill="#8F99B6"/>
<path d="M277.747 221.046C277.747 221.046 280.776 232.757 277.978 234.143C275.157 235.552 273.515 234.928 273.515 234.928L273.538 221.97L277.747 221.046Z" fill="#84B5FF"/>
<path d="M248.839 220.125C248.839 220.125 246.942 231.074 249.324 233.129C252.561 235.878 252.746 233.661 252.746 233.661L253.047 221.072L248.839 220.125Z" fill="#84B5FF"/>
<path d="M268.383 221.997C268.383 223.406 267.897 232.068 267.897 232.068L257.816 232.299L256.891 222.228L268.383 221.997ZM259.481 230.566L266.279 230.104L266.51 224.768H259.018L259.481 230.566Z" fill="#EAEAEA"/>
<path d="M273.315 149.963C274.356 156.084 266.147 156.615 266.147 156.615C262.517 156.615 256.852 155.506 256.852 151.88L258.609 129.22C258.609 125.594 261.546 122.66 265.176 122.66C268.806 122.66 271.743 125.594 271.743 129.22L273.315 149.963Z" fill="#F39B8D"/>
<path d="M247.059 70.0434C248.082 68.59 254.109 71.0545 255.007 69.492C258.565 73.599 268.111 67.6156 272.582 70.9538C278.437 75.3289 283.053 79.5469 289.77 82.4483C291.98 83.4039 288.462 84.4942 290.879 84.9173C290.986 89.2151 293.288 102.849 292.506 107.174C288.565 128.863 271.115 139.395 255.589 135.376C243.855 132.327 234.094 117.294 233.753 95.923C233.546 83.029 245.326 74.4565 245.708 72.5491C252.049 67.7656 242.41 76.5551 247.059 70.0434Z" fill="#FBB2A6"/>
<path d="M262.969 115.025C262.969 115.025 259.223 121.331 255.2 114.909L262.969 115.025Z" fill="#D8826C"/>
<path d="M266.831 102.23C266.831 106.388 270.207 109.783 274.392 109.783C278.577 109.783 281.953 106.411 281.953 102.23C281.953 98.0721 278.577 94.6766 274.392 94.6766C270.207 94.6766 266.831 98.0721 266.831 102.23Z" fill="white"/>
<path d="M270.194 104.015C270.356 107.029 272.334 109.383 274.616 109.281C276.905 109.16 278.619 106.631 278.476 103.624C278.32 100.591 276.336 98.2556 274.072 98.3646C271.771 98.4598 270.038 100.982 270.194 104.015Z" fill="#06B25F"/>
<path d="M271.403 103.955C271.517 106.089 272.92 107.761 274.547 107.68C276.174 107.6 277.407 105.803 277.281 103.643C277.174 101.491 275.77 99.8185 274.144 99.8989C272.51 99.9983 271.296 101.803 271.403 103.955Z" fill="#400404"/>
<path opacity="0.8" d="M271.028 100.282C271.052 100.873 271.76 101.302 272.596 101.259C273.432 101.216 274.094 100.701 274.063 100.129C274.039 99.5378 273.331 99.109 272.495 99.1519C271.659 99.1947 270.997 99.7104 271.028 100.282Z" fill="white"/>
<path d="M270.945 121.103C270.945 121.103 258.76 126.716 253.603 121.565C253.603 121.565 258.297 133.276 270.945 121.103Z" fill="#D5503B"/>
<path d="M266.827 102.232C266.827 102.232 266.226 97.3809 270.966 94.9325C278.227 91.1905 282.204 99.8525 284.562 101.261C284.562 101.261 283.036 102.786 281.927 102.255C281.927 102.232 273.325 91.9528 266.827 102.232Z" fill="#302725"/>
<path d="M254.93 102.713C254.93 106.894 251.554 110.267 247.369 110.267C243.206 110.267 239.807 106.894 239.807 102.713C239.807 98.5556 243.183 95.1832 247.369 95.1832C251.531 95.1601 254.93 98.5556 254.93 102.713Z" fill="white"/>
<path d="M243.503 103.831C243.788 106.837 245.918 109.07 248.283 108.824C250.649 108.578 252.32 105.953 252.033 102.967C251.748 99.9603 249.618 97.7267 247.255 97.9527C244.909 98.201 243.218 100.824 243.503 103.831Z" fill="#06B25F"/>
<path d="M244.922 103.739C245.089 105.945 246.487 107.552 248.065 107.37C249.643 107.188 250.78 105.233 250.629 103.049C250.461 100.843 249.048 99.2138 247.467 99.4165C245.908 99.6005 244.754 101.533 244.922 103.739Z" fill="#400404"/>
<path opacity="0.8" d="M243.84 99.6439C243.915 100.223 244.798 100.648 245.784 100.574C246.792 100.503 247.526 99.9725 247.473 99.3959C247.398 98.8166 246.538 98.3947 245.53 98.4659C244.521 98.5372 243.765 99.0646 243.84 99.6439Z" fill="white"/>
<path d="M255.046 101.786C255.046 101.786 255.647 97.4666 250.907 95.2953C243.646 91.9691 239.669 99.661 237.334 100.908C237.334 100.908 238.86 102.248 239.97 101.786C239.947 101.786 247.739 92.4311 255.046 101.786Z" fill="#302725"/>
<path d="M283.75 91.8822C283.75 91.8822 276.073 85.0219 268.72 87.9786C267.009 88.6715 266.616 89.48 265.529 92.8062C265.529 92.8062 273.9 88.1171 283.75 91.8822Z" fill="#6F3B1E"/>
<path d="M237.335 93.7796C237.335 93.7796 241.705 85.8568 248.364 87.4506C249.914 87.8202 250.445 88.5362 252.18 91.539C252.18 91.5621 244.249 88.49 237.335 93.7796Z" fill="#6F3B1E"/>
<path d="M290.673 97.013C290.673 97.013 298.835 85.8795 301.194 96.5741C303.067 105.097 295.459 111.357 290.742 109.763C286.025 108.17 290.673 97.013 290.673 97.013Z" fill="#FBB2A6"/>
<path d="M290.582 98.9966C290.582 98.9966 296.363 91.9746 297.843 95.2777C299.323 98.5808 298.444 102.461 298.444 102.461C298.444 102.461 297.843 98.0264 294.328 100.082C294.328 100.082 296.826 107.381 290.582 104.61C290.559 104.61 288.108 102.184 290.582 98.9966Z" fill="#F39B8D"/>
<path d="M290.224 110.327C290.224 111.459 291.079 112.36 292.12 112.36C293.183 112.36 294.016 111.436 294.016 110.327C294.016 109.195 293.16 108.271 292.12 108.271C291.079 108.271 290.224 109.172 290.224 110.327Z" fill="white"/>
<path d="M223.912 89.3675C230.525 91.2153 237.97 89.8756 243.589 85.8334C249.208 81.7911 252.861 75.1157 253.231 68.2092C253.347 66.292 252.954 63.9821 251.22 63.1968C250.619 62.9196 249.925 62.8965 249.254 62.9196C245.162 63.0351 241.231 64.7675 237.97 67.2852C234.71 69.803 232.12 73.0599 229.831 76.4785C228.19 78.95 226.71 81.537 225.808 84.3551C225.253 86.1337 224.929 87.9815 224.86 89.8294" fill="url(#paint13_linear_915_5681)"/>
<path d="M251.802 72.5298C263.896 79.3669 277.584 91.4475 290.695 90.7776C291.365 90.7545 294.741 86.6199 295.019 86.0886C295.25 85.6266 294.996 85.0492 294.741 84.541C292.082 79.5055 284.96 70.7512 279.665 67.7714C274.37 64.7917 268.566 62.8977 262.786 61.1884C259.849 60.3337 256.866 59.5022 253.907 59.456C250.97 59.4098 248.01 60.2182 246.369 62.2047" fill="url(#paint14_linear_915_5681)"/>
<path d="M231.128 153.744C231.128 153.744 205.499 212.645 214.867 220.782C214.867 220.782 224.235 225.789 232.378 203.257C240.52 180.703 240.497 152.446 231.128 153.744Z" fill="white"/>
<path opacity="0.83" d="M217.606 221.053C218.12 220.719 219.902 219.561 221.554 218.441C223.505 217.11 220.835 222.417 220.835 222.417C220.835 222.417 220.728 221.167 220.835 220.458C220.942 219.742 227.258 203.417 231.763 198.745C235.968 194.387 236.667 166.4 236.745 162.618L236.75 162.195C236.75 162.195 233.68 165.952 231.389 173.998C229.092 182.049 228.178 198.452 228.178 198.452C228.178 198.452 224.094 211.216 218.824 210.671C218.824 210.671 222.365 217.267 219.986 221.333C219.53 222.105 218.52 220.413 217.606 221.053Z" fill="#CAC3CD" fill-opacity="0.3"/>
<path d="M233.624 193.242C233.624 193.242 212.019 208.379 213.638 217.674C213.893 219.181 214.887 220.803 214.887 220.803C214.887 220.803 224.256 231.466 236.145 207.034C236.122 207.011 243.015 191.364 233.624 193.242Z" fill="white"/>
<path d="M230.5 189.79C232.466 185.455 237.925 182.21 239.66 182.465C241.048 181.793 242.436 182.025 243.615 184.32C245.304 187.588 245.235 193.198 243.939 196.698C241.418 203.513 234.432 194.89 234.733 189.466C232.027 191.784 228.464 194.287 230.5 189.79Z" fill="#F0A98F"/>
<path d="M239.87 182.903C239.87 182.903 247.99 209.213 245.491 210.465C242.993 211.717 230.479 211.717 230.479 211.717C230.479 211.717 221.735 183.529 223.609 182.903C225.506 182.277 239.269 181.652 239.87 182.903Z" fill="#06B25F"/>
<path d="M254.997 214.546C254.997 214.546 251.828 213.897 250.625 212.297C249.422 210.698 248.682 210.002 244.403 208.148C240.146 206.294 238.458 203.813 238.458 203.813C238.458 203.813 235.474 206.734 241.997 209.84C245.999 211.741 232.86 211.764 228.904 211.37C228.904 211.37 226.614 212.714 230.385 214.546C234.155 216.377 230.524 216.586 237.995 219.738C245.467 222.868 254.349 224.397 256.176 219.645C258.004 214.893 254.997 214.546 254.997 214.546Z" fill="#FFBC9F"/>
<path d="M283.517 172.005C282.059 179.237 288.328 209.835 288.328 209.835C284.072 209.557 265.127 210.67 258.118 211.458C255.736 211.713 254.209 211.898 254.209 211.898L251.873 224.022C253.191 224.323 254.487 224.578 255.759 224.833C281.042 229.585 299.57 222.677 299.57 222.677C307.203 175.899 293.625 153.739 293.625 153.739C287.356 153.322 283.517 172.005 283.517 172.005Z" fill="white"/>
<path d="M284.331 141.883C284.331 141.883 282.398 149.498 279.299 155.718C279.299 155.718 279.023 158.472 282.135 159.317L283.098 158.613C283.098 158.613 283.004 161.787 285.74 162.604L288.948 160.508L287.803 162.554C287.803 162.554 288.266 165.09 290.802 165.522C290.802 165.522 295.694 163.115 296.867 158.877L293.454 154.482L294.02 151.789L289.817 147.278L290.144 145.291C290.123 145.297 287.683 142.547 284.331 141.883Z" fill="url(#paint15_linear_915_5681)"/>
<path d="M290.209 145.144C290.209 145.144 287.093 154.786 283.035 158.829C283.035 158.829 287.96 154.73 289.874 147.174L290.209 145.144Z" fill="#E28183"/>
<path d="M293.922 152.002C293.922 152.002 291.348 159.491 285.91 162.81C285.91 162.81 290.365 161.561 293.357 154.69L293.922 152.002Z" fill="#E28183"/>
<path d="M252.875 149.045H257.574C257.574 149.045 256.076 153.091 257.935 154.105C261.911 156.274 262.272 156.274 267.694 156.274C270.913 156.274 273.116 149.768 273.116 149.768L277.091 150.491C277.091 150.491 272.897 158.134 267.694 159.888C264.083 161.106 261.265 161.742 257.935 159.888C254.074 157.739 252.875 149.045 252.875 149.045Z" fill="#CAC3CD" fill-opacity="0.3"/>
</g>
<path d="M423.24 187.139V184.033C423.24 183.461 422.777 182.998 422.205 182.998C421.633 182.998 421.17 183.461 421.17 184.033V184.064C419.304 181.171 417.274 178.58 416.162 177.217C415.801 176.773 415.149 176.704 414.706 177.069C414.262 177.43 414.197 178.083 414.558 178.525C416.578 181.002 418.175 183.198 419.42 185.121C418.873 184.946 418.297 185.236 418.118 185.776C417.937 186.319 418.23 186.906 418.772 187.086L421.06 187.848C423.34 191.996 423.59 194.396 422.901 195.083C422.167 195.817 419.472 195.563 414.298 192.441C411.162 190.55 407.67 187.938 404.1 184.845C405.566 183.52 407.035 182.124 408.49 180.669C413.68 175.478 418.119 170.113 421.17 165.384V165.396C421.17 165.968 421.633 166.431 422.205 166.431C422.777 166.431 423.24 165.968 423.24 165.396V162.29C423.24 162.193 423.2 162.106 423.174 162.015C425.552 157.537 425.954 154.469 424.365 152.881C421.286 149.803 413.144 154.986 408.565 158.35C408.104 158.687 408.005 159.335 408.344 159.796C408.68 160.256 409.328 160.355 409.79 160.018C417.229 154.555 421.804 153.246 422.901 154.346C423.567 155.011 423.398 157.31 421.036 161.589L418.772 162.343C418.23 162.523 417.937 163.11 418.118 163.653C418.295 164.186 418.859 164.474 419.399 164.31C416.43 168.905 412.099 174.131 407.027 179.205C405.537 180.695 404.034 182.116 402.537 183.464C401.041 182.116 399.538 180.695 398.048 179.205C392.976 174.131 388.644 168.905 385.675 164.311C386.216 164.474 386.78 164.186 386.957 163.653C387.138 163.11 386.844 162.524 386.303 162.344L384.038 161.589C381.677 157.31 381.508 155.011 382.173 154.346C383.273 153.245 387.849 154.556 395.294 160.026C395.753 160.364 396.403 160.265 396.741 159.805C397.08 159.345 396.98 158.696 396.519 158.358C391.938 154.989 383.787 149.8 380.709 152.881C379.121 154.469 379.523 157.537 381.901 162.015C381.875 162.106 381.835 162.193 381.835 162.29V165.396C381.835 165.968 382.298 166.431 382.87 166.431C383.442 166.431 383.905 165.968 383.905 165.396V165.384C386.956 170.113 391.395 175.478 396.584 180.669C398.039 182.124 399.509 183.52 400.974 184.845C397.405 187.938 393.913 190.55 390.777 192.441C385.597 195.565 382.903 195.813 382.173 195.083C381.486 194.396 381.735 191.996 384.015 187.848L386.303 187.086C386.845 186.906 387.138 186.319 386.957 185.776C386.778 185.237 386.202 184.946 385.655 185.121C386.895 183.207 388.482 181.022 390.49 178.559C390.851 178.116 390.784 177.464 390.341 177.102C389.899 176.742 389.247 176.811 388.885 177.25C387.779 178.607 385.762 181.184 383.905 184.063V184.033C383.905 183.461 383.442 182.998 382.87 182.998C382.298 182.998 381.835 183.461 381.835 184.033V187.139C381.835 187.25 381.877 187.351 381.911 187.454C379.969 191.126 378.89 194.728 380.709 196.548C381.344 197.183 382.215 197.499 383.318 197.499C385.368 197.499 388.22 196.402 391.846 194.215C395.139 192.228 398.805 189.476 402.537 186.226C406.27 189.476 409.935 192.228 413.228 194.215C416.854 196.403 419.707 197.5 421.758 197.499C422.86 197.499 423.73 197.183 424.365 196.548C426.184 194.729 425.106 191.127 423.164 187.455C423.198 187.352 423.24 187.25 423.24 187.139Z" fill="#66D6A0"/>
<path d="M392.18 165.4C392.18 165.973 392.643 166.436 393.215 166.436C393.787 166.436 394.251 165.973 394.251 165.4C394.251 164.829 394.715 164.365 395.286 164.365C395.857 164.365 396.322 164.829 396.322 165.4C396.322 165.972 395.857 166.436 395.286 166.436C394.714 166.436 394.251 166.899 394.251 167.471C394.251 168.044 394.714 168.507 395.286 168.507C395.857 168.507 396.322 168.971 396.322 169.542C396.322 170.114 395.857 170.578 395.286 170.578C394.715 170.578 394.251 170.114 394.251 169.542C394.251 168.97 393.787 168.507 393.215 168.507C392.643 168.507 392.18 168.97 392.18 169.542C392.18 171.255 393.573 172.648 395.286 172.648C396.999 172.648 398.392 171.255 398.392 169.542C398.392 168.747 398.092 168.021 397.599 167.471C398.092 166.921 398.392 166.195 398.392 165.4C398.392 163.688 396.999 162.294 395.286 162.294C393.573 162.294 392.18 163.688 392.18 165.4Z" fill="#66D6A0"/>
<path d="M409.786 172.648C411.499 172.648 412.892 171.254 412.892 169.541V165.4C412.892 163.687 411.499 162.293 409.786 162.293C408.073 162.293 406.68 163.687 406.68 165.4V169.541C406.68 171.254 408.073 172.648 409.786 172.648ZM408.751 165.4C408.751 164.829 409.215 164.364 409.786 164.364C410.357 164.364 410.822 164.828 410.822 165.4V169.542C410.822 170.113 410.357 170.577 409.786 170.577C409.215 170.577 408.751 170.113 408.751 169.542V165.4Z" fill="#66D6A0"/>
<path d="M402.536 172.648C404.249 172.648 405.642 171.254 405.642 169.541C405.642 167.829 404.249 166.435 402.536 166.435C402.218 166.435 401.917 166.497 401.628 166.587C401.862 165.644 402.547 164.364 404.607 164.364C405.179 164.364 405.642 163.901 405.642 163.329C405.642 162.757 405.179 162.293 404.607 162.293C400.512 162.293 399.43 165.68 399.43 167.471V169.541C399.43 171.254 400.823 172.648 402.536 172.648ZM402.536 168.506C403.107 168.506 403.571 168.97 403.571 169.542C403.571 170.113 403.107 170.577 402.536 170.577C401.965 170.577 401.501 170.113 401.501 169.541C401.501 168.97 401.965 168.506 402.536 168.506Z" fill="#66D6A0"/>
<path d="M417.032 162.294C417.032 161.152 416.103 160.223 414.961 160.223C413.82 160.223 412.891 161.152 412.891 162.294C412.891 163.435 413.82 164.365 414.961 164.365C416.103 164.365 417.032 163.435 417.032 162.294Z" fill="#66D6A0"/>
</g>
<defs>
<linearGradient id="paint0_linear_915_5681" x1="208.058" y1="204.345" x2="291.55" y2="51.8179" gradientUnits="userSpaceOnUse">
<stop stop-color="#12844D"/>
<stop offset="1" stop-color="#3BE090"/>
</linearGradient>
<linearGradient id="paint1_linear_915_5681" x1="106.398" y1="248.843" x2="106.398" y2="206.514" gradientUnits="userSpaceOnUse">
<stop stop-color="#CF6074"/>
<stop offset="1" stop-color="#FF817F"/>
</linearGradient>
<linearGradient id="paint2_linear_915_5681" x1="121.42" y1="246.856" x2="121.42" y2="145.994" gradientUnits="userSpaceOnUse">
<stop stop-color="#79ADFA"/>
<stop offset="1" stop-color="#2C72DA"/>
</linearGradient>
<linearGradient id="paint3_linear_915_5681" x1="174.755" y1="386.884" x2="174.755" y2="262.087" gradientUnits="userSpaceOnUse">
<stop stop-color="#000B78"/>
<stop offset="1" stop-color="#1B279B"/>
</linearGradient>
<linearGradient id="paint4_linear_915_5681" x1="221.814" y1="216.821" x2="221.814" y2="142.748" gradientUnits="userSpaceOnUse">
<stop stop-color="#7CAFFC"/>
<stop offset="1" stop-color="#2C72DA"/>
</linearGradient>
<linearGradient id="paint5_linear_915_5681" x1="170.233" y1="276.63" x2="170.233" y2="137.475" gradientUnits="userSpaceOnUse">
<stop stop-color="#67A1F8"/>
<stop offset="1" stop-color="#1B67D9"/>
</linearGradient>
<linearGradient id="paint6_linear_915_5681" x1="185.536" y1="130.426" x2="157.785" y2="130.426" gradientUnits="userSpaceOnUse">
<stop stop-color="#CF6074"/>
<stop offset="1" stop-color="#FF817F"/>
</linearGradient>
<linearGradient id="paint7_linear_915_5681" x1="191.302" y1="145.894" x2="191.302" y2="145.681" gradientUnits="userSpaceOnUse">
<stop stop-color="#9D68C2"/>
<stop offset="1" stop-color="#CCEDFF"/>
</linearGradient>
<linearGradient id="paint8_linear_915_5681" x1="156.528" y1="155.038" x2="156.528" y2="141.517" gradientUnits="userSpaceOnUse">
<stop stop-color="#3D2CB0"/>
<stop offset="1" stop-color="#0355C7"/>
</linearGradient>
<linearGradient id="paint9_linear_915_5681" x1="286.214" y1="164.747" x2="290.702" y2="143.397" gradientUnits="userSpaceOnUse">
<stop offset="0.016" stop-color="#FFC2A9"/>
<stop offset="1" stop-color="#FF9595"/>
</linearGradient>
<linearGradient id="paint10_linear_915_5681" x1="272.954" y1="161.435" x2="280.363" y2="126.188" gradientUnits="userSpaceOnUse">
<stop stop-color="#FFEADB"/>
<stop offset="0.9944" stop-color="#C27CB6"/>
</linearGradient>
<linearGradient id="paint11_linear_915_5681" x1="266.325" y1="125.719" x2="266.325" y2="105.172" gradientUnits="userSpaceOnUse">
<stop stop-color="#A242EA"/>
<stop offset="1" stop-color="#FE117E"/>
</linearGradient>
<linearGradient id="paint12_linear_915_5681" x1="238.387" y1="214.614" x2="238.387" y2="172.286" gradientUnits="userSpaceOnUse">
<stop stop-color="#CF6074"/>
<stop offset="1" stop-color="#FF817F"/>
</linearGradient>
<linearGradient id="paint13_linear_915_5681" x1="224.046" y1="90.109" x2="249.138" y2="62.8415" gradientUnits="userSpaceOnUse">
<stop stop-color="#25B770" stop-opacity="0.6"/>
<stop offset="1" stop-color="#1FCF79"/>
</linearGradient>
<linearGradient id="paint14_linear_915_5681" x1="293.67" y1="88.5131" x2="251.319" y2="63.2761" gradientUnits="userSpaceOnUse">
<stop stop-color="#33CF83"/>
<stop offset="1" stop-color="#32CE82"/>
</linearGradient>
<linearGradient id="paint15_linear_915_5681" x1="286.526" y1="164.642" x2="291.014" y2="143.292" gradientUnits="userSpaceOnUse">
<stop offset="0.016" stop-color="#FFC2A9"/>
<stop offset="1" stop-color="#FF9595"/>
</linearGradient>
<clipPath id="clip0_915_5681">
<rect width="482" height="360" fill="white"/>
</clipPath>
</defs>
</svg>
