<svg width="488" height="352" viewBox="0 0 488 352" fill="none" xmlns="http://www.w3.org/2000/svg">
<g clip-path="url(#clip0_915_5683)">
<path opacity="0.04" d="M73.539 286.542C37.1822 354.883 287.756 361.817 341.539 337.042C395.322 312.267 406.852 217.878 388.039 187.542C382.172 178.137 460.497 243.055 457.039 232.266C449.508 208.66 460.268 102.804 447.039 82.5421C435.603 65.0033 325.492 96.6032 310.539 82.5421C303.99 76.4581 236.039 -9.95777 155.039 3.04221C95.8641 12.5394 18.5418 65.8506 2.53861 109.042C-13.4646 152.234 140.038 161.542 73.539 286.542Z" fill="#276ED8"/>
<path opacity="0.2" d="M176.603 116.049L191 113.341V100.433L176.603 97.9513C175.498 92.6485 173.399 87.6841 170.511 83.2838L178.77 71.1663L169.631 62.0273L157.694 70.4667C153.293 67.5784 148.352 65.5024 143.026 64.3967L140.318 50H127.411L124.929 64.3967C119.626 65.5024 114.662 67.6009 110.261 70.4893L98.1662 62.2304L89.0273 71.3694L97.4667 83.3064C94.5784 87.7066 92.5024 92.671 91.3967 97.9739L77 100.682V113.589L91.3967 116.071C92.5024 121.397 94.601 126.338 97.4893 130.739L89.2304 142.834L98.3693 151.973L110.329 143.533C114.729 146.422 119.694 148.52 124.996 149.603L127.704 164H140.612L143.094 149.603C148.419 148.498 153.361 146.399 157.761 143.511L169.856 151.77L178.995 142.631L170.556 130.694C173.422 126.316 175.498 121.374 176.603 116.049ZM134 133.74C119.242 133.74 107.283 121.758 107.283 107.023C107.283 92.2874 119.242 80.3052 134 80.3052C148.758 80.3052 160.717 92.2648 160.717 107.023C160.717 121.78 148.758 133.74 134 133.74Z" fill="#84B5FF"/>
<path d="M343.672 111.3V244.29C343.672 247.71 340.902 250.48 337.482 250.48H134.682C131.262 250.48 128.492 247.71 128.492 244.29V111.3C128.492 103.41 134.892 97 142.792 97H329.372C337.272 97 343.672 103.41 343.672 111.3Z" fill="white" stroke="#84B5FF" stroke-miterlimit="10"/>
<path d="M228.144 128.811H204.008V130.839H228.144V128.811Z" fill="#84B5FF"/>
<path d="M256.457 128.811H232.32V130.839H256.457V128.811Z" fill="#06B25F"/>
<path d="M248.888 139.757H211.461V141.786H248.888V139.757Z" fill="#276ED8"/>
<path d="M274.097 139.757H255.078V141.786H274.097V139.757Z" fill="#84B5FF"/>
<path d="M240.88 150.689H224.445V152.718H240.88V150.689Z" fill="#06B25F"/>
<path d="M304.901 150.689H250.375V152.718H304.901V150.689Z" fill="#06B25F"/>
<path d="M299.526 161.63H237.211V163.658H299.526V161.63Z" fill="#276ED8"/>
<path d="M240.809 172.563H221.633V174.591H240.809V172.563Z" fill="#84B5FF"/>
<path d="M268.192 172.563H249.016V174.591H268.192V172.563Z" fill="#276ED8"/>
<path d="M231.899 229.322H204.008V231.351H231.899V229.322Z" fill="#84B5FF"/>
<path d="M269.556 229.322H241.664V231.351H269.556V229.322Z" fill="#06B25F"/>
<path d="M306.212 229.322H278.32V231.351H306.212V229.322Z" fill="#84B5FF"/>
<path d="M265.994 218.372H211.469V220.401H265.994V218.372Z" fill="#276ED8"/>
<path d="M329.002 218.372H274.477V220.401H329.002V218.372Z" fill="#84B5FF"/>
<path d="M278.552 207.443H224.445V209.471H278.552V207.443Z" fill="#84B5FF"/>
<path d="M298.32 207.443H283.266V209.471H298.32V207.443Z" fill="#06B25F"/>
<path d="M241.278 196.499H220.914V198.527H241.278V196.499Z" fill="#06B25F"/>
<path d="M272.45 196.499H252.086V198.527H272.45V196.499Z" fill="#276ED8"/>
<path d="M305.934 196.499H285.57V198.527H305.934V196.499Z" fill="#84B5FF"/>
<path d="M273.079 185.571H244.523V187.599H273.079V185.571Z" fill="#06B25F"/>
<path d="M233.751 185.571H205.195V187.599H233.751V185.571Z" fill="#276ED8"/>
<path d="M197.282 126.872H194.68V129.477H197.282V126.872Z" fill="#84B5FF"/>
<path d="M197.282 222.24H194.68V216.941H197.282V222.24ZM197.282 208.985H194.68V203.687H197.282V208.985ZM197.282 195.731H194.68V190.433H197.282V195.731ZM197.282 182.477H194.68V177.179H197.282V182.477ZM197.282 169.223H194.68V163.924H197.282V169.223ZM197.282 155.968H194.68V150.67H197.282V155.968ZM197.282 142.714H194.68V137.416H197.282V142.714Z" fill="#84B5FF"/>
<path d="M197.282 230.194H194.68V232.799H197.282V230.194Z" fill="#84B5FF"/>
<path opacity="0.7" d="M128 113.49C128 110.176 130.686 107.49 134 107.49H184V250.49H134C130.686 250.49 128 247.804 128 244.49V113.49Z" fill="#84B5FF"/>
<path d="M156.613 130.813H132.477V132.842H156.613V130.813Z" fill="#06B25F"/>
<path d="M175.092 143.208H137.664V145.236H175.092V143.208Z" fill="#84B5FF"/>
<path d="M175.092 155.604H137.664V157.632H175.092V155.604Z" fill="#84B5FF"/>
<path d="M175.092 168H137.664V170.028H175.092V168Z" fill="#84B5FF"/>
<path d="M175.092 180.392H137.664V182.421H175.092V180.392Z" fill="#84B5FF"/>
<path d="M177.029 205.181H139.602V207.21H177.029V205.181Z" fill="#84B5FF"/>
<path d="M177.029 217.579H139.602V219.607H177.029V217.579Z" fill="#84B5FF"/>
<path d="M177.029 229.97H139.602V231.999H177.029V229.97Z" fill="#84B5FF"/>
<path d="M156.613 192.787H132.477V194.815H156.613V192.787Z" fill="#06B25F"/>
<path d="M343.672 111.3V111.9H128.492V111.3C128.492 103.41 134.892 97 142.792 97H329.372C337.272 97 343.672 103.41 343.672 111.3Z" fill="#84B5FF"/>
<path opacity="0.3" d="M310.993 105.14C310.993 106.17 310.163 107 309.133 107C308.103 107 307.273 106.17 307.273 105.14C307.273 104.11 308.103 103.28 309.133 103.28C310.153 103.28 310.993 104.11 310.993 105.14Z" fill="white"/>
<path opacity="0.3" d="M321.173 105.14C321.173 106.17 320.343 107 319.313 107C318.283 107 317.453 106.17 317.453 105.14C317.453 104.11 318.283 103.28 319.313 103.28C320.333 103.28 321.173 104.11 321.173 105.14Z" fill="white"/>
<path opacity="0.3" d="M330.9 105.14C330.9 106.17 330.07 107 329.04 107C328.01 107 327.18 106.17 327.18 105.14C327.18 104.11 328.01 103.28 329.04 103.28C330.07 103.28 330.9 104.11 330.9 105.14Z" fill="white"/>
<path d="M343.672 111.3V244.29C343.672 247.71 340.902 250.48 337.482 250.48H134.682C131.262 250.48 128.492 247.71 128.492 244.29V111.3C128.492 103.41 134.892 97 142.792 97H329.372C337.272 97 343.672 103.41 343.672 111.3Z" stroke="#84B5FF" stroke-miterlimit="10"/>
<path d="M253.89 292C242.903 292 234 300.903 234 311.89C234 322.876 242.903 331.779 253.89 331.779C264.876 331.779 273.779 322.876 273.779 311.89C273.779 300.903 264.876 292 253.89 292ZM253.89 326.823C245.633 326.823 238.946 320.136 238.946 311.88C238.946 303.624 245.633 296.937 253.89 296.937C262.146 296.937 268.833 303.624 268.833 311.88C268.833 320.136 262.146 326.823 253.89 326.823Z" fill="#66D6A0"/>
<path d="M45.7725 75.976H17.988C16.8941 75.976 16 75.0914 16 73.988C16 72.8941 16.8846 72 17.988 72H45.7725C46.8664 72 47.7605 72.8846 47.7605 73.988C47.7605 75.0819 46.8664 75.976 45.7725 75.976Z" fill="#66D6A0"/>
<path d="M45.7725 85.8972H17.988C16.8941 85.8972 16 85.0125 16 83.9091C16 82.8153 16.8846 81.9211 17.988 81.9211H45.7725C46.8664 81.9211 47.7605 82.8058 47.7605 83.9091C47.7605 85.003 46.8664 85.8972 45.7725 85.8972Z" fill="#66D6A0"/>
<path opacity="0.3" d="M244.575 143.627C244.575 144.465 243.9 145.141 243.061 145.141C242.223 145.141 241.547 144.465 241.547 143.627C241.547 142.788 242.223 142.113 243.061 142.113C243.892 142.113 244.575 142.788 244.575 143.627Z" fill="white"/>
<path opacity="0.3" d="M252.864 143.627C252.864 144.465 252.189 145.141 251.35 145.141C250.512 145.141 249.836 144.465 249.836 143.627C249.836 142.788 250.512 142.113 251.35 142.113C252.181 142.113 252.864 142.788 252.864 143.627Z" fill="white"/>
<path opacity="0.3" d="M260.786 143.627C260.786 144.465 260.111 145.141 259.272 145.141C258.434 145.141 257.758 144.465 257.758 143.627C257.758 142.788 258.434 142.113 259.272 142.113C260.111 142.113 260.786 142.788 260.786 143.627Z" fill="white"/>
<path d="M236.505 50.3863C236.493 50.7074 233.888 58.601 233.699 58.4939C233.508 58.3895 215.347 53.5952 215.347 53.5952L218.003 43.2257L236.505 50.3863Z" fill="#66D6A0"/>
<path d="M215.023 89.1236L217.348 90.4173L218.769 88.5479L221.248 90.1368L222.609 88.4837L224.822 89.8826L226.54 87.9693L228.917 88.9352L228.775 91.4294L215.468 93.167L215.023 89.1236Z" fill="#06B25F"/>
<path d="M245.254 97.989L220.301 96.0198L220.587 92.4962L237.783 90.222L245.254 97.989Z" fill="#66D6A0"/>
<path d="M283.26 34.0989L281.694 48.5439L251.479 64.6513L244.24 56.1749L283.26 34.0989Z" fill="#66D6A0"/>
<path d="M254.348 78.4389C254.109 78.2208 246.664 74.4953 246.604 74.7042C246.544 74.9132 237.125 91.1222 237.125 91.1222L246.369 96.5589L254.348 78.4389Z" fill="#66D6A0"/>
<g filter="url(#filter0_d_915_5683)">
<rect x="190.594" y="59.8919" width="58" height="57" rx="6" fill="#276ED8"/>
</g>
<path d="M210.337 97.8179L197.06 90.6376C196.202 90.1409 195.773 89.3732 195.773 88.3345C195.773 87.2507 196.225 86.483 197.128 86.0314L210.337 78.7834L210.337 81.4252C210.337 81.6058 210.27 81.8542 210.134 82.1703C209.999 82.4412 209.795 82.6445 209.524 82.7799L200.109 87.9281C199.747 88.199 199.747 88.47 200.109 88.7409L210.337 94.2278L210.337 97.8179Z" fill="white"/>
<path d="M221.646 76.6157L224.288 76.6157L217.717 99.105C217.537 99.692 217.13 99.9856 216.498 99.9856L214.805 99.9856L221.646 76.6157Z" fill="white"/>
<path d="M228.552 78.7834L241.761 86.0314C242.709 86.5281 243.184 87.2959 243.184 88.3345C243.184 89.3732 242.709 90.1183 241.761 90.5699L228.552 97.8179L228.552 95.1761C228.552 95.0406 228.597 94.8148 228.688 94.4987C228.823 94.1826 229.026 93.9568 229.297 93.8213L238.781 88.7409C239.142 88.47 239.142 88.199 238.781 87.9281L228.552 82.3735L228.552 78.7834Z" fill="white"/>
<path d="M236.345 49.6988C243.802 49.3434 257.908 69.4094 255.341 76.0455C252.998 82.0956 249.14 82.206 246.641 80.7078C242.658 78.3159 248.537 73.686 246.239 70.3392C243.941 66.9923 241.109 63.0202 238.905 60.1214C236.448 56.8908 230.192 60.9952 229.17 56.4716C228.531 53.6315 229.853 50.0092 236.345 49.6988Z" fill="#06B25F"/>
<rect x="224.594" y="59.8918" width="24" height="32" rx="6" fill="#276ED8"/>
<path d="M210.158 98.094L196.881 90.9137C196.023 90.417 195.594 89.6493 195.594 88.6106C195.594 87.5268 196.045 86.7591 196.949 86.3075L210.158 79.0595L210.158 81.7013C210.158 81.8819 210.09 82.1303 209.954 82.4464C209.819 82.7174 209.616 82.9206 209.345 83.0561L199.929 88.2042C199.568 88.4752 199.568 88.7461 199.929 89.0171L210.158 94.5039L210.158 98.094Z" fill="white"/>
<path d="M221.467 76.8918L224.108 76.8918L217.538 99.3811C217.357 99.9682 216.951 100.262 216.318 100.262L214.625 100.262L221.467 76.8918Z" fill="white"/>
<path d="M228.372 79.0595L241.581 86.3075C242.53 86.8043 243.004 87.572 243.004 88.6106C243.004 89.6493 242.53 90.3944 241.581 90.846L228.372 98.094L228.372 95.4522C228.372 95.3168 228.418 95.091 228.508 94.7749C228.643 94.4587 228.847 94.2329 229.118 94.0975L238.601 89.0171C238.962 88.7461 238.962 88.4752 238.601 88.2042L228.372 82.6496L228.372 79.0595Z" fill="white"/>
<path d="M231.438 53.3515C230.921 54.6415 231.549 56.1111 232.842 56.6293C234.135 57.1475 235.606 56.5231 236.123 55.2331C236.642 53.9399 236.013 52.4735 234.72 51.9552C233.428 51.4339 231.959 52.0595 231.438 53.3515Z" fill="#66D6A0"/>
<path d="M247.946 75.1993C247.429 76.4893 248.056 77.9589 249.35 78.4771C250.643 78.9953 252.114 78.3709 252.631 77.0809C253.148 75.7908 252.521 74.3213 251.227 73.803C249.935 73.2817 248.464 73.9061 247.946 75.1993Z" fill="#66D6A0"/>
<path d="M201.179 70.6143L201.901 68.0602L204.23 68.3762L204.85 65.5015L206.987 65.7085L207.55 63.1572L210.12 63.2961L211.109 60.9349L209.239 59.2732L198.62 67.4447L201.179 70.6143Z" fill="#06B25F"/>
<path d="M216.203 43.002L200.003 62.0119L202.712 64.3035L216.453 53.76L216.203 43.002Z" fill="#66D6A0"/>
<path d="M213.632 53.0967C211.024 51.6608 210.069 48.3882 211.501 45.7856C212.932 43.1829 216.206 42.2358 218.814 43.6717C221.422 45.1076 222.377 48.3801 220.946 50.9828C219.518 53.5845 216.245 54.5316 213.632 53.0967Z" fill="#06B25F"/>
<path d="M214.898 50.8025C213.676 50.1278 213.228 48.5969 213.901 47.3773C214.569 46.1585 216.105 45.7136 217.327 46.3882C218.549 47.0629 218.997 48.5938 218.324 49.8135C217.653 51.0304 216.122 51.4744 214.898 50.8025Z" fill="#66D6A0"/>
<rect x="245.594" y="72.8918" width="3" height="6" rx="1.5" fill="#276ED8"/>
<path d="M283.99 25.5903H363.859V27.4987H283.99V25.5903Z" fill="#66D6A0"/>
<path d="M359.572 22.9199H367.352V38.0622H359.572V22.9199Z" fill="#66D6A0"/>
<path d="M278.47 21.8918H286.25V37.0341H278.47V21.8918Z" fill="#66D6A0"/>
<path d="M365.32 34.1731L356.28 49.5978L283.996 47.7387L280.44 33.6509L365.32 34.1731Z" fill="#66D6A0"/>
<path d="M450.82 130.351C448.838 132.387 406.609 112.078 406.609 112.078L386.589 128.653L449.8 180.225L450.82 130.351Z" fill="#66D6A0"/>
<path d="M406.609 112.078L368.861 35.0074L356.278 49.5979L386.589 128.653L406.609 112.078Z" fill="#66D6A0"/>
<path d="M445.377 121.312V179.424C445.377 182.114 447.563 184.295 450.259 184.295H480.047C482.744 184.295 484.93 182.114 484.93 179.424V121.312C484.93 118.621 482.744 116.44 480.047 116.44H450.259C447.563 116.44 445.377 118.621 445.377 121.312Z" fill="#66D6A0"/>
<path d="M397.413 134.115C389.758 134.115 383.553 127.924 383.553 120.287C383.553 112.65 389.758 106.458 397.413 106.458C405.068 106.458 411.273 112.65 411.273 120.287C411.273 127.924 405.068 134.115 397.413 134.115Z" fill="#06B25F"/>
<path d="M353.636 43.4391C353.636 48.8457 358.028 53.2274 363.447 53.2274C368.866 53.2274 373.258 48.8457 373.258 43.4391C373.258 38.0326 368.866 33.6509 363.447 33.6509C358.028 33.6509 353.636 38.0326 353.636 43.4391Z" fill="#06B25F"/>
<path d="M482.269 115.304V184.242C482.269 187.363 484.649 189.892 487.586 189.892V109.655C484.649 109.655 482.269 112.184 482.269 115.304Z" fill="#06B25F"/>
<path d="M398.875 113.386C398.875 112.368 366.483 43.4392 366.483 43.4392L361.89 44.9304L389.946 117.456L398.875 113.386Z" fill="#06B25F"/>
<path d="M358.703 43.4326C358.703 46.0538 360.833 48.1756 363.457 48.1756C366.081 48.1756 368.211 46.0505 368.211 43.4326C368.211 40.8115 366.081 38.6896 363.457 38.6896C360.833 38.6896 358.703 40.8115 358.703 43.4326Z" fill="#66D6A0"/>
<path d="M274.205 41.2121C274.205 45.7023 277.852 49.3449 282.356 49.3449C286.857 49.3449 290.508 45.7055 290.508 41.2121C290.508 36.722 286.86 33.0793 282.356 33.0793C277.856 33.0793 274.205 36.7187 274.205 41.2121Z" fill="#06B25F"/>
<path d="M356.273 39.3958L288.598 38.6863V41.9644L356.273 45.8632V39.3958Z" fill="#06B25F"/>
<path d="M278.718 40.6669C278.718 42.6738 280.347 44.2997 282.359 44.2997C284.37 44.2997 286 42.6738 286 40.6669C286 38.66 284.37 37.0341 282.359 37.0341C280.351 37.0341 278.718 38.66 278.718 40.6669Z" fill="#66D6A0"/>
<path d="M391.586 120.784C391.586 124.04 394.23 126.677 397.492 126.677C400.755 126.677 403.398 124.04 403.398 120.784C403.398 117.529 400.755 114.892 397.492 114.892C394.23 114.892 391.586 117.529 391.586 120.784Z" fill="#66D6A0"/>
<g filter="url(#filter1_d_915_5683)">
<rect x="48" y="127" width="58" height="57" rx="6" fill="#06B25F"/>
</g>
<g clip-path="url(#clip1_915_5683)">
<path d="M61 155C61 153.503 64.5318 151.555 70.5953 150.712C70.4775 152.098 70.4166 153.535 70.4166 155C70.4166 156.464 70.4775 157.902 70.5953 159.288C64.5318 158.445 61 156.497 61 155Z" fill="white"/>
<path d="M76.9993 171C75.5019 171 73.5543 167.468 72.7109 161.405C74.097 161.523 75.5348 161.583 76.9993 161.583C78.4638 161.583 79.9016 161.523 81.2877 161.405C80.4443 167.468 78.4968 171 76.9993 171Z" fill="white"/>
<path d="M83.4023 159.288C83.5201 157.902 83.581 156.464 83.581 155C83.581 153.538 83.5204 152.103 83.403 150.719C84.6633 150.895 85.8583 151.123 86.9572 151.399L86.5423 151.577C86.0667 151.782 85.8471 152.333 86.0517 152.809C86.2564 153.285 86.8081 153.504 87.2834 153.299L89.8619 152.19C90.3375 151.985 90.5571 151.434 90.3525 150.958L89.2428 148.379C89.0901 148.025 88.7443 147.812 88.3812 147.812C88.2575 147.812 88.1318 147.837 88.011 147.889C87.5354 148.094 87.3158 148.645 87.5204 149.121L87.7561 149.668C86.3681 149.302 84.8301 149.011 83.1996 148.801C82.9118 146.554 82.4661 144.488 81.8792 142.727C81.4218 141.355 80.8989 140.225 80.3203 139.348C87.5536 140.882 92.9977 147.317 92.9977 155C92.9977 156.497 89.4658 158.445 83.4023 159.288Z" fill="white"/>
<path d="M72.4904 159.507C72.3614 158.111 72.2891 156.606 72.2891 155C72.2891 153.394 72.3614 151.889 72.4904 150.493C73.8861 150.364 75.3912 150.292 76.9974 150.292C78.5348 150.292 80.0507 150.363 81.5049 150.499C81.6336 151.893 81.7057 153.396 81.7057 155C81.7057 156.606 81.6333 158.111 81.5043 159.507C80.1086 159.636 78.6036 159.708 76.9974 159.708C75.3912 159.708 73.8861 159.636 72.4904 159.507Z" fill="white"/>
<path d="M76.9993 148.417C75.5348 148.417 74.0969 148.478 72.7109 148.595C73.5543 142.532 75.5019 139 76.9993 139C78.497 139 80.4448 142.533 81.288 148.598C79.8956 148.478 78.4555 148.417 76.9993 148.417Z" fill="white"/>
<path d="M73.6809 139.348C73.1023 140.225 72.5795 141.355 72.1221 142.727C71.5354 144.487 71.0899 146.552 70.802 148.798C68.5553 149.086 66.4904 149.532 64.7306 150.118C63.3583 150.576 62.2284 151.099 61.3516 151.677C62.6581 145.516 67.5202 140.654 73.6809 139.348Z" fill="white"/>
<path d="M92.6497 158.323C91.3433 164.484 86.4812 169.346 80.3203 170.652C80.8989 169.775 81.4218 168.645 81.8792 167.273C82.4658 165.513 82.9114 163.448 83.1992 161.202C85.4459 160.914 87.5108 160.468 89.2706 159.882C90.6429 159.424 91.7729 158.901 92.6497 158.323Z" fill="white"/>
<path d="M64.7227 159.882C66.4826 160.468 68.5474 160.914 70.7942 161.202C71.0821 163.448 71.5276 165.513 72.1142 167.273C72.5717 168.645 73.0945 169.775 73.6731 170.652C67.5123 169.346 62.6502 164.484 61.3438 158.323C62.2206 158.901 63.3505 159.424 64.7227 159.882Z" fill="white"/>
</g>
<g filter="url(#filter2_d_915_5683)">
<path d="M108.109 229.761C127.389 227.717 145.788 234.318 155.125 245.394C155.028 244.459 154.874 243.509 154.656 242.566C150.622 225.097 126.992 213.089 101.883 215.751C76.7734 218.412 59.685 234.735 63.7189 252.205C64.6564 256.265 66.6523 260.027 69.4802 263.379C67.787 247.012 84.3591 232.278 108.109 229.761Z" fill="#043072"/>
<path d="M152.664 238.873C154.347 255.274 137.774 270.037 114.015 272.56C104.797 273.539 94.9893 272.713 85.4085 269.178C81.492 267.734 77.5907 265.814 73.9152 263.204C72.2942 262.051 70.7041 260.75 69.1983 259.345C67.7966 258.038 65.0072 254.874 64.7597 252.649C65.2966 257.494 67.6914 262.567 70.2352 266.711C81.8147 285.57 105.178 288.197 120.243 286.597C145.368 283.93 162.458 267.574 158.422 250.07C157.485 246.002 155.488 242.232 152.664 238.873Z" fill="#84B5FF"/>
<path d="M155.124 240.224C151.792 224.02 128.34 213.761 102.748 217.313C77.1566 220.866 59.1082 236.885 62.4404 253.089C63.2148 256.855 65.076 260.297 67.7992 263.32" stroke="#84B5FF" stroke-width="2" stroke-miterlimit="10"/>
<path d="M154.769 239.042C155.758 254.889 138.222 269.95 113.907 273.445C94.1671 276.283 75.7089 270.673 66.6843 260.311" stroke="#84B5FF" stroke-width="2" stroke-miterlimit="10"/>
<path d="M158.438 264.036C139.94 279.052 115.64 287.189 86.8613 290.294C85.004 290.493 83.163 289.021 82.7238 286.964L75.713 254.091C75.2776 252.053 76.3718 250.183 78.1916 249.885C103.286 245.75 126.377 237.56 147.098 224.57C149.117 223.305 151.912 224.796 152.481 227.459L159.53 260.461C159.827 261.852 159.416 263.239 158.438 264.036Z" fill="#276ED8"/>
<path d="M163.726 266.415C145.243 281.407 103.349 299.096 103.349 299.096L84.8448 288.89C83.7404 288.268 83.4152 286.773 83.2798 285.473L81.0422 256.481C80.6056 254.44 81.7111 252.578 83.5353 252.28C108.451 248.174 129.684 236.93 150.268 224.069C150.534 223.899 150.889 223.943 151.154 224.183C153.849 226.595 168.455 236.972 169.129 239.098L164.814 262.853C165.116 264.241 164.704 265.626 163.726 266.415Z" fill="#276ED8"/>
<path opacity="0.21" d="M131.254 242.124C132.498 243.019 133.82 243.88 135.164 244.762C135.432 244.918 135.702 245.062 135.974 245.212C132.275 242.444 128.529 239.761 124.824 237.012C124.75 237.046 124.675 237.08 124.6 237.107C126.799 238.828 129.017 240.504 131.254 242.124Z" fill="white"/>
<path opacity="0.21" d="M151.741 242.598C143.044 246.053 134.356 249.55 125.467 252.507C119.142 254.612 112.789 255.979 106.327 257.566C103.834 258.179 99.6217 259.15 97.2193 261.376C101.008 264.064 104.805 266.738 108.613 269.386C109.809 270.221 108.87 272.161 107.674 271.327C103.743 268.596 99.8349 265.837 95.9239 263.066C95.6788 263.554 95.5135 264.081 95.4403 264.652C100.294 268.204 105.153 271.756 110.148 275.034C111.365 275.835 110.42 277.776 109.209 276.975C107.211 275.663 105.246 274.298 103.283 272.92C103.573 273.379 103.863 273.838 104.138 274.305C106.339 278.031 108.122 282.05 109.562 286.166C109.691 286.124 109.814 286.082 109.944 286.039C111.611 285.383 113.352 284.898 115.002 284.449C119.723 283.167 124.407 282.263 128.91 280.393C129.643 280.069 130.37 279.746 131.098 279.429C139.405 275.722 147.424 271.406 155.457 267.132C157.96 265.49 160.421 263.779 162.857 262.028C163.26 259.924 163.674 257.824 164.101 255.735C164.56 252.614 165.084 249.509 165.637 246.418C165.698 243.475 165.694 240.517 165.685 237.559C165.26 237.218 164.835 236.876 164.417 236.541C160.471 239.095 156.02 240.896 151.741 242.598Z" fill="white"/>
<path d="M94.5133 293.123L87.5082 261.985C86.8467 259.046 88.1579 256.247 90.6281 255.326L156.494 230.741C157.404 230.4 158.355 230.359 159.274 230.548C157.668 228.888 155.358 228.146 153.278 228.917L87.4118 253.503C84.9416 254.424 83.6304 257.222 84.2918 260.161L91.297 291.3C91.7701 293.409 93.5354 294.889 95.3557 294.958C94.9643 294.436 94.6671 293.817 94.5133 293.123Z" fill="#06B25F"/>
<path d="M172.492 273.877L107.079 298.356C103.681 299.631 99.7037 297.033 98.8389 292.979L93.0216 265.708C92.3193 262.416 93.9642 259.361 96.8351 258.629C119.234 252.912 140.699 244.877 161.317 234.751C164.758 233.061 169.109 235.633 170.024 239.925L175.791 266.958C176.438 270.019 175.062 272.915 172.492 273.877Z" fill="#84B5FF"/>
<path d="M145.284 251.641L119.554 261.817C118.401 262.274 117.057 261.316 116.809 259.864L116.752 259.527C116.571 258.463 117.056 257.474 117.912 257.17C127.105 253.884 135.689 250.776 143.591 247.373C144.727 246.886 146.081 247.783 146.371 249.223C146.593 250.294 146.134 251.305 145.284 251.641Z" fill="#06B25F"/>
<path d="M172.028 273.786L107.412 297.963C104.055 299.22 100.128 296.653 99.2748 292.652L93.5286 265.714C92.8352 262.464 94.461 259.449 97.2945 258.721C119.418 253.078 140.616 245.134 160.981 235.133C164.383 233.467 168.677 236.003 169.581 240.242L175.276 266.942C175.924 269.978 174.561 272.835 172.028 273.786Z" stroke="#1351AC" stroke-width="3" stroke-miterlimit="10"/>
<path d="M90.8573 289.537C90.4713 289.869 89.9073 289.894 89.4307 289.595L78.4776 282.773L73.3664 266.034C73.1633 265.37 73.4126 264.701 73.9568 264.441C74.3287 264.261 74.7732 264.269 75.1816 264.449L86.511 269.565C87.0432 269.806 87.45 270.317 87.5806 270.915L91.309 287.984C91.446 288.587 91.2755 289.183 90.8573 289.537Z" fill="#194484"/>
<path d="M89.1086 289.632L78.087 284.394C77.4895 284.11 77.0375 283.531 76.8913 282.861L73.2494 266.169C73.134 265.64 73.5853 265.254 74.0532 265.472L85.0874 270.721C85.6443 270.986 86.0736 271.534 86.21 272.159L89.8764 288.963C89.9921 289.469 89.5587 289.841 89.1086 289.632Z" fill="#194484"/>
<path d="M83.1631 282.983L79.2202 280.859C78.8456 280.658 78.5451 280.257 78.4368 279.814L76.7446 272.898C76.5111 271.944 77.2408 271.277 78.0482 271.715L82.0194 273.854C82.3782 274.051 82.662 274.424 82.7661 274.85L84.4667 281.8C84.7002 282.754 83.9691 283.415 83.1631 282.983Z" fill="#276ED8"/>
<path d="M82.5849 283.429L78.6421 281.304C78.2674 281.104 77.9669 280.702 77.8586 280.26L76.1665 273.344C75.933 272.389 76.6626 271.723 77.47 272.16L81.4412 274.3C81.8 274.496 82.0838 274.869 82.1879 275.295L83.8885 282.245C84.1157 283.194 83.3861 283.861 82.5849 283.429Z" fill="#06B25F"/>
</g>
<path d="M356.778 164H303.222C299.234 164 296 167.225 296 171.205V260.111V280.394C296 284.405 299.268 287.599 303.222 287.599H356.778C360.765 287.599 364 284.375 364 280.394V191.488V171.205C364 167.189 360.728 164 356.778 164Z" fill="#276ED8"/>
<path d="M360.498 173.819H299.5V277.78H360.498V173.819Z" fill="white"/>
<path d="M342.389 207L328.91 210.938L326.915 214.777L322.867 214.744L313 225.502L322.867 236.259L326.913 236.226L328.912 240.062L342.389 244L346 229.308L343.948 225.502L346 221.697L342.389 207ZM327.24 215.394L337.551 212.505L331.632 223.685H319.792L327.24 215.394ZM327.24 235.608L319.792 227.318H331.632L337.551 238.498L327.24 235.608ZM340.436 236.68L334.515 225.502L340.436 214.32L343.295 225.502L340.436 236.68Z" fill="#06B25F"/>
<path d="M342.577 170.552H317.525C317.235 170.552 317 170.318 317 170.028V169.773C317 169.484 317.234 169.249 317.525 169.249H342.577C342.867 169.249 343.102 169.483 343.102 169.773V170.028C343.101 170.317 342.867 170.552 342.577 170.552Z" fill="white"/>
<path d="M360.498 271.631H299.5V277.781H360.498V271.631Z" fill="#84B5FF"/>
<path d="M360.498 173.819H299.5V179.336H360.498V173.819Z" fill="#84B5FF"/>
</g>
<defs>
<filter id="filter0_d_915_5683" x="184.594" y="53.8919" width="80" height="79" filterUnits="userSpaceOnUse" color-interpolation-filters="sRGB">
<feFlood flood-opacity="0" result="BackgroundImageFix"/>
<feColorMatrix in="SourceAlpha" type="matrix" values="0 0 0 0 0 0 0 0 0 0 0 0 0 0 0 0 0 0 127 0" result="hardAlpha"/>
<feMorphology radius="3" operator="dilate" in="SourceAlpha" result="effect1_dropShadow_915_5683"/>
<feOffset dx="5" dy="5"/>
<feGaussianBlur stdDeviation="4"/>
<feColorMatrix type="matrix" values="0 0 0 0 0 0 0 0 0 0 0 0 0 0 0 0 0 0 0.2 0"/>
<feBlend mode="normal" in2="BackgroundImageFix" result="effect1_dropShadow_915_5683"/>
<feBlend mode="normal" in="SourceGraphic" in2="effect1_dropShadow_915_5683" result="shape"/>
</filter>
<filter id="filter1_d_915_5683" x="42" y="121" width="80" height="79" filterUnits="userSpaceOnUse" color-interpolation-filters="sRGB">
<feFlood flood-opacity="0" result="BackgroundImageFix"/>
<feColorMatrix in="SourceAlpha" type="matrix" values="0 0 0 0 0 0 0 0 0 0 0 0 0 0 0 0 0 0 127 0" result="hardAlpha"/>
<feMorphology radius="3" operator="dilate" in="SourceAlpha" result="effect1_dropShadow_915_5683"/>
<feOffset dx="5" dy="5"/>
<feGaussianBlur stdDeviation="4"/>
<feColorMatrix type="matrix" values="0 0 0 0 0 0 0 0 0 0 0 0 0 0 0 0 0 0 0.2 0"/>
<feBlend mode="normal" in2="BackgroundImageFix" result="effect1_dropShadow_915_5683"/>
<feBlend mode="normal" in="SourceGraphic" in2="effect1_dropShadow_915_5683" result="shape"/>
</filter>
<filter id="filter2_d_915_5683" x="53.0312" y="211.381" width="131.922" height="100.39" filterUnits="userSpaceOnUse" color-interpolation-filters="sRGB">
<feFlood flood-opacity="0" result="BackgroundImageFix"/>
<feColorMatrix in="SourceAlpha" type="matrix" values="0 0 0 0 0 0 0 0 0 0 0 0 0 0 0 0 0 0 127 0" result="hardAlpha"/>
<feOffset dy="4"/>
<feGaussianBlur stdDeviation="4"/>
<feColorMatrix type="matrix" values="0 0 0 0 0.0223125 0 0 0 0 0.00468749 0 0 0 0 0.225 0 0 0 0.25 0"/>
<feBlend mode="normal" in2="BackgroundImageFix" result="effect1_dropShadow_915_5683"/>
<feBlend mode="normal" in="SourceGraphic" in2="effect1_dropShadow_915_5683" result="shape"/>
</filter>
<clipPath id="clip0_915_5683">
<rect width="488" height="352" fill="white"/>
</clipPath>
<clipPath id="clip1_915_5683">
<rect width="32" height="32" fill="white" transform="matrix(1 0 0 -1 61 171)"/>
</clipPath>
</defs>
</svg>
