<svg width="403" height="359" viewBox="0 0 403 359" fill="none" xmlns="http://www.w3.org/2000/svg">
<g clip-path="url(#clip0_915_5682)">
<path opacity="0.3" d="M319.769 306.443C373.082 254.78 424.879 207.321 390.321 143.2C367.221 100.339 321.446 97.6783 278.538 67.2182C247.269 45.0212 245.409 27.6683 199.508 9.3264C157.184 -7.5862 119.707 5.61591 86.2452 30.6591C47.4589 59.6874 79.1755 90.6872 52.908 140.839C33.2441 178.383 32.3582 162.372 7.24318 221.383C-14.2192 271.812 34.9111 326.582 81.6676 342.534C128.424 358.485 246.765 377.186 319.769 306.443Z" fill="#276ED8"/>
<mask id="mask0_915_5682" style="mask-type:alpha" maskUnits="userSpaceOnUse" x="9" y="1" width="393" height="357">
<path d="M319.768 306.443C373.082 254.78 424.879 207.321 390.321 143.2C367.221 100.339 321.446 97.6783 278.537 67.2182C247.269 45.0212 245.409 27.6684 199.508 9.32642C157.184 -7.58618 119.707 5.61594 86.2451 30.6591C47.4587 59.6874 95.463 103.499 52.9077 140.839C17.5707 171.846 40.3576 153.372 15.2425 212.383C-6.21984 262.812 34.9108 326.582 81.6673 342.534C128.424 358.485 246.764 377.186 319.768 306.443Z" fill="#276ED8"/>
</mask>
<g mask="url(#mask0_915_5682)">
<path d="M375.458 71.1123C292.608 -9.38464 245.468 -63.2573 124.626 -34.0611C98.5885 -27.7702 64.4179 4.04995 64.4179 4.04995C64.4179 4.04995 112.912 119.211 183.764 109.76C301.115 94.1076 316.101 203.275 402.273 191.781C429.915 188.094 482.003 139.295 482.003 139.295C482.003 139.295 425.239 119.479 375.458 71.1123Z" fill="#87ABE2" fill-opacity="0.7"/>
<path fill-rule="evenodd" clip-rule="evenodd" d="M122.736 269.99L119.21 270.169L118.305 275.233L123.821 275.591L122.736 269.99Z" fill="#AFD600"/>
<path fill-rule="evenodd" clip-rule="evenodd" d="M92.7188 273.232L134.085 273.996V274.269L92.7659 274.448L92.7188 273.232Z" fill="#D99292"/>
<path fill-rule="evenodd" clip-rule="evenodd" d="M82.9609 277.694L84.1679 266.388L83.0081 257.016L148.127 257.412L147.929 261.806L148.306 264.908L145.524 266.106L148.617 266.662L148.429 267.944L148.372 269.491L131.578 269.67L148.334 270.622L148.08 278.1L82.9609 277.694Z" fill="#B3B3B3"/>
<path fill-rule="evenodd" clip-rule="evenodd" d="M121.407 262.579L87.9609 260.769L146.093 260.137L146.111 257.403L84.0383 256.931L85.3395 266.483L83.9062 277.61L146.093 276.865L145.913 272.707L88.8566 273.244L117.437 271.075L90.7614 270.981L99.8889 267.643L133.797 266.917L141.302 265.022L89.0452 265.465L120.775 263.928L121.407 262.579Z" fill="#999999"/>
<path fill-rule="evenodd" clip-rule="evenodd" d="M130.189 269.038L126.663 269.217L124.494 270.169L122.797 276.515L127.182 276.478L130.831 271.32L130.189 269.038Z" fill="#868686"/>
<path fill-rule="evenodd" clip-rule="evenodd" d="M83.01 257.016L148.129 257.412L149.081 255.526L81.8125 255.611L83.01 257.016Z" fill="#84B5FF"/>
<path fill-rule="evenodd" clip-rule="evenodd" d="M105.86 262.844L102.069 263.023L101.164 269.171L107.133 269.086L105.86 262.844Z" fill="#06B25F"/>
<path fill-rule="evenodd" clip-rule="evenodd" d="M130.183 269.038L126.656 269.217L126.92 273.291L131.626 274.186L130.183 269.038Z" fill="#66D6A0"/>
<path fill-rule="evenodd" clip-rule="evenodd" d="M81.3321 256.224C81.5584 255.63 82.2184 255.328 82.8219 255.554C83.416 255.781 83.7177 256.441 83.4914 257.044C82.0959 260.759 81.3887 264.229 81.3792 267.454C81.3698 270.651 82.0298 273.621 83.3688 276.355C83.6517 276.93 83.416 277.619 82.8408 277.892C82.2656 278.175 81.5772 277.939 81.3038 277.364C79.8045 274.3 79.0596 270.99 79.0785 267.445C79.0879 263.927 79.8328 260.184 81.3321 256.224Z" fill="#276ED8"/>
<path fill-rule="evenodd" clip-rule="evenodd" d="M99.9766 228.803H123.663V241.457L118.241 255.563H105.766L99.9766 242.362V228.803Z" fill="#06B25F"/>
<path d="M123.663 228.803H99.9766V230.217H123.663V228.803Z" fill="#66D6A0"/>
<path fill-rule="evenodd" clip-rule="evenodd" d="M120.354 235.677L119.769 233.367L120.665 231.698L122.523 231.311L129.604 231.755C131.716 231.887 131.386 231.462 131.895 233.386C133.216 238.421 134.649 241.646 126.738 245.616C126.276 245.842 120.901 247.7 120.316 247.7L119.656 245.305L120.411 242.825C120.731 242.825 122.183 242.429 122.579 242.429C125.861 242.485 130.245 242.919 130.802 238.93C130.519 237.799 130.208 236.884 129.764 235.885C129.142 234.48 129.038 234.715 127.586 234.932L122.938 235.611L120.354 235.677Z" fill="#66D6A0"/>
<path fill-rule="evenodd" clip-rule="evenodd" d="M105.376 193.783C109.553 188.823 109.534 182.967 111.345 177.687C113.042 178.611 114.673 180.591 114.777 182.392C114.372 183.958 106.809 192.538 105.376 193.783ZM118.803 188.71C114.164 193.726 113.438 201.27 119.737 206.098C117.427 197.281 117.408 197.734 118.803 188.71ZM119.058 214.659C110.826 205.013 108.205 203.269 110.92 193.142C101.887 209.388 100.105 205.324 113.9 216.743L108.026 223.344L119.058 214.659Z" fill="white"/>
<path d="M232.795 330.958H222.555V365.206H232.795V330.958Z" fill="#1C1336"/>
<path d="M228.034 338.417C257.332 338.417 281.083 335.187 281.083 331.203C281.083 327.22 257.332 323.99 228.034 323.99C198.735 323.99 174.984 327.22 174.984 331.203C174.984 335.187 198.735 338.417 228.034 338.417Z" fill="#1C1336"/>
<path fill-rule="evenodd" clip-rule="evenodd" d="M204.148 303.642L210.758 328.177L249.4 328.337L261.026 303.198L261.865 292.704L265.373 281.19L204.394 282.086L204.148 303.642Z" fill="#194484"/>
<path fill-rule="evenodd" clip-rule="evenodd" d="M208.268 299.785L214.869 326.989L212.2 328.186L184.025 327.781L187.769 346.913L183.507 385.96L184.968 386.912L183.544 393.711L166.864 393.267L168.58 385.545L161.829 335.786C161.678 333.91 158.887 316.871 159.358 313.505C159.82 310.167 192.483 300.86 204.119 297.437C205.081 297.154 208.014 298.672 208.268 299.785Z" fill="#194484"/>
<path opacity="0.4" fill-rule="evenodd" clip-rule="evenodd" d="M187.346 350.798L175.041 323.679L181.708 326.036L183.32 324.565L214.87 326.989L209.637 304.245L166.932 317.163L160.859 314.787L170.185 385.516L177.059 385.413L181.613 385.686L187.346 350.798Z" fill="#0D6EB7"/>
<path fill-rule="evenodd" clip-rule="evenodd" d="M170.695 330.779L168.008 334.758L177.249 357.162L170.695 330.779Z" fill="#194484"/>
<path fill-rule="evenodd" clip-rule="evenodd" d="M277.838 339.737L279.903 383.112L282.232 387.081L282.044 392.758L278.159 391.061L266.429 395.709L263.93 389.429L265.552 385.808L253.303 345.451L254.256 328.525C252.756 328.337 234.35 326.658 233.766 326.64C234.897 308.224 243.798 300.058 260.601 298.55L275.877 314.297L275.783 326.178L277.838 339.737Z" fill="#194484"/>
<path fill-rule="evenodd" clip-rule="evenodd" d="M233.406 325.961L234.132 323.151L244.476 306.97L250.539 306.197L263.599 319.426C267.125 320.162 269.756 320.284 273.462 317.823L272.528 330.081L277.46 383.395L267.201 387.129L253.312 345.432L260.365 328.705L259.969 325.753C259.837 325.678 257.149 327.771 256.197 328.365C255.037 329.091 254.632 327.243 255.254 326.366C256.819 324.15 258.799 319.86 251.859 324.216C251.595 324.386 250.143 322.727 249.804 322.811C247.814 323.273 235.5 325.706 233.406 325.961Z" fill="#145598"/>
<path fill-rule="evenodd" clip-rule="evenodd" d="M263.195 351.081L265.062 332.684L266.128 362.273L263.195 351.081Z" fill="#194484"/>
<path fill-rule="evenodd" clip-rule="evenodd" d="M230.101 298.267C229.931 306.103 227.979 309.969 227.979 309.969C227.979 309.969 228.064 304.141 227.621 297.192C227.621 297.192 225.527 297.72 221.35 299.625C221.36 299.625 221.058 300.662 221.048 297.192C221.388 296.834 215.777 296.494 204.227 296.164C204.227 296.164 204.236 295.683 204.245 294.721C204.245 294.721 223.359 294.523 261.576 294.127C261.877 293.948 261.887 294.495 261.613 295.787C261.613 295.787 256.125 295.674 245.159 295.438C245.169 295.447 241.387 296.428 230.101 298.267Z" fill="#194484"/>
<path fill-rule="evenodd" clip-rule="evenodd" d="M203.358 290.573L262.782 289.366L262.697 294.109L203.273 295.315L203.358 290.573Z" fill="#0D6EB7"/>
<path fill-rule="evenodd" clip-rule="evenodd" d="M186.383 327.809C213.171 325.612 235.792 325.838 254.255 328.507C236.811 330.214 214.19 329.987 186.383 327.809Z" fill="black"/>
<path fill-rule="evenodd" clip-rule="evenodd" d="M222.555 338.379C222.555 341.915 222.555 343.678 222.555 343.678C225.478 342.472 228.891 342.472 232.795 343.678C232.795 343.678 232.795 341.915 232.795 338.389C232.785 338.389 229.372 338.389 222.555 338.379Z" fill="black"/>
<path fill-rule="evenodd" clip-rule="evenodd" d="M208.939 309.262C208.939 309.262 191.136 316.051 183.461 317.984C184.479 320.558 185.385 321.887 185.366 324.386C188.185 325.329 211.513 323.603 214.238 324.245C218.425 325.225 227.534 325.301 233.757 324.037C240.989 322.566 247.797 326.932 253.474 326.696C253.351 326.244 253.304 322.142 257.462 321.133C257.462 321.133 242.649 313.863 236.784 315.871C236.784 315.871 239.594 311.147 243.535 302.142C243.554 302.124 234.125 307.31 231.72 316.003C230.447 316.965 228.354 317.456 225.45 317.446C225.45 317.446 222.838 317.248 217.614 316.843C217.614 316.843 217.039 315.202 213.022 303.708C212.796 305.235 212.003 307.055 210.655 308.686C209.722 308.422 209.872 309.016 208.939 309.262Z" fill="#145598"/>
<path fill-rule="evenodd" clip-rule="evenodd" d="M174.591 317.211C181.107 319.879 183.983 323.547 183.681 326.159C183.681 326.159 179.343 322.896 170.188 318.418C173.129 317.616 174.591 317.211 174.591 317.211Z" fill="#194484"/>
<path fill-rule="evenodd" clip-rule="evenodd" d="M227.495 294.25C227.816 294.212 228.099 294.448 228.127 294.759C228.156 295.07 227.929 295.363 227.618 295.391L221.508 296.06L221.31 295.768C220.612 294.703 220.254 293.628 220.225 292.543C220.178 292.458 220.141 292.355 220.141 292.251C220.141 292.128 220.178 292.015 220.244 291.921C220.32 291.101 220.574 290.28 221.027 289.441L221.206 289.111L226.826 289.507C227.147 289.526 227.382 289.809 227.363 290.12C227.345 290.441 227.062 290.676 226.751 290.657L221.885 290.309C221.678 290.761 221.536 291.214 221.461 291.657H225.251C225.572 291.657 225.826 291.912 225.826 292.232C225.826 292.553 225.572 292.807 225.251 292.807H221.423C221.489 293.486 221.715 294.156 222.102 294.816L227.495 294.25Z" fill="#0D6EB7"/>
<path opacity="0.4" fill-rule="evenodd" clip-rule="evenodd" d="M206.952 300.389C200.314 300.002 192.233 301.482 182.719 304.849C189.225 305.094 192.488 305.207 192.488 305.207C201.21 303.463 206.028 301.86 206.952 300.389Z" fill="#276ED8"/>
<path opacity="0.4" fill-rule="evenodd" clip-rule="evenodd" d="M260.946 301.869C239.381 300.813 259.503 306.612 264.284 308.979C267.009 307.234 265.095 303.34 260.946 301.869Z" fill="#276ED8"/>
<path fill-rule="evenodd" clip-rule="evenodd" d="M196.266 335.663C218.679 336.955 234.954 337.436 245.091 337.106C236.095 330.374 219.82 329.893 196.266 335.663Z" fill="#271A4D"/>
<path fill-rule="evenodd" clip-rule="evenodd" d="M228.38 290.94C228.333 293.298 228.305 294.476 228.305 294.476C228.305 294.476 231.341 294.175 243.448 294.052C246.72 292.279 246.701 291.798 243.231 290.318C243.231 290.309 240.289 290.686 228.38 290.94Z" fill="#0D6EB7"/>
<path fill-rule="evenodd" clip-rule="evenodd" d="M214.289 289.686C215.977 289.564 216.816 289.507 216.816 289.507C216.816 289.507 216.675 292.242 216.392 297.701C216.392 297.701 215.949 297.683 215.062 297.645C215.072 297.635 214.808 294.986 214.289 289.686Z" fill="#194484"/>
<path fill-rule="evenodd" clip-rule="evenodd" d="M204.586 289.498C206.274 289.375 207.113 289.319 207.113 289.319C207.113 289.319 206.972 292.053 206.689 297.513C206.689 297.513 206.246 297.494 205.359 297.456C205.369 297.456 205.105 294.806 204.586 289.498Z" fill="#194484"/>
<path fill-rule="evenodd" clip-rule="evenodd" d="M237.734 289.479C239.422 289.356 240.261 289.3 240.261 289.3C240.261 289.3 240.12 292.034 239.837 297.494C239.837 297.494 239.394 297.475 238.508 297.437C238.517 297.437 238.262 294.788 237.734 289.479Z" fill="#194484"/>
<path fill-rule="evenodd" clip-rule="evenodd" d="M250.695 289.073C252.383 288.951 253.222 288.894 253.222 288.894C253.222 288.894 253.081 291.629 252.798 297.088C252.798 297.088 252.355 297.069 251.469 297.032C251.478 297.032 251.214 294.382 250.695 289.073Z" fill="#194484"/>
<path fill-rule="evenodd" clip-rule="evenodd" d="M261.445 288.904C263.152 288.781 263.925 289.102 263.925 289.102C263.925 289.102 263.463 291.45 262.379 296.919C262.379 296.919 261.275 297.202 260.398 297.164C260.408 297.164 261.191 294.203 261.445 288.904Z" fill="#194484"/>
<path fill-rule="evenodd" clip-rule="evenodd" d="M202.81 232.299L200.82 288.347L203.338 291.817L263.686 290.299L267.09 288.856L260.772 230.762L202.81 232.299Z" fill="#3C6F8C"/>
<path fill-rule="evenodd" clip-rule="evenodd" d="M208.902 204.417L189.072 214.459L174.136 245.859L167.517 249.97L161.359 263.982L164.48 277.853L226.931 276.919L247.289 275.976L294.464 274.788L300.065 264.425L296.915 251.017L285.845 231.074L279.141 216.581L264.544 205.992L244.384 216.43L221.273 216.666L208.902 204.417Z" fill="#0D6EB7"/>
<path fill-rule="evenodd" clip-rule="evenodd" d="M270.158 269.724C269.658 262.945 269.403 259.55 269.403 259.55C269.63 259.343 269.045 258.287 269.3 258.174C272.892 256.552 274.222 255.024 274.222 255.024C271.025 252.007 269.432 250.508 269.432 250.508C224.69 250.027 201.663 250.027 200.352 250.508C191.555 258.702 187.151 262.803 187.151 262.803C186.265 267.914 185.812 270.46 185.812 270.46C241.445 269.979 269.554 269.734 270.158 269.724Z" fill="#0D6EB7"/>
<path fill-rule="evenodd" clip-rule="evenodd" d="M199.087 256.486C186.122 260.653 179.634 262.737 179.634 262.737C173.411 258.852 180.294 254.175 184.462 252.686C196.928 248.244 201.482 250.394 199.087 256.486Z" fill="#3C6F8C"/>
<path fill-rule="evenodd" clip-rule="evenodd" d="M251.523 265.283C253.07 262.775 253.9 261.021 253.881 260.003C256.248 259.512 257.926 259.296 258.897 259.371C262.848 259.635 265.592 260.078 267.129 260.682C258.482 265.604 253.324 267.15 251.523 265.283Z" fill="#ED7557"/>
<path fill-rule="evenodd" clip-rule="evenodd" d="M246.781 270.007C265.451 272.167 276.116 271.705 278.784 268.64C278.228 266.085 276.446 262.747 269.402 259.56C257.946 263.416 255.909 262.106 254.004 262.737C251.722 265.528 246.781 270.007 246.781 270.007Z" fill="#F08165"/>
<path fill-rule="evenodd" clip-rule="evenodd" d="M246.516 271.931C250.881 267.622 253.654 264.812 254.832 263.52C255.992 264.501 257.029 264.972 257.953 264.925C259.085 266.556 260.113 267.339 261.027 267.273C262.253 268.536 263.422 269.281 264.554 269.536C256.388 272.61 250.372 273.411 246.516 271.931Z" fill="#D96346"/>
<path fill-rule="evenodd" clip-rule="evenodd" d="M185.816 270.46C191.568 269.998 196.594 268.517 198.48 267.197C198.48 267.197 199.404 268.319 200.29 269.602C200.441 270.611 200.13 270.922 205.014 270.29C203.854 265.151 201.837 259.493 196.679 253.327C196.679 253.327 186.448 251.054 180.649 257.541C177.962 259.456 180.111 270.13 185.816 270.46Z" fill="#F08165"/>
<path fill-rule="evenodd" clip-rule="evenodd" d="M185.938 266.773C186.616 268.659 186.965 269.602 186.965 269.602C189.606 270.413 193.443 269.611 198.478 267.197C198.563 266.632 198.582 265.123 198.535 262.671C197.375 263.388 196.621 264.576 194.48 264.491C193.179 264.435 192.83 266.339 190.275 265.972C189.096 265.792 188.144 267.084 185.938 266.773Z" fill="#D96346"/>
<path fill-rule="evenodd" clip-rule="evenodd" d="M205.016 270.29C204.271 267.565 203.903 266.207 203.903 266.207C203.903 266.207 202.979 266.302 201.141 266.5C201.584 269.244 201.81 270.62 201.81 270.62C203.941 270.403 205.016 270.29 205.016 270.29Z" fill="#D96346"/>
<path fill-rule="evenodd" clip-rule="evenodd" d="M189.691 267.386C189.945 267.933 190.068 268.197 190.068 268.197C189.512 269.017 188.38 269.225 186.692 268.828C186.692 268.828 186.589 268.546 186.391 267.989C187.928 268.31 189.031 268.112 189.691 267.386Z" fill="#FF9100"/>
<path fill-rule="evenodd" clip-rule="evenodd" d="M146.898 276.994C163.767 276.739 172.207 276.617 172.207 276.617C166.389 257.362 157.95 257.485 146.898 276.994Z" fill="#E6BDBD"/>
<path fill-rule="evenodd" clip-rule="evenodd" d="M170.338 276.645L148.273 276.975L153.601 269.375C154.629 268.715 157.222 268.366 159.937 268.281L159.749 274.985L161.644 268.262L159.937 268.281C162.351 268.206 164.86 268.338 166.444 268.658L170.338 276.645Z" fill="#D1AAAA"/>
<path fill-rule="evenodd" clip-rule="evenodd" d="M161.24 268.969L159.93 268.781L160.269 264.67L161.457 264.406L161.778 264.556L162.051 264.943L161.24 268.969Z" fill="#333333"/>
<path d="M212.825 192.558C215.646 202.095 221.088 204.917 224.339 207.479C228.954 210.069 232.978 209.217 232.978 209.217C248.5 202.498 250.018 195.733 251.04 188.18C251.551 184.454 252.014 177.52 250.449 168.948C250.241 167.779 249.89 166.726 249.443 165.757C246.6 159.558 239.893 157.152 239.893 157.152C235.885 155.681 231.317 155.364 227.149 156.166C221.145 157.319 216.418 160.577 214.901 167.01C214.406 169.082 214.134 171.221 213.895 173.343C213.368 177.704 213.096 182.115 212.952 186.509C212.888 188.514 212.841 190.536 212.825 192.558Z" fill="#FFADA0"/>
<path d="M227.59 169.251C227.59 169.251 219.255 167.568 216.642 173.707C216.642 173.707 225.955 170.902 227.734 172.296L227.59 169.251Z" fill="#38368E"/>
<path d="M236.452 170.157C236.452 170.157 244.659 167.961 247.656 173.924C247.656 173.924 238.183 171.712 236.5 173.203L236.452 170.157Z" fill="#38368E"/>
<path d="M245.686 180.016C245.514 182.578 243.072 184.521 240.235 184.332C237.397 184.143 235.231 181.908 235.403 179.328C235.575 176.766 238.016 174.84 240.854 175.029C243.691 175.218 245.858 177.454 245.686 180.016Z" fill="white"/>
<path d="M237.111 179.275C236.956 181.545 238.28 183.488 240.051 183.608C241.823 183.729 243.387 181.975 243.542 179.705C243.697 177.435 242.39 175.492 240.602 175.371C238.831 175.251 237.266 177.005 237.111 179.275Z" fill="#7F9EC9"/>
<path d="M238.037 179.344C237.934 180.96 238.862 182.336 240.118 182.422C241.373 182.508 242.491 181.27 242.594 179.653C242.697 178.037 241.768 176.661 240.513 176.575C239.258 176.472 238.14 177.727 238.037 179.344Z" fill="#38368E"/>
<path d="M238.072 176.558C238.038 176.988 238.537 177.384 239.19 177.435C239.843 177.487 240.394 177.16 240.428 176.713C240.462 176.266 239.947 175.888 239.293 175.836C238.657 175.802 238.107 176.128 238.072 176.558Z" fill="white" fill-opacity="0.8"/>
<path d="M227.327 179.614C227.159 182.14 224.784 184.048 222.023 183.864C219.263 183.68 217.155 181.471 217.322 178.945C217.49 176.402 219.865 174.512 222.626 174.696C225.386 174.88 227.494 177.088 227.327 179.614Z" fill="white"/>
<path d="M219.684 178.943C219.534 181.152 220.822 183.042 222.545 183.159C224.268 183.276 225.791 181.57 225.941 179.362C226.092 177.153 224.804 175.263 223.08 175.146C221.357 175.029 219.835 176.735 219.684 178.943Z" fill="#7F9EC9"/>
<path d="M220.59 179.012C220.49 180.584 221.393 181.923 222.615 182.006C223.836 182.09 224.923 180.869 225.024 179.296C225.124 177.723 224.221 176.385 222.999 176.301C221.778 176.218 220.707 177.439 220.59 179.012Z" fill="#38368E"/>
<path d="M220.62 176.301C220.587 176.719 221.089 177.104 221.708 177.154C222.344 177.204 222.879 176.886 222.912 176.451C222.946 176.016 222.461 175.648 221.825 175.598C221.189 175.565 220.654 175.866 220.62 176.301Z" fill="white" fill-opacity="0.8"/>
<path d="M213.373 177.647C213.373 177.647 210.313 167.981 207.789 175.587C205.777 181.646 209.13 187.585 211.837 187.159C214.544 186.751 213.373 177.647 213.373 177.647Z" fill="#FFADA0"/>
<path d="M213.303 179.373C213.303 179.373 210.889 172.845 209.63 175.194C208.372 177.544 208.385 180.754 208.385 180.754C208.385 180.754 209.28 177.346 211.032 179.588C211.032 179.588 208.683 184.915 212.603 183.803C212.616 183.803 214.316 182.314 213.303 179.373Z" fill="#FF9B8B"/>
<path d="M250.191 177.657C250.191 177.657 253.634 167.185 256.474 175.426C258.737 181.99 254.965 188.406 251.92 187.964C248.874 187.521 250.191 177.657 250.191 177.657Z" fill="#FFADA0"/>
<path d="M250.25 179.172C250.25 179.172 252.854 172.36 254.211 174.812C255.569 177.263 255.555 180.613 255.555 180.613C255.555 180.613 254.589 177.057 252.7 179.397C252.7 179.397 255.233 184.955 251.006 183.795C251.006 183.795 249.173 182.241 250.25 179.172Z" fill="#FF9B8B"/>
<path d="M238.445 194.118C238.386 194.297 237.211 197.137 235.308 199.263C233.018 201.82 229.673 203.337 225.97 197.865C225.182 196.705 224.394 195.248 223.576 193.419C223.576 193.419 224.855 193.91 226.729 194.445C229.673 195.278 234.044 196.215 237.077 194.862C237.583 194.847 238.029 194.445 238.445 194.118Z" fill="#0D6EB7"/>
<path d="M235.312 199.294C233.023 201.851 229.677 203.353 225.975 197.881C227.952 197.346 232.636 196.513 235.312 199.294Z" fill="#D5503B"/>
<path d="M237.078 194.937C232.246 200.334 228.737 197.494 226.729 194.491C229.673 195.324 234.045 196.171 237.078 194.937Z" fill="white"/>
<path d="M226.631 187.551C226.631 187.551 230.937 194.535 235.744 187.539L226.631 187.551Z" fill="#D8826C"/>
<path d="M213.472 182.745C213.984 181.226 214.292 178.031 214.292 178.031C214.292 178.031 214.385 172.521 214.394 171.799C214.413 170.048 215.289 162.116 219.091 161.903C219.976 161.856 222.315 164.625 225.418 165.894C225.978 166.126 230.711 163.097 233.172 162.236C240.496 159.68 247.252 166.644 247.252 166.644C249.386 168.997 248.734 173.17 248.743 174.272C248.678 171.448 248.752 175.004 248.743 174.272C248.78 175.884 249.302 178.186 249.824 179.714C250.187 178.001 250.798 178.109 251.684 174.84C253.156 169.413 254.809 165.116 254.539 163.903L250.635 156.809C245.332 147.187 232.845 144.187 223.704 150.336L220.275 152.642C215.485 150.966 214.348 153.318 213.015 155.087C210.546 158.384 209.586 161.445 209.493 166.075C209.456 167.798 210.86 168.885 212.174 173.84C213.003 176.97 213.136 181.18 213.472 182.745Z" fill="#293AA1"/>
<path d="M262.747 156.467C259.597 162.487 254.006 157.57 251.937 153.134C246.849 142.196 240.718 143.9 240.718 143.9C228.166 134.232 224.867 144.012 224.867 144.012C215.045 143.058 214.682 148.512 216.163 153.356C217.645 158.181 221.046 162.191 225.398 164.775C225.594 164.886 225.789 165.006 225.976 165.117C229.209 159.848 235.229 159.385 237.885 159.727C241.454 160.181 242.852 162.07 245.153 163.969C248.704 166.895 250.288 168.229 257.016 167.608C267.807 166.608 262.747 156.467 262.747 156.467Z" fill="#5A65BA"/>
<path d="M262.747 156.467C259.597 162.487 254.006 157.57 251.937 153.134C246.849 142.196 240.718 143.9 240.718 143.9C228.166 134.232 224.867 144.012 224.867 144.012C215.045 143.058 214.682 148.512 216.163 153.356C217.645 158.181 221.046 162.191 225.398 164.774C225.594 164.886 225.789 165.006 225.976 165.117C228.38 158.773 234.689 158.199 237.354 157.996C238.957 157.875 241.845 158.153 244.073 159.875C250.13 164.561 250.279 168.22 257.016 167.599C267.807 166.608 262.747 156.467 262.747 156.467Z" fill="#293AA1"/>
<path d="M262.068 155.523C258.919 161.542 254.006 157.57 251.937 153.134C246.849 142.196 240.718 143.9 240.718 143.9C228.166 134.232 224.867 144.012 224.867 144.012C215.045 143.058 214.682 148.512 216.163 153.356C217.645 158.181 221.046 162.191 225.398 164.774C225.594 164.886 225.789 165.006 225.976 165.117C228.38 158.773 234.26 153.837 236.934 153.634C238.537 153.513 241.426 153.791 243.653 155.523C249.71 160.209 250.288 168.22 257.016 167.599C268.219 166.548 262.543 155.453 262.068 155.523Z" fill="#5A65BA"/>
<path d="M225.646 164.861C225.646 164.861 217.321 138.537 232.333 139.403C232.333 139.403 237.937 141.284 242.312 144.926C242.312 144.926 232.528 141.903 229.208 146.261C225.037 151.742 224.732 158.788 225.646 164.861Z" fill="#293AA1"/>
<path d="M248.338 150.234C248.338 150.234 245.561 146.808 239.718 146.567C234.09 146.326 226.346 148.863 225.414 164.783C225.414 164.783 229.458 150.317 240.221 148.289C241.861 147.984 244.154 148.095 248.338 150.234Z" fill="#293AA1"/>
<path fill-rule="evenodd" clip-rule="evenodd" d="M174.984 270.553L288.843 269.563V275.617L174.984 276.607V270.553Z" fill="#276ED8"/>
<path fill-rule="evenodd" clip-rule="evenodd" d="M174.984 270.553L288.843 269.563V270.648L174.984 271.647V270.553Z" fill="#E6C6C6"/>
<path d="M384.242 275.382H63.2422V284.382H384.242V275.382Z" fill="#84B5FF"/>
<g clip-path="url(#clip1_915_5682)">
<path opacity="0.7" d="M318.393 166.737C318.28 166.853 225.242 274.382 225.242 274.382H333.09L348.836 193.912L318.393 166.737Z" fill="#FEF4EA"/>
<path d="M365.65 269.928H363.777V237.741L382.939 188.945L348.727 162.485L349.873 161.007L385.194 188.324L365.65 238.095V269.928Z" fill="#163560"/>
<path d="M344.861 165.855C344 165.246 343.796 164.056 344.407 163.197L347.256 159.186C347.866 158.327 349.059 158.125 349.92 158.733C350.78 159.342 350.982 160.532 350.374 161.391L347.525 165.402C346.914 166.263 345.721 166.465 344.861 165.855Z" fill="#163560"/>
<path d="M381.164 188.383C381.164 187.016 382.275 185.908 383.645 185.908C385.015 185.908 386.125 187.016 386.125 188.383C386.125 189.751 385.015 190.859 383.645 190.859C382.273 190.857 381.164 189.751 381.164 188.383Z" fill="#163560"/>
<path d="M373.808 274.356H354.961V272.457C354.961 270.549 356.51 269.002 358.422 269.002H370.206C372.194 269.002 373.806 270.612 373.806 272.596V274.356H373.808Z" fill="#163560"/>
<path d="M366.684 240.02H362.727V269.928H366.684V240.02Z" fill="#163560"/>
<path d="M349.104 193.617C349.014 193.716 348.925 193.817 348.833 193.91L348.814 193.931C348.726 194.028 348.64 194.121 348.549 194.213C345.99 196.428 337.508 192.457 329.303 185.132C321.099 177.812 316.199 169.838 318.119 167.053C318.199 166.954 318.281 166.857 318.369 166.76L318.388 166.739C318.47 166.638 318.56 166.537 318.649 166.438C326.171 158.045 339.084 157.327 347.494 164.831C355.905 172.336 356.626 185.222 349.104 193.617Z" fill="#06B25F"/>
<path d="M348.835 193.912L348.816 193.931C348.787 193.969 348.761 194.001 348.732 194.034C348.677 194.098 348.616 194.156 348.549 194.211C345.992 196.426 337.508 192.459 329.305 185.13C321.101 177.812 316.199 169.84 318.119 167.055C318.17 166.985 318.222 166.914 318.277 166.853C318.306 166.821 318.332 166.789 318.371 166.76L318.39 166.737C320.132 165.092 324.86 166.56 330.386 170.129C332.737 171.647 335.233 173.549 337.704 175.755C339.643 177.488 341.399 179.255 342.925 180.979C347.902 186.622 350.413 191.826 348.835 193.912Z" fill="#66D6A0"/>
<path d="M342.924 180.981C341.478 182.173 339.619 182.883 337.591 182.883C332.941 182.883 329.172 179.122 329.172 174.481C329.172 172.887 329.616 171.396 330.386 170.131C332.736 171.649 335.232 173.551 337.703 175.757C339.642 177.49 341.398 179.257 342.924 180.981Z" fill="#FFEDDC"/>
</g>
<path d="M377.242 284.382H69.2422V288.382H377.242V284.382Z" fill="#276ED8"/>
<path d="M73.375 287.541L81.3219 448.259L87.6794 448.195L92.4476 287.541H73.375Z" fill="#276ED8"/>
<path d="M75.9564 296.139L81.5987 410.177C81.6623 411.489 82.751 412.514 84.0702 412.506C85.3814 412.49 86.4543 411.441 86.494 410.13L89.8794 296.092C89.9191 294.709 88.8145 293.572 87.4317 293.572H78.3961C76.9974 293.572 75.8849 294.741 75.9564 296.139Z" fill="#84B5FF"/>
<path d="M261.017 275.363H209.188C209.188 272.607 211.424 270.38 214.17 270.38H256.025C258.789 270.38 261.017 272.607 261.017 275.363Z" fill="#F2F2FC"/>
<g opacity="0.4" filter="url(#filter0_f_915_5682)">
<path d="M290.139 263.49H178.242C170.511 263.49 164.185 257.142 164.185 249.383L148.242 167.49C148.242 159.731 154.568 153.383 162.3 153.383H304.185C311.916 153.383 318.242 159.731 318.242 167.49L304.185 249.383C304.197 257.142 297.871 263.49 290.139 263.49Z" fill="#F2F2FC"/>
</g>
<path d="M287.225 255.304H177.083C171.082 255.304 166.172 250.394 166.172 244.393V178.042C166.172 172.041 171.082 167.131 177.083 167.131H287.216C293.217 167.131 298.127 172.041 298.127 178.042V244.393C298.137 250.394 293.226 255.304 287.225 255.304Z" fill="#F2F2FC"/>
<path d="M242.715 248.057H227.484V272.871H242.715V248.057Z" fill="#F2F2FC"/>
<path d="M172.453 213.495L172.808 216.823C174.526 233.163 188.302 245.565 204.733 245.565H259.89C282.177 245.565 297.689 223.406 290.051 202.465C285.668 190.454 274.575 182.188 261.818 181.415L206.306 178.087C186.511 176.896 170.38 193.763 172.453 213.495Z" fill="#E6E6F4"/>
<path d="M235.102 225.552C239.793 225.552 243.595 221.75 243.595 217.059C243.595 212.369 239.793 208.566 235.102 208.566C230.412 208.566 226.609 212.369 226.609 217.059C226.609 221.75 230.412 225.552 235.102 225.552Z" fill="#D4D4D4"/>
</g>
<g opacity="0.5">
<circle cx="113.242" cy="78.3832" r="2" fill="white"/>
<circle cx="92.2422" cy="108.383" r="2" fill="white"/>
<circle cx="99.2422" cy="47.3832" r="2" fill="white"/>
<circle cx="257.242" cy="104.383" r="2" fill="white"/>
<circle cx="158.242" cy="71.3832" r="2" fill="white"/>
<circle cx="201.242" cy="62.3832" r="2" fill="white"/>
<circle cx="168.242" cy="36.3832" r="2" fill="white"/>
<circle cx="158.242" cy="97.3832" r="2" fill="white"/>
<circle cx="191.242" cy="99.3832" r="2" fill="white"/>
<circle cx="208.242" cy="121.383" r="2" fill="white"/>
<circle cx="135.242" cy="125.383" r="2" fill="white"/>
</g>
</g>
<defs>
<filter id="filter0_f_915_5682" x="144.242" y="149.383" width="178" height="118.107" filterUnits="userSpaceOnUse" color-interpolation-filters="sRGB">
<feFlood flood-opacity="0" result="BackgroundImageFix"/>
<feBlend mode="normal" in="SourceGraphic" in2="BackgroundImageFix" result="shape"/>
<feGaussianBlur stdDeviation="2" result="effect1_foregroundBlur_915_5682"/>
</filter>
<clipPath id="clip0_915_5682">
<rect width="403" height="359" fill="white"/>
</clipPath>
<clipPath id="clip1_915_5682">
<rect width="160.884" height="116" fill="white" transform="translate(225.242 158.382)"/>
</clipPath>
</defs>
</svg>
