<svg width="451" height="388" viewBox="0 0 451 388" fill="none" xmlns="http://www.w3.org/2000/svg">
<g clip-path="url(#clip0_745_5771)">
<path opacity="0.04" d="M87.1754 330.768C153.463 388.128 236.694 396.858 297.598 368.803C358.502 340.747 351.416 300.011 330.112 265.658C323.468 255.008 438.697 258.244 443.098 216.622C447.499 175 413.71 162.225 413.71 162.225C413.71 162.225 291.54 126.454 274.607 110.531C267.192 103.642 242.157 36.9628 167.767 9.15266C104.196 -14.6129 51.5384 30.1173 33.4162 79.0278C15.294 127.938 -3.59504 252.224 87.1754 330.768Z" fill="#276ED8"/>
<path opacity="0.2" d="M437.742 134.109L449.183 131.957V121.7L437.742 119.727C436.863 115.513 435.196 111.568 432.9 108.072L439.463 98.4421L432.201 91.1796L422.715 97.8862C419.218 95.5909 415.291 93.9412 411.059 93.0625L408.907 81.6218H398.65L396.678 93.0625C392.464 93.9412 388.518 95.6088 385.022 97.9041L375.41 91.341L368.148 98.6035L374.854 108.09C372.559 111.586 370.909 115.531 370.03 119.745L358.59 121.897V132.154L370.03 134.127C370.909 138.359 372.577 142.286 374.872 145.783L368.309 155.394L375.571 162.657L385.075 155.95C388.572 158.246 392.517 159.913 396.731 160.774L398.883 172.215H409.14L411.113 160.774C415.345 159.895 419.272 158.228 422.769 155.932L432.38 162.495L439.643 155.233L432.936 145.747C435.214 142.268 436.863 138.341 437.742 134.109ZM403.886 148.168C392.159 148.168 382.655 138.646 382.655 126.936C382.655 115.227 392.159 105.705 403.886 105.705C415.614 105.705 425.118 115.209 425.118 126.936C425.118 138.664 415.614 148.168 403.886 148.168Z" fill="#84B5FF"/>
<path d="M250.434 198.223V297.04C250.434 301.959 254.435 305.951 259.364 305.951H381.922C386.851 305.951 390.852 301.959 390.852 297.04V198.223C390.852 193.305 386.851 189.313 381.922 189.313H259.355C254.425 189.322 250.434 193.305 250.434 198.223ZM382.047 301.38H320.643H259.239C257.412 301.38 255.933 299.904 255.933 298.082V197.182C255.933 195.359 257.412 193.884 259.239 193.884H382.047C383.874 193.884 385.353 195.359 385.353 197.182V298.082C385.353 299.904 383.874 301.38 382.047 301.38Z" fill="#66D6A0"/>
<path d="M313.62 24.3293C300.541 24.3293 289.941 34.9287 289.941 48.008C289.941 61.0874 300.541 71.6867 313.62 71.6867C326.699 71.6867 337.299 61.0874 337.299 48.008C337.299 34.9287 326.699 24.3293 313.62 24.3293ZM313.62 65.7869C303.791 65.7869 295.83 57.826 295.83 47.9967C295.83 38.1674 303.791 30.2066 313.62 30.2066C323.449 30.2066 331.41 38.1674 331.41 47.9967C331.41 57.826 323.449 65.7869 313.62 65.7869Z" fill="#66D6A0"/>
<path d="M342.918 116.623V267.222C342.918 271.095 339.781 274.232 335.908 274.232H106.256C102.383 274.232 99.2461 271.095 99.2461 267.222V116.623C99.2461 107.688 106.494 100.429 115.44 100.429H326.725C335.671 100.429 342.918 107.688 342.918 116.623Z" fill="white" stroke="#84B5FF" stroke-miterlimit="10"/>
<path d="M212.09 136.453H184.758V138.75H212.09V136.453Z" fill="#84B5FF"/>
<path d="M244.149 136.453H216.816V138.75H244.149V136.453Z" fill="#06B25F"/>
<path d="M235.586 148.849H193.203V151.146H235.586V148.849Z" fill="#276ED8"/>
<path d="M264.124 148.849H242.586V151.146H264.124V148.849Z" fill="#84B5FF"/>
<path d="M226.509 161.229H207.898V163.525H226.509V161.229Z" fill="#06B25F"/>
<path d="M299.011 161.229H237.266V163.525H299.011V161.229Z" fill="#06B25F"/>
<path d="M292.922 173.618H222.355V175.915H292.922V173.618Z" fill="#276ED8"/>
<path d="M226.427 185.998H204.711V188.295H226.427V185.998Z" fill="#84B5FF"/>
<path d="M257.438 185.998H235.723V188.295H257.438V185.998Z" fill="#276ED8"/>
<path d="M216.343 250.273H184.758V252.57H216.343V250.273Z" fill="#84B5FF"/>
<path d="M258.983 250.273H227.398V252.57H258.983V250.273Z" fill="#06B25F"/>
<path d="M300.495 250.273H268.91V252.57H300.495V250.273Z" fill="#84B5FF"/>
<path d="M254.949 237.873H193.203V240.17H254.949V237.873Z" fill="#276ED8"/>
<path d="M326.304 237.873H264.559V240.17H326.304V237.873Z" fill="#84B5FF"/>
<path d="M269.169 225.496H207.898V227.793H269.169V225.496Z" fill="#84B5FF"/>
<path d="M291.556 225.496H274.508V227.793H291.556V225.496Z" fill="#06B25F"/>
<path d="M226.963 213.103H203.902V215.4H226.963V213.103Z" fill="#06B25F"/>
<path d="M262.268 213.103H239.207V215.4H262.268V213.103Z" fill="#276ED8"/>
<path d="M300.178 213.103H277.117V215.4H300.178V213.103Z" fill="#84B5FF"/>
<path d="M262.977 200.728H230.641V203.025H262.977V200.728Z" fill="#06B25F"/>
<path d="M218.438 200.728H186.102V203.025H218.438V200.728Z" fill="#276ED8"/>
<path d="M177.142 134.257H174.195V137.207H177.142V134.257Z" fill="#84B5FF"/>
<path d="M177.142 242.252H174.195V236.253H177.142V242.252V242.252ZM177.142 227.243H174.195V221.243H177.142V227.243V227.243ZM177.142 212.234H174.195V206.234H177.142V212.234V212.234ZM177.142 197.225H174.195V191.225H177.142V197.225V197.225ZM177.142 182.215H174.195V176.216H177.142V182.215V182.215ZM177.142 167.206H174.195V161.206H177.142V167.206V167.206ZM177.142 152.197H174.195V146.197H177.142V152.197V152.197Z" fill="#84B5FF"/>
<path d="M177.142 251.26H174.195V254.21H177.142V251.26Z" fill="#84B5FF"/>
<path opacity="0.7" d="M98.6914 118.309C98.6914 114.995 101.378 112.309 104.691 112.309H162.106V274.243H104.691C101.378 274.243 98.6914 271.557 98.6914 268.243V118.309Z" fill="#84B5FF"/>
<path d="M131.094 138.72H103.762V141.017H131.094V138.72Z" fill="#06B25F"/>
<path d="M152.016 152.756H109.633V155.053H152.016V152.756Z" fill="#84B5FF"/>
<path d="M152.016 166.793H109.633V169.09H152.016V166.793Z" fill="#84B5FF"/>
<path d="M152.016 180.831H109.633V183.127H152.016V180.831Z" fill="#84B5FF"/>
<path d="M152.016 194.864H109.633V197.161H152.016V194.864Z" fill="#84B5FF"/>
<path d="M154.215 222.935H111.832V225.232H154.215V222.935Z" fill="#84B5FF"/>
<path d="M154.215 236.974H111.832V239.271H154.215V236.974Z" fill="#84B5FF"/>
<path d="M154.215 251.007H111.832V253.304H154.215V251.007Z" fill="#84B5FF"/>
<path d="M131.094 208.9H103.762V211.197H131.094V208.9Z" fill="#06B25F"/>
<path d="M342.918 116.623V117.302H99.2461V116.623C99.2461 107.688 106.494 100.429 115.44 100.429H326.725C335.671 100.429 342.918 107.688 342.918 116.623Z" fill="#84B5FF"/>
<path opacity="0.3" d="M305.912 109.648C305.912 110.814 304.972 111.754 303.806 111.754C302.639 111.754 301.699 110.814 301.699 109.648C301.699 108.482 302.639 107.542 303.806 107.542C304.961 107.542 305.912 108.482 305.912 109.648Z" fill="white"/>
<path opacity="0.3" d="M317.439 109.647C317.439 110.814 316.499 111.754 315.333 111.754C314.166 111.754 313.227 110.814 313.227 109.647C313.227 108.481 314.166 107.541 315.333 107.541C316.488 107.541 317.439 108.481 317.439 109.647Z" fill="white"/>
<path opacity="0.3" d="M328.459 109.647C328.459 110.814 327.519 111.754 326.352 111.754C325.186 111.754 324.246 110.814 324.246 109.647C324.246 108.481 325.186 107.541 326.352 107.541C327.519 107.541 328.459 108.481 328.459 109.647Z" fill="white"/>
<path d="M342.918 116.623V267.222C342.918 271.095 339.781 274.232 335.908 274.232H106.256C102.383 274.232 99.2461 271.095 99.2461 267.222V116.623C99.2461 107.688 106.494 100.429 115.44 100.429H326.725C335.671 100.429 342.918 107.688 342.918 116.623Z" stroke="#84B5FF" stroke-miterlimit="10"/>
<g filter="url(#filter0_d_745_5771)">
<path d="M199.205 283.942L211.933 281.548V270.137L199.205 267.942C198.228 263.254 196.372 258.865 193.819 254.975L201.12 244.262L193.041 236.183L182.488 243.644C178.597 241.09 174.228 239.255 169.52 238.278L167.126 225.55H155.715L153.521 238.278C148.833 239.255 144.444 241.11 140.554 243.664L129.861 236.362L121.781 244.442L129.243 254.995C126.689 258.885 124.854 263.274 123.876 267.962L111.148 270.356V281.767L123.876 283.962C124.854 288.67 126.709 293.039 129.263 296.929L121.961 307.622L130.041 315.701L140.614 308.24C144.504 310.794 148.893 312.649 153.581 313.607L155.975 326.334H167.386L169.58 313.607C174.288 312.629 178.657 310.774 182.547 308.22L193.24 315.522L201.32 307.442L193.859 296.889C196.392 293.019 198.228 288.65 199.205 283.942ZM161.541 299.582C148.494 299.582 137.921 288.989 137.921 275.962C137.921 262.935 148.494 252.342 161.541 252.342C174.588 252.342 185.161 262.915 185.161 275.962C185.161 289.009 174.588 299.582 161.541 299.582Z" fill="#276ED8"/>
</g>
<g filter="url(#filter1_d_745_5771)">
<path d="M253.478 352.745L260.11 355.069L263.21 349.718L257.821 345.232C258.632 342.763 258.957 340.187 258.813 337.683L265.156 334.638L263.552 328.657L256.578 329.305C255.442 327.053 253.874 324.999 251.946 323.27L254.271 316.64L248.918 313.541L244.431 318.928C241.962 318.117 239.384 317.793 236.879 317.937L233.833 311.613L227.85 313.217L228.499 320.207C226.246 321.342 224.191 322.909 222.461 324.837L215.829 322.513L212.729 327.864L218.118 332.35C217.307 334.836 216.982 337.377 217.127 339.899L210.801 342.944L212.405 348.925L219.397 348.277C220.533 350.529 222.083 352.582 224.029 354.312L221.704 360.942L227.057 364.041L231.545 358.654C234.032 359.465 236.573 359.789 239.096 359.645L242.142 365.969L248.125 364.365L247.476 357.375C249.693 356.258 251.748 354.708 253.478 352.745ZM231.545 349.88C225.417 346.349 223.326 338.512 226.859 332.386C230.391 326.26 238.231 324.171 244.359 327.702C250.486 331.233 252.577 339.07 249.044 345.196C245.512 351.321 237.672 353.411 231.545 349.88Z" fill="#84B5FF"/>
</g>
<g filter="url(#filter2_d_745_5771)">
<rect x="74.9102" y="81.7339" width="65.6797" height="64.5473" rx="6" fill="#06B25F"/>
</g>
<path d="M97.2695 124.681L82.2348 116.55C81.2632 115.988 80.7773 115.118 80.7773 113.942C80.7773 112.715 81.2887 111.845 82.3115 111.334L97.2695 103.126V106.118C97.2695 106.322 97.1928 106.604 97.0394 106.962C96.886 107.269 96.6559 107.499 96.349 107.652L85.6866 113.482C85.2775 113.789 85.2775 114.096 85.6866 114.402L97.2695 120.616V124.681Z" fill="white"/>
<path d="M110.076 100.672H113.068L105.627 126.139C105.422 126.803 104.962 127.136 104.246 127.136H102.328L110.076 100.672Z" fill="white"/>
<path d="M117.896 103.126L132.854 111.334C133.928 111.897 134.465 112.766 134.465 113.942C134.465 115.118 133.928 115.962 132.854 116.473L117.896 124.681V121.69C117.896 121.536 117.947 121.28 118.05 120.923C118.203 120.565 118.433 120.309 118.74 120.155L129.479 114.402C129.888 114.096 129.888 113.789 129.479 113.482L117.896 107.192V103.126Z" fill="white"/>
<g filter="url(#filter3_d_745_5771)">
<rect x="295.59" y="122.622" width="113.241" height="113.241" rx="6" fill="white"/>
</g>
<path d="M331.147 164.752L331.151 198.444C331.151 201.515 333.594 203.995 336.617 203.995H338.168V216.631C338.168 219.499 340.65 221.832 343.469 221.832C346.299 221.832 348.7 219.499 348.7 216.627V203.995H355.721V216.631C355.721 219.499 358.203 221.832 361.025 221.832C363.854 221.832 366.252 219.499 366.252 216.627V203.995L367.811 203.991C370.823 203.991 373.273 201.508 373.273 198.436V164.752H331.147ZM387.315 169.999C387.315 167.128 384.875 164.752 382.049 164.752C379.223 164.748 376.783 167.131 376.783 170.003V191.786C376.783 194.662 379.22 196.86 382.049 196.86C384.875 196.86 387.315 194.665 387.315 191.786V169.999ZM327.637 169.999C327.637 167.128 325.197 164.752 322.371 164.752C319.545 164.748 317.105 167.131 317.105 170.003V191.786C317.105 194.662 319.542 196.86 322.371 196.86C325.197 196.86 327.637 194.665 327.637 191.786V169.999ZM362.57 143.914L365.869 137.281C366.108 136.811 365.803 136.211 365.297 136.211C365.065 136.211 364.841 136.347 364.721 136.586L361.39 143.286C356.016 140.656 348.949 140.389 343.034 143.286L339.699 136.586C339.583 136.347 339.358 136.211 339.123 136.211C338.618 136.211 338.312 136.811 338.551 137.281L341.851 143.914C335.374 147.602 331.147 153.132 331.147 161.18H373.273C373.273 153.132 369.046 147.602 362.57 143.914ZM343.438 154.049C342.469 154.049 341.679 153.25 341.679 152.265C341.679 151.288 342.469 150.481 343.438 150.481C344.406 150.481 345.189 151.288 345.189 152.265C345.189 153.25 344.406 154.049 343.438 154.049ZM360.983 154.049C360.014 154.049 359.231 153.25 359.231 152.265C359.231 151.288 360.014 150.481 360.983 150.481C361.952 150.481 362.742 151.288 362.742 152.265C362.742 153.25 361.952 154.049 360.983 154.049Z" fill="#06B25F"/>
<path d="M34.3623 247.598H6.57784C5.48397 247.598 4.58984 246.713 4.58984 245.61C4.58984 244.516 5.47445 243.622 6.57784 243.622H34.3623C35.4562 243.622 36.3503 244.507 36.3503 245.61C36.3503 246.704 35.4562 247.598 34.3623 247.598Z" fill="#66D6A0"/>
<path d="M34.3623 257.519H6.57784C5.48397 257.519 4.58984 256.635 4.58984 255.531C4.58984 254.437 5.47445 253.543 6.57784 253.543H34.3623C35.4562 253.543 36.3503 254.428 36.3503 255.531C36.3503 256.625 35.4562 257.519 34.3623 257.519Z" fill="#66D6A0"/>
</g>
<defs>
<filter id="filter0_d_745_5771" x="101.148" y="219.55" width="120.785" height="120.784" filterUnits="userSpaceOnUse" color-interpolation-filters="sRGB">
<feFlood flood-opacity="0" result="BackgroundImageFix"/>
<feColorMatrix in="SourceAlpha" type="matrix" values="0 0 0 0 0 0 0 0 0 0 0 0 0 0 0 0 0 0 127 0" result="hardAlpha"/>
<feOffset dy="4"/>
<feGaussianBlur stdDeviation="5"/>
<feColorMatrix type="matrix" values="0 0 0 0 0.0885677 0 0 0 0 0.0395834 0 0 0 0 0.395833 0 0 0 0.25 0"/>
<feBlend mode="normal" in2="BackgroundImageFix" result="effect1_dropShadow_745_5771"/>
<feBlend mode="normal" in="SourceGraphic" in2="effect1_dropShadow_745_5771" result="shape"/>
</filter>
<filter id="filter1_d_745_5771" x="200.801" y="305.613" width="74.3555" height="74.3557" filterUnits="userSpaceOnUse" color-interpolation-filters="sRGB">
<feFlood flood-opacity="0" result="BackgroundImageFix"/>
<feColorMatrix in="SourceAlpha" type="matrix" values="0 0 0 0 0 0 0 0 0 0 0 0 0 0 0 0 0 0 127 0" result="hardAlpha"/>
<feOffset dy="4"/>
<feGaussianBlur stdDeviation="5"/>
<feColorMatrix type="matrix" values="0 0 0 0 0.0885677 0 0 0 0 0.0395834 0 0 0 0 0.395833 0 0 0 0.25 0"/>
<feBlend mode="normal" in2="BackgroundImageFix" result="effect1_dropShadow_745_5771"/>
<feBlend mode="normal" in="SourceGraphic" in2="effect1_dropShadow_745_5771" result="shape"/>
</filter>
<filter id="filter2_d_745_5771" x="68.9102" y="75.7339" width="87.6797" height="86.5474" filterUnits="userSpaceOnUse" color-interpolation-filters="sRGB">
<feFlood flood-opacity="0" result="BackgroundImageFix"/>
<feColorMatrix in="SourceAlpha" type="matrix" values="0 0 0 0 0 0 0 0 0 0 0 0 0 0 0 0 0 0 127 0" result="hardAlpha"/>
<feMorphology radius="3" operator="dilate" in="SourceAlpha" result="effect1_dropShadow_745_5771"/>
<feOffset dx="5" dy="5"/>
<feGaussianBlur stdDeviation="4"/>
<feColorMatrix type="matrix" values="0 0 0 0 0 0 0 0 0 0 0 0 0 0 0 0 0 0 0.2 0"/>
<feBlend mode="normal" in2="BackgroundImageFix" result="effect1_dropShadow_745_5771"/>
<feBlend mode="normal" in="SourceGraphic" in2="effect1_dropShadow_745_5771" result="shape"/>
</filter>
<filter id="filter3_d_745_5771" x="289.59" y="116.622" width="135.242" height="135.241" filterUnits="userSpaceOnUse" color-interpolation-filters="sRGB">
<feFlood flood-opacity="0" result="BackgroundImageFix"/>
<feColorMatrix in="SourceAlpha" type="matrix" values="0 0 0 0 0 0 0 0 0 0 0 0 0 0 0 0 0 0 127 0" result="hardAlpha"/>
<feMorphology radius="3" operator="dilate" in="SourceAlpha" result="effect1_dropShadow_745_5771"/>
<feOffset dx="5" dy="5"/>
<feGaussianBlur stdDeviation="4"/>
<feColorMatrix type="matrix" values="0 0 0 0 0 0 0 0 0 0 0 0 0 0 0 0 0 0 0.2 0"/>
<feBlend mode="normal" in2="BackgroundImageFix" result="effect1_dropShadow_745_5771"/>
<feBlend mode="normal" in="SourceGraphic" in2="effect1_dropShadow_745_5771" result="shape"/>
</filter>
<clipPath id="clip0_745_5771">
<rect width="451" height="388" fill="white"/>
</clipPath>
</defs>
</svg>
