<svg width="473" height="376" viewBox="0 0 473 376" fill="none" xmlns="http://www.w3.org/2000/svg">
<g clip-path="url(#clip0_735_6039)">
<path opacity="0.2" d="M139.684 156.31L158.312 153.124V137.937L139.684 135.016C138.253 128.777 135.538 122.936 131.801 117.759L142.487 103.501L130.662 92.7481L115.216 102.678C109.523 99.2795 103.128 96.8369 96.2376 95.5359L92.7338 78.5967H76.0327L72.821 95.5359C65.9595 96.8369 59.5359 99.3061 53.8424 102.705L38.1923 92.987L26.3672 103.74L37.2871 117.785C33.5498 122.963 30.8636 128.804 29.4329 135.043L10.8047 138.229V153.416L29.4329 156.336C30.8636 162.602 33.579 168.417 37.3164 173.594L26.6299 187.825L38.455 198.578L53.9299 188.648C59.6235 192.047 66.0471 194.516 72.9086 195.791L76.4122 212.73H93.1134L96.3252 195.791C103.216 194.49 109.61 192.02 115.304 188.622L130.954 198.339L142.779 187.586L131.859 173.541C135.567 168.39 138.253 162.576 139.684 156.31ZM84.5585 177.126C65.4631 177.126 49.9882 163.027 49.9882 145.69C49.9882 128.352 65.4631 114.254 84.5585 114.254C103.654 114.254 119.129 128.326 119.129 145.69C119.129 163.054 103.654 177.126 84.5585 177.126Z" fill="#84B5FF"/>
<path opacity="0.06" d="M196.71 55.6526C111.728 109.263 34.9666 194.853 37.7468 266.594C40.5269 338.335 161.464 380.594 249.441 364.094C262.867 360.086 275.17 362.304 289.031 361.594C319.342 360.086 320.922 337.594 345.174 317.054C322.193 330.395 370.443 308.991 345.174 317.054C355.154 311.189 377.916 307.162 392.836 295.535C425.836 269.821 467.619 174.298 448.608 142.695C429.596 111.092 313.079 -17.7581 196.71 55.6526Z" fill="#276ED8"/>
<path d="M463.038 30.2651V166.682C463.038 170.19 459.913 173.031 456.055 173.031H227.287C223.429 173.031 220.305 170.19 220.305 166.682V30.2651C220.305 22.1718 227.524 15.5967 236.436 15.5967H446.906C455.818 15.5967 463.038 22.1718 463.038 30.2651Z" fill="white" stroke="#84B5FF" stroke-miterlimit="10"/>
<path d="M332.708 48.2285H305.48V50.3091H332.708V48.2285Z" fill="#84B5FF"/>
<path d="M364.645 48.2285H337.418V50.3091H364.645V48.2285Z" fill="#06B25F"/>
<path d="M356.114 59.457H313.895V61.5377H356.114V59.457Z" fill="#276ED8"/>
<path d="M384.541 59.457H363.086V61.5377H384.541V59.457Z" fill="#84B5FF"/>
<path d="M347.07 70.6709H328.531V72.7515H347.07V70.6709Z" fill="#06B25F"/>
<path d="M419.293 70.6709H357.785V72.7515H419.293V70.6709Z" fill="#06B25F"/>
<path d="M413.224 81.8936H342.93V83.9742H413.224V81.8936Z" fill="#276ED8"/>
<path d="M346.995 93.1074H325.363V95.188H346.995V93.1074Z" fill="#84B5FF"/>
<path d="M377.882 93.1074H356.25V95.188H377.882V93.1074Z" fill="#276ED8"/>
<path d="M336.943 151.33H305.48V153.411H336.943V151.33Z" fill="#84B5FF"/>
<path d="M379.42 151.33H347.957V153.411H379.42V151.33Z" fill="#06B25F"/>
<path d="M420.772 151.33H389.309V153.411H420.772V151.33Z" fill="#84B5FF"/>
<path d="M375.402 140.098H313.895V142.178H375.402V140.098Z" fill="#276ED8"/>
<path d="M446.48 140.098H384.973V142.178H446.48V140.098Z" fill="#84B5FF"/>
<path d="M389.566 128.887H328.531V130.967H389.566V128.887Z" fill="#84B5FF"/>
<path d="M411.865 128.887H394.883V130.967H411.865V128.887Z" fill="#06B25F"/>
<path d="M347.523 117.66H324.551V119.741H347.523V117.66Z" fill="#06B25F"/>
<path d="M382.687 117.66H359.715V119.741H382.687V117.66Z" fill="#276ED8"/>
<path d="M420.456 117.66H397.484V119.741H420.456V117.66Z" fill="#84B5FF"/>
<path d="M383.399 106.451H351.188V108.532H383.399V106.451Z" fill="#06B25F"/>
<path d="M339.032 106.451H306.82V108.532H339.032V106.451Z" fill="#276ED8"/>
<path d="M297.893 46.2393H294.957V48.9118H297.893V46.2393Z" fill="#84B5FF"/>
<path d="M297.893 144.064H294.957V138.629H297.893V144.064V144.064ZM297.893 130.468H294.957V125.034H297.893V130.468V130.468ZM297.893 116.873H294.957V111.438H297.893V116.873V116.873ZM297.893 103.277H294.957V97.842H297.893V103.277V103.277ZM297.893 89.681H294.957V84.2463H297.893V89.681V89.681ZM297.893 76.0852H294.957V70.6505H297.893V76.0852V76.0852ZM297.893 62.4894H294.957V57.0547H297.893V62.4894V62.4894Z" fill="#84B5FF"/>
<path d="M297.893 152.224H294.957V154.896H297.893V152.224Z" fill="#84B5FF"/>
<path opacity="0.7" d="M219.754 32.3574C219.754 29.0437 222.44 26.3574 225.754 26.3574H282.924V173.042H225.754C222.44 173.042 219.754 170.356 219.754 167.042V32.3574Z" fill="#84B5FF"/>
<path d="M252.032 50.2822H224.805V52.3628H252.032V50.2822Z" fill="#06B25F"/>
<path d="M272.876 62.9961H230.656V65.0767H272.876V62.9961Z" fill="#84B5FF"/>
<path d="M272.876 75.7109H230.656V77.7916H272.876V75.7109Z" fill="#84B5FF"/>
<path d="M272.876 88.4268H230.656V90.5074H272.876V88.4268Z" fill="#84B5FF"/>
<path d="M272.876 101.139H230.656V103.219H272.876V101.139Z" fill="#84B5FF"/>
<path d="M275.064 126.566H232.844V128.647H275.064V126.566Z" fill="#84B5FF"/>
<path d="M275.064 139.283H232.844V141.364H275.064V139.283Z" fill="#84B5FF"/>
<path d="M275.064 151.994H232.844V154.075H275.064V151.994Z" fill="#84B5FF"/>
<path d="M252.032 113.853H224.805V115.933H252.032V113.853Z" fill="#06B25F"/>
<path d="M463.038 30.2651V30.8806H220.305V30.2651C220.305 22.1718 227.524 15.5967 236.436 15.5967H446.906C455.818 15.5967 463.038 22.1718 463.038 30.2651Z" fill="#84B5FF"/>
<path opacity="0.3" d="M426.173 23.948C426.173 25.0045 425.237 25.8559 424.075 25.8559C422.913 25.8559 421.977 25.0045 421.977 23.948C421.977 22.8914 422.913 22.04 424.075 22.04C425.225 22.04 426.173 22.8914 426.173 23.948Z" fill="white"/>
<path opacity="0.3" d="M437.653 23.947C437.653 25.0035 436.717 25.8549 435.555 25.8549C434.393 25.8549 433.457 25.0035 433.457 23.947C433.457 22.8904 434.393 22.0391 435.555 22.0391C436.706 22.0391 437.653 22.8904 437.653 23.947Z" fill="white"/>
<path opacity="0.3" d="M448.634 23.947C448.634 25.0035 447.698 25.8549 446.536 25.8549C445.374 25.8549 444.438 25.0035 444.438 23.947C444.438 22.8904 445.374 22.0391 446.536 22.0391C447.698 22.0391 448.634 22.8904 448.634 23.947Z" fill="white"/>
<path d="M463.038 30.2651V166.682C463.038 170.19 459.913 173.031 456.055 173.031H227.287C223.429 173.031 220.305 170.19 220.305 166.682V30.2651C220.305 22.1718 227.524 15.5967 236.436 15.5967H446.906C455.818 15.5967 463.038 22.1718 463.038 30.2651Z" stroke="#84B5FF" stroke-miterlimit="10"/>
<g filter="url(#filter0_d_735_6039)">
<rect x="11.9062" y="246.597" width="72.2287" height="64.5473" rx="6" fill="#06B25F"/>
</g>
<path d="M36.496 289.544L19.9621 281.413C18.8936 280.85 18.3594 279.981 18.3594 278.805C18.3594 277.577 18.9218 276.708 20.0465 276.197L36.496 267.989V270.98C36.496 271.185 36.4117 271.466 36.243 271.824C36.0742 272.131 35.8212 272.361 35.4838 272.515L23.7582 278.344C23.3083 278.651 23.3083 278.958 23.7582 279.265L36.496 285.478V289.544Z" fill="white"/>
<path d="M50.5793 265.534H53.8692L45.6866 291.001C45.4617 291.666 44.9555 291.998 44.1682 291.998H42.0593L50.5793 265.534Z" fill="white"/>
<path d="M59.1794 267.989L75.629 276.197C76.8099 276.759 77.4004 277.628 77.4004 278.805C77.4004 279.981 76.8099 280.825 75.629 281.336L59.1794 289.544V286.552C59.1794 286.399 59.2357 286.143 59.3481 285.785C59.5169 285.427 59.7699 285.171 60.1073 285.018L71.9173 279.265C72.3672 278.958 72.3672 278.651 71.9173 278.344L59.1794 272.054V267.989Z" fill="white"/>
<mask id="mask0_735_6039" style="mask-type:alpha" maskUnits="userSpaceOnUse" x="-91" y="-17" width="555" height="380">
<path d="M463.098 173C463.098 277.934 339.059 363 186.049 363C33.039 363 -91 277.934 -91 173C-91 68.0659 33.039 -17 186.049 -17C339.059 -17 463.098 68.0659 463.098 173Z" fill="#C4C4C4"/>
</mask>
<g mask="url(#mask0_735_6039)">
<path d="M88.0391 483.202C88.0391 483.202 92.0394 481.58 93.6428 485.891C95.2461 490.202 100.262 541.955 98.8655 556.51C97.4526 571.065 93.4523 565.687 93.4523 565.687C93.4523 565.687 93.8491 574.309 96.4526 576.742L96.4684 576.721C96.5002 576.699 96.5637 576.635 96.643 576.55C96.7065 576.507 96.7859 576.422 96.8812 576.337H96.897C98.4369 574.971 103.771 570.233 108.692 565.687C114.502 560.288 117.915 555.699 117.915 555.699C117.915 555.699 117.105 547.077 117.105 544.666C117.105 542.233 129.948 484.803 142.568 467.025C154.347 450.443 142.774 357.031 141.155 344.418L140.964 343.01C140.964 343.01 130.741 347.065 126.328 351.397C121.931 355.751 106.072 408.251 105.279 435.205C104.469 462.159 97.2621 477.461 97.2621 477.461C97.2621 477.461 94.8492 475.498 90.833 477.461L88.0391 483.202Z" fill="url(#paint0_linear_735_6039)"/>
<path opacity="0.83" d="M96.897 576.337C98.4369 574.971 103.771 570.233 108.692 565.687C114.502 560.288 117.915 555.699 117.915 555.699C117.915 555.699 117.105 547.077 117.105 544.666C117.105 542.233 129.948 484.803 142.568 467.025C154.347 450.443 142.774 357.031 141.155 344.418L140.964 343.01C140.964 343.01 132.646 357.031 129.043 384.925C125.423 412.839 130.535 467.836 130.535 467.836C130.535 467.836 123.328 512.312 105.58 513.123C105.58 513.123 120.471 542.425 114.597 557.129C113.47 559.925 99.6116 573.754 96.897 576.337Z" fill="#436CF6"/>
<path d="M266.493 464.592L269.795 440.327C269.795 440.327 278.224 440.327 290.542 455.693C290.542 455.693 290.844 464.016 295.067 474.409C295.067 474.409 309.258 483.608 315.846 496.135C322.434 508.663 324.927 509.922 331.8 502.815C333.626 500.937 334.864 494.556 335.515 485.87C336.483 472.745 336.118 454.348 334.435 438.15C333.038 424.79 330.737 412.946 327.546 406.778C327.546 406.778 327.847 398.54 324.831 392.074C324.688 392.202 324.53 392.33 324.387 392.479C323.403 393.312 320.863 395.147 318.228 394.507C314.815 393.696 311.957 386.674 311.957 386.674C311.957 386.674 310.005 386.952 309.004 388.851C309.004 388.851 295.368 377.732 286.733 359.016C278.113 340.321 276.716 338.016 276.716 338.016C276.716 338.016 274.509 336.799 271.525 336.052C269.175 335.455 266.334 335.177 263.683 336.01C263.683 336.01 221.774 423.083 266.493 464.592Z" fill="url(#paint1_linear_735_6039)"/>
<path d="M177.252 343.01C177.252 343.01 182.474 332.531 182.474 308.116L223.145 281.439C223.145 281.439 221.097 300.263 227.986 316.589C229.812 320.9 238.305 327.729 238.305 327.729C238.305 327.729 201.143 389.342 183.3 383.431C165.457 377.519 169.029 351.397 169.029 351.397C169.029 351.397 172.045 352.976 177.252 343.01Z" fill="#FF9B8B"/>
<path d="M233.307 323.27C233.307 323.27 213.162 350.267 195.828 351.782C177.254 353.404 180.318 332.638 180.318 332.638C180.318 332.638 171.921 348.474 174.318 360.937C176.731 373.401 195.066 374.02 209.21 365.718C223.354 357.437 236.879 325.233 236.879 325.233L233.307 323.27Z" fill="url(#paint2_linear_735_6039)"/>
<path d="M235.129 91.0029C235.129 91.0029 214.886 104.733 197.466 105.504C178.802 106.328 181.88 95.7677 181.88 95.7677C181.88 95.7677 173.442 103.821 175.85 110.16C178.275 116.498 196.7 116.813 210.914 112.591C225.127 108.38 238.719 92.0015 238.719 92.0015L235.129 91.0029Z" fill="#CEC5FF"/>
<path d="M148.803 174.121C148.803 174.121 154.833 195.578 146.984 218.816C146.984 218.816 142.15 221.074 141.544 223.95C141.544 223.95 141.544 223.972 141.528 224.004C140.954 226.87 140.274 229.017 140.274 229.017C140.274 229.017 139.726 230.951 137.907 233.002C137.572 233.393 137.381 233.849 137.317 234.348C137.03 236.475 138.816 239.167 138.816 239.167C138.816 239.167 142.453 245.549 180.229 247.807C218.004 250.075 247.324 255.003 247.324 255.003C247.324 255.003 253.375 250.389 249.211 246.482C249.211 246.482 251.871 242.054 251.568 240.611C251.265 239.167 237.354 222.724 240.975 211.208C244.612 199.692 258.204 190.347 265.765 167.869C265.765 167.869 265.462 164.653 265.765 163.003C266.068 161.364 265.764 161.921 265.764 161.921C265.764 161.921 250.754 155.203 255.396 126.82C260.022 98.4374 262.029 100.503 264.234 98.0029C264.234 98.0029 274.315 99.6204 263.611 97.504C263.611 97.504 257.454 96.8961 251.105 95.3875C244.756 93.8788 238.568 91.8545 238.568 91.8545C238.568 91.8545 202.227 113.057 185.429 111.701C166.254 110.159 179.782 95.8867 179.782 95.8867C179.782 95.8867 167.738 97.4822 161.293 98.5025C154.833 99.5336 152.424 98.5025 152.424 98.5025C152.424 98.5025 143.857 99.0578 138.816 101.652C133.775 104.235 132.276 114.067 134.286 137.098C136.296 160.13 148.803 174.121 148.803 174.121Z" fill="url(#paint3_linear_735_6039)"/>
<path d="M206.457 138.844L193.925 124.079L189.414 129.573L196.933 138.844L190.416 146.741L195.429 152.235L206.457 138.844Z" fill="#135BC6"/>
<path d="M188.411 130.946L192.923 136.44L191.419 137.814H182.396L188.411 130.946Z" fill="#135BC6"/>
<path d="M190.918 144.338L195.429 138.844H172.37L159.838 153.609H168.861L176.882 144.338H190.918Z" fill="#135BC6"/>
<path d="M178.386 145.368H186.907L194.427 153.609H209.465L213.977 158.759L189.414 159.103L178.386 145.368Z" fill="#135BC6"/>
<path d="M175.378 148.115H178.887L183.398 153.609H170.866L175.378 148.115Z" fill="#135BC6"/>
<path d="M197.936 150.862L202.447 145.711L208.964 152.235H199.439L197.936 150.862Z" fill="#135BC6"/>
<path d="M228.418 295.275C228.418 295.275 210.959 335.978 180.578 332.359C180.578 332.359 183.29 318.075 182.989 307.899C182.989 307.899 197.151 307.452 207.627 302.236C219.449 296.36 228.4 281.288 228.4 281.288L228.418 295.275Z" fill="url(#paint4_linear_735_6039)"/>
<path opacity="0.83" d="M238.43 342.284C238.398 342.455 238.351 342.604 238.305 342.774C238.367 342.54 238.414 342.369 238.43 342.284Z" fill="url(#paint5_linear_735_6039)"/>
<path d="M178.201 332.852L180.296 332.617C180.296 332.617 175.962 341.943 175.058 349.626C174.153 357.309 177.947 362.261 183.82 363.947C183.82 363.947 174.359 363.2 173.153 354.45C171.946 345.7 178.201 332.852 178.201 332.852Z" fill="url(#paint6_linear_735_6039)"/>
<path d="M162.437 267.197C168.555 294.997 180.355 303.223 187.403 310.692C197.41 318.242 206.136 315.758 206.136 315.758C239.792 296.172 243.083 276.451 245.299 254.436C246.407 243.574 247.411 223.361 244.017 198.374C243.567 194.964 242.805 191.896 241.836 189.071C235.672 171.001 221.129 163.987 221.129 163.987C212.438 159.701 202.535 158.775 193.497 161.113C180.478 164.474 170.228 173.972 166.939 192.724C165.865 198.764 165.277 204.998 164.757 211.184C163.615 223.896 163.026 236.755 162.714 249.565C162.576 255.41 162.472 261.303 162.437 267.197Z" fill="#FFADA0"/>
<path d="M194.465 199.255C194.465 199.255 176.391 194.349 170.726 212.245C170.726 212.245 190.919 204.068 194.777 208.133L194.465 199.255Z" fill="#38368E"/>
<path d="M213.682 201.898C213.682 201.898 231.477 195.496 237.977 212.878C237.977 212.878 217.436 206.43 213.786 210.776L213.682 201.898Z" fill="#38368E"/>
<path d="M233.706 230.636C233.333 238.104 228.038 243.769 221.886 243.217C215.734 242.666 211.036 236.15 211.409 228.631C211.782 221.162 217.076 215.548 223.229 216.099C229.381 216.65 234.079 223.167 233.706 230.636Z" fill="white"/>
<path d="M215.095 228.474C214.759 235.091 217.63 240.755 221.47 241.106C225.311 241.457 228.704 236.344 229.039 229.727C229.375 223.11 226.541 217.446 222.664 217.095C218.823 216.744 215.43 221.857 215.095 228.474Z" fill="#7F9EC9"/>
<path d="M217.106 228.674C216.883 233.386 218.896 237.396 221.618 237.646C224.34 237.897 226.763 234.288 226.987 229.576C227.211 224.864 225.197 220.854 222.475 220.603C219.754 220.302 217.33 223.962 217.106 228.674Z" fill="#38368E"/>
<path d="M217.185 220.556C217.111 221.809 218.192 222.962 219.609 223.112C221.026 223.263 222.219 222.31 222.293 221.007C222.368 219.704 221.249 218.601 219.832 218.451C218.453 218.35 217.26 219.303 217.185 220.556Z" fill="white" fill-opacity="0.8"/>
<path d="M193.878 229.466C193.516 236.83 188.364 242.389 182.379 241.853C176.394 241.316 171.823 234.879 172.186 227.515C172.549 220.102 177.7 214.591 183.685 215.128C189.67 215.664 194.241 222.102 193.878 229.466Z" fill="white"/>
<path d="M177.298 227.51C176.971 233.947 179.764 239.458 183.501 239.799C187.237 240.141 190.538 235.166 190.865 228.729C191.191 222.292 188.398 216.781 184.662 216.439C180.925 216.098 177.624 221.072 177.298 227.51Z" fill="#7F9EC9"/>
<path d="M179.261 227.71C179.044 232.294 181.002 236.196 183.65 236.44C186.299 236.683 188.656 233.123 188.874 228.539C189.092 223.955 187.133 220.054 184.485 219.81C181.837 219.566 179.515 223.126 179.261 227.71Z" fill="#38368E"/>
<path d="M179.331 219.806C179.259 221.025 180.347 222.147 181.689 222.293C183.068 222.439 184.229 221.513 184.301 220.245C184.374 218.977 183.322 217.904 181.943 217.757C180.565 217.66 179.404 218.538 179.331 219.806Z" fill="white" fill-opacity="0.8"/>
<path d="M163.63 223.726C163.63 223.726 156.994 195.55 151.521 217.724C147.158 235.384 154.429 252.697 160.299 251.456C166.168 250.266 163.63 223.726 163.63 223.726Z" fill="#FFADA0"/>
<path d="M163.479 228.76C163.479 228.76 158.244 209.73 155.514 216.579C152.785 223.428 152.813 232.786 152.813 232.786C152.813 232.786 154.755 222.853 158.554 229.388C158.554 229.388 153.46 244.915 161.959 241.674C161.987 241.674 165.674 237.335 163.479 228.76Z" fill="#E398AF"/>
<path d="M243.463 223.761C243.463 223.761 250.929 193.234 257.086 217.258C261.993 236.392 253.814 255.096 247.211 253.806C240.607 252.516 243.463 223.761 243.463 223.761Z" fill="#FFADA0"/>
<path d="M243.585 228.178C243.585 228.178 249.229 208.32 252.173 215.467C255.116 222.613 255.086 232.379 255.086 232.379C255.086 232.379 252.992 222.013 248.895 228.833C248.895 228.833 254.388 245.035 245.223 241.653C245.223 241.653 241.248 237.125 243.585 228.178Z" fill="#E398AF"/>
<path d="M218.008 271.743C217.879 272.263 215.332 280.542 211.205 286.74C206.24 294.195 198.986 298.616 190.958 282.666C189.25 279.285 187.541 275.037 185.768 269.706C185.768 269.706 188.54 271.136 192.603 272.697C198.986 275.124 208.465 277.855 215.042 273.91C216.138 273.867 217.105 272.697 218.008 271.743Z" fill="#712311"/>
<path d="M211.211 286.83C206.246 294.285 198.992 298.663 190.964 282.713C195.252 281.152 205.408 278.725 211.211 286.83Z" fill="#D5503B"/>
<path d="M215.043 274.13C204.565 289.864 196.956 281.585 192.604 272.83C198.987 275.257 208.466 277.728 215.043 274.13Z" fill="white"/>
<path d="M194.81 252.453C194.81 252.453 205.048 272.013 214.532 250.805L194.81 252.453Z" fill="#D8826C"/>
<path d="M243.856 238.592C242.745 234.165 242.078 224.852 242.078 224.852C242.078 224.852 241.876 208.789 241.856 206.683C241.816 201.581 239.916 178.457 231.672 177.836C229.753 177.701 224.681 185.773 217.953 189.472C216.741 190.147 206.476 181.319 201.142 178.808C185.261 171.357 170.612 191.658 170.612 191.658C165.985 198.515 165.641 209.422 165.621 212.634C165.601 214.767 165.762 214.495 165.621 222.729C165.54 227.426 164.409 234.138 163.277 238.592C162.489 233.598 160.489 226.132 158.569 216.603C155.377 200.783 154.225 187.204 154.811 183.668L163.277 162.989C174.774 134.94 201.849 126.193 221.671 144.119L229.106 150.841C239.492 145.954 241.957 152.811 244.846 157.967C250.201 167.578 252.282 176.502 252.484 190C252.565 195.021 251.454 199.448 248.605 213.891C246.806 223.016 244.584 234.03 243.856 238.592Z" fill="#293AA1"/>
<path d="M137.011 161.99C143.84 179.537 155.963 165.203 160.449 152.272C171.481 120.389 184.776 125.357 184.776 125.357C211.993 97.173 219.146 125.681 219.146 125.681C240.442 122.9 241.23 138.801 238.017 152.92C234.805 166.984 227.43 178.674 217.994 186.205C217.57 186.529 217.145 186.88 216.741 187.204C209.73 171.844 196.677 170.494 190.919 171.493C183.18 172.816 180.149 178.323 175.158 183.857C167.46 192.388 164.025 196.275 149.437 194.466C126.039 191.551 137.011 161.99 137.011 161.99Z" fill="#5A65BA"/>
<path d="M137.011 161.99C143.84 179.537 155.963 165.203 160.449 152.272C171.481 120.389 184.776 125.357 184.776 125.357C211.993 97.173 219.146 125.681 219.146 125.681C240.442 122.9 241.23 138.801 238.017 152.92C234.805 166.984 227.43 178.674 217.994 186.205C217.57 186.529 217.145 186.88 216.741 187.204C211.528 168.712 197.849 167.038 192.07 166.444C188.595 166.094 182.331 166.903 177.502 171.925C164.369 185.585 164.045 196.248 149.437 194.439C126.039 191.551 137.011 161.99 137.011 161.99Z" fill="#293AA1"/>
<path d="M137.011 161.99C143.84 179.537 155.963 165.203 160.449 152.272C171.481 120.389 184.776 125.357 184.776 125.357C211.993 97.173 219.146 125.681 219.146 125.681C240.442 122.9 241.23 138.801 238.017 152.92C234.805 166.984 227.43 178.674 217.994 186.205C217.57 186.529 217.145 186.88 216.741 187.204C211.528 168.712 198.779 154.323 192.98 153.729C189.504 153.378 183.241 154.188 178.412 159.237C165.278 172.897 164.025 196.248 149.437 194.439C126.039 191.551 137.011 161.99 137.011 161.99Z" fill="#5A65BA"/>
<path d="M217.957 186.232C217.957 186.232 233.656 110.266 203.773 112.911C203.773 112.911 193.488 114.234 184.779 125.356C184.779 125.356 204.257 116.124 210.865 129.433C219.169 146.17 219.775 167.686 217.957 186.232Z" fill="#293AA1"/>
<path d="M168.248 143.822C168.248 143.822 174.269 133.833 186.938 133.131C199.142 132.429 215.933 139.826 217.953 186.232C217.953 186.232 209.184 144.065 185.847 138.153C182.291 137.262 177.32 137.586 168.248 143.822Z" fill="#293AA1"/>
<path d="M164.951 40.8377C164.931 41.633 163.981 42.2799 162.794 42.2799L160.519 42.2664C159.352 42.2529 158.402 41.606 158.402 40.7973L158.541 30.7293C158.561 29.9341 159.51 29.2871 160.697 29.2871L162.953 29.3006C164.12 29.3141 165.069 29.961 165.069 30.7697L164.951 40.8377Z" fill="#002E73"/>
<path d="M254.454 41.4442C254.435 42.2394 253.485 42.8864 252.298 42.8864L250.043 42.8729C248.856 42.8594 247.926 42.2125 247.926 41.4038L248.064 31.3357C248.084 30.5405 249.034 29.8936 250.221 29.8936L252.476 29.907C253.663 29.9205 254.593 30.5675 254.593 31.3761L254.454 41.4442Z" fill="#002E73"/>
<path d="M199.508 18.0201L200.774 4.00293L213.693 4.09728L215.216 18.1279L199.508 18.0201Z" fill="#058145"/>
<path d="M247.984 24.2062C247.885 30.5005 229.565 35.4739 207.011 35.3121C184.477 35.1639 166.296 29.9344 166.375 23.6537C166.474 17.3594 184.814 12.386 207.328 12.5478C229.881 12.696 248.082 17.912 247.984 24.2062Z" fill="#002E73"/>
<path d="M188.945 19.9484C204.396 19.7732 220.797 19.3419 236.209 20.7166C241.135 21.2288 246.714 22.7248 251.146 24.8544V24.6657C251.205 20.5818 246.397 17.2393 240.403 17.1989L173.296 16.7406C167.302 16.7002 162.395 19.9753 162.336 24.0592V24.45C168.687 19.7192 179.805 20.0562 188.945 19.9484Z" fill="white"/>
<path d="M217.164 50.3539C215.165 49.8013 213.721 48.8848 211.604 48.4131C209.349 47.9413 206.817 47.9279 204.561 48.0087C203.236 48.0896 201.752 48.1705 200.684 48.5209C198.686 48.9657 197.202 50.2191 194.927 50.4752C192.928 50.7313 182.146 50.6639 179.218 50.3674C176.033 50.0709 172.314 49.4104 169.386 48.6691C167.467 48.157 164.004 46.607 162.125 44.9492C162.323 48.8848 167.012 52.0521 172.848 52.0926C178.803 52.133 193.205 52.5508 194.392 52.443C195.837 52.3082 196.272 51.6208 197.301 51.0008C199.754 49.5317 203.216 48.8713 206.441 48.8848C209.606 48.9118 212.95 49.5857 215.363 51.0278C216.313 51.5939 216.788 52.3756 218.093 52.5239C220.151 52.7799 237.244 52.5239 239.935 52.5373C245.87 52.5778 250.737 49.3565 250.875 45.3401C248.561 46.8496 245.712 48.4265 242.744 49.2487C236.987 50.9469 219.28 51.0952 217.164 50.3539Z" fill="white"/>
<path d="M251.169 24.8672C246.737 22.7377 241.158 21.2281 236.232 20.7294C220.8 19.3547 204.419 19.786 188.968 19.9612C179.808 20.0555 168.69 19.7186 162.379 24.4628L162.082 44.6394C162.082 44.7472 162.102 44.8551 162.102 44.9629C163.981 46.6207 167.463 48.1706 169.362 48.6828C172.29 49.4241 176.01 50.0845 179.195 50.381C182.123 50.6776 192.905 50.7449 194.903 50.4889C197.179 50.2328 198.662 48.9658 200.66 48.5346C201.729 48.1841 203.193 48.1033 204.538 48.0224C206.793 47.9415 209.326 47.9685 211.581 48.4267C213.698 48.8985 215.162 49.815 217.14 50.3676C219.257 51.1089 236.984 50.9606 242.721 49.2758C245.669 48.4672 248.518 46.8768 250.852 45.3672C250.852 45.3268 250.852 45.2864 250.852 45.2459L251.169 24.8672Z" fill="#1B9D5E"/>
<mask id="mask1_735_6039" style="mask-type:alpha" maskUnits="userSpaceOnUse" x="162" y="19" width="90" height="32">
<path d="M251.169 24.8672C246.737 22.7377 241.158 21.2281 236.232 20.7294C220.8 19.3547 204.419 19.786 188.968 19.9612C179.808 20.0555 168.69 19.7186 162.379 24.4628L162.082 44.6394C162.082 44.7472 162.102 44.8551 162.102 44.9629C163.981 46.6207 167.463 48.1706 169.362 48.6828C172.29 49.4241 176.01 50.0845 179.195 50.381C182.123 50.6776 192.905 50.7449 194.903 50.4889C197.179 50.2328 198.662 48.9658 200.66 48.5346C201.729 48.1841 203.193 48.1033 204.538 48.0224C206.793 47.9415 209.326 47.9685 211.581 48.4267C213.698 48.8985 215.162 49.815 217.14 50.3676C219.257 51.1089 236.984 50.9606 242.721 49.2758C245.669 48.4672 248.518 46.8768 250.852 45.3672C250.852 45.3268 250.852 45.2864 250.852 45.2459L251.169 24.8672Z" fill="#06B25F"/>
</mask>
<g mask="url(#mask1_735_6039)">
<g opacity="0.2">
<path opacity="0.2" d="M255.078 -1.80709L131.746 49.8271L131.805 46.6733L255.138 -4.96094L255.078 -1.80709Z" fill="white"/>
<path opacity="0.2" d="M254.762 20.3367L131.43 71.971L131.726 51.727L255.059 0.0927734L254.762 20.3367Z" fill="white"/>
<path opacity="0.2" d="M254.621 29.583L131.289 81.2172L131.368 75.9203L254.701 24.2861L254.621 29.583Z" fill="white"/>
<path opacity="0.2" d="M254.563 34.0709L131.23 85.7052L131.27 83.4409L254.602 31.8066L254.563 34.0709Z" fill="white"/>
</g>
</g>
<path fill-rule="evenodd" clip-rule="evenodd" d="M327.553 406.778L321.235 403.94C321.235 403.94 311.203 416.595 312.012 456.525C312.822 496.413 327.252 503.967 327.252 503.967C343.301 502.602 361.747 471.87 366.557 442.227C371.367 412.583 381.241 338.037 381.241 338.037C381.241 338.037 380.518 328.536 386.677 323.286C390.632 319.924 390.328 318.292 390.11 317.127C389.988 316.473 389.894 315.966 390.596 315.383C391.145 314.936 388.911 313.793 386.143 312.377C385.004 311.794 383.775 311.165 382.612 310.519C382.301 310.754 381.852 311.033 381.241 311.36C381.15 311.009 381.051 310.666 380.945 310.331C380.983 310.277 381.024 310.222 381.066 310.166C381.014 310.184 380.962 310.202 380.909 310.22C380.828 309.969 380.743 309.723 380.654 309.481C380.709 309.476 380.764 309.472 380.818 309.467C380.743 309.421 380.669 309.374 380.596 309.327C380.453 308.949 380.301 308.582 380.141 308.228C379.92 308.34 379.7 308.452 379.482 308.563C378.921 308.146 378.452 307.734 378.117 307.335C378.442 307.032 378.786 306.699 379.152 306.332C378.866 305.854 378.569 305.407 378.267 304.992C378.869 304.581 379.879 304.226 381.399 303.945C382.237 303.009 383.157 301.936 384.167 300.703C382.608 300.01 381.102 299.35 379.728 298.747C378.745 298.316 377.829 297.915 377.009 297.552C377.156 299.685 377.302 301.844 377.439 303.947C375.705 301.938 373.967 300.978 373.271 301.235C373.189 302.216 373.086 303.416 372.959 304.873C372.351 311.783 371.937 315.02 371.688 316.969C371.364 319.504 371.318 319.86 371.489 323.286C371.791 329.347 365.747 327.729 365.747 327.729C356.429 383.751 327.553 406.778 327.553 406.778ZM372.976 301.574C373.018 301.403 373.12 301.291 373.271 301.235C373.901 293.651 373.254 299.191 373.02 301.196C373.003 301.344 372.988 301.472 372.976 301.574ZM372.959 301.671C372.962 301.637 372.968 301.605 372.976 301.574C372.941 301.867 372.93 301.95 372.959 301.671ZM377.6 306.442C377.589 306.27 377.578 306.097 377.567 305.923C377.538 306.091 377.55 306.264 377.6 306.442ZM377.681 307.736C377.717 308.307 377.752 308.869 377.785 309.421C377.23 309.699 376.698 309.961 376.204 310.197C376.72 310.085 377.265 309.976 377.812 309.878C377.84 310.34 377.867 310.794 377.893 311.239C375.3 312.056 372.843 312.592 372.959 311.36C372.865 311.313 372.881 311.248 372.985 311.172C373.061 310.798 373.255 310.71 373.717 310.498C374.367 310.201 375.549 309.66 377.681 307.736ZM372.985 311.172C373.329 310.92 374.636 310.539 376.204 310.197C374.522 311.002 373.268 311.514 372.959 311.36C372.965 311.29 372.974 311.228 372.985 311.172ZM378.103 321.31C378.239 321.676 378.291 321.137 378.28 319.932C377.998 320.32 377.892 320.743 378.103 321.31ZM376.831 294.993C374.405 295.118 372.756 295.317 372.959 295.589C373.119 295.8 374.683 296.522 377.009 297.552C376.949 296.692 376.89 295.838 376.831 294.993ZM388.691 294.89C387.011 297.144 385.509 299.064 384.167 300.703C385.093 301.114 386.038 301.537 386.986 301.967C388.296 299.838 389.755 297.475 391.281 295.018C390.587 294.964 389.699 294.921 388.691 294.89ZM393.931 296.149C395.626 294.393 397.359 292.608 399.051 290.866C406.447 283.25 413.059 276.44 412.37 276.36C410.719 276.168 408.307 270.705 408.307 270.705C411.788 262.491 400.352 280.414 391.281 295.018C392.903 295.145 393.471 295.336 392.066 295.589C390.7 295.835 391.684 296.022 393.931 296.149ZM387.949 302.405C387.628 302.258 387.307 302.112 386.986 301.967C386.68 302.465 386.382 302.95 386.093 303.421C386.401 303.401 386.718 303.384 387.046 303.367C387.341 303.052 387.642 302.731 387.949 302.405ZM389.826 303.271C388.829 303.292 387.903 303.325 387.046 303.367C386.949 303.471 386.852 303.575 386.756 303.677C387.579 303.511 388.623 303.386 389.918 303.314C390.415 303.546 390.909 303.779 391.396 304.011C394.106 302.574 398.836 299.709 404.144 296.349C400.183 296.352 396.334 296.285 393.931 296.149C391.831 298.323 389.787 300.453 387.949 302.405C388.578 302.692 389.205 302.981 389.826 303.271ZM417.954 287.349C413.514 290.328 408.623 293.515 404.144 296.349C411.586 296.345 419.426 296.094 418.831 295.589C417.625 294.565 417.18 288.504 417.18 288.504C417.41 288.118 417.669 287.732 417.954 287.349ZM417.954 287.349C427.468 280.966 434.908 275.537 431.769 276.574C431.769 276.574 422.139 281.719 417.954 287.349ZM384.629 305.987C385.285 305.264 385.998 304.491 386.756 303.677C386.388 303.752 386.065 303.835 385.783 303.926C385.331 304.662 384.904 305.359 384.505 306.009C384.512 306.018 384.518 306.027 384.525 306.037C384.508 306.045 384.491 306.053 384.473 306.061C384.411 306.163 384.349 306.264 384.288 306.364C384.375 306.268 384.462 306.171 384.551 306.073C386.674 308.952 398.693 312.801 401.619 311.36C403.661 310.345 398.13 307.22 391.396 304.011C389.796 304.86 388.899 305.211 389.003 304.873C389.281 303.967 387.295 304.718 384.629 305.987ZM381.644 309.424C381.39 309.429 381.113 309.444 380.818 309.467C380.991 309.576 381.169 309.685 381.35 309.793C381.248 309.924 381.153 310.048 381.066 310.166C381.266 310.097 381.459 310.03 381.643 309.967C381.752 310.031 381.861 310.094 381.972 310.158C382.044 310.04 382.121 309.913 382.202 309.779C382.471 309.691 382.713 309.616 382.919 309.558C382.79 309.505 382.616 309.469 382.404 309.448C382.9 308.634 383.539 307.589 384.288 306.364C383.218 307.551 382.317 308.589 381.644 309.424ZM383.023 310.145C383.259 309.86 383.196 309.671 382.919 309.558C383.815 309.305 384.049 309.379 383.023 310.145ZM383.023 310.145C382.932 310.255 382.796 310.379 382.612 310.519C382.591 310.508 382.571 310.496 382.55 310.485C382.203 310.727 381.77 311.017 381.241 311.36C381.241 311.36 381.501 310.931 381.972 310.158C382.162 310.267 382.355 310.376 382.55 310.485C382.73 310.359 382.888 310.246 383.023 310.145ZM384.473 306.061C383.13 306.704 381.625 307.471 380.156 308.22C380.151 308.222 380.146 308.225 380.141 308.228C379.835 307.55 379.502 306.918 379.152 306.332C379.826 305.657 380.573 304.868 381.399 303.945C382.618 303.719 384.165 303.541 386.093 303.421C385.988 303.591 385.885 303.759 385.783 303.926C384.204 304.433 383.933 305.178 384.505 306.009C384.495 306.026 384.484 306.044 384.473 306.061ZM388.691 294.89C398.003 282.397 412.795 259.658 436.277 217.927C435.366 217.653 429.028 225.132 422.834 232.441C419.859 235.952 416.917 239.424 414.625 241.979C411.374 245.595 408.073 250.42 405.26 254.533C401.946 259.379 399.308 263.235 398.226 262.958C397.457 262.761 396.332 261.079 395.078 259.205C393.07 256.204 390.733 252.71 389.003 254.037C386.193 256.193 375.573 277.769 375.573 277.769C375.573 277.769 376.187 285.811 376.831 294.993C380.244 294.816 385.195 294.783 388.691 294.89Z" fill="url(#paint7_linear_735_6039)"/>
<path d="M412.484 289.493C412.484 289.493 408.047 306.849 398.675 314.539C398.675 314.539 406.353 311.644 411.51 295.723L412.484 289.493Z" fill="#E28183"/>
</g>
<path d="M131.162 35.1276H104.02C102.952 35.1276 102.078 34.3418 102.078 33.3616C102.078 32.39 102.942 31.5957 104.02 31.5957H131.162C132.231 31.5957 133.104 32.3815 133.104 33.3616C133.104 34.3333 132.231 35.1276 131.162 35.1276Z" fill="#66D6A0"/>
<path d="M131.162 43.9411H104.02C102.952 43.9411 102.078 43.1553 102.078 42.1751C102.078 41.2034 102.942 40.4092 104.02 40.4092H131.162C132.231 40.4092 133.104 41.195 133.104 42.1751C133.104 43.1468 132.231 43.9411 131.162 43.9411Z" fill="#66D6A0"/>
<path d="M335.953 243.596C325.221 243.596 316.523 251.504 316.523 261.264C316.523 271.023 325.221 278.931 335.953 278.931C346.685 278.931 355.383 271.023 355.383 261.264C355.383 251.504 346.685 243.596 335.953 243.596ZM335.953 274.529C327.888 274.529 321.355 268.589 321.355 261.255C321.355 253.921 327.888 247.981 335.953 247.981C344.018 247.981 350.551 253.921 350.551 261.255C350.551 268.589 344.018 274.529 335.953 274.529Z" fill="#66D6A0"/>
<g filter="url(#filter1_d_735_6039)">
<path d="M321.581 113.087C321.167 112.789 320.758 112.49 320.35 112.191C316.141 109.101 314.084 104.275 316.346 99.9709C319.609 93.7632 323.766 87.3743 328.004 81.5815C331.528 76.7674 336.383 72.5023 338.828 67.2393C341.682 61.0927 345.553 55.3548 350.048 50.039C351.945 47.7952 353.911 45.4369 355.994 43.3304C357.043 42.2725 358.018 41.1494 359.103 40.1242C359.743 39.5173 361.006 38.27 362.15 38.6774C362.236 38.7079 362.327 38.7466 362.413 38.7299C362.49 38.7179 362.545 38.6684 362.599 38.6188C363.702 37.6314 364.801 36.5884 366.084 35.7815C367.158 35.1081 368.323 35.9002 369.22 36.5157C369.73 36.8657 372.118 38.4472 371.962 39.9408C374.406 37.9596 376.627 35.7399 379.143 33.7983C379.147 33.7938 379.152 33.7893 379.157 33.7891C381.952 34.9669 384.349 36.8608 385.842 39.2876C382.125 42.7566 378.402 46.2257 374.684 49.6904C372.706 51.5308 370.657 53.503 370.047 55.9893C372.839 52.6645 376.358 49.8214 380.368 47.6504C383.741 45.8249 387.495 44.4279 390.484 42.1825C390.611 42.2454 390.734 42.317 390.861 42.3842C391.037 42.5134 391.209 42.6472 391.371 42.7856C392.28 43.5591 393.02 44.4086 393.743 45.3489C394.188 45.9246 394.601 46.5189 394.985 47.1272C395.206 47.9528 395.314 48.8306 395.35 49.7286C390.281 52.7608 385.272 55.8718 380.8 59.5457C375.191 64.1529 370.417 69.7082 368.182 76.2171C367.73 77.5354 367.621 78.9455 367.976 80.3006C369.871 87.5936 383.96 82.3837 389.028 80.8296C389.161 80.9694 389.285 81.1181 389.4 81.28C390.671 83.0613 390.704 85.5275 390.563 87.586C390.49 88.6389 390.338 89.6867 390.161 90.7271C389.993 90.7603 389.82 90.7938 389.638 90.8319C386.589 91.5162 380.88 93.0493 377.936 94.0032C372.241 95.8465 367.491 99.2673 361.346 100.222C352.922 101.532 346.06 100.934 341.104 107.941C340.471 108.835 339.844 109.724 339.211 110.618C335.462 115.926 327.176 117.118 321.581 113.087Z" fill="#84B5FF"/>
<path d="M353.928 60.6691C358.154 56.9006 367.776 55.3013 377.858 56.2065C380.527 56.4471 383.261 56.7694 385.854 56.919C388.234 57.0554 388.931 58.0975 388.682 57.9091C390.975 59.468 386.759 60.4574 383.076 60.2872C377.789 60.0427 374.418 59.7328 369.797 59.769C366.567 59.7949 362.616 60.6963 359.846 61.1523C357.083 61.6048 357.215 62.1241 355.598 63.3574C352.709 65.5602 354.775 65.5028 355.52 67.787C355.52 67.787 363.431 70.8809 364.321 71.2303C367.735 72.5629 374.475 72.416 377.024 74.425C377.317 74.6566 377.522 74.8709 377.76 75.129C377.413 76.0541 377.757 75.9001 377.216 75.9852C377.94 76.0962 376.676 76.0703 377.216 75.9852C374.155 75.5159 371.023 74.7365 367.793 73.8718C362.719 72.5118 354.03 69.1348 351.35 65.5626C349.373 62.9308 352.329 62.0945 353.928 60.6691Z" fill="#0D6EB7"/>
<path d="M369.813 47.7783C369.672 47.7904 369.527 47.7983 369.385 47.8104C365.307 48.1523 363.593 49.0795 359.913 49.9324C358.089 50.356 356.289 50.8306 354.654 51.452C353.689 51.8184 352.76 52.2146 351.965 52.7186C351.535 52.864 351.109 53.0082 350.683 53.1551C349.219 52.954 348.619 51.9572 348.644 51.0898C348.657 50.7298 348.773 50.394 348.979 50.144C349.481 49.5463 350.393 49.244 351.29 48.9668C355.793 47.5786 360.694 45.8412 366.194 45.7042C367.719 45.666 368.733 45.5057 369.706 47.3853C369.782 47.5273 369.808 47.6539 369.813 47.7783Z" fill="#276ED8"/>
<path d="M344.507 52.9045C344.208 52.7566 343.94 52.5154 343.722 52.135C343.505 51.7478 343.592 51.4243 343.803 51.1817C344.365 50.5363 345.691 50.3655 346.965 50.2176C349.728 49.8985 352.14 49.2547 354.872 48.968C355.632 48.8886 357.976 48.6579 357.927 50.0636C357.903 50.7552 356.313 51.0267 355.483 51.1614C353.62 51.4654 351.787 51.7978 349.993 52.1613C349.085 52.3462 348.134 52.5096 347.264 52.7235C346.663 52.8707 345.448 53.3672 344.507 52.9045Z" fill="#276ED8"/>
<path d="M335.325 83.8408C337.216 81.6606 339.079 79.6123 341.5 77.2937C341.518 77.3647 341.62 77.624 341.639 77.6989C343.39 87.1957 351.152 96.0223 362.69 100.715C362.756 100.741 362.813 100.771 362.874 100.797C360.135 102.223 357.065 103.126 354.943 104.896C345.202 99.9526 338.791 92.1159 335.325 83.8408Z" fill="#276ED8"/>
<path d="M332.615 100.904C334.685 98.0179 336.086 96.1991 338.234 93.3562C338.267 93.5012 338.295 93.6506 338.308 93.8047C339.13 102.625 346.796 109.442 357.438 110.462C357.766 110.495 358.071 110.55 358.354 110.627C357.24 112.927 355.261 115.128 353.845 117.294C343.565 115.704 335.51 111.114 332.615 100.904Z" fill="#276ED8"/>
<path opacity="0.33" d="M336.531 88.1674C337.114 87.5821 337.699 87.0042 338.29 86.43C339.929 85.1492 341.638 83.9047 343.416 82.7078C344.532 87.3562 347.383 91.8339 351.642 95.6886C350.033 96.766 348.532 97.9128 347.057 99.0741C346.536 99.3879 346.016 99.7092 345.507 100.03C341.571 96.4213 338.589 92.3516 336.531 88.1674Z" fill="white"/>
<path opacity="0.33" d="M350.366 99.8968C350.082 99.5873 349.803 99.2776 349.527 98.9586C351.425 97.3946 353.365 95.8373 355.118 94.1232C355.283 94.2993 355.456 94.4704 355.625 94.6417C353.859 96.3791 352.107 98.1292 350.366 99.8968Z" fill="white"/>
<path opacity="0.33" d="M348.929 110.539C347.818 111.693 346.719 112.881 345.757 114.153C345.357 113.881 344.966 113.604 344.584 113.305C346.521 111.377 348.382 109.387 350.258 107.409C350.594 107.654 350.937 107.886 351.295 108.108C350.505 108.92 349.714 109.728 348.929 110.539Z" fill="white"/>
<path opacity="0.33" d="M347.312 109.076C345.134 110.727 342.976 112.389 340.761 114.017C338.07 111.866 335.996 109.166 334.708 105.804C337.048 103.237 338.634 101.62 341.065 99.0915C341.106 99.2224 341.141 99.3572 341.159 99.496C341.679 103.169 343.879 106.473 347.312 109.076Z" fill="white"/>
<path d="M330.737 102.349C331.698 100.863 333.269 99.3289 335.422 97.9176C340.055 94.881 344.342 91.9638 348.692 92.3436C350.011 92.4586 352.804 94.0864 353.757 94.5777C357.85 96.6896 356.272 101.608 350.239 105.563C346.538 107.988 342.309 109.468 338.515 109.971C337.912 110.052 336.703 110.057 335.962 109.744C335.529 109.561 332.727 108.161 332.498 107.65C331.751 105.962 331.389 104.021 330.737 102.349Z" fill="#194484"/>
<path d="M330.443 101.822C329.971 100.476 330.363 99.2871 331.629 98.4579C332.13 98.1345 332.659 97.8112 333.223 97.4958C340.172 93.6168 347.762 91.1848 351.622 93.8726C357.171 96.3292 355.743 101.189 348.787 105.066C344.138 107.662 340.374 109.322 335.872 109.408C335.449 109.415 334.616 109.341 333.494 108.355C332.53 106.016 331.251 104.145 330.443 101.822Z" fill="#06B25F"/>
<path opacity="0.33" d="M358.372 78.3231C357.072 81.7556 353.494 83.4389 350.379 82.0828C347.265 80.7267 345.795 76.8448 347.095 73.4123C348.395 69.9799 351.974 68.2966 355.088 69.6527C358.202 71.0087 359.673 74.8906 358.372 78.3231Z" fill="white"/>
<path d="M350.066 81.5505C353.125 82.6539 356.796 81.0064 358.268 77.8714C359.74 74.7364 358.455 71.2999 355.396 70.2005C352.337 69.097 348.666 70.7445 347.194 73.8795C345.727 77.0105 347.012 80.447 350.066 81.5505Z" fill="#276ED8"/>
<path opacity="0.33" d="M351.293 78.9393C352.944 79.5355 354.932 78.6447 355.724 76.9516C356.521 75.2586 355.824 73.4023 354.174 72.8061C352.523 72.2098 350.535 73.1007 349.743 74.7937C348.947 76.4907 349.643 78.343 351.293 78.9393Z" fill="white"/>
<path opacity="0.33" d="M361.358 52.782C362.495 53.1864 363.967 52.4504 364.634 51.1323C365.302 49.8184 364.923 48.4233 363.78 48.0191C362.642 47.6147 361.171 48.3508 360.503 49.6688C359.835 50.9827 360.215 52.3778 361.358 52.782Z" fill="white"/>
<path opacity="0.33" d="M374.292 79.6388C374.746 80.9794 376.344 81.7039 377.863 81.2593C379.381 80.8147 380.247 79.3645 379.793 78.024C379.339 76.6835 377.74 75.9589 376.222 76.4035C374.703 76.8481 373.837 78.2983 374.292 79.6388Z" fill="white"/>
<path opacity="0.33" d="M356.237 47.1668C355.923 48.1248 355.238 48.6716 354.707 48.3881C354.176 48.1045 354 47.098 354.314 46.14C354.628 45.1819 355.313 44.6351 355.844 44.9187C356.375 45.2022 356.551 46.2087 356.237 47.1668Z" fill="white"/>
<path opacity="0.33" d="M346.585 51.5515C347.652 51.9502 349.013 51.2432 349.619 49.9655C350.225 48.6879 349.852 47.3283 348.785 46.9296C347.718 46.5308 346.356 47.2379 345.75 48.5155C345.14 49.7933 345.517 51.1487 346.585 51.5515Z" fill="white"/>
<path d="M336.055 106.301C336.264 105.94 336.5 105.571 336.769 105.201C338.776 102.409 341.607 100.581 343.093 101.112C344.579 101.646 344.155 104.338 342.148 107.13C340.833 108.959 339.162 110.364 337.749 110.974C337.166 109.419 336.611 107.86 336.055 106.301Z" fill="#194484"/>
<path d="M339.488 96.3804L341.264 96.3721L339.833 94.5477L339.069 94.1495L338.724 95.9823L339.488 96.3804Z" fill="#194484"/>
<path d="M339.185 96.7486L340.821 96.4226L339.408 94.4878L337.772 94.8139L339.185 96.7486Z" fill="#194484"/>
<path d="M342.176 98.2339L343.951 98.2258L342.52 96.4014L341.756 96.0032L341.411 97.8332L342.176 98.2339Z" fill="#194484"/>
<path d="M341.862 98.6023L343.499 98.2792L342.087 96.3444L340.451 96.6703L341.862 98.6023Z" fill="#194484"/>
<path d="M344.886 100.109L346.662 100.101L345.231 98.2764L344.467 97.8782L344.123 99.7106L344.886 100.109Z" fill="#194484"/>
<path d="M344.583 100.482L346.22 100.156L344.807 98.2215L343.17 98.5471L344.583 100.482Z" fill="#194484"/>
<path d="M62.3218 66.6558C62.3115 66.6532 62.3004 66.6534 62.2941 66.6497C62.2521 66.6421 62.3607 66.6616 62.3218 66.6558Z" fill="#194484"/>
<path opacity="0.43" d="M68.9832 71.9592C66.5168 71.7722 62.7894 71.1922 60.5348 70.7658C60.6079 70.6286 60.681 70.4914 60.7628 70.3514C63.1738 70.786 67.6722 71.4919 70.0037 71.8509C69.8541 71.8685 69.1434 71.9705 68.9832 71.9592Z" fill="#276ED8"/>
</g>
</g>
<defs>
<filter id="filter0_d_735_6039" x="5.90625" y="240.597" width="94.2305" height="86.5469" filterUnits="userSpaceOnUse" color-interpolation-filters="sRGB">
<feFlood flood-opacity="0" result="BackgroundImageFix"/>
<feColorMatrix in="SourceAlpha" type="matrix" values="0 0 0 0 0 0 0 0 0 0 0 0 0 0 0 0 0 0 127 0" result="hardAlpha"/>
<feMorphology radius="3" operator="dilate" in="SourceAlpha" result="effect1_dropShadow_735_6039"/>
<feOffset dx="5" dy="5"/>
<feGaussianBlur stdDeviation="4"/>
<feColorMatrix type="matrix" values="0 0 0 0 0 0 0 0 0 0 0 0 0 0 0 0 0 0 0.2 0"/>
<feBlend mode="normal" in2="BackgroundImageFix" result="effect1_dropShadow_735_6039"/>
<feBlend mode="normal" in="SourceGraphic" in2="effect1_dropShadow_735_6039" result="shape"/>
</filter>
<filter id="filter1_d_735_6039" x="52.5352" y="29.7891" width="350.816" height="99.5049" filterUnits="userSpaceOnUse" color-interpolation-filters="sRGB">
<feFlood flood-opacity="0" result="BackgroundImageFix"/>
<feColorMatrix in="SourceAlpha" type="matrix" values="0 0 0 0 0 0 0 0 0 0 0 0 0 0 0 0 0 0 127 0" result="hardAlpha"/>
<feOffset dy="4"/>
<feGaussianBlur stdDeviation="4"/>
<feColorMatrix type="matrix" values="0 0 0 0 0.0771528 0 0 0 0 0.152763 0 0 0 0 0.420833 0 0 0 0.25 0"/>
<feBlend mode="normal" in2="BackgroundImageFix" result="effect1_dropShadow_735_6039"/>
<feBlend mode="normal" in="SourceGraphic" in2="effect1_dropShadow_735_6039" result="shape"/>
</filter>
<linearGradient id="paint0_linear_735_6039" x1="117.911" y1="576.734" x2="117.911" y2="343.002" gradientUnits="userSpaceOnUse">
<stop stop-color="#4485E4"/>
<stop offset="1" stop-color="#4384E4"/>
</linearGradient>
<linearGradient id="paint1_linear_735_6039" x1="290.946" y1="507.134" x2="290.946" y2="335.48" gradientUnits="userSpaceOnUse">
<stop stop-color="#3378DD"/>
<stop offset="1" stop-color="#5491EB"/>
</linearGradient>
<linearGradient id="paint2_linear_735_6039" x1="205.377" y1="371.241" x2="205.377" y2="323.262" gradientUnits="userSpaceOnUse">
<stop stop-color="#D1C8F8"/>
<stop offset="1" stop-color="#EEE5F9"/>
</linearGradient>
<linearGradient id="paint3_linear_735_6039" x1="203.717" y1="254.999" x2="203.717" y2="90.9985" gradientUnits="userSpaceOnUse">
<stop stop-color="#67A1F8"/>
<stop offset="1" stop-color="#1B67D9"/>
</linearGradient>
<linearGradient id="paint4_linear_735_6039" x1="228.423" y1="306.926" x2="180.587" y2="306.926" gradientUnits="userSpaceOnUse">
<stop stop-color="#CF6074"/>
<stop offset="1" stop-color="#FF817F"/>
</linearGradient>
<linearGradient id="paint5_linear_735_6039" x1="238.36" y1="342.767" x2="238.36" y2="342.276" gradientUnits="userSpaceOnUse">
<stop stop-color="#9D68C2"/>
<stop offset="1" stop-color="#CCEDFF"/>
</linearGradient>
<linearGradient id="paint6_linear_735_6039" x1="178.414" y1="363.961" x2="178.414" y2="332.627" gradientUnits="userSpaceOnUse">
<stop stop-color="#3D2CB0"/>
<stop offset="1" stop-color="#0355C7"/>
</linearGradient>
<linearGradient id="paint7_linear_735_6039" x1="395.887" y1="503.941" x2="395.887" y2="194.914" gradientUnits="userSpaceOnUse">
<stop offset="0.016" stop-color="#FFC2A9"/>
<stop offset="1" stop-color="#FF9595"/>
</linearGradient>
<clipPath id="clip0_735_6039">
<rect width="473" height="376" fill="white"/>
</clipPath>
</defs>
</svg>
