<svg width="531" height="385" viewBox="0 0 531 385" fill="none" xmlns="http://www.w3.org/2000/svg">
<g clip-path="url(#clip0_735_5814)">
<path opacity="0.08" d="M115.385 364.444C231.055 388.732 416.107 344.489 476.59 277.478C537.072 210.466 469.075 139.603 422.875 114.19C408.502 106.334 392.494 100.878 380.654 89.6784C354.799 65.1467 344.774 24.1155 312.973 7.58546C285.467 -6.73316 269.636 43.175 239.368 35.5655C226.16 32.3253 150.375 -5.60096 98.5074 11.8774C51.156 27.8338 -13.3783 106.437 9.15994 182.536C31.6982 258.634 -43.0055 331.187 115.385 364.444Z" fill="#84B5FF"/>
<path opacity="0.08" d="M179.216 361.918C271.636 388.448 421.465 360.48 471.681 306.812C521.898 253.143 468.911 189.602 432.369 165.692C421 158.296 408.26 152.85 399.006 142.751C378.801 120.634 371.714 85.3522 346.539 69.7099C324.765 56.1625 310.853 97.6361 286.699 89.6313C276.157 86.2063 216.127 50.1719 174.011 62.3133C135.563 73.3974 81.8136 136.679 98.1285 202.318C114.443 267.957 52.6616 325.59 179.216 361.918Z" fill="#84B5FF"/>
<mask id="mask0_735_5814" style="mask-type:alpha" maskUnits="userSpaceOnUse" x="87" y="18" width="406" height="355">
<path d="M179.215 361.917C271.635 388.447 421.464 360.479 471.68 306.811C521.897 253.142 468.91 189.601 432.368 165.691C420.999 158.295 434.438 147.536 425.184 137.437C404.98 115.321 457.544 51.3951 432.368 35.7529C410.594 22.2054 353.965 27.2256 329.811 19.2207C319.269 15.7958 222.053 29.8766 204.223 26.8094C164.788 20.0255 112.447 142.676 101.541 179.932C90.6352 217.187 52.6606 325.589 179.215 361.917Z" fill="#84B5FF"/>
</mask>
<g mask="url(#mask0_735_5814)">
<path d="M302.434 346.543H315.691V380.077H302.434V346.543Z" fill="#969391"/>
<path d="M364.797 336.052C364.797 342.464 358.74 354.853 351.732 354.853H271.037C264.03 354.853 261.585 342.436 261.585 336.052V335.563C261.585 329.151 264.03 322.25 271.037 322.25H351.732C358.74 322.25 364.797 329.151 364.797 335.563V336.052Z" fill="#435467"/>
<path d="M399.618 323.019C399.129 329.838 392.556 334.973 384.897 334.511C382.67 334.375 299.53 336.141 296.108 335.842C281.169 334.593 303.088 328.507 296.108 320.628C284.293 320.682 281.902 320.519 279.268 319.46C275.248 317.857 240.536 309.896 237.956 300.795C235.376 291.666 225.353 176.497 225.353 176.497C229.509 169.515 273.89 173.97 294.668 176.497C305.695 177.856 312.105 187.827 312.105 195.515C312.105 198.178 312.431 200.868 312.594 203.53C313.436 217.006 314.17 230.482 314.985 243.957C315.446 251.293 315.799 258.656 316.152 266.018C316.343 270.012 316.56 274.033 316.831 278.027C317.103 282.401 316.614 287.645 317.782 291.883C321.204 304.653 346.627 305.93 357.464 306.065C374.847 306.283 370.909 306.88 379.356 307.886C386.798 308.782 392.149 310.059 395.843 313.618C398.477 316.172 399.835 319.595 399.618 323.019Z" fill="#C1C7CC"/>
<path d="M266.8 335.218C287.225 337.31 300.127 335.925 301.811 336.006C307.542 336.305 311.29 332.909 311.833 325.927C312.105 322.422 311.154 318.972 309.226 316.418C306.51 312.859 302.517 311.663 296.949 310.93C290.621 310.087 280.761 309.734 267.67 309.924C263.405 309.979 259.005 309.598 254.822 308.838C249.961 307.941 246.077 305.795 242.084 302.616C237.195 298.731 237.847 290.39 237.928 283.978C237.983 279.984 237.956 276.045 237.847 272.078C237.385 253.386 237.358 234.667 237.141 215.974C237.032 205.514 236.896 195.082 236.788 184.622C236.706 177.666 231.953 172.368 226.195 172.857C220.41 173.319 215.819 179.351 215.901 186.306L217.259 299.709C217.259 300.144 217.286 300.551 217.313 300.986C217.476 302.725 218.698 311.826 226.141 320.33C233.637 328.888 244.556 333.779 258.706 334.974C261.287 335.164 264.03 334.92 266.8 335.218Z" fill="#979B9E"/>
<path d="M294.113 227.432C278.769 239.194 256.498 243.957 239.343 234.856C233.962 232.009 229.007 227.458 227.941 221.604C226.663 214.552 231.218 207.26 229.3 200.341C227.622 194.221 221.495 190.469 216.939 185.945C210.333 179.398 206.497 170.271 206.524 161.09C206.55 151.909 210.386 142.808 217.019 136.288C222.64 130.753 229.966 127.187 236.413 122.557C241.501 118.884 246.083 114.121 248.507 108.346C250.904 102.651 248.933 99.2984 248.587 93.71C247.867 81.7616 250.878 68.4027 259.482 59.5146C270.617 47.9653 287.16 48.1515 301.785 51.132C309.19 52.6222 317.369 54.9374 323.869 58.8759C326.639 60.5524 328.477 62.6015 330.369 65.2892C330.981 66.1408 334.391 74.6298 334.258 74.6032C355.942 79.5528 344.301 109.57 350.96 123.355C353.065 127.693 356.741 131.046 359.964 134.638C365.612 140.972 370.034 148.582 371.419 156.938C372.805 165.294 370.913 174.395 365.292 180.729C364.387 181.767 363.321 182.778 362.975 184.109C362.442 186.104 363.561 188.1 364.387 189.99C369.315 201.299 363.667 214.392 356.555 224.478C351.786 231.264 346.165 237.704 338.866 241.642C327.225 247.949 312.52 246.964 300.533 241.323" fill="url(#paint0_linear_735_5814)"/>
<path opacity="0.42" d="M304.503 78.6505C311.829 75.0846 321.179 79.0497 325.708 85.8356C330.21 92.6214 336.07 98.6622 335.005 106.725C334.472 110.717 333.593 114.789 334.392 118.754C336.417 129.026 342.757 136.53 349.363 144.646C354.958 151.512 356.769 160.64 358.208 169.368C359.06 174.584 359.753 180.332 356.982 184.829C353.466 190.524 349.443 197.869 345.661 203.378C339.427 212.399 343.077 221.207 335.538 229.19C333.3 231.532 330.157 232.756 327.066 233.741C320.806 235.684 314.333 236.828 307.78 237.174C302.186 237.467 296.511 237.121 291.237 235.284C278.29 230.734 269.633 216.204 271.977 202.686C273.762 192.44 280.821 183.925 284.178 174.052C286.575 166.973 286.975 159.229 285.35 151.938C283.272 142.73 277.971 133.576 280.262 124.422" fill="#113356"/>
<path d="M278.373 165.045C277.178 172.082 286.63 172.679 286.63 172.679C290.786 172.679 297.277 171.402 297.277 167.246L295.267 141.191C295.267 137.034 291.872 133.638 287.717 133.638C283.561 133.638 280.166 137.007 280.166 141.191L278.373 165.045Z" fill="#D8826C"/>
<path d="M315.291 73.0013C314.332 71.1917 307.087 73.1344 306.287 71.2183C301.626 75.3963 291.583 67.1734 285.989 70.3402C278.663 74.4915 272.776 78.6429 264.677 80.9847C262.013 81.7564 265.876 83.5128 263.052 83.6458C262.306 88.5423 257.698 103.791 257.964 108.847C259.323 134.207 277.97 150.174 296.298 147.832C310.15 146.049 323.257 128.885 326.746 104.509C327.066 102.22 328.744 91.2034 328.584 88.9681C322.031 82.5814 319.66 81.1177 315.291 73.0013Z" fill="#F0A98F"/>
<path d="M292.355 122.236C292.355 122.236 296.671 129.5 301.306 122.103L292.355 122.236Z" fill="#D8826C"/>
<path d="M287.906 107.492C287.906 112.282 284.017 116.194 279.195 116.194C274.374 116.194 270.484 112.309 270.484 107.492C270.484 102.702 274.374 98.79 279.195 98.79C284.017 98.79 287.906 102.702 287.906 107.492Z" fill="white"/>
<path d="M285.294 112.283C283.749 115.929 280.259 117.951 277.489 116.807C274.718 115.636 273.733 111.751 275.251 108.105C276.796 104.433 280.286 102.437 283.03 103.581C285.827 104.725 286.839 108.611 285.294 112.283Z" fill="#84B5FF"/>
<path d="M283.829 111.671C282.737 114.252 280.259 115.689 278.288 114.864C276.317 114.039 275.597 111.272 276.716 108.664C277.808 106.056 280.286 104.619 282.257 105.444C284.228 106.295 284.921 109.063 283.829 111.671Z" fill="#400404"/>
<path d="M285.931 107.308C285.638 108.027 284.573 108.24 283.561 107.814C282.548 107.388 281.962 106.457 282.255 105.765C282.548 105.046 283.614 104.833 284.626 105.259C285.638 105.685 286.224 106.616 285.931 107.308Z" fill="white"/>
<path d="M283.164 129.235C283.164 129.235 297.203 135.702 303.143 129.768C303.143 129.768 297.736 143.259 283.164 129.235Z" fill="#D5503B"/>
<path d="M287.905 107.494C287.905 107.494 288.597 101.905 283.136 99.0844C274.772 94.7734 270.19 104.753 267.473 106.376C267.473 106.376 269.231 108.132 270.51 107.52C270.51 107.494 280.419 95.6516 287.905 107.494Z" fill="#302725"/>
<path d="M303.809 108.693C303.809 113.51 307.698 117.395 312.52 117.395C317.315 117.395 321.231 113.51 321.231 108.693C321.231 103.903 317.341 100.018 312.52 100.018C307.725 99.9911 303.809 103.903 303.809 108.693Z" fill="white"/>
<path d="M318.431 112.578C317.606 116.463 314.435 119.071 311.319 118.406C308.202 117.74 306.364 114.068 307.19 110.209C308.015 106.324 311.186 103.716 314.302 104.355C317.392 105.02 319.257 108.693 318.431 112.578Z" fill="#84B5FF"/>
<path d="M316.809 112.231C316.222 114.999 313.985 116.835 311.774 116.382C309.563 115.93 308.257 113.296 308.817 110.555C309.403 107.787 311.667 105.924 313.878 106.403C316.063 106.856 317.395 109.464 316.809 112.231Z" fill="#400404"/>
<path d="M318.062 107.549C317.902 108.294 316.837 108.72 315.718 108.48C314.572 108.241 313.8 107.443 313.933 106.697C314.093 105.952 315.132 105.527 316.277 105.766C317.423 106.006 318.222 106.804 318.062 107.549Z" fill="white"/>
<path d="M303.677 107.625C303.677 107.625 302.984 102.648 308.445 100.147C316.81 96.3147 321.392 105.176 324.082 106.613C324.082 106.613 322.324 108.157 321.045 107.625C321.072 107.625 312.095 96.847 303.677 107.625Z" fill="#302725"/>
<path d="M272.027 95.1426C272.027 95.1426 280.872 87.239 289.343 90.6453C291.314 91.4436 291.767 92.375 293.019 96.207C293.019 96.207 283.376 90.8049 272.027 95.1426Z" fill="#6F3B1E"/>
<path d="M323.973 98.4437C323.973 98.4437 318.939 89.3161 311.267 91.1522C309.482 91.578 308.869 92.403 306.871 95.8624C306.871 95.8891 316.008 92.3498 323.973 98.4437Z" fill="#6F3B1E"/>
<path d="M260.44 101.477C260.44 101.477 251.037 88.65 248.319 100.971C246.162 110.791 254.926 118.002 260.36 116.166C265.795 114.33 260.44 101.477 260.44 101.477Z" fill="#F0A98F"/>
<path d="M260.547 103.766C260.547 103.766 253.887 95.6764 252.182 99.4818C250.477 103.287 251.49 107.758 251.49 107.758C251.49 107.758 252.182 102.649 256.231 105.017C256.231 105.017 253.354 113.426 260.547 110.233C260.574 110.233 263.397 107.439 260.547 103.766Z" fill="#D8826C"/>
<path d="M260.955 116.823C260.955 118.127 259.969 119.165 258.77 119.165C257.545 119.165 256.586 118.101 256.586 116.823C256.586 115.52 257.572 114.455 258.77 114.455C259.969 114.455 260.955 115.493 260.955 116.823Z" fill="white"/>
<path d="M337.347 92.6691C329.728 94.798 321.15 93.2546 314.677 88.5976C308.204 83.9406 303.995 76.25 303.568 68.2932C303.435 66.0845 303.888 63.4233 305.886 62.5185C306.579 62.1992 307.378 62.1726 308.15 62.1992C312.865 62.3323 317.394 64.3281 321.15 67.2287C324.906 70.1294 327.89 73.8816 330.527 77.82C332.418 80.6674 334.123 83.6479 335.162 86.8945C335.802 88.9435 336.175 91.0724 336.254 93.2013" fill="url(#paint1_linear_735_5814)"/>
<path d="M305.221 73.2712C291.289 81.1481 275.518 95.0658 260.414 94.2941C259.642 94.2675 255.752 89.504 255.433 88.892C255.166 88.3598 255.459 87.6945 255.752 87.109C258.816 81.3078 267.021 71.2221 273.121 67.7892C279.221 64.3564 285.908 62.1743 292.567 60.205C295.951 59.2204 299.387 58.2624 302.797 58.2092C306.18 58.156 309.59 59.0874 311.481 61.3759" fill="url(#paint2_linear_735_5814)"/>
<path d="M377.63 315.953C377.63 315.953 380.835 302.151 349.573 289.382C318.338 276.613 305.572 275.227 303.806 284.22C302.041 293.213 309.7 311.987 354.353 324.05C372.524 328.94 377.63 315.953 377.63 315.953Z" fill="#DE947A"/>
<path d="M357.498 313.075C357.498 313.048 357.498 313.021 357.498 312.993C358.612 304.408 369.449 302.914 375.642 307.614C380.721 311.472 385.61 335.435 387.185 344.509C389.63 358.664 391.531 379.965 393.948 394.147C394.654 398.276 395.333 402.379 395.931 406.509C399.136 413.654 399.815 414.822 402.531 419.821C405.247 424.793 407.827 424.413 405.301 425.527C401.227 427.347 389.63 423.734 386.913 415.746C385.42 411.399 384.578 409.552 384.034 404.743C359.997 358.42 356.629 320.085 357.498 313.075Z" fill="#DE947A"/>
<path d="M355.352 313.649C355.352 313.649 356.656 299.548 324.009 291.071C291.334 282.622 278.514 282.948 277.944 292.077C277.373 301.232 287.504 318.784 333.352 324.761C352.039 327.206 355.352 313.649 355.352 313.649Z" fill="#F0A98F"/>
<path d="M379.282 309.647C367.359 284.516 318.388 276.854 318.388 276.854L310.728 258.977L292.856 258.569C263.495 314.347 320.941 307.528 328.193 310.081C335.417 312.635 355.001 327.116 355.001 327.116C358.83 349.259 375.426 404.194 379.69 404.602C383.954 405.037 396.285 399.929 396.285 399.929C396.285 399.929 391.179 334.751 379.282 309.647Z" fill="#C2C2C2"/>
<path d="M339.653 313.103C342.261 306.555 351.794 305.441 355.216 312.396C358.041 318.102 355.216 347.526 352.555 356.328C348.399 370.103 344.189 383.85 340.033 397.598C338.811 401.592 337.589 405.586 336.258 409.552C335.932 417.377 336.041 418.735 336.231 424.414C336.421 430.065 336.177 438.813 333.406 438.704C328.952 438.541 321.211 425.69 322.352 417.322C322.976 412.758 324.742 407.216 326.399 402.651C326.888 313.972 338.73 315.439 339.653 313.103Z" fill="#F0A98F"/>
<path d="M267.325 246.621C267.325 246.621 241.061 296.503 254.831 308.81C268.602 321.145 328.628 328.372 328.628 328.372C328.628 328.372 322.245 382.438 324.363 399.907L340.959 402.461C340.959 402.461 366.925 326.66 355.001 307.941C343.077 289.221 312.005 282.81 298.805 284.114C298.805 284.114 305.188 266.237 300.516 259.825C295.844 253.44 267.325 244.936 267.325 246.621Z" fill="#D4D4D4"/>
<path d="M263.821 254.826C267.434 223.853 250.404 164.435 250.404 164.435C250.404 164.435 295.844 151.013 324.906 164.435L310.049 260.477C310.049 260.477 302.01 262.487 290.738 260.884C279.52 259.254 263.821 254.826 263.821 254.826Z" fill="#194484"/>
<path d="M270.532 210.836C270.532 210.836 304.7 214.368 314.125 207.304C314.125 207.304 302.337 235.586 270.532 210.836Z" fill="#0E3979"/>
<path d="M312.602 261.237C312.602 261.237 293.507 270.339 263.522 256.238C263.82 254.826 264.418 247.137 264.418 247.137L311.216 253.06L312.602 261.237Z" fill="#8F99B6"/>
<path d="M282.18 248.981L279.898 263.517L274.004 263.055L276.259 247.596L282.18 248.981Z" fill="#D4D4D4"/>
<path d="M305.348 250.805L307.168 263.982L292.175 265.34L291.279 248.984L305.348 250.805ZM295.788 261.238L302.36 259.879V253.739L294.647 253.06L295.788 261.238Z" fill="#EAEAEA"/>
<path d="M402.718 245.808C402.718 245.808 390.468 246.297 375.991 243.472C363.036 240.945 348.287 235.81 339.025 225.296C328.27 213.07 318.519 191.063 318.519 191.063C318.519 191.063 321.289 166.72 324.929 164.465C328.541 162.21 353.719 212.744 360.238 216.738C363.986 219.02 376.942 223.584 388.132 227.823C396.471 230.974 403.831 233.936 405.597 235.62C409.752 239.532 402.718 245.808 402.718 245.808Z" fill="#194484"/>
<path d="M409.832 245.835C408.284 238.255 403.232 232.686 397.229 232.686C391.227 232.686 386.175 238.255 384.627 245.835H409.832Z" fill="#22272E"/>
<path d="M390.359 239.583C390.359 241.322 388.621 242.707 386.475 242.707C384.33 242.707 382.591 241.294 382.591 239.583C382.591 237.844 384.33 236.458 386.475 236.458C388.621 236.431 390.359 237.844 390.359 239.583Z" fill="#F0A98F"/>
<path d="M395.738 232.686C395.738 235.185 394.57 237.223 393.104 237.223C391.637 237.223 390.469 235.185 390.469 232.686C390.469 230.186 391.637 228.176 393.104 228.176C394.57 228.176 395.738 230.186 395.738 232.686Z" fill="#F0A98F"/>
<path d="M403.368 233.011C402.553 235.348 400.787 236.842 399.402 236.326C398.044 235.809 397.582 233.473 398.397 231.136C399.212 228.8 400.978 227.306 402.363 227.822C403.748 228.338 404.183 230.674 403.368 233.011Z" fill="#F0A98F"/>
<path d="M409.643 239.156C408.094 241.058 405.949 241.818 404.835 240.84C403.722 239.862 404.075 237.499 405.596 235.597C407.144 233.695 409.29 232.934 410.403 233.912C411.517 234.918 411.164 237.254 409.643 239.156Z" fill="#F0A98F"/>
<path d="M411.464 245.347C409.182 246.08 406.982 245.51 406.575 244.043C406.14 242.575 407.634 240.809 409.915 240.049C412.197 239.315 414.397 239.886 414.832 241.353C415.239 242.82 413.745 244.613 411.464 245.347Z" fill="#F0A98F"/>
<path d="M254.91 244.477C254.91 244.477 269.495 219.101 291.957 245.618L254.91 244.477Z" fill="#F0A98F"/>
<path d="M250.429 164.439C248.663 164.575 217.238 205.22 213.3 239.235C213.3 239.235 213.083 252.629 232.34 233.095C239.999 225.324 242.769 205.736 256.839 189.489C256.839 189.462 257.708 163.869 250.429 164.439Z" fill="#194484"/>
<path d="M265.531 233.094C260.425 230.703 246.22 228.964 242.662 228.068C220.145 222.308 215.446 242.032 215.446 242.032C211.562 248.553 242.607 247.738 260.995 246.244C261.783 241.815 264.988 237.55 265.531 233.094Z" fill="#4676A0"/>
<path d="M226.666 181.852C245.706 187.123 218.137 217.144 215.421 222.035V218.965C212.705 213.151 209.364 177.07 226.666 181.852Z" fill="#06B25F"/>
<path d="M194.344 173.862C211.021 177.992 212.352 210.133 204.557 221.707L198.418 218.637C192.579 207.606 183.235 200.515 182.801 187.175C182.556 179.296 184.675 171.472 194.344 173.862Z" fill="#06B25F"/>
<path d="M168.191 172.749C176.095 162.941 185.574 174.135 185.574 183.209V185.247C177.399 190.409 158.658 184.568 168.191 172.749Z" fill="#06B25F"/>
<path d="M229.789 212.852L224.683 249.665L186.848 250.698L183.778 213.884L229.789 212.852Z" fill="#66D6A0"/>
<path d="M466.306 452.124L425.32 265.121L435.179 261.807L476.898 452.124H466.306Z" fill="#C1C7CC"/>
<path d="M162.783 452.122L203.742 265.119L193.91 261.805L152.164 452.122H162.783Z" fill="#C1C7CC"/>
<path d="M144.908 245.698H484.148V265.83H144.908V245.698Z" fill="#D8DDE1"/>
<path d="M432.871 237.195C432.871 237.304 432.898 237.44 432.898 237.548C432.952 242.113 429.068 245.862 424.234 245.917L306.599 247.465C301.738 247.519 297.772 243.879 297.691 239.314C297.691 239.179 297.691 239.07 297.718 238.961L432.871 237.195Z" fill="#E7E9ED"/>
<path d="M323.731 233.364C323.242 236.733 325.225 239.45 328.104 239.396L427.214 238.064C430.12 238.037 432.728 235.674 433.081 232.767L439.491 178.565C439.844 175.658 437.834 173.104 435.009 172.859L338.67 164.41C335.845 164.165 333.183 166.719 332.694 170.088L323.731 233.364Z" fill="#E2E4E8"/>
<path d="M375.828 203.696C375.312 207.609 377.757 210.842 381.288 210.923C384.819 211.005 388.078 207.989 388.594 204.131C389.083 200.3 386.638 197.067 383.135 196.877C379.631 196.768 376.372 199.784 375.828 203.696Z" fill="#F2F2F2"/>
</g>
<path d="M505.885 180C494.929 180 486.051 188.879 486.051 199.834C486.051 210.79 494.929 219.669 505.885 219.669C516.841 219.669 525.72 210.79 525.72 199.834C525.72 188.879 516.841 180 505.885 180ZM505.885 214.727C497.652 214.727 490.983 208.058 490.983 199.825C490.983 191.591 497.652 184.923 505.885 184.923C514.119 184.923 520.787 191.591 520.787 199.825C520.787 208.058 514.119 214.727 505.885 214.727Z" fill="#66D6A0"/>
<g filter="url(#filter0_d_735_5814)">
<path d="M84.469 259.011L95.37 256.961V247.188L84.469 245.308C83.6318 241.293 82.0428 237.534 79.8557 234.202L86.1093 225.027L79.1894 218.107L70.1508 224.497C66.819 222.31 63.0771 220.738 59.0448 219.901L56.9945 209H47.2212L45.3418 219.901C41.3265 220.738 37.5676 222.327 34.2358 224.514L25.0776 218.261L18.1577 225.181L24.5479 234.219C22.3609 237.551 20.7889 241.31 19.9517 245.325L9.05078 247.375V257.149L19.9517 259.028C20.7889 263.061 22.378 266.802 24.565 270.134L18.3115 279.292L25.2313 286.212L34.287 279.822C37.6188 282.009 41.3778 283.598 45.393 284.418L47.4433 295.319H57.2166L59.0961 284.418C63.1284 283.581 66.8703 281.992 70.2021 279.805L79.3602 286.059L86.2801 279.139L79.8899 270.1C82.0599 266.785 83.6318 263.043 84.469 259.011ZM52.2104 272.407C41.036 272.407 31.9804 263.334 31.9804 252.177C31.9804 241.019 41.036 231.947 52.2104 231.947C63.3847 231.947 72.4403 241.002 72.4403 252.177C72.4403 263.351 63.3847 272.407 52.2104 272.407Z" fill="#84B5FF"/>
</g>
<g filter="url(#filter1_d_735_5814)">
<path d="M124.291 136.326L131.119 135.041V128.92L124.291 127.742C123.766 125.227 122.771 122.873 121.401 120.786L125.318 115.039L120.984 110.704L115.322 114.707C113.235 113.337 110.891 112.352 108.366 111.828L107.081 105H100.96L99.7825 111.828C97.2674 112.352 94.9129 113.348 92.826 114.718L87.0895 110.801L82.7551 115.135L86.7578 120.797C85.3879 122.884 84.4033 125.238 83.8788 127.753L77.0508 129.037V135.159L83.8788 136.336C84.4033 138.862 85.3986 141.206 86.7685 143.293L82.8514 149.029L87.1859 153.364L92.8581 149.361C94.945 150.731 97.2996 151.726 99.8146 152.24L101.099 159.068H107.221L108.398 152.24C110.924 151.716 113.267 150.72 115.354 149.35L121.091 153.267L125.425 148.933L121.423 143.271C122.782 141.195 123.766 138.851 124.291 136.326ZM104.085 144.716C97.0855 144.716 91.4133 139.033 91.4133 132.045C91.4133 125.056 97.0855 119.373 104.085 119.373C111.084 119.373 116.756 125.045 116.756 132.045C116.756 139.044 111.084 144.716 104.085 144.716Z" fill="#84B5FF"/>
</g>
<path d="M124.741 359.828H97.0333C95.9424 359.828 95.0508 358.309 95.0508 356.414C95.0508 354.536 95.9329 353 97.0333 353H124.741C125.832 353 126.723 354.519 126.723 356.414C126.723 358.293 125.832 359.828 124.741 359.828Z" fill="#66D6A0"/>
<path d="M124.741 376.865H97.0333C95.9424 376.865 95.0508 375.346 95.0508 373.451C95.0508 371.573 95.9329 370.037 97.0333 370.037H124.741C125.832 370.037 126.723 371.556 126.723 373.451C126.723 375.33 125.832 376.865 124.741 376.865Z" fill="#66D6A0"/>
<g filter="url(#filter2_d_735_5814)">
<rect x="437.051" y="73" width="65.6797" height="64.5473" rx="6" fill="#06B25F"/>
</g>
<path d="M459.41 115.947L444.375 107.816C443.404 107.254 442.918 106.384 442.918 105.208C442.918 103.981 443.429 103.111 444.452 102.6L459.41 94.3922V97.3838C459.41 97.5883 459.333 97.8696 459.18 98.2275C459.027 98.5344 458.797 98.7645 458.49 98.9179L447.827 104.748C447.418 105.055 447.418 105.361 447.827 105.668L459.41 111.882V115.947Z" fill="white"/>
<path d="M472.217 91.9375H475.208L467.767 117.405C467.563 118.069 467.103 118.402 466.387 118.402H464.469L472.217 91.9375Z" fill="white"/>
<path d="M480.037 94.3922L494.995 102.6C496.069 103.162 496.606 104.032 496.606 105.208C496.606 106.384 496.069 107.228 494.995 107.739L480.037 115.947V112.955C480.037 112.802 480.088 112.546 480.19 112.188C480.344 111.83 480.574 111.575 480.881 111.421L491.62 105.668C492.029 105.361 492.029 105.055 491.62 104.748L480.037 98.4577V94.3922Z" fill="white"/>
</g>
<defs>
<filter id="filter0_d_735_5814" x="-0.949219" y="203" width="106.32" height="106.319" filterUnits="userSpaceOnUse" color-interpolation-filters="sRGB">
<feFlood flood-opacity="0" result="BackgroundImageFix"/>
<feColorMatrix in="SourceAlpha" type="matrix" values="0 0 0 0 0 0 0 0 0 0 0 0 0 0 0 0 0 0 127 0" result="hardAlpha"/>
<feOffset dy="4"/>
<feGaussianBlur stdDeviation="5"/>
<feColorMatrix type="matrix" values="0 0 0 0 0.0885677 0 0 0 0 0.0395834 0 0 0 0 0.395833 0 0 0 0.25 0"/>
<feBlend mode="normal" in2="BackgroundImageFix" result="effect1_dropShadow_735_5814"/>
<feBlend mode="normal" in="SourceGraphic" in2="effect1_dropShadow_735_5814" result="shape"/>
</filter>
<filter id="filter1_d_735_5814" x="67.0508" y="99" width="74.0664" height="74.0684" filterUnits="userSpaceOnUse" color-interpolation-filters="sRGB">
<feFlood flood-opacity="0" result="BackgroundImageFix"/>
<feColorMatrix in="SourceAlpha" type="matrix" values="0 0 0 0 0 0 0 0 0 0 0 0 0 0 0 0 0 0 127 0" result="hardAlpha"/>
<feOffset dy="4"/>
<feGaussianBlur stdDeviation="5"/>
<feColorMatrix type="matrix" values="0 0 0 0 0.0885677 0 0 0 0 0.0395834 0 0 0 0 0.395833 0 0 0 0.25 0"/>
<feBlend mode="normal" in2="BackgroundImageFix" result="effect1_dropShadow_735_5814"/>
<feBlend mode="normal" in="SourceGraphic" in2="effect1_dropShadow_735_5814" result="shape"/>
</filter>
<filter id="filter2_d_735_5814" x="431.051" y="67" width="87.6797" height="86.5469" filterUnits="userSpaceOnUse" color-interpolation-filters="sRGB">
<feFlood flood-opacity="0" result="BackgroundImageFix"/>
<feColorMatrix in="SourceAlpha" type="matrix" values="0 0 0 0 0 0 0 0 0 0 0 0 0 0 0 0 0 0 127 0" result="hardAlpha"/>
<feMorphology radius="3" operator="dilate" in="SourceAlpha" result="effect1_dropShadow_735_5814"/>
<feOffset dx="5" dy="5"/>
<feGaussianBlur stdDeviation="4"/>
<feColorMatrix type="matrix" values="0 0 0 0 0 0 0 0 0 0 0 0 0 0 0 0 0 0 0.2 0"/>
<feBlend mode="normal" in2="BackgroundImageFix" result="effect1_dropShadow_735_5814"/>
<feBlend mode="normal" in="SourceGraphic" in2="effect1_dropShadow_735_5814" result="shape"/>
</filter>
<linearGradient id="paint0_linear_735_5814" x1="231.869" y1="227.221" x2="341.44" y2="77.0972" gradientUnits="userSpaceOnUse">
<stop stop-color="#0D6EB7"/>
<stop offset="1" stop-color="#00A4E8"/>
</linearGradient>
<linearGradient id="paint1_linear_735_5814" x1="337.539" y1="93.8642" x2="297.376" y2="50.9717" gradientUnits="userSpaceOnUse">
<stop stop-color="#00A2E7"/>
<stop offset="0.0001" stop-color="#09A4E6"/>
<stop offset="1" stop-color="#01A0E4"/>
</linearGradient>
<linearGradient id="paint2_linear_735_5814" x1="255.148" y1="91.292" x2="311.805" y2="57.9907" gradientUnits="userSpaceOnUse">
<stop stop-color="#0491D7"/>
<stop offset="0.0001" stop-color="#098CCD"/>
<stop offset="1" stop-color="#00A3E7"/>
</linearGradient>
<clipPath id="clip0_735_5814">
<rect width="531" height="385" fill="white"/>
</clipPath>
</defs>
</svg>
