<svg width="422" height="317" viewBox="0 0 422 317" fill="none" xmlns="http://www.w3.org/2000/svg">
<g clip-path="url(#clip0_745_5815)">
<path opacity="0.04" d="M246.11 310.206C208.538 314.425 143.813 304.79 90.4238 266.663C37.0346 228.536 83.9503 152.863 120.924 153.163C132.412 153.287 76.0192 135.522 109.746 122.076C150.699 105.748 134.199 49.0028 184.619 35.6219C235.038 22.2411 252.639 44.5876 274.264 50.3194C315.025 61.3249 310.265 25.5202 358.416 61.5056C389.145 84.4711 409.65 134.17 386.268 190.552C362.886 246.934 336.475 300.059 246.11 310.206Z" fill="#276ED8"/>
<path d="M116.89 274C105.903 274 97 282.904 97 293.89C97 304.876 105.903 313.78 116.89 313.78C127.876 313.78 136.779 304.876 136.779 293.89C136.779 282.904 127.876 274 116.89 274ZM116.89 308.824C108.633 308.824 101.946 302.137 101.946 293.881C101.946 285.624 108.633 278.937 116.89 278.937C125.146 278.937 131.833 285.624 131.833 293.881C131.833 302.137 125.146 308.824 116.89 308.824Z" fill="#66D6A0"/>
<path d="M280.046 256.979H252.261C251.168 256.979 250.273 256.094 250.273 254.991C250.273 253.897 251.158 253.003 252.261 253.003H280.046C281.14 253.003 282.034 253.888 282.034 254.991C282.034 256.085 281.14 256.979 280.046 256.979Z" fill="#66D6A0"/>
<path d="M280.046 266.9H252.261C251.168 266.9 250.273 266.015 250.273 264.912C250.273 263.818 251.158 262.924 252.261 262.924H280.046C281.14 262.924 282.034 263.809 282.034 264.912C282.034 266.006 281.14 266.9 280.046 266.9Z" fill="#66D6A0"/>
<path opacity="0.2" d="M120.951 174.795L138 171.565V156.167L120.951 153.206C119.642 146.879 117.157 140.957 113.736 135.708L123.517 121.251L112.694 110.349L98.5582 120.417C93.3474 116.971 87.4952 114.495 81.1888 113.175L77.9821 96.0005H62.6971L59.7577 113.175C53.478 114.495 47.5992 116.998 42.3884 120.444L28.0653 110.591L17.2429 121.494L27.2369 135.734C23.8165 140.984 21.358 146.906 20.0487 153.232L3 156.463V171.861L20.0487 174.822C21.358 181.175 23.8432 187.071 27.2637 192.32L17.4834 206.75L28.3058 217.652L42.4685 207.584C47.6793 211.03 53.5582 213.533 59.8379 214.826L63.0445 232H78.3295L81.269 214.826C87.5754 213.506 93.4275 211.003 98.6383 207.557L112.961 217.41L123.784 206.507L113.79 192.267C117.183 187.044 119.642 181.149 120.951 174.795ZM70.5 195.901C53.0237 195.901 38.861 181.606 38.861 164.027C38.861 146.449 53.0237 132.154 70.5 132.154C87.9762 132.154 102.139 146.422 102.139 164.027C102.139 181.633 87.9762 195.901 70.5 195.901Z" fill="#84B5FF"/>
<path d="M224 55.1223V211.879C224 216.694 227.477 221 231.759 221H338.241C342.523 221 346 216.694 346 211.879V55.1223C346 50.3067 342.523 46.0005 338.241 46.0005H231.751C227.468 46.0099 224 50.3067 224 55.1223ZM338.35 216.128H285H231.65C230.063 216.128 228.778 214.683 228.778 212.898V54.1025C228.778 52.3179 230.063 50.8732 231.65 50.8732H338.35C339.937 50.8732 341.222 52.3179 341.222 54.1025V212.898C341.222 214.683 339.937 216.128 338.35 216.128Z" fill="#66D6A0"/>
<path d="M269.593 92.3832C269.593 93.363 268.804 94.1525 267.824 94.1525C266.844 94.1525 266.055 93.363 266.055 92.3832C266.055 91.4035 266.844 90.614 267.824 90.614C268.794 90.614 269.593 91.4035 269.593 92.3832Z" fill="#84B5FF"/>
<path d="M265 91.5007C265 92.3314 264.331 93.0007 263.5 93.0007C262.669 93.0007 262 92.3314 262 91.5007C262 90.6701 262.669 90.0007 263.5 90.0007C264.331 90.0007 265 90.6701 265 91.5007Z" fill="#84B5FF"/>
<path d="M302 103.281V245.386C302 249.041 299.026 252 295.355 252H77.6451C73.9737 252 71 249.041 71 245.386V103.281C71 94.8498 77.8705 88.0005 86.3513 88.0005H286.649C295.129 88.0005 302 94.8498 302 103.281Z" fill="white" stroke="#84B5FF" stroke-miterlimit="10"/>
<path d="M302 102.396V103H71V102.396C71 94.4535 77.8705 88.0005 86.3513 88.0005H286.649C295.129 88.0005 302 94.4535 302 102.396Z" fill="#84B5FF"/>
<path d="M302 222V245.519C302 249.1 299.026 252 295.355 252H77.6451C73.9737 252 71 249.1 71 245.519V222H302Z" fill="#EDF1FF"/>
<path d="M302 103.281V245.386C302 249.041 299.026 252 295.355 252H77.6451C73.9737 252 71 249.041 71 245.386V103.281C71 94.8498 77.8705 88.0005 86.3513 88.0005H286.649C295.129 88.0005 302 94.8498 302 103.281Z" stroke="#84B5FF" stroke-miterlimit="10"/>
<g filter="url(#filter0_d_745_5815)">
<rect x="204" y="164" width="110" height="110" rx="6" fill="#06B25F"/>
</g>
<path d="M249.593 250.7C239.964 250.644 232 230.989 232 220.98C232 204.629 244.266 201.049 248.993 201.049C251.124 201.049 253.398 201.886 255.405 202.626C256.808 203.142 258.259 203.676 259.066 203.676C259.549 203.676 260.687 203.222 261.692 202.824C263.836 201.971 266.503 200.91 269.609 200.91C269.614 200.91 269.622 200.91 269.627 200.91C271.946 200.91 278.978 201.419 283.205 207.768L284.196 209.256L282.77 210.331C280.734 211.868 277.02 214.67 277.02 220.221C277.02 226.795 281.227 229.324 283.248 230.54C284.14 231.077 285.064 231.63 285.064 232.84C285.064 233.631 278.756 250.602 269.596 250.602C267.354 250.602 265.77 249.928 264.372 249.334C262.958 248.732 261.738 248.214 259.723 248.214C258.701 248.214 257.409 248.697 256.041 249.21C254.172 249.908 252.056 250.7 249.656 250.7H249.593Z" fill="white"/>
<path d="M270.58 186C270.818 194.602 264.667 200.57 258.522 200.196C257.51 193.331 264.666 186 270.58 186Z" fill="white"/>
<g filter="url(#filter1_d_745_5815)">
<rect x="91" y="121" width="65.6797" height="64.5473" rx="6" fill="#276ED8"/>
</g>
<path d="M113.359 163.948L98.3246 155.817C97.353 155.254 96.8672 154.385 96.8672 153.208C96.8672 151.981 97.3786 151.112 98.4013 150.6L113.359 142.393V145.384C113.359 145.589 113.283 145.87 113.129 146.228C112.976 146.535 112.746 146.765 112.439 146.918L101.776 152.748C101.367 153.055 101.367 153.362 101.776 153.669L113.359 159.882V163.948Z" fill="white"/>
<path d="M126.166 139.938H129.157L121.717 165.405C121.512 166.07 121.052 166.402 120.336 166.402H118.418L126.166 139.938Z" fill="white"/>
<path d="M133.986 142.393L148.944 150.6C150.018 151.163 150.555 152.032 150.555 153.208C150.555 154.385 150.018 155.228 148.944 155.74L133.986 163.948V160.956C133.986 160.803 134.037 160.547 134.139 160.189C134.293 159.831 134.523 159.575 134.83 159.422L145.569 153.669C145.978 153.362 145.978 153.055 145.569 152.748L133.986 146.458V142.393Z" fill="white"/>
<path d="M384.772 221.976H356.988C355.894 221.976 355 221.092 355 219.988C355 218.894 355.885 218 356.988 218H384.772C385.866 218 386.76 218.885 386.76 219.988C386.76 221.082 385.866 221.976 384.772 221.976Z" fill="#66D6A0"/>
<path d="M384.772 231.897H356.988C355.894 231.897 355 231.013 355 229.909C355 228.815 355.885 227.921 356.988 227.921H384.772C385.866 227.921 386.76 228.806 386.76 229.909C386.76 231.003 385.866 231.897 384.772 231.897Z" fill="#66D6A0"/>
<g filter="url(#filter2_d_745_5815)">
<path d="M408.687 163.322L414.544 165.375L417.281 160.65L412.523 156.688C413.239 154.508 413.525 152.233 413.398 150.022L419 147.333L417.584 142.051L411.424 142.624C410.422 140.635 409.037 138.821 407.334 137.294L409.387 131.439L404.66 128.703L400.698 133.46C398.517 132.744 396.241 132.457 394.029 132.585L391.34 127L386.056 128.416L386.629 134.589C384.639 135.592 382.825 136.976 381.297 138.678L375.44 136.626L372.703 141.351L377.462 145.312C376.745 147.508 376.459 149.751 376.586 151.979L371 154.667L372.416 159.95L378.591 159.377C379.594 161.366 380.963 163.179 382.682 164.707L380.629 170.561L385.355 173.298L389.318 168.541C391.515 169.257 393.759 169.543 395.987 169.416L398.676 175L403.96 173.584L403.387 167.411C405.345 166.425 407.159 165.057 408.687 163.322ZM389.318 160.793C383.907 157.674 382.061 150.754 385.18 145.344C388.3 139.935 395.223 138.089 400.634 141.208C406.045 144.326 407.891 151.247 404.772 156.656C401.653 162.066 394.729 163.911 389.318 160.793Z" fill="#84B5FF"/>
</g>
<g filter="url(#filter3_d_745_5815)">
<path d="M190.918 40.0802L199 38.56V31.3138L190.918 29.9203C190.297 26.9432 189.119 24.1562 187.497 21.6859L192.134 14.8831L187.003 9.75242L180.302 14.4903C177.831 12.8688 175.057 11.7033 172.067 11.0826L170.547 3.00024H163.301L161.907 11.0826C158.93 11.7033 156.143 12.8815 153.673 14.503L146.883 9.86644L141.752 14.9971L146.49 21.6986C144.869 24.1689 143.703 26.9559 143.082 29.9329L135 31.4531V38.6994L143.082 40.0929C143.703 43.0826 144.881 45.8569 146.503 48.3272L141.866 55.1174L146.997 60.2481L153.711 55.5101C156.181 57.1317 158.968 58.3098 161.945 58.9179L163.466 67.0002H170.712L172.105 58.9179C175.095 58.2972 177.869 57.119 180.34 55.4975L187.13 60.1341L192.26 55.0034L187.523 48.3019C189.131 45.8443 190.297 43.0699 190.918 40.0802ZM167 50.0121C158.715 50.0121 152.001 43.2853 152.001 35.0129C152.001 26.7405 158.715 20.0137 167 20.0137C175.285 20.0137 181.999 26.7279 181.999 35.0129C181.999 43.2979 175.285 50.0121 167 50.0121Z" fill="#276ED8"/>
</g>
</g>
<defs>
<filter id="filter0_d_745_5815" x="198" y="158" width="132" height="132" filterUnits="userSpaceOnUse" color-interpolation-filters="sRGB">
<feFlood flood-opacity="0" result="BackgroundImageFix"/>
<feColorMatrix in="SourceAlpha" type="matrix" values="0 0 0 0 0 0 0 0 0 0 0 0 0 0 0 0 0 0 127 0" result="hardAlpha"/>
<feMorphology radius="3" operator="dilate" in="SourceAlpha" result="effect1_dropShadow_745_5815"/>
<feOffset dx="5" dy="5"/>
<feGaussianBlur stdDeviation="4"/>
<feColorMatrix type="matrix" values="0 0 0 0 0 0 0 0 0 0 0 0 0 0 0 0 0 0 0.2 0"/>
<feBlend mode="normal" in2="BackgroundImageFix" result="effect1_dropShadow_745_5815"/>
<feBlend mode="normal" in="SourceGraphic" in2="effect1_dropShadow_745_5815" result="shape"/>
</filter>
<filter id="filter1_d_745_5815" x="85" y="115" width="87.6797" height="86.5474" filterUnits="userSpaceOnUse" color-interpolation-filters="sRGB">
<feFlood flood-opacity="0" result="BackgroundImageFix"/>
<feColorMatrix in="SourceAlpha" type="matrix" values="0 0 0 0 0 0 0 0 0 0 0 0 0 0 0 0 0 0 127 0" result="hardAlpha"/>
<feMorphology radius="3" operator="dilate" in="SourceAlpha" result="effect1_dropShadow_745_5815"/>
<feOffset dx="5" dy="5"/>
<feGaussianBlur stdDeviation="4"/>
<feColorMatrix type="matrix" values="0 0 0 0 0 0 0 0 0 0 0 0 0 0 0 0 0 0 0.2 0"/>
<feBlend mode="normal" in2="BackgroundImageFix" result="effect1_dropShadow_745_5815"/>
<feBlend mode="normal" in="SourceGraphic" in2="effect1_dropShadow_745_5815" result="shape"/>
</filter>
<filter id="filter2_d_745_5815" x="361" y="121" width="68" height="68" filterUnits="userSpaceOnUse" color-interpolation-filters="sRGB">
<feFlood flood-opacity="0" result="BackgroundImageFix"/>
<feColorMatrix in="SourceAlpha" type="matrix" values="0 0 0 0 0 0 0 0 0 0 0 0 0 0 0 0 0 0 127 0" result="hardAlpha"/>
<feOffset dy="4"/>
<feGaussianBlur stdDeviation="5"/>
<feColorMatrix type="matrix" values="0 0 0 0 0.0885677 0 0 0 0 0.0395834 0 0 0 0 0.395833 0 0 0 0.25 0"/>
<feBlend mode="normal" in2="BackgroundImageFix" result="effect1_dropShadow_745_5815"/>
<feBlend mode="normal" in="SourceGraphic" in2="effect1_dropShadow_745_5815" result="shape"/>
</filter>
<filter id="filter3_d_745_5815" x="125" y="-2.99976" width="84" height="84" filterUnits="userSpaceOnUse" color-interpolation-filters="sRGB">
<feFlood flood-opacity="0" result="BackgroundImageFix"/>
<feColorMatrix in="SourceAlpha" type="matrix" values="0 0 0 0 0 0 0 0 0 0 0 0 0 0 0 0 0 0 127 0" result="hardAlpha"/>
<feOffset dy="4"/>
<feGaussianBlur stdDeviation="5"/>
<feColorMatrix type="matrix" values="0 0 0 0 0.0885677 0 0 0 0 0.0395834 0 0 0 0 0.395833 0 0 0 0.25 0"/>
<feBlend mode="normal" in2="BackgroundImageFix" result="effect1_dropShadow_745_5815"/>
<feBlend mode="normal" in="SourceGraphic" in2="effect1_dropShadow_745_5815" result="shape"/>
</filter>
<clipPath id="clip0_745_5815">
<rect width="422" height="317" fill="white"/>
</clipPath>
</defs>
</svg>
