<svg width="549" height="404" viewBox="0 0 549 404" fill="none" xmlns="http://www.w3.org/2000/svg">
<g clip-path="url(#clip0_924_5677)">
<path opacity="0.06" d="M457.41 324.622C339.471 385.862 183.11 424.114 88.4276 388.366C-6.25508 352.618 2.63098 211.036 72.4358 129.732C85.087 118.009 88.781 104.561 97.2446 90.8836C115.694 60.9538 146.708 69.6837 187.391 54.6137C157.049 71.7051 211.898 32.7878 187.391 54.6137C200.665 47.224 218.401 26.0777 242.076 16.3421C294.438 -5.18977 445.16 -3.54425 477.229 30.1727C509.298 63.8896 618.907 240.763 457.41 324.622Z" fill="#276ED8"/>
<mask id="mask0_924_5677" style="mask-type:alpha" maskUnits="userSpaceOnUse" x="18" y="2" width="526" height="401">
<path d="M457.41 324.622C339.471 385.862 183.11 424.114 88.4276 388.366C-6.25508 352.618 2.63098 211.036 72.4358 129.732C85.087 118.009 88.781 104.561 97.2446 90.8836C115.694 60.9538 146.708 69.6837 187.391 54.6137C157.049 71.7051 211.898 32.7878 187.391 54.6137C200.665 47.224 218.401 26.0777 242.076 16.3421C294.438 -5.18977 445.16 -3.54425 477.229 30.1727C509.298 63.8896 618.907 240.763 457.41 324.622Z" fill="#276ED8"/>
</mask>
<g mask="url(#mask0_924_5677)">
<path d="M199.506 258.525C214.624 270.272 236.566 275.029 253.469 265.94C258.771 263.096 263.652 258.551 264.702 252.705C265.962 245.662 261.474 238.38 263.364 231.47C265.017 225.357 271.054 221.61 275.542 217.092C282.051 210.554 285.831 201.438 285.805 192.269C285.778 183.1 281.999 174.011 275.463 167.499C269.925 161.972 262.708 158.41 256.356 153.786C251.343 150.118 246.828 145.361 244.44 139.594C242.078 133.906 244.02 130.558 244.361 124.977C245.07 113.044 242.104 99.7022 233.626 90.8255C222.655 79.2912 206.356 79.4773 191.947 82.4539C184.65 83.9422 176.593 86.2543 170.188 90.1877C167.459 91.862 165.648 93.9085 163.784 96.5927C163.181 97.4432 159.821 105.921 159.952 105.895C138.588 110.838 150.057 140.816 143.496 154.583C141.422 158.915 137.8 162.264 134.624 165.852C129.06 172.177 124.703 179.778 123.338 188.123C121.974 196.468 123.837 205.557 129.375 211.883C130.267 212.919 131.317 213.929 131.659 215.258C132.183 217.251 131.081 219.244 130.267 221.131C125.412 232.426 130.976 245.502 137.984 255.575C142.682 262.352 148.22 268.783 155.412 272.717C166.881 279.016 181.369 278.032 193.18 272.398" fill="url(#paint0_linear_924_5677)"/>
<path opacity="0.2" d="M192.828 96.829C186.793 93.3265 179.091 97.2211 175.361 103.886C171.652 110.552 166.824 116.485 167.702 124.405C168.141 128.326 168.865 132.325 168.207 136.22C166.539 146.309 161.316 153.681 155.874 161.653C151.266 168.397 149.774 177.362 148.589 185.936C147.887 191.059 147.316 196.705 149.598 201.122C152.495 206.716 155.808 213.93 158.924 219.341C164.059 228.202 161.053 236.854 167.263 244.695C169.107 246.996 171.696 248.198 174.241 249.165C179.398 251.073 184.731 252.197 190.129 252.537C194.737 252.824 199.411 252.485 203.756 250.681C214.421 246.211 221.553 231.94 219.622 218.661C218.152 208.598 212.336 200.233 209.571 190.536C207.596 183.583 207.267 175.977 208.606 168.815C210.318 159.771 214.684 150.779 212.797 141.787" fill="#464646"/>
<path d="M212.176 276.384C212.921 273.428 227.891 198.434 227.891 198.434C227.891 198.434 187.969 186.634 162.422 198.434L178.783 277.03L212.176 276.384Z" fill="#66D6A0"/>
<path opacity="0.83" d="M200.611 280.51C201.066 280.206 202.642 279.152 204.104 278.133C205.83 276.921 206.897 275.835 206.897 275.835C206.897 275.835 207.01 273.524 207.1 272.886C207.192 272.242 210.408 291.785 216.697 253.296C217.534 248.177 222.38 229.753 222.43 226.356L222.431 226.357C222.431 226.357 218.235 223.829 216.241 231.073C214.241 238.323 213.512 253.062 213.512 253.062C213.512 253.062 209.949 264.559 205.266 264.112C205.266 264.112 208.067 272.418 205.974 276.089C205.573 276.787 201.42 279.928 200.611 280.51Z" fill="#4CCC8E"/>
<path d="M184.344 193.848H188.529C188.529 193.848 187.195 197.452 188.851 198.355C192.392 200.286 192.713 200.286 197.542 200.286C200.409 200.286 202.371 194.492 202.371 194.492L205.912 195.136C205.912 195.136 202.176 201.943 197.542 203.506C194.326 204.59 191.816 205.157 188.851 203.506C185.412 201.591 184.344 193.848 184.344 193.848Z" fill="#4CCC8E"/>
<path d="M214.223 233.288C214.223 233.288 184.206 236.393 175.914 230.183C175.939 230.183 186.267 255.048 214.223 233.288Z" fill="#4CCC8E"/>
<path d="M213.602 277.69C213.602 277.69 237.884 328.589 227.977 490.576C227.977 490.576 217.525 492.787 214.223 491.669C214.223 491.669 173.664 371.99 191.531 280.224L213.602 277.69Z" fill="#D1CFD7"/>
<path d="M177.25 277.842C177.25 277.842 152.969 328.741 162.875 490.728C162.875 490.728 173.328 492.939 176.63 491.821C176.63 491.821 206.596 351.048 199.322 280.376L177.25 277.842Z" fill="#D1CFD7"/>
<path d="M215.031 283.341C215.031 283.341 196.187 288.955 177.045 281.403L176.797 273.852C176.797 273.852 186.628 276.808 194.97 276.311C203.312 275.814 214.609 274.349 214.609 274.349L215.031 283.341Z" fill="#8F99B6"/>
<path d="M210.725 270.957C210.725 270.957 213.903 283.253 210.974 284.719C208.019 286.185 206.281 285.539 206.281 285.539L206.306 271.926L210.725 270.957Z" fill="#D1CFD7"/>
<path d="M180.535 269.979C180.535 269.979 178.549 281.48 181.057 283.616C184.458 286.498 184.632 284.163 184.632 284.163L184.955 270.948L180.535 269.979Z" fill="#D1CFD7"/>
<path d="M188.812 274.1L189.806 284.658L200.357 284.409C200.357 284.409 200.854 275.317 200.854 273.852L188.812 274.1ZM191.022 276.485H198.892L198.644 282.223L191.519 282.645L191.022 276.485Z" fill="#EAEAEA"/>
<path d="M193.883 200.268C197.682 200.268 203.615 199.125 203.615 195.3L202.647 182.606L201.803 171.502C201.803 167.702 198.724 164.622 194.926 164.622C193.014 164.622 191.301 165.392 190.06 166.634C188.818 167.876 188.049 169.59 188.049 171.502L187.205 182.606L186.385 193.263C185.243 199.722 193.883 200.268 193.883 200.268Z" fill="#FDA686"/>
<path d="M165.722 137.347C165.722 137.347 157.504 126.094 155.121 136.9C153.234 145.495 160.906 151.83 165.648 150.215C170.39 148.625 165.722 137.347 165.722 137.347Z" fill="#FBB79E"/>
<path d="M165.819 139.356C165.819 139.356 159.984 132.251 158.495 135.605C157.005 138.933 157.899 142.858 157.899 142.858C157.899 142.858 158.495 138.362 162.045 140.449C162.045 140.449 159.513 147.827 165.819 145.019C165.819 145.044 168.301 142.585 165.819 139.356Z" fill="#EF9F8A"/>
<path d="M225.881 137.347C225.881 137.347 234.099 126.094 236.482 136.9C238.394 145.495 230.697 151.83 225.955 150.215C221.213 148.625 225.881 137.347 225.881 137.347Z" fill="#FBB79E"/>
<path d="M225.54 139.365C225.54 139.365 231.349 132.26 232.839 135.614C234.328 138.943 233.459 142.867 233.459 142.867C233.459 142.867 232.839 138.371 229.289 140.458C229.289 140.458 231.821 147.836 225.515 145.029C225.515 145.053 223.057 142.594 225.54 139.365Z" fill="#EF9F8A"/>
<path d="M224.547 150.538C224.547 151.532 225.341 152.327 226.31 152.327C227.278 152.327 228.072 151.532 228.072 150.538C228.072 149.57 227.278 148.775 226.31 148.775C225.341 148.775 224.547 149.57 224.547 150.538Z" fill="white"/>
<path d="M164.086 149.596C164.086 150.565 164.88 151.36 165.849 151.36C166.817 151.36 167.611 150.565 167.611 149.596C167.611 148.628 166.817 147.833 165.849 147.833C164.88 147.833 164.086 148.628 164.086 149.596Z" fill="white"/>
<path d="M178.921 113.164C182.496 108.892 185.798 103.849 188.504 98.4091C197.765 111.972 214.826 121.931 228.705 126.85C229.152 130.501 225.869 137.856 225.869 141.582C225.869 163.293 209.93 176.136 192.328 175.738C181.024 175.483 165.961 163.293 165.961 141.582C165.961 135.273 166.582 128.914 168.022 123.026C172.044 120.269 175.743 116.965 178.921 113.164Z" fill="#FBB79E"/>
<path d="M196.047 148.858C196.047 148.858 192.298 155.217 188.227 148.734L196.047 148.858Z" fill="#D8826C"/>
<path d="M216.823 126.421C216.823 126.421 209.623 116.708 198.5 124.98C198.5 124.98 207.487 121.378 216.823 126.421Z" fill="#99360A"/>
<path d="M185.471 124.806C185.471 124.806 177.054 116.41 167.992 126.371C167.992 126.371 175.838 121.378 185.471 124.806Z" fill="#99360A"/>
<path d="M181.922 156.597C182.021 156.87 183.784 160.894 186.664 164.099C190.14 167.949 195.18 170.11 200.766 161.838C201.958 160.099 203.149 157.839 204.366 155.057C204.366 155.057 202.429 156.324 199.599 157.118C195.155 158.385 188.551 160.745 183.958 158.261C183.238 158.261 182.543 157.069 181.922 156.597Z" fill="#712311"/>
<path d="M186.664 163.854C190.14 167.704 195.18 169.989 200.766 161.717C197.762 160.897 190.711 159.655 186.664 163.854Z" fill="#D5503B"/>
<path d="M183.984 157.27C191.284 165.418 196.597 161.121 199.626 156.6C195.181 157.867 188.577 159.133 183.984 157.27Z" fill="white"/>
<path d="M182.66 104.823C196.178 111.285 234.929 135.149 234.929 124.953C237.045 122.858 236.734 121.003 237.045 120.501C237.303 120.064 237.019 119.518 236.734 119.038C239.997 113.73 236.117 98.2282 230.198 95.4116C224.278 92.5951 218.107 89.1665 211.645 87.5508C208.362 86.7429 204.94 86.8123 201.403 87.5514C197.865 88.291 184.495 96.0466 182.66 97.9244" fill="url(#paint1_linear_924_5677)"/>
<path d="M152.457 130.023C160.56 131.527 171.031 124.871 177.431 119.753C183.831 114.635 187.643 106.695 187.49 98.7906C187.463 96.5953 186.791 93.9989 184.64 93.262C183.894 93.0009 183.059 93.0378 182.256 93.1252C177.349 93.6297 172.777 95.962 169.079 99.1281C165.38 102.294 162.551 106.242 160.097 110.346C158.338 113.312 156.784 116.395 155.945 119.688C155.432 121.766 154.1 128.899 154.1 127.614" fill="url(#paint2_linear_924_5677)"/>
<path d="M200.773 134.544C200.773 138.795 204.225 142.267 208.504 142.267C212.783 142.267 216.234 138.819 216.234 134.544C216.234 130.293 212.783 126.821 208.504 126.821C204.225 126.821 200.773 130.293 200.773 134.544Z" fill="white"/>
<path d="M203.088 138.798C204.459 142.033 207.556 143.828 210.015 142.813C212.474 141.774 213.348 138.326 212.001 135.09C210.63 131.831 207.533 130.06 205.098 131.075C202.615 132.091 201.717 135.539 203.088 138.798Z" fill="#84B5FF"/>
<path d="M204.391 138.255C205.36 140.546 207.558 141.821 209.308 141.089C211.057 140.357 211.696 137.901 210.703 135.586C209.733 133.272 207.535 131.997 205.785 132.729C204.036 133.484 203.421 135.94 204.391 138.255Z" fill="#400404"/>
<path d="M202.522 134.381C202.782 135.019 203.728 135.208 204.626 134.83C205.525 134.452 206.045 133.625 205.785 133.011C205.525 132.374 204.579 132.185 203.68 132.563C202.782 132.94 202.262 133.767 202.522 134.381Z" fill="white"/>
<path d="M200.774 134.544C200.774 134.544 200.159 129.585 205.005 127.082C212.429 123.256 216.495 132.112 218.906 133.552C218.906 133.552 217.346 135.111 216.211 134.568C216.211 134.544 207.417 124.035 200.774 134.544Z" fill="#302725"/>
<path d="M186.664 135.608C186.664 139.882 183.212 143.33 178.933 143.33C174.678 143.33 171.203 139.882 171.203 135.608C171.203 131.357 174.654 127.909 178.933 127.909C183.189 127.885 186.664 131.357 186.664 135.608Z" fill="white"/>
<path d="M173.684 139.055C174.417 142.503 177.23 144.818 179.996 144.227C182.762 143.637 184.394 140.378 183.661 136.953C182.928 133.505 180.115 131.191 177.348 131.758C174.606 132.348 172.951 135.607 173.684 139.055Z" fill="#84B5FF"/>
<path d="M175.129 138.747C175.649 141.203 177.635 142.832 179.597 142.431C181.559 142.03 182.718 139.691 182.221 137.259C181.701 134.803 179.692 133.15 177.729 133.575C175.791 133.976 174.609 136.291 175.129 138.747Z" fill="#400404"/>
<path d="M174.018 134.593C174.16 135.254 175.105 135.632 176.098 135.42C177.115 135.207 177.8 134.499 177.682 133.837C177.54 133.176 176.618 132.798 175.602 133.011C174.585 133.223 173.876 133.932 174.018 134.593Z" fill="white"/>
<path d="M186.78 134.662C186.78 134.662 187.394 130.245 182.548 128.025C175.124 124.625 171.058 132.489 168.67 133.764C168.67 133.764 170.231 135.134 171.365 134.662C171.342 134.662 179.309 125.097 186.78 134.662Z" fill="#302725"/>
<g clip-path="url(#clip1_924_5677)">
<path d="M96.9357 204.517C96.9357 204.517 91.9957 200.892 91.379 200.022C90.5116 198.802 86.4218 193.761 82.1803 188.9C80.5701 187.056 78.1591 187.86 79.7184 190.569C81.0026 192.8 85.2912 197.746 86.8067 200.234C87.646 201.616 86.8462 201.765 86.6049 201.633C83.8314 200.097 78.2692 196.174 76.1781 194.375C73.4864 192.056 71.3249 194.124 73.8064 196.691C74.4219 197.327 77.2681 199.362 79.5133 201.169C81.3653 202.66 82.681 203.568 83.4764 204.382C84.8814 205.828 85.3102 206.693 83.222 206.288C80.0673 205.679 73.3536 202.75 72.4475 202.528C67.9801 201.448 68.3416 203.852 70.9327 205.264C72.1913 205.952 78.812 208.336 82.5226 209.848C83.1068 210.086 83.3617 210.777 82.1785 210.726L84.3377 212.209L91.206 215.897L96.9357 204.517Z" fill="#FBB79E"/>
<path d="M95.0304 192.856C94.0525 195.117 95.8796 200.463 95.9553 201.659C96.0327 202.884 95.3347 203.304 94.2735 202.51C92.3438 201.063 93.1801 205.488 92.3139 207.025C92.2471 207.141 92.1667 207.219 92.0743 207.27C91.9135 207.601 91.7514 207.958 91.607 208.309C90.8895 210.08 91.3519 211.689 91.3519 211.689C91.3519 211.689 88.7678 211.28 84.158 210.879C82.748 210.757 79.5511 210.567 78.2113 210.474C75.3623 210.283 72.9357 210.201 72.0522 210.389C70.4994 210.716 70.1634 212.639 72.6447 212.995C76.0282 213.479 81.2438 213.964 83.5797 214.648C85.414 215.187 88.6037 217.139 90.7649 217.905C92.9261 218.671 95.3631 219.64 96.4075 220.27C97.4519 220.901 101.302 223.871 101.302 223.871L105.863 217.671L106.237 217.163C104.546 215.887 102.1 213.936 101.841 213.127C101.438 211.879 101.961 208.582 101.943 208.079C101.926 207.32 101.952 206.396 102.009 205.261C102.078 203.869 102.101 202.316 100.726 200.568C98.9892 198.355 97.7374 194.893 98.1393 190.83C97.6374 190.561 96.2656 189.996 95.0304 192.856Z" fill="#FBB79E"/>
<path d="M81.3125 192.328C81.3125 192.328 81.7449 192.399 82.4588 191.944C83.1727 191.49 83.3004 190.906 83.3004 190.906C83.3004 190.906 82.9654 191.2 82.3065 191.617C81.6475 192.034 81.3125 192.328 81.3125 192.328Z" fill="#EC8B56" fill-opacity="0.3"/>
<path d="M76.0555 197.776C76.0555 197.776 76.492 197.717 77.0408 197.077C77.5917 196.434 77.5439 195.84 77.5439 195.84C77.5439 195.84 77.3062 196.219 76.7997 196.808C76.2903 197.395 76.0555 197.776 76.0555 197.776Z" fill="#EC8B56" fill-opacity="0.3"/>
<path d="M85.0886 197.104C85.0886 197.104 85.4936 196.976 86.1978 196.509C86.899 196.041 86.9947 195.681 86.9947 195.681C86.9947 195.681 86.6895 195.754 86.0403 196.183C85.391 196.612 85.0886 197.104 85.0886 197.104Z" fill="#EC8B56" fill-opacity="0.3"/>
<path d="M81.2642 201.707C81.2642 201.707 81.6017 201.447 82.0963 200.762C82.5909 200.078 82.556 199.709 82.556 199.709C82.556 199.709 82.2952 199.883 81.834 200.51C81.3714 201.145 81.2642 201.707 81.2642 201.707Z" fill="#EC8B56" fill-opacity="0.3"/>
<path d="M73.0366 205.82C73.0366 205.82 73.4367 205.643 73.7861 204.87C74.1333 204.099 73.9222 203.541 73.9222 203.541C73.9222 203.541 73.8028 203.971 73.4809 204.682C73.156 205.39 73.0366 205.82 73.0366 205.82Z" fill="#EC8B56" fill-opacity="0.3"/>
<path d="M75.0176 212.801C75.0176 212.801 75.1551 212.769 75.1672 211.926C75.1762 211.081 74.9979 210.827 74.9979 210.827C74.9979 210.827 74.8197 211.094 74.8086 211.873C74.7945 212.651 75.0176 212.801 75.0176 212.801Z" fill="#EC8B56" fill-opacity="0.3"/>
<path d="M78.9395 213.191C78.9395 213.191 79.077 213.16 79.089 212.317C79.0981 211.472 78.9198 211.217 78.9198 211.217C78.9198 211.217 78.7445 211.487 78.7334 212.266C78.7172 213.046 78.9395 213.191 78.9395 213.191Z" fill="#EC8B56" fill-opacity="0.3"/>
<path d="M78.8622 207.991C78.8622 207.991 79.1403 207.669 79.4875 206.899C79.8347 206.128 79.7234 205.776 79.7234 205.776C79.7234 205.776 79.5042 206 79.1793 206.708C78.8544 207.417 78.8622 207.991 78.8622 207.991Z" fill="#EC8B56" fill-opacity="0.3"/>
<path d="M82.391 206.103C82.391 206.103 84.0888 207.412 84.6785 206.902C85.2989 206.37 84.1529 205.137 84.1529 205.137C84.1529 205.137 84.5475 206.229 83.8831 206.262C83.2217 206.297 82.391 206.103 82.391 206.103Z" fill="#EC8B56" fill-opacity="0.3"/>
<path d="M85.4746 200.984C85.4746 200.984 86.8718 202.465 87.4846 201.987C88.1302 201.482 86.8036 200.24 86.8036 200.24C86.8036 200.24 87.4103 201.218 86.9511 201.301C86.3044 201.416 85.4746 200.984 85.4746 200.984Z" fill="#EC8B56" fill-opacity="0.3"/>
<path d="M81.6641 210.702C81.6641 210.702 83.2928 211.328 83.4086 210.822C83.5245 210.317 82.5221 209.859 82.5221 209.859C82.5221 209.859 82.9251 210.293 82.744 210.489C82.5659 210.688 81.6641 210.702 81.6641 210.702Z" fill="#EC8B56" fill-opacity="0.3"/>
<path d="M95.5859 219.408C95.5859 219.408 96.9633 219.331 97.7186 218.454C98.4739 217.576 98.9101 217.132 98.9101 217.132C98.9101 217.132 98.723 218.542 97.6103 219.148C96.5026 219.752 95.5859 219.408 95.5859 219.408Z" fill="#EC8B56" fill-opacity="0.3"/>
<path d="M86.4459 213.871C86.4459 213.871 87.5762 210.806 88.4362 208.289C89.2941 205.774 89.335 202.512 89.335 202.512C89.335 202.512 89.8026 203.685 89.404 206.222C89.0605 208.391 88.7506 209.564 88.0106 211.465C87.3486 213.166 86.4459 213.871 86.4459 213.871Z" fill="#EC8B56" fill-opacity="0.3"/>
<path d="M91.5035 203.367C91.5035 203.367 90.6291 206.625 90.4786 208.781C90.2875 211.539 91.5103 214.444 91.5103 214.444C91.5103 214.444 90.9578 210.466 91.0789 208.742C91.1999 207.017 91.5035 203.367 91.5035 203.367Z" fill="#EC8B56" fill-opacity="0.3"/>
<path d="M98.1052 193.501L97.6393 193.488C97.6393 193.488 97.5529 191.108 98.1394 190.839C98.1708 191.411 98.1052 193.501 98.1052 193.501Z" fill="#FFD6BB"/>
</g>
<path d="M164.462 217.845C164.462 217.845 138.954 260.455 133.764 261.458C129.583 262.287 109.958 236.931 102.458 227.642C100.881 224.506 99.4835 222.898 99.4835 222.898L105.544 212.973L109.998 217.194L132.001 240.081C132.001 240.081 157.856 196.777 164.952 198.597C172.031 200.465 164.462 217.845 164.462 217.845Z" fill="#66D6A0"/>
<path d="M134.585 256.193C135.111 256.048 132.109 261.599 133.813 261.092C135.827 260.485 136.039 259.31 136.039 259.31C136.039 259.31 137.095 258.548 137.375 257.974C137.658 257.395 145.836 245.06 150.65 239.254C155.391 236.682 163.498 213.102 164.579 209.912L164.698 209.555C164.698 209.555 161.081 211.921 156.976 218.138C152.864 224.359 147.685 238.043 147.685 238.043C147.685 238.043 138.914 257.625 134.585 255.748C134.585 255.748 137.697 252.461 134.585 255.275C133.99 255.808 135.533 255.895 134.585 256.193Z" fill="#4CCC8E"/>
<path d="M378.232 356.284H391.391V400.149H378.232V356.284Z" fill="#BEC1C4"/>
<path d="M376.036 393.586H395.773V430.867H376.036V393.586Z" fill="#7F8B96"/>
<path d="M362.877 351.897H411.109V360.661H362.877V351.897Z" fill="#D0D5D9"/>
<path d="M378.242 321.18H393.578V343.112H378.242V321.18Z" fill="#6F7275"/>
<path d="M424.272 340.932V347.517H441.545C445.134 347.517 448.268 346.775 450.613 344.308C452.91 341.89 454.154 338.705 454.871 334.276C455.326 331.427 454.967 329.391 454.967 328.889V303.628H448.388V329.104C448.388 331.259 448.531 336.79 445.612 339.831C444.464 341.028 443.411 340.932 441.545 340.932H424.272Z" fill="#D0D5D9"/>
<path d="M438.12 304.876V306.265C438.12 309.329 440.608 311.796 443.646 311.796H460.083C463.145 311.796 465.609 309.305 465.609 306.265V304.876C465.609 301.811 463.145 299.345 460.107 299.345H443.623C443.527 299.345 443.431 299.345 443.335 299.345C442.498 299.393 441.709 299.608 441.015 299.991C440.919 300.039 440.847 300.087 440.752 300.135C439.196 301.117 438.12 302.865 438.12 304.876Z" fill="#A3886F"/>
<path d="M347.539 340.932V347.517H330.959C327.371 347.517 324.236 346.774 321.892 344.308C319.595 341.89 317.992 338.705 317.298 334.276C316.844 331.426 316.868 329.391 316.868 328.888V303.628H323.447V329.104C323.447 331.259 323.662 336.79 326.557 339.831C327.706 341.028 329.093 340.932 330.959 340.932H347.539Z" fill="#C1C7CC"/>
<path d="M305.912 304.249C305.912 301.184 309.118 297.042 312.18 297.042H328.401C331.464 297.042 334.406 301.184 334.406 304.249V305.925C334.406 308.99 331.464 310.211 328.401 310.211H312.18C309.118 310.211 305.912 308.99 305.912 305.925V304.249Z" fill="#A3886F"/>
<path d="M345.367 330.996C345.367 334.061 347.855 336.527 350.893 336.527H423.122C426.184 336.527 428.648 334.037 428.648 330.996V236.777C428.648 233.712 426.184 231.246 423.122 231.246H350.893C347.831 231.246 345.367 233.736 345.367 236.777V330.996Z" fill="#A3886F"/>
<path d="M314.624 272.381C314.624 272.381 317.009 271.658 317.965 273.58C318.921 275.502 321.911 298.575 321.079 305.064C320.236 311.553 317.851 309.156 317.851 309.156C317.851 309.156 318.088 313 319.64 314.084L319.65 314.075C319.668 314.065 319.706 314.037 319.754 313.999C319.792 313.98 319.839 313.941 319.896 313.903H319.905C320.823 313.294 324.003 311.182 326.937 309.156C330.401 306.748 332.435 304.703 332.435 304.703C332.435 304.703 331.953 300.859 331.953 299.784C331.953 298.699 339.609 273.095 347.133 265.169C354.155 257.776 347.256 216.13 346.29 210.507L346.177 209.879C346.177 209.879 340.082 211.687 337.451 213.618C334.83 215.559 325.375 238.965 324.902 250.983C324.419 263 320.123 269.822 320.123 269.822C320.123 269.822 318.684 268.946 316.29 269.822L314.624 272.381Z" fill="url(#paint3_linear_924_5677)"/>
<path opacity="0.83" d="M319.077 313.194C320.021 312.589 323.287 310.491 326.301 308.478C329.859 306.087 331.949 304.056 331.949 304.056C331.949 304.056 331.454 300.238 331.454 299.17C331.454 298.093 339.319 272.663 347.048 264.792C354.261 257.449 347.174 216.087 346.182 210.503L346.066 209.879C346.066 209.879 340.971 216.087 338.764 228.438C336.548 240.799 339.678 265.151 339.678 265.151C339.678 265.151 335.265 284.844 324.395 285.203C324.395 285.203 333.515 298.178 329.917 304.689C329.227 305.927 320.74 312.05 319.077 313.194Z" fill="#3E64F9"/>
<path d="M417.77 261.042L420.967 251.105C420.967 251.105 426.009 251.711 432.603 259.039C432.603 259.039 432.365 262.55 434.367 267.211C434.367 267.211 442.392 272.088 445.702 277.814C449.011 283.54 450.438 284.247 454.908 281.762C456.094 281.105 457.156 278.519 457.983 274.924C459.224 269.49 459.932 261.75 459.742 254.837C459.579 249.135 458.799 244.004 457.201 241.188C457.201 241.188 454.353 239.42 452.875 236.492C452.783 236.536 452.682 236.578 452.589 236.63C451.958 236.909 452.98 237.102 452.854 236.662C450.854 236.077 447.014 232.339 447.014 232.339C447.014 232.339 439.417 226.697 435.195 218.229C430.981 209.771 430.261 208.704 430.261 208.704C430.261 208.704 429.003 208.035 427.255 207.507C425.88 207.088 424.194 206.768 422.567 206.926C422.567 206.926 393.113 240.423 417.77 261.042Z" fill="url(#paint4_linear_924_5677)"/>
<path d="M368.623 209.939C368.623 209.939 372.185 203.131 372.185 192.512L395.65 183.16C395.65 183.16 394.444 191.347 398.501 198.448C399.577 200.323 404.578 203.293 404.578 203.293C404.578 203.293 382.693 230.09 372.185 227.519C361.677 224.948 363.78 213.587 363.78 213.587C363.78 213.587 365.557 214.273 368.623 209.939Z" fill="#FF9B8B"/>
<path d="M401.465 201.864C401.465 201.864 388.933 213.391 378.149 214.038C366.594 214.73 368.5 205.864 368.5 205.864C368.5 205.864 363.276 212.625 364.767 217.947C366.268 223.268 377.675 223.533 386.474 219.988C395.273 216.452 403.688 202.702 403.688 202.702L401.465 201.864Z" fill="#CEC5FF"/>
<path opacity="0.83" d="M418.655 264.139L420.623 253.941C420.623 253.941 425.648 253.941 432.99 260.399C432.99 260.399 433.17 263.897 435.687 268.265C435.687 268.265 444.146 272.131 448.073 277.396C452 282.661 453.486 283.19 457.583 280.203C458.671 279.414 459.409 276.732 459.797 273.082L459.153 271.62V253.026C458.321 247.411 456.949 242.433 455.047 239.841C455.047 239.841 452.49 238.603 450.692 235.885C447.368 237.939 450.607 235.939 450.692 235.885C443.737 240.182 443.749 250.766 443.276 260.175C443.21 257.789 441.611 248.56 440.409 248.73C438.857 248.954 436.227 265.951 436.227 265.951C433.123 251.376 443.134 233.796 443.938 232.397C434.788 244.38 433.237 258.139 433.237 258.139L419.015 248.281C419.015 248.281 410.452 240.119 413.413 226.073C416.375 212.027 421.655 210.117 421.655 210.117C420.254 209.866 418.561 209.749 416.98 210.099C416.98 210.099 392 246.694 418.655 264.139Z" fill="#446EF7"/>
<path d="M350.53 274.169C350.53 274.169 354.132 293.029 349.443 313.453C349.443 313.453 346.556 315.437 346.194 317.965C346.194 317.965 346.194 317.984 346.184 318.013C345.841 320.531 345.435 322.418 345.435 322.418C345.435 322.418 345.107 324.118 344.021 325.921C343.821 326.264 343.706 326.665 343.668 327.104C343.496 328.974 344.564 331.339 344.564 331.339C344.564 331.339 346.737 336.949 369.304 338.933C391.871 340.927 409.388 345.258 409.388 345.258C409.388 345.258 413.002 341.203 410.515 337.769C410.515 337.769 412.104 333.877 411.923 332.608C411.742 331.339 403.431 316.887 405.595 306.765C407.768 296.644 412.531 291.09 417.048 271.334C417.048 271.334 418.936 264.896 419.118 263.446C419.299 262.006 420.405 253.521 420.405 253.521C420.405 253.521 411.437 257.541 414.21 232.596C416.974 207.65 423.728 207.707 425.055 206.829C425.055 206.829 425.513 207.268 419.118 205.408C419.118 205.408 415.439 206.295 411.646 204.969C407.853 203.643 404.157 201.864 404.157 201.864C404.157 201.864 382.446 220.499 372.411 219.307C360.956 217.952 369.037 205.408 369.037 205.408C369.037 205.408 361.842 206.81 357.992 207.707C354.132 208.613 351.141 208.544 351.141 208.544C351.141 208.544 347.133 209.434 344.564 210.475C341.068 211.891 340.657 221.387 341.857 241.63C343.058 261.872 350.53 274.169 350.53 274.169Z" fill="url(#paint5_linear_924_5677)"/>
<path d="M399.234 187.924C399.234 187.924 389.282 204.199 371.624 202.651C371.624 202.651 372.887 197.338 372.712 192.985C372.712 192.985 381.072 193.46 387.16 191.229C394.032 188.716 399.234 182.27 399.234 182.27L399.234 187.924Z" fill="url(#paint6_linear_924_5677)" fill-opacity="0.7"/>
<path d="M359.32 175.838C362.996 188.262 370.085 191.938 374.32 195.276C380.332 198.65 385.575 197.54 385.575 197.54C405.796 188.787 407.773 179.974 409.104 170.135C409.77 165.281 410.373 156.248 408.334 145.081C408.064 143.557 407.606 142.186 407.024 140.924C403.321 132.848 394.583 129.714 394.583 129.714C389.361 127.798 383.411 127.384 377.981 128.429C370.159 129.931 364.001 134.176 362.025 142.556C361.38 145.255 361.026 148.042 360.714 150.806C360.028 156.487 359.674 162.234 359.487 167.958C359.403 170.571 359.341 173.204 359.32 175.838Z" fill="#FFADA0"/>
<path d="M378.562 145.475C378.562 145.475 367.703 143.282 364.3 151.28C364.3 151.28 376.432 147.626 378.75 149.443L378.562 145.475Z" fill="#38368E"/>
<path d="M390.107 146.656C390.107 146.656 400.798 143.795 404.703 151.563C404.703 151.563 392.362 148.681 390.169 150.623L390.107 146.656Z" fill="#38368E"/>
<path d="M402.136 159.499C401.912 162.837 398.731 165.369 395.035 165.122C391.338 164.876 388.516 161.964 388.74 158.603C388.964 155.265 392.145 152.756 395.841 153.003C399.537 153.249 402.36 156.162 402.136 159.499Z" fill="white"/>
<mask id="mask1_924_5677" style="mask-type:alpha" maskUnits="userSpaceOnUse" x="388" y="152" width="15" height="14">
<path d="M402.136 159.499C401.912 162.837 398.731 165.369 395.035 165.122C391.338 164.876 388.516 161.964 388.74 158.603C388.964 155.265 392.145 152.756 395.841 153.003C399.537 153.249 402.36 156.162 402.136 159.499Z" fill="white"/>
</mask>
<g mask="url(#mask1_924_5677)">
<path d="M390.34 160.643C390.138 163.6 391.863 166.131 394.171 166.288C396.478 166.445 398.517 164.16 398.718 161.203C398.92 158.246 397.217 155.715 394.887 155.558C392.58 155.401 390.542 157.686 390.34 160.643Z" fill="#7F9EC9"/>
<path d="M391.553 160.733C391.419 162.838 392.629 164.63 394.264 164.742C395.899 164.854 397.355 163.242 397.49 161.136C397.624 159.03 396.415 157.238 394.779 157.126C393.144 156.991 391.688 158.627 391.553 160.733Z" fill="#38368E"/>
<path d="M391.593 157.105C391.548 157.665 392.198 158.18 393.049 158.247C393.9 158.315 394.617 157.889 394.662 157.307C394.707 156.724 394.035 156.231 393.183 156.164C392.355 156.119 391.638 156.545 391.593 157.105Z" fill="white" fill-opacity="0.8"/>
</g>
<path d="M378.214 158.976C377.996 162.267 374.902 164.751 371.306 164.512C367.71 164.272 364.963 161.395 365.181 158.104C365.399 154.791 368.494 152.329 372.09 152.568C375.686 152.808 378.432 155.685 378.214 158.976Z" fill="white"/>
<mask id="mask2_924_5677" style="mask-type:alpha" maskUnits="userSpaceOnUse" x="365" y="152" width="14" height="13">
<path d="M378.214 158.976C377.996 162.267 374.902 164.751 371.306 164.512C367.71 164.272 364.963 161.395 365.181 158.104C365.399 154.791 368.494 152.329 372.09 152.568C375.686 152.808 378.432 155.685 378.214 158.976Z" fill="white"/>
</mask>
<g mask="url(#mask2_924_5677)">
<path d="M367.185 160.505C366.989 163.382 368.667 165.845 370.912 165.997C373.157 166.15 375.14 163.927 375.336 161.05C375.532 158.173 373.854 155.71 371.609 155.558C369.364 155.405 367.381 157.628 367.185 160.505Z" fill="#7F9EC9"/>
<path d="M368.363 160.594C368.232 162.643 369.409 164.386 371 164.495C372.591 164.604 374.008 163.013 374.139 160.965C374.269 158.916 373.092 157.172 371.501 157.064C369.91 156.955 368.516 158.546 368.363 160.594Z" fill="#38368E"/>
<path d="M368.41 157.062C368.367 157.607 369.021 158.108 369.827 158.173C370.655 158.239 371.353 157.825 371.396 157.258C371.44 156.691 370.808 156.212 369.98 156.146C369.151 156.103 368.454 156.495 368.41 157.062Z" fill="white" fill-opacity="0.8"/>
</g>
<path d="M360.047 156.411C360.047 156.411 356.06 143.819 352.772 153.729C350.151 161.621 354.519 169.358 358.046 168.804C361.572 168.272 360.047 156.411 360.047 156.411Z" fill="#FFADA0"/>
<path d="M359.956 158.661C359.956 158.661 356.811 150.156 355.171 153.217C353.531 156.277 353.548 160.46 353.548 160.46C353.548 160.46 354.715 156.02 356.997 158.941C356.997 158.941 353.937 165.88 359.043 164.432C359.06 164.432 361.275 162.492 359.956 158.661Z" fill="#FF9B8B"/>
<path d="M408.002 156.427C408.002 156.427 412.488 142.784 416.187 153.52C419.135 162.071 414.221 170.43 410.254 169.853C406.287 169.277 408.002 156.427 408.002 156.427Z" fill="#FFADA0"/>
<path d="M408.074 158.401C408.074 158.401 411.466 149.526 413.234 152.72C415.003 155.914 414.984 160.278 414.984 160.278C414.984 160.278 413.726 155.646 411.265 158.693C411.265 158.693 414.565 165.934 409.059 164.423C409.059 164.423 406.67 162.399 408.074 158.401Z" fill="#FF9B8B"/>
<path d="M392.703 177.87C392.626 178.102 391.095 181.802 388.616 184.572C385.633 187.904 381.275 189.879 376.452 182.751C375.425 181.24 374.398 179.342 373.333 176.96C373.333 176.96 374.999 177.599 377.439 178.296C381.275 179.381 386.97 180.601 390.921 178.839C391.58 178.819 392.161 178.296 392.703 177.87Z" fill="#712311"/>
<path d="M388.617 184.612C385.634 187.944 381.276 189.901 376.453 182.772C379.029 182.075 385.131 180.99 388.617 184.612Z" fill="#D5503B"/>
<path d="M390.922 178.937C384.627 185.968 380.055 182.269 377.44 178.356C381.276 179.441 386.97 180.545 390.922 178.937Z" fill="white"/>
<path d="M377.31 169.315C377.31 169.315 382.92 178.414 389.182 169.3L377.31 169.315Z" fill="#D8826C"/>
<path d="M360.169 163.055C360.837 161.076 361.237 156.914 361.237 156.914C361.237 156.914 361.359 149.735 361.371 148.794C361.395 146.514 362.536 136.18 367.489 135.903C368.643 135.842 371.69 139.45 375.732 141.102C376.46 141.404 382.627 137.459 385.832 136.337C395.374 133.007 404.175 142.08 404.175 142.08C406.955 145.144 406.105 150.581 406.117 152.017C406.033 148.337 406.13 152.97 406.117 152.017C406.166 154.116 406.846 157.116 407.526 159.106C407.999 156.874 408.795 157.015 409.948 152.757C411.867 145.687 414.02 140.089 413.668 138.509L408.582 129.267C401.674 116.732 385.407 112.823 373.498 120.834L369.031 123.838C362.791 121.655 361.31 124.719 359.574 127.023C356.357 131.318 355.107 135.306 354.985 141.339C354.937 143.582 356.766 144.999 358.478 151.454C359.558 155.532 359.732 161.016 360.169 163.055Z" fill="#293AA1"/>
<path d="M424.366 128.822C420.262 136.664 412.979 130.258 410.284 124.479C403.655 110.231 395.668 112.451 395.668 112.451C379.316 99.8552 375.018 112.595 375.018 112.595C362.223 111.353 361.75 118.459 363.68 124.768C365.61 131.054 370.041 136.278 375.71 139.644C375.965 139.789 376.22 139.945 376.463 140.09C380.675 133.226 388.517 132.622 391.977 133.069C396.627 133.66 398.448 136.121 401.446 138.594C406.071 142.407 408.135 144.144 416.9 143.336C430.957 142.033 424.366 128.822 424.366 128.822Z" fill="#5A65BA"/>
<path d="M424.366 128.822C420.262 136.664 412.979 130.258 410.284 124.479C403.655 110.231 395.668 112.451 395.668 112.451C379.316 99.8552 375.018 112.595 375.018 112.595C362.223 111.353 361.75 118.459 363.68 124.768C365.61 131.054 370.041 136.278 375.71 139.644C375.965 139.789 376.22 139.945 376.463 140.09C379.595 131.826 387.813 131.078 391.285 130.813C393.373 130.656 397.137 131.018 400.038 133.262C407.929 139.366 408.123 144.132 416.9 143.324C430.957 142.033 424.366 128.822 424.366 128.822Z" fill="#293AA1"/>
<path d="M423.482 127.591C419.379 135.433 412.979 130.258 410.284 124.479C403.655 110.231 395.668 112.451 395.668 112.451C379.316 99.8552 375.018 112.595 375.018 112.595C362.223 111.353 361.75 118.459 363.68 124.768C365.61 131.054 370.041 136.278 375.71 139.644C375.965 139.789 376.22 139.945 376.463 140.09C379.595 131.826 387.255 125.396 390.739 125.13C392.827 124.973 396.59 125.335 399.492 127.591C407.382 133.696 408.135 144.132 416.9 143.324C431.494 141.955 424.1 127.501 423.482 127.591Z" fill="#5A65BA"/>
<path d="M376.03 139.756C376.03 139.756 365.185 105.464 384.742 106.592C384.742 106.592 392.043 109.043 397.742 113.787C397.742 113.787 384.995 109.849 380.671 115.526C375.237 122.666 374.84 131.845 376.03 139.756Z" fill="#293AA1"/>
<path d="M405.59 120.702C405.59 120.702 401.972 116.238 394.361 115.924C387.029 115.61 376.941 118.916 375.727 139.655C375.727 139.655 380.995 120.81 395.016 118.168C397.153 117.77 400.139 117.915 405.59 120.702Z" fill="#293AA1"/>
<path d="M330.008 347.852C330.008 351.3 332.807 354.078 336.229 354.078H431.186C434.631 354.078 437.406 351.276 437.406 347.852V342.776C437.406 339.328 434.607 336.551 431.186 336.551H336.253C332.807 336.551 330.032 339.352 330.032 342.776V347.852H330.008Z" fill="#A3886F"/>
<path d="M335.196 333.92C336.273 333.37 358.619 320.153 358.619 320.153L379.648 320.416V340.313C372.71 353.075 360.293 352.572 355.748 355.35C359.647 373.188 363.81 417.676 366.035 434.963H341.68C333.761 391.577 313.21 345.15 335.196 333.92Z" fill="#774E24"/>
<path d="M435.632 333.92C434.555 333.37 412.21 320.153 412.21 320.153L391.18 320.416V340.313C398.118 353.075 410.535 352.572 415.08 355.35C411.181 373.188 407.018 417.676 404.793 434.963H429.148C437.067 391.577 457.619 345.15 435.632 333.92Z" fill="#774E24"/>
<path d="M355.767 338.99C356.987 345.12 408.186 343.061 413.665 340.355C417.421 338.488 415.435 320.937 413.832 310.114C413.09 305.182 412.42 301.638 412.42 301.638L358.351 302.189C358.351 302.189 357.992 304.942 357.561 308.965C356.532 318.375 354.905 334.705 355.767 338.99Z" fill="#774E24"/>
<path d="M363.329 311.575C361.415 310.785 359.477 309.875 357.563 308.798C358.018 305.182 358.353 302.716 358.353 302.716L365.195 302.644C364.669 305.637 364.023 308.606 363.329 311.575Z" fill="#4D3114"/>
<path d="M370.51 313.419C372.495 313.946 374.481 314.353 376.443 314.616C382.855 315.574 388.979 315.358 394.53 314.568C396.253 314.329 397.951 314.018 399.578 313.658C399.195 309.708 399.124 305.733 398.908 301.782L373.213 301.998C372.448 305.853 371.562 309.66 370.51 313.419Z" fill="#4D3114"/>
<path d="M406.491 302.262L412.448 302.215C412.448 302.215 413.118 305.375 413.859 309.805C412.041 310.523 409.888 311.313 407.519 312.079C407.639 308.991 407.089 305.543 406.491 302.262Z" fill="#4D3114"/>
<path d="M376.442 314.616C382.854 315.574 388.979 315.359 394.529 314.568L395.391 303.578L377.327 302.142L376.442 314.616Z" fill="#C28C4B"/>
<path d="M411.184 276.784C443.602 255.546 458.458 268.217 458.458 268.217C462.645 275.903 461.576 289.592 411.184 287.99V276.784Z" fill="#4875F5"/>
<path d="M422.789 289.331C422.789 289.331 409.2 261.388 387.811 288.852L422.789 289.331Z" fill="#F5AE94"/>
<path d="M347.044 218.786C347.044 218.786 330.689 244.092 316.142 252.939C299.787 262.864 272.997 272.858 272.997 272.858C272.997 272.858 262.324 283.081 273.164 284.48C300.405 287.987 338.581 283.906 349.469 261.122C360.356 238.361 362.828 233.685 347.044 218.786Z" fill="#3B7BD7"/>
<path d="M265.905 288.877C267.532 281.263 272.844 275.66 279.16 275.66C285.476 275.66 290.787 281.263 292.414 288.877H265.905Z" fill="#22272E"/>
<path d="M286.365 282.578C286.365 284.302 288.183 285.715 290.456 285.715C292.729 285.715 294.547 284.302 294.547 282.578C294.547 280.83 292.705 279.441 290.456 279.441C288.207 279.441 286.365 280.83 286.365 282.578Z" fill="#F0A98F"/>
<path d="M280.715 275.656C280.715 278.17 281.959 280.205 283.49 280.205C285.022 280.205 286.266 278.17 286.266 275.656C286.266 273.142 285.022 271.106 283.49 271.106C281.959 271.106 280.715 273.142 280.715 275.656Z" fill="#F0A98F"/>
<path d="M272.707 275.969C273.568 278.316 275.434 279.8 276.87 279.297C278.305 278.771 278.784 276.424 277.923 274.078C277.061 271.731 275.195 270.247 273.76 270.773C272.324 271.276 271.87 273.623 272.707 275.969Z" fill="#F0A98F"/>
<path d="M266.123 282.147C267.749 284.062 269.998 284.829 271.171 283.823C272.343 282.841 271.984 280.471 270.357 278.555C268.73 276.64 266.481 275.898 265.309 276.879C264.137 277.885 264.496 280.231 266.123 282.147Z" fill="#F0A98F"/>
<path d="M264.184 288.37C266.576 289.112 268.897 288.538 269.352 287.077C269.806 285.616 268.227 283.821 265.835 283.078C263.442 282.336 261.122 282.935 260.667 284.395C260.212 285.832 261.791 287.628 264.184 288.37Z" fill="#F0A98F"/>
<path d="M512.879 461.03L478.068 304.054L486.418 301.085L521.898 461.03H512.879Z" fill="#C1C7CC"/>
<path d="M235.736 461.03L270.547 304.054L262.197 301.085L226.717 461.03H235.736Z" fill="#C1C7CC"/>
<path d="M222.427 287.907H526.055C528.264 287.907 530.055 289.698 530.055 291.907V300.553C530.055 302.763 528.264 304.553 526.055 304.553H222.427C220.218 304.553 218.427 302.763 218.427 300.554V291.907C218.427 289.698 220.218 287.907 222.427 287.907Z" fill="#D8DDE1"/>
<g clip-path="url(#clip2_924_5677)">
<path d="M243.742 298.913C243.742 298.913 242.413 298.182 241.984 296.853C241.557 295.527 241.001 291.884 241.001 291.884L244.098 294.199L243.742 298.913Z" fill="#F7AA88"/>
<path d="M235.609 297.738C234.347 297.755 233.685 296.348 233.174 295.199C232.59 293.888 232.541 292.583 232.541 292.583C231.619 291.054 230.458 289.246 229.033 288.403C227.697 287.612 226.2 285.327 225.832 283.308C225.678 282.46 224.665 276.233 224.665 276.233L230.415 273.855C230.415 273.855 232.061 277.483 234.918 279.805C237.777 282.131 242.253 285.901 243.374 286.872C244.496 287.847 245.605 288.505 246.231 289.202C246.85 289.894 247.246 290.832 247.572 292.708C247.783 293.933 248.425 300.067 248.425 300.067C248.425 300.067 247.134 300.229 246.377 299.193C246.434 299.879 246.532 301.745 246.532 301.745C246.532 301.745 244.695 301.683 243.909 300.287C243.124 298.891 243.362 296.827 243.362 296.827C243.362 296.827 242.4 293.453 240.285 292.196C238.222 290.971 236.599 289.903 234.918 288.365C233.597 287.157 233.362 287.882 233.362 287.882C233.362 287.882 235.459 290.318 235.745 292.712C236.103 295.733 236.716 297.723 235.609 297.738Z" fill="#FBB79E"/>
<path d="M246.378 299.196C246.378 299.196 246.074 296.818 245.929 295.997C245.784 295.176 245.333 293.182 245.033 292.264C244.733 291.346 244.241 290.776 243.15 290.026C241.216 288.692 240.061 287.092 240.061 287.092C240.061 287.092 242.285 288.654 243.657 289.504C245.21 290.469 245.585 291.516 246.018 293.475C246.453 295.433 246.378 299.196 246.378 299.196Z" fill="#F7AA88"/>
<path d="M235.785 297.301C235.361 297.503 234.62 297.208 234.329 296.341C234.038 295.474 234.229 295.194 234.229 295.194L235.807 295.035C235.807 295.035 236.272 297.067 235.785 297.301Z" fill="#FFD6BB"/>
<path d="M233.481 288.029C233.481 288.029 232.671 286.922 233.002 286.782C233.466 286.435 235.099 287.61 235.83 288.597C236.674 289.736 237.435 290.384 237.435 290.384C237.435 290.384 236.125 289.815 234.993 288.678C234.158 287.84 233.481 288.029 233.481 288.029Z" fill="#F7AA88"/>
<path d="M243.363 296.831C243.363 296.831 243.803 296.889 244.198 296.775C244.589 296.663 244.821 296.496 244.821 296.496C244.821 296.496 244.587 296.41 244.125 296.49C243.661 296.571 243.363 296.831 243.363 296.831Z" fill="#F7AA88"/>
<path d="M241.095 292.756C241.095 292.756 241.475 292.554 241.681 292.207C241.888 291.86 241.941 291.638 241.941 291.638C241.941 291.638 241.415 291.878 241.229 292.06C240.878 292.396 241.095 292.756 241.095 292.756Z" fill="#F7AA88"/>
<path d="M246.548 301.807C246.548 301.807 246.001 301.488 245.876 300.376C245.753 299.263 245.753 299.263 245.753 299.263L246.375 299.199C246.375 299.199 246.532 300.038 246.574 300.584C246.597 300.899 246.548 301.807 246.548 301.807Z" fill="#FFD6BB"/>
<path d="M248.423 300.082C248.423 300.082 247.876 299.763 247.751 298.651C247.628 297.539 247.628 297.539 247.628 297.539L248.147 297.485C248.147 297.485 248.322 298.364 248.354 298.91C248.383 299.317 248.423 300.082 248.423 300.082Z" fill="#FFD6BB"/>
</g>
<path d="M314.839 277.215C314.839 279.538 316.729 281.406 319.026 281.406H398.337C400.657 281.406 402.523 279.514 402.523 277.215V233.805C402.523 231.483 400.657 229.615 398.337 229.615H319.05C316.729 229.615 314.863 231.483 314.863 233.805V277.215H314.839Z" fill="#EDE9EB"/>
<path d="M409.578 280.833C409.578 280.929 409.602 281.025 409.602 281.121C409.602 284.784 406.635 287.729 402.998 287.729H314.405C310.745 287.729 307.802 284.76 307.802 281.121C307.802 281.025 307.802 280.929 307.826 280.833H409.578Z" fill="#BFC3C6"/>
<path d="M353.5 255.691C353.5 258.54 355.821 260.863 358.668 260.863C361.539 260.863 363.836 258.54 363.836 255.691C363.836 252.818 361.515 250.519 358.668 250.519C355.821 250.519 353.5 252.842 353.5 255.691Z" fill="#FFFFFE"/>
</g>
<path d="M227.796 198.16C227.796 198.16 244.702 223.683 244.702 242.833C244.702 242.833 244.317 254.412 232.233 276.233L224.662 277.569C224.662 277.569 226.872 254.708 230.006 244.615C230.006 244.615 218.527 220.073 219.919 214.155C221.288 208.235 224.157 197.999 227.796 198.16Z" fill="#66D6A0"/>
<path d="M53.8896 297C42.9032 297 34 305.903 34 316.89C34 327.876 42.9032 336.779 53.8896 336.779C64.8759 336.779 73.7791 327.876 73.7791 316.89C73.7791 305.903 64.8759 297 53.8896 297ZM53.8896 331.823C45.6332 331.823 38.9462 325.136 38.9462 316.88C38.9462 308.624 45.6332 301.937 53.8896 301.937C62.146 301.937 68.8329 308.624 68.8329 316.88C68.8329 325.136 62.146 331.823 53.8896 331.823Z" fill="#66D6A0"/>
<path d="M459.772 49.976H431.988C430.894 49.976 430 49.0914 430 47.988C430 46.8941 430.885 46 431.988 46H459.772C460.866 46 461.76 46.8846 461.76 47.988C461.76 49.0819 460.866 49.976 459.772 49.976Z" fill="#66D6A0"/>
<path d="M459.772 59.8969H431.988C430.894 59.8969 430 59.0123 430 57.9089C430 56.815 430.885 55.9209 431.988 55.9209H459.772C460.866 55.9209 461.76 56.8055 461.76 57.9089C461.76 59.0028 460.866 59.8969 459.772 59.8969Z" fill="#66D6A0"/>
<g filter="url(#filter0_d_924_5677)">
<path d="M536.687 185.322L542.544 187.375L545.281 182.649L540.523 178.688C541.239 176.508 541.525 174.233 541.398 172.022L547 169.333L545.584 164.051L539.424 164.623C538.422 162.635 537.037 160.821 535.334 159.294L537.387 153.439L532.66 150.702L528.698 155.459C526.517 154.743 524.241 154.457 522.029 154.584L519.34 149L514.056 150.416L514.629 156.589C512.639 157.591 510.825 158.975 509.297 160.678L503.44 158.625L500.703 163.351L505.462 167.312C504.745 169.508 504.459 171.751 504.586 173.978L499 176.667L500.416 181.949L506.591 181.377C507.594 183.365 508.963 185.179 510.682 186.706L508.629 192.561L513.355 195.298L517.318 190.541C519.515 191.257 521.759 191.543 523.987 191.416L526.676 197L531.96 195.584L531.387 189.411C533.345 188.425 535.159 187.056 536.687 185.322ZM517.318 182.793C511.907 179.674 510.061 172.753 513.18 167.344C516.3 161.935 523.223 160.089 528.634 163.207C534.045 166.326 535.891 173.247 532.772 178.656C529.653 184.065 522.729 185.911 517.318 182.793Z" fill="#84B5FF"/>
</g>
<path d="M333.32 32H294.29C284.74 32 277 39.74 277 49.29V50.36C277 59.91 284.74 67.65 294.29 67.65H295.23V78.41L308.48 67.65H333.32C342.87 67.65 350.61 59.91 350.61 50.36V49.29C350.61 39.74 342.87 32 333.32 32Z" fill="#66D6A0"/>
<path d="M50.94 249H17.64C9 249 2 256 2 264.64C2 273.28 9 280.28 17.64 280.28H50.94C59.58 280.28 66.58 273.28 66.58 264.64C66.57 256 59.57 249 50.94 249Z" fill="#84B5FF"/>
<path d="M23.4391 256.76L25.7291 261.39L30.8391 262.14L27.1391 265.74L28.0091 270.83L23.4391 268.43L18.869 270.83L19.7391 265.74L16.0391 262.14L21.1491 261.39L23.4391 256.76Z" fill="white"/>
<path d="M45.1344 256.76L47.4244 261.39L52.5344 262.14L48.8344 265.74L49.7044 270.83L45.1344 268.43L40.5644 270.83L41.4344 265.74L37.7344 262.14L42.8444 261.39L45.1344 256.76Z" fill="white"/>
</g>
<defs>
<filter id="filter0_d_924_5677" x="489" y="143" width="68" height="68" filterUnits="userSpaceOnUse" color-interpolation-filters="sRGB">
<feFlood flood-opacity="0" result="BackgroundImageFix"/>
<feColorMatrix in="SourceAlpha" type="matrix" values="0 0 0 0 0 0 0 0 0 0 0 0 0 0 0 0 0 0 127 0" result="hardAlpha"/>
<feOffset dy="4"/>
<feGaussianBlur stdDeviation="5"/>
<feColorMatrix type="matrix" values="0 0 0 0 0.0885677 0 0 0 0 0.0395834 0 0 0 0 0.395833 0 0 0 0.25 0"/>
<feBlend mode="normal" in2="BackgroundImageFix" result="effect1_dropShadow_924_5677"/>
<feBlend mode="normal" in="SourceGraphic" in2="effect1_dropShadow_924_5677" result="shape"/>
</filter>
<linearGradient id="paint0_linear_924_5677" x1="131.103" y1="247.005" x2="236.808" y2="91.4995" gradientUnits="userSpaceOnUse">
<stop stop-color="#194484"/>
<stop offset="1" stop-color="#84B5FF"/>
</linearGradient>
<linearGradient id="paint1_linear_924_5677" x1="185.036" y1="105.962" x2="234.764" y2="124.17" gradientUnits="userSpaceOnUse">
<stop stop-color="#75A5EE"/>
<stop offset="1" stop-color="#76A6EF"/>
</linearGradient>
<linearGradient id="paint2_linear_924_5677" x1="153.581" y1="127.453" x2="193.261" y2="92.7534" gradientUnits="userSpaceOnUse">
<stop stop-color="#5785CB"/>
<stop offset="0.901042" stop-color="#76A7EF"/>
<stop offset="1" stop-color="#FFC63C"/>
</linearGradient>
<linearGradient id="paint3_linear_924_5677" x1="332.433" y1="314.081" x2="332.433" y2="209.875" gradientUnits="userSpaceOnUse">
<stop stop-color="#79ADFA"/>
<stop offset="1" stop-color="#2C72DA"/>
</linearGradient>
<linearGradient id="paint4_linear_924_5677" x1="430.253" y1="280.636" x2="438.9" y2="208.663" gradientUnits="userSpaceOnUse">
<stop stop-color="#7CAFFC"/>
<stop offset="1" stop-color="#2C72DA"/>
</linearGradient>
<linearGradient id="paint5_linear_924_5677" x1="383.336" y1="345.254" x2="383.336" y2="201.112" gradientUnits="userSpaceOnUse">
<stop stop-color="#67A1F8"/>
<stop offset="1" stop-color="#1B67D9"/>
</linearGradient>
<linearGradient id="paint6_linear_924_5677" x1="399.052" y1="193.219" x2="371.249" y2="193.219" gradientUnits="userSpaceOnUse">
<stop stop-color="#CF6074"/>
<stop offset="1" stop-color="#FF817F"/>
</linearGradient>
<clipPath id="clip0_924_5677">
<rect width="549" height="404" fill="white"/>
</clipPath>
<clipPath id="clip1_924_5677">
<rect width="33.3528" height="40.6487" fill="white" transform="translate(63.4531 206.728) rotate(-53.6593)"/>
</clipPath>
<clipPath id="clip2_924_5677">
<rect width="16.5941" height="32.1071" fill="white" transform="matrix(0.912604 -0.408845 -0.408845 -0.912604 236.008 306.529)"/>
</clipPath>
</defs>
</svg>
