<svg width="441" height="362" viewBox="0 0 441 362" fill="none" xmlns="http://www.w3.org/2000/svg">
<g clip-path="url(#clip0_591_5680)">
<path opacity="0.04" d="M36.9294 308.032C28.5209 384.958 252.653 356.127 298.601 330.178C344.548 304.228 375.823 289.151 414.098 238.794C416.762 249.463 409.369 229.559 414.098 238.794C475.557 169.103 404.242 93.9786 393.558 74.0979C384.323 56.8889 290.702 90.9596 278.419 77.2986C273.038 71.3894 217.746 -13.1295 149.117 1.72409C98.9795 12.5754 36.0852 15.2806 9.03852 96.197C-18.0081 177.114 53.5798 155.705 36.9294 308.032Z" fill="#276ED8"/>
<mask id="mask0_591_5680" style="mask-type:alpha" maskUnits="userSpaceOnUse" x="2" y="-22" width="439" height="380">
<path d="M36.93 308.033C28.5216 384.958 252.654 356.127 298.601 330.178C344.549 304.228 375.823 289.151 414.099 238.794C416.763 249.463 409.37 229.559 414.099 238.794C475.558 169.103 425.002 42 328.001 -16.5004C340.285 -2.83932 318.766 -33.7094 328.001 -16.5004C322.621 -22.4095 217.747 -13.1295 149.118 1.72406C98.9802 12.5754 36.0859 15.2805 9.03923 96.197C-18.0074 177.113 53.5805 155.705 36.93 308.033Z" fill="#276ED8"/>
</mask>
<g mask="url(#mask0_591_5680)">
<path d="M282.227 102.674V229.841C282.227 233.111 279.578 235.76 276.308 235.76H82.3877C79.1175 235.76 76.4688 233.111 76.4688 229.841V102.674C76.4688 95.1293 82.5885 89 90.1426 89H268.553C276.107 89 282.227 95.1293 282.227 102.674Z" fill="white" stroke="#84B5FF" stroke-miterlimit="10"/>
<path d="M171.756 119.419H148.676V121.358H171.756V119.419Z" fill="#84B5FF"/>
<path d="M198.826 119.419H175.746V121.358H198.826V119.419Z" fill="#06B25F"/>
<path d="M191.593 129.886H155.805V131.825H191.593V129.886Z" fill="#276ED8"/>
<path d="M215.694 129.886H197.508V131.825H215.694V129.886Z" fill="#84B5FF"/>
<path d="M183.93 140.339H168.215V142.278H183.93V140.339Z" fill="#06B25F"/>
<path d="M245.154 140.339H193.016V142.278H245.154V140.339Z" fill="#06B25F"/>
<path d="M240.008 150.802H180.422V152.741H240.008V150.802Z" fill="#276ED8"/>
<path d="M183.864 161.255H165.527V163.194H183.864V161.255Z" fill="#84B5FF"/>
<path d="M210.048 161.255H191.711V163.194H210.048V161.255Z" fill="#276ED8"/>
<path d="M175.346 215.529H148.676V217.469H175.346V215.529Z" fill="#84B5FF"/>
<path d="M211.35 215.529H184.68V217.469H211.35V215.529Z" fill="#06B25F"/>
<path d="M246.405 215.529H219.734V217.469H246.405V215.529Z" fill="#84B5FF"/>
<path d="M207.947 205.059H155.809V206.998H207.947V205.059Z" fill="#276ED8"/>
<path d="M268.201 205.059H216.062V206.998H268.201V205.059Z" fill="#84B5FF"/>
<path d="M219.952 194.607H168.215V196.547H219.952V194.607Z" fill="#84B5FF"/>
<path d="M238.857 194.607H224.461V196.547H238.857V194.607Z" fill="#06B25F"/>
<path d="M184.312 184.143H164.84V186.082H184.312V184.143Z" fill="#06B25F"/>
<path d="M214.125 184.143H194.652V186.082H214.125V184.143Z" fill="#276ED8"/>
<path d="M246.137 184.143H226.664V186.082H246.137V184.143Z" fill="#84B5FF"/>
<path d="M214.727 173.693H187.422V175.633H214.727V173.693Z" fill="#06B25F"/>
<path d="M177.117 173.693H149.812V175.633H177.117V173.693Z" fill="#276ED8"/>
<path d="M142.246 117.564H139.758V120.056H142.246V117.564Z" fill="#84B5FF"/>
<path d="M142.246 208.757H139.758V203.691H142.246V208.757V208.757ZM142.246 196.083H139.758V191.017H142.246V196.083V196.083ZM142.246 183.409H139.758V178.343H142.246V183.409V183.409ZM142.246 170.736H139.758V165.669H142.246V170.736V170.736ZM142.246 158.062H139.758V152.995H142.246V158.062V158.062ZM142.246 145.388H139.758V140.321H142.246V145.388V145.388ZM142.246 132.714H139.758V127.647H142.246V132.714V132.714Z" fill="#84B5FF"/>
<path d="M142.246 216.362H139.758V218.854H142.246V216.362Z" fill="#84B5FF"/>
<path opacity="0.7" d="M76 105.031C76 101.718 78.6863 99.0312 82 99.0312H129.548V235.77H82C78.6863 235.77 76 233.084 76 229.77V105.031Z" fill="#84B5FF"/>
<path d="M103.361 121.333H80.2812V123.273H103.361V121.333Z" fill="#06B25F"/>
<path d="M121.027 133.186H85.2383V135.125H121.027V133.186Z" fill="#84B5FF"/>
<path d="M121.027 145.038H85.2383V146.978H121.027V145.038Z" fill="#84B5FF"/>
<path d="M121.027 156.892H85.2383V158.831H121.027V156.892Z" fill="#84B5FF"/>
<path d="M121.027 168.741H85.2383V170.681H121.027V168.741Z" fill="#84B5FF"/>
<path d="M122.886 192.445H87.0977V194.385H122.886V192.445Z" fill="#84B5FF"/>
<path d="M122.886 204.3H87.0977V206.239H122.886V204.3Z" fill="#84B5FF"/>
<path d="M122.886 216.148H87.0977V218.088H122.886V216.148Z" fill="#84B5FF"/>
<path d="M103.361 180.594H80.2812V182.533H103.361V180.594Z" fill="#06B25F"/>
<path d="M282.227 102.674V103.248H76.4688V102.674C76.4688 95.1293 82.5885 89 90.1426 89H268.553C276.107 89 282.227 95.1293 282.227 102.674Z" fill="#84B5FF"/>
<path opacity="0.3" d="M250.979 96.7834C250.979 97.7683 250.185 98.562 249.2 98.562C248.216 98.562 247.422 97.7683 247.422 96.7834C247.422 95.7985 248.216 95.0049 249.2 95.0049C250.176 95.0049 250.979 95.7985 250.979 96.7834Z" fill="white"/>
<path opacity="0.3" d="M260.713 96.7834C260.713 97.7683 259.92 98.562 258.935 98.562C257.95 98.562 257.156 97.7683 257.156 96.7834C257.156 95.7985 257.95 95.0049 258.935 95.0049C259.91 95.0049 260.713 95.7985 260.713 96.7834Z" fill="white"/>
<path opacity="0.3" d="M270.018 96.7834C270.018 97.7683 269.224 98.562 268.24 98.562C267.255 98.562 266.461 97.7683 266.461 96.7834C266.461 95.7985 267.255 95.0049 268.24 95.0049C269.224 95.0049 270.018 95.7985 270.018 96.7834Z" fill="white"/>
<path d="M282.227 102.674V229.841C282.227 233.111 279.578 235.76 276.308 235.76H82.3877C79.1175 235.76 76.4688 233.111 76.4688 229.841V102.674C76.4688 95.1293 82.5885 89 90.1426 89H268.553C276.107 89 282.227 95.1293 282.227 102.674Z" stroke="#84B5FF" stroke-miterlimit="10"/>
<path d="M272.027 158.521C258.709 168.73 239.378 172.865 224.487 164.965C219.816 162.494 215.516 158.544 214.591 153.462C213.481 147.341 217.435 141.012 215.77 135.006C214.313 129.694 208.995 126.437 205.041 122.51C199.307 116.828 195.977 108.905 196 100.936C196.023 92.9671 199.353 85.0674 205.11 79.4082C209.989 74.6037 216.348 71.5085 221.944 67.4894C226.36 64.3018 227.896 59.5124 230 54.5C232.081 49.5569 230.301 43.8507 230 39C229.376 28.6288 234.499 20.4838 241.968 12.7689C251.633 2.74414 265.992 2.90583 278.687 5.49287C285.115 6.78639 292.214 8.79596 297.855 12.2145C300.26 13.6698 301.856 15.4483 303.497 17.7813C304.029 18.5205 306.989 25.8889 306.873 25.8658C325.695 30.1621 315.591 56.2173 321.371 68.1823C323.198 71.9474 326.389 74.8578 329.187 77.9761C334.089 83.4736 337.927 90.0798 339.129 97.3327C340.332 104.586 338.69 112.485 333.811 117.983C333.025 118.884 332.1 119.761 331.8 120.916C331.337 122.649 332.308 124.381 333.025 126.021C337.303 135.838 332.401 147.202 326.227 155.957C322.088 161.847 317.209 167.437 310.874 170.855C300.769 176.33 288.005 175.475 277.6 170.578" fill="url(#paint0_linear_591_5680)"/>
<path opacity="0.42" d="M274.89 29.7387C281.248 26.6435 289.364 30.0851 293.295 35.9753C297.203 41.8654 302.29 47.1088 301.365 54.1076C300.903 57.5724 300.14 61.1065 300.833 64.5482C302.591 73.4642 308.094 79.978 313.828 87.0231C318.684 92.9825 320.256 100.905 321.505 108.482C322.245 113.009 322.846 117.998 320.441 121.902C317.389 126.845 313.898 133.22 310.614 138.002C305.203 145.832 308.371 153.478 301.827 160.407C299.885 162.44 297.157 163.502 294.474 164.357C289.041 166.043 283.422 167.036 277.734 167.337C272.878 167.591 267.953 167.291 263.374 165.697C252.137 161.747 244.622 149.135 246.657 137.401C248.206 128.508 254.334 121.117 257.247 112.547C259.328 106.403 259.675 99.6811 258.264 93.3521C256.461 85.36 251.859 77.4141 253.848 69.4682" fill="#148951"/>
<path d="M254.757 180.37C254.04 177.552 239.75 106.108 239.75 106.108C239.75 106.108 277.856 94.8825 302.227 106.108L286.62 180.994L254.757 180.37Z" fill="white"/>
<path opacity="0.83" d="M261.438 182.551C260.979 182.144 259.388 180.735 257.921 179.383C256.188 177.777 255.17 176.413 255.17 176.413C255.17 176.413 255.411 173.848 255.411 173.131C255.411 172.407 251.581 155.326 247.817 150.039C244.304 145.107 247.756 117.325 248.239 113.573L248.296 113.154C248.296 113.154 250.776 117.325 251.851 125.621C252.93 133.923 251.406 150.28 251.406 150.28C251.406 150.28 253.555 163.508 258.849 163.75C258.849 163.75 254.408 172.465 256.159 176.838C256.496 177.669 260.629 181.783 261.438 182.551Z" fill="#CAC3CD" fill-opacity="0.3"/>
<path d="M252.883 144.037C252.883 144.037 281.532 146.993 289.44 141.08C289.417 141.08 279.543 164.756 252.883 144.037Z" fill="#CAC3CD" fill-opacity="0.3"/>
<path d="M252.906 180.111C252.906 180.111 229.737 228.618 239.194 382.963C239.194 382.963 249.183 385.065 252.328 384.002C252.328 384.002 280.908 249.869 273.971 182.537L252.906 180.111Z" fill="#276ED8"/>
<path d="M265.993 211.297C265.993 211.297 265.462 336.768 287.012 380.863L303.313 380.332C303.313 380.332 312.007 230.538 286.642 179.952L267.196 182.1L265.993 211.297Z" fill="#276ED8"/>
<path d="M251.543 183.21C251.543 183.21 269.532 188.569 287.799 181.362L288.031 174.179C288.031 174.179 278.666 176.997 270.689 176.512C262.734 176.05 251.959 174.641 251.959 174.641L251.543 183.21Z" fill="#8F99B6"/>
<path d="M255.726 173.229C255.726 173.229 252.697 184.939 255.495 186.325C258.316 187.734 259.958 187.111 259.958 187.111L259.934 174.152L255.726 173.229Z" fill="#276ED8"/>
<path d="M284.63 172.307C284.63 172.307 286.526 183.255 284.145 185.311C280.907 188.06 280.722 185.842 280.722 185.842L280.422 173.254L284.63 172.307Z" fill="#276ED8"/>
<path d="M265.094 174.179C265.094 175.588 265.579 184.25 265.579 184.25L275.661 184.481L276.586 174.41L265.094 174.179ZM273.996 182.748L267.198 182.286L266.967 176.951H274.458L273.996 182.748Z" fill="#EAEAEA"/>
<path d="M260.154 102.145C259.113 108.266 267.322 108.798 267.322 108.798C270.952 108.798 276.617 107.689 276.617 104.062L274.86 81.4028C274.86 77.7763 271.923 74.8428 268.293 74.8428C264.663 74.8428 261.726 77.7763 261.726 81.4028L260.154 102.145Z" fill="#F39B8D"/>
<path d="M286.414 22.2261C285.39 20.7726 279.363 23.2371 278.466 21.6746C274.908 25.7816 265.362 19.7983 260.89 23.1364C255.036 27.5115 250.42 31.7295 243.703 34.6309C241.493 35.5865 245.011 36.6768 242.594 37.0999C242.487 41.3977 240.184 55.0315 240.966 59.3562C244.907 81.0456 262.358 91.5775 277.884 87.5584C289.617 84.5095 299.379 69.4769 299.72 48.1056C299.926 35.2117 288.146 26.6391 287.764 24.7317C281.424 19.9482 291.063 28.7377 286.414 22.2261Z" fill="#FBB2A6"/>
<path d="M270.504 67.2073C270.504 67.2073 274.25 73.5132 278.273 67.0918L270.504 67.2073Z" fill="#D8826C"/>
<path d="M266.642 54.4116C266.642 58.5694 263.266 61.9649 259.081 61.9649C254.895 61.9649 251.52 58.5925 251.52 54.4116C251.52 50.2539 254.895 46.8584 259.081 46.8584C263.266 46.8584 266.642 50.2539 266.642 54.4116Z" fill="white"/>
<path d="M263.279 56.1975C263.116 59.2113 261.139 61.5656 258.857 61.4635C256.567 61.3423 254.854 58.8128 254.997 55.8058C255.153 52.7729 257.137 50.4377 259.4 50.5467C261.702 50.642 263.435 53.1646 263.279 56.1975Z" fill="#06B25F"/>
<path d="M262.07 56.1371C261.956 58.2706 260.553 59.9428 258.926 59.8624C257.299 59.7821 256.066 57.9847 256.192 55.8253C256.299 53.6727 257.702 52.0005 259.329 52.0809C260.963 52.1803 262.177 53.9846 262.07 56.1371Z" fill="#400404"/>
<path opacity="0.8" d="M262.445 52.4642C262.421 53.0552 261.712 53.484 260.876 53.4412C260.04 53.3984 259.379 52.8826 259.41 52.3107C259.433 51.7197 260.142 51.2909 260.978 51.3337C261.814 51.3765 262.476 51.8923 262.445 52.4642Z" fill="white"/>
<path d="M262.523 73.2852C262.523 73.2852 274.709 78.8981 279.865 73.7471C279.865 73.7471 275.172 85.4581 262.523 73.2852Z" fill="#D5503B"/>
<path d="M266.641 54.414C266.641 54.414 267.243 49.5633 262.502 47.1148C255.242 43.3729 251.265 52.0348 248.906 53.4438C248.906 53.4438 250.432 54.9683 251.542 54.4371C251.542 54.414 260.144 44.1351 266.641 54.414Z" fill="#302725"/>
<path d="M278.539 54.8955C278.539 59.0763 281.915 62.4487 286.1 62.4487C290.262 62.4487 293.661 59.0763 293.661 54.8955C293.661 50.7377 290.285 47.3654 286.1 47.3654C281.938 47.3423 278.539 50.7377 278.539 54.8955Z" fill="white"/>
<path d="M289.969 56.0128C289.684 59.019 287.555 61.2526 285.19 61.0065C282.824 60.7604 281.153 58.1349 281.44 55.1488C281.725 52.1426 283.855 49.909 286.218 50.1349C288.563 50.3832 290.254 53.0066 289.969 56.0128Z" fill="#06B25F"/>
<path d="M288.555 55.9209C288.387 58.127 286.99 59.7338 285.412 59.5518C283.834 59.3699 282.697 57.4142 282.848 55.231C283.015 53.025 284.429 51.3953 286.009 51.598C287.569 51.782 288.722 53.7149 288.555 55.9209Z" fill="#400404"/>
<path opacity="0.8" d="M289.633 51.8253C289.558 52.4045 288.674 52.829 287.689 52.7552C286.681 52.6839 285.947 52.1539 285.999 51.5773C286.074 50.998 286.935 50.5761 287.943 50.6473C288.951 50.7186 289.708 51.246 289.633 51.8253Z" fill="white"/>
<path d="M278.423 53.9677C278.423 53.9677 277.822 49.6482 282.562 47.477C289.823 44.1508 293.8 51.8426 296.135 53.0899C296.135 53.0899 294.609 54.4296 293.499 53.9677C293.522 53.9677 285.73 44.6128 278.423 53.9677Z" fill="#302725"/>
<path d="M249.723 44.0643C249.723 44.0643 257.399 37.2041 264.752 40.1607C266.463 40.8536 266.857 41.6621 267.943 44.9883C267.943 44.9883 259.573 40.2993 249.723 44.0643Z" fill="#6F3B1E"/>
<path d="M296.134 45.9617C296.134 45.9617 291.764 38.0389 285.104 39.6327C283.555 40.0023 283.023 40.7184 281.289 43.7212C281.289 43.7443 289.22 40.6722 296.134 45.9617Z" fill="#6F3B1E"/>
<path d="M242.8 49.1951C242.8 49.1951 234.638 38.0616 232.279 48.7563C230.406 57.2796 238.013 63.5393 242.73 61.9455C247.448 60.3517 242.8 49.1951 242.8 49.1951Z" fill="#FBB2A6"/>
<path d="M242.894 51.1786C242.894 51.1786 237.113 44.1566 235.634 47.4597C234.154 50.7628 235.032 54.6434 235.032 54.6434C235.032 54.6434 235.634 50.2084 239.148 52.2642C239.148 52.2642 236.651 59.5634 242.894 56.7915C242.917 56.7915 245.368 54.3662 242.894 51.1786Z" fill="#F39B8D"/>
<path d="M243.245 62.5089C243.245 63.6407 242.39 64.5416 241.349 64.5416C240.286 64.5416 239.453 63.6176 239.453 62.5089C239.453 61.3771 240.309 60.4531 241.349 60.4531C242.39 60.4531 243.245 61.354 243.245 62.5089Z" fill="white"/>
<path d="M310 41.0728C302.111 43.1734 293.228 41.6505 286.525 37.0554C279.822 32.4603 275.464 24.8718 275.022 17.0207C274.884 14.8413 275.353 12.2156 277.422 11.3228C278.139 11.0077 278.967 10.9814 279.767 11.0077C284.649 11.139 289.339 13.1083 293.228 15.9704C297.118 18.8325 300.207 22.5348 302.938 26.421C304.897 29.2306 306.662 32.1714 307.738 35.3749C308.4 37.3967 308.786 39.4973 308.869 41.5979" fill="url(#paint1_linear_591_5680)"/>
<path d="M280.314 24.9296C267.661 31.6904 253.338 43.6359 239.619 42.9736C238.918 42.9507 235.385 38.8623 235.095 38.3369C234.853 37.8801 235.119 37.3091 235.385 36.8066C238.168 31.8274 245.619 23.1709 251.16 20.2244C256.701 17.278 262.773 15.4051 268.822 13.7149C271.895 12.8698 275.016 12.0475 278.113 12.0018C281.185 11.9562 284.282 12.7556 286 14.7199" fill="url(#paint2_linear_591_5680)"/>
<path d="M302.344 105.926C302.344 105.926 327.974 164.827 318.606 172.964C318.606 172.964 309.237 177.971 301.095 155.439C292.953 132.885 292.976 104.628 302.344 105.926Z" fill="white"/>
<path opacity="0.83" d="M315.863 173.236C315.349 172.902 313.567 171.744 311.915 170.624C309.964 169.292 312.634 174.6 312.634 174.6C312.634 174.6 312.74 173.35 312.634 172.641C312.527 171.925 306.211 155.599 301.706 150.927C297.501 146.57 296.802 118.582 296.724 114.801L296.718 114.378C296.718 114.378 299.789 118.135 302.08 126.181C304.377 134.232 305.29 150.635 305.29 150.635C305.29 150.635 309.374 163.399 314.645 162.854C314.645 162.854 311.103 169.45 313.483 173.515C313.939 174.288 314.949 172.596 315.863 173.236Z" fill="#CAC3CD" fill-opacity="0.3"/>
<path d="M299.849 145.424C299.849 145.424 321.453 160.561 319.834 169.856C319.58 171.363 318.585 172.985 318.585 172.985C318.585 172.985 309.217 183.648 297.327 159.216C297.35 159.193 290.457 143.546 299.849 145.424Z" fill="white"/>
<path d="M302.969 141.972C301.003 137.638 295.544 134.392 293.809 134.647C292.421 133.975 291.033 134.207 289.853 136.502C288.165 139.77 288.234 145.38 289.529 148.88C292.051 155.695 299.036 147.072 298.736 141.648C301.442 143.966 305.004 146.469 302.969 141.972Z" fill="#F0A98F"/>
<path d="M293.602 135.086C293.602 135.086 285.483 161.396 287.981 162.647C290.48 163.899 302.994 163.899 302.994 163.899C302.994 163.899 311.737 135.712 309.864 135.086C307.967 134.46 294.204 133.834 293.602 135.086Z" fill="#06B25F"/>
<path d="M278.472 166.728C278.472 166.728 281.641 166.079 282.844 164.479C284.047 162.88 284.787 162.184 289.066 160.33C293.322 158.475 295.011 155.995 295.011 155.995C295.011 155.995 297.995 158.916 291.472 162.022C287.47 163.923 300.609 163.946 304.564 163.552C304.564 163.552 306.854 164.896 303.084 166.728C299.313 168.559 302.945 168.768 295.474 171.92C288.002 175.049 279.12 176.579 277.292 171.827C275.465 167.075 278.472 166.728 278.472 166.728Z" fill="#FFBC9F"/>
<path d="M249.952 124.187C251.409 131.419 245.141 162.017 245.141 162.017C249.397 161.739 268.342 162.852 275.35 163.64C277.733 163.895 279.26 164.081 279.26 164.081L281.596 176.204C280.277 176.505 278.982 176.76 277.71 177.015C252.427 181.767 233.899 174.859 233.899 174.859C226.266 128.081 239.844 105.921 239.844 105.921C246.112 105.504 249.952 124.187 249.952 124.187Z" fill="white"/>
<path d="M280.594 101.228H275.895C275.895 101.228 277.392 105.274 275.534 106.288C271.558 108.456 271.196 108.456 265.775 108.456C262.556 108.456 260.353 101.95 260.353 101.95L256.377 102.673C256.377 102.673 260.572 110.316 265.775 112.071C269.386 113.288 272.204 113.924 275.534 112.071C279.394 109.921 280.594 101.228 280.594 101.228Z" fill="#CAC3CD" fill-opacity="0.3"/>
</g>
<path d="M148.447 31.5319H123.766C122.794 31.5319 122 30.7461 122 29.7659C122 28.7942 122.786 28 123.766 28H148.447C149.419 28 150.213 28.7858 150.213 29.7659C150.213 30.7376 149.419 31.5319 148.447 31.5319Z" fill="#66D6A0"/>
<path d="M148.447 40.3444H123.766C122.794 40.3444 122 39.5586 122 38.5784C122 37.6067 122.786 36.8125 123.766 36.8125H148.447C149.419 36.8125 150.213 37.5983 150.213 38.5784C150.213 39.5501 149.419 40.3444 148.447 40.3444Z" fill="#66D6A0"/>
<path d="M374.668 236C364.909 236 357 243.909 357 253.668C357 263.427 364.909 271.336 374.668 271.336C384.427 271.336 392.336 263.427 392.336 253.668C392.336 243.909 384.427 236 374.668 236ZM374.668 266.934C367.334 266.934 361.394 260.994 361.394 253.659C361.394 246.325 367.334 240.385 374.668 240.385C382.002 240.385 387.942 246.325 387.942 253.659C387.942 260.994 382.002 266.934 374.668 266.934Z" fill="#66D6A0"/>
<g filter="url(#filter0_d_591_5680)">
<path d="M161.418 326.011L172.319 323.961V314.188L161.418 312.308C160.581 308.293 158.992 304.534 156.805 301.202L163.058 292.027L156.139 285.107L147.1 291.497C143.768 289.31 140.026 287.738 135.994 286.901L133.944 276H124.17L122.291 286.901C118.276 287.738 114.517 289.327 111.185 291.514L102.027 285.261L95.1069 292.181L101.497 301.219C99.3101 304.551 97.7382 308.31 96.9009 312.325L86 314.375V324.149L96.9009 326.028C97.7382 330.061 99.3272 333.802 101.514 337.134L95.2607 346.292L102.181 353.212L111.236 346.822C114.568 349.009 118.327 350.598 122.342 351.418L124.393 362.319H134.166L136.045 351.418C140.078 350.581 143.819 348.992 147.151 346.805L156.309 353.059L163.229 346.139L156.839 337.1C159.009 333.785 160.581 330.043 161.418 326.011ZM129.16 339.407C117.985 339.407 108.93 330.334 108.93 319.177C108.93 308.019 117.985 298.947 129.16 298.947C140.334 298.947 149.39 308.002 149.39 319.177C149.39 330.351 140.334 339.407 129.16 339.407Z" fill="#84B5FF"/>
</g>
<g filter="url(#filter1_d_591_5680)">
<path d="M47.24 267.326L54.0681 266.041V259.92L47.24 258.742C46.7156 256.227 45.7202 253.873 44.3503 251.786L48.2674 246.039L43.933 241.704L38.2714 245.707C36.1845 244.337 33.8407 243.352 31.3149 242.828L30.0307 236H23.9089L22.7317 242.828C20.2167 243.352 17.8622 244.348 15.7752 245.718L10.0388 241.801L5.70433 246.135L9.70698 251.797C8.33709 253.884 7.35247 256.238 6.82806 258.753L0 260.037V266.159L6.82806 267.336C7.35247 269.862 8.3478 272.206 9.7177 274.293L5.80065 280.029L10.1351 284.364L15.8073 280.361C17.8943 281.731 20.2488 282.726 22.7638 283.24L24.0481 290.068H30.1698L31.3471 283.24C33.8728 282.716 36.2166 281.72 38.3036 280.35L44.04 284.267L48.3744 279.933L44.3718 274.271C45.731 272.195 46.7156 269.851 47.24 267.326ZM27.034 275.716C20.0347 275.716 14.3625 270.033 14.3625 263.045C14.3625 256.056 20.0347 250.373 27.034 250.373C34.0333 250.373 39.7056 256.045 39.7056 263.045C39.7056 270.044 34.0333 275.716 27.034 275.716Z" fill="#84B5FF"/>
</g>
<g filter="url(#filter2_d_591_5680)">
<rect x="375" y="37" width="65.6797" height="64.5473" rx="6" fill="#276ED8"/>
</g>
<path d="M397.359 79.9471L382.325 71.816C381.353 71.2535 380.867 70.3842 380.867 69.208C380.867 67.9806 381.379 67.1113 382.401 66.5999L397.359 58.3922V61.3838C397.359 61.5883 397.283 61.8696 397.129 62.2275C396.976 62.5344 396.746 62.7645 396.439 62.9179L385.776 68.7477C385.367 69.0546 385.367 69.3614 385.776 69.6682L397.359 75.8816V79.9471Z" fill="white"/>
<path d="M410.166 55.9375H413.157L405.717 81.4045C405.512 82.0693 405.052 82.4017 404.336 82.4017H402.418L410.166 55.9375Z" fill="white"/>
<path d="M417.986 58.3922L432.944 66.5999C434.018 67.1624 434.555 68.0318 434.555 69.208C434.555 70.3842 434.018 71.2279 432.944 71.7393L417.986 79.9471V76.9555C417.986 76.8021 418.037 76.5464 418.139 76.1884C418.293 75.8304 418.523 75.5747 418.83 75.4213L429.569 69.6682C429.978 69.3614 429.978 69.0546 429.569 68.7477L417.986 62.4577V58.3922Z" fill="white"/>
</g>
<defs>
<filter id="filter0_d_591_5680" x="76" y="270" width="106.32" height="106.319" filterUnits="userSpaceOnUse" color-interpolation-filters="sRGB">
<feFlood flood-opacity="0" result="BackgroundImageFix"/>
<feColorMatrix in="SourceAlpha" type="matrix" values="0 0 0 0 0 0 0 0 0 0 0 0 0 0 0 0 0 0 127 0" result="hardAlpha"/>
<feOffset dy="4"/>
<feGaussianBlur stdDeviation="5"/>
<feColorMatrix type="matrix" values="0 0 0 0 0.0885677 0 0 0 0 0.0395834 0 0 0 0 0.395833 0 0 0 0.25 0"/>
<feBlend mode="normal" in2="BackgroundImageFix" result="effect1_dropShadow_591_5680"/>
<feBlend mode="normal" in="SourceGraphic" in2="effect1_dropShadow_591_5680" result="shape"/>
</filter>
<filter id="filter1_d_591_5680" x="-10" y="230" width="74.0664" height="74.0684" filterUnits="userSpaceOnUse" color-interpolation-filters="sRGB">
<feFlood flood-opacity="0" result="BackgroundImageFix"/>
<feColorMatrix in="SourceAlpha" type="matrix" values="0 0 0 0 0 0 0 0 0 0 0 0 0 0 0 0 0 0 127 0" result="hardAlpha"/>
<feOffset dy="4"/>
<feGaussianBlur stdDeviation="5"/>
<feColorMatrix type="matrix" values="0 0 0 0 0.0885677 0 0 0 0 0.0395834 0 0 0 0 0.395833 0 0 0 0.25 0"/>
<feBlend mode="normal" in2="BackgroundImageFix" result="effect1_dropShadow_591_5680"/>
<feBlend mode="normal" in="SourceGraphic" in2="effect1_dropShadow_591_5680" result="shape"/>
</filter>
<filter id="filter2_d_591_5680" x="369" y="31" width="87.6797" height="86.5469" filterUnits="userSpaceOnUse" color-interpolation-filters="sRGB">
<feFlood flood-opacity="0" result="BackgroundImageFix"/>
<feColorMatrix in="SourceAlpha" type="matrix" values="0 0 0 0 0 0 0 0 0 0 0 0 0 0 0 0 0 0 127 0" result="hardAlpha"/>
<feMorphology radius="3" operator="dilate" in="SourceAlpha" result="effect1_dropShadow_591_5680"/>
<feOffset dx="5" dy="5"/>
<feGaussianBlur stdDeviation="4"/>
<feColorMatrix type="matrix" values="0 0 0 0 0 0 0 0 0 0 0 0 0 0 0 0 0 0 0.2 0"/>
<feBlend mode="normal" in2="BackgroundImageFix" result="effect1_dropShadow_591_5680"/>
<feBlend mode="normal" in="SourceGraphic" in2="effect1_dropShadow_591_5680" result="shape"/>
</filter>
<linearGradient id="paint0_linear_591_5680" x1="325.411" y1="156.527" x2="241.918" y2="4" gradientUnits="userSpaceOnUse">
<stop stop-color="#12844D"/>
<stop offset="1" stop-color="#3BE090"/>
</linearGradient>
<linearGradient id="paint1_linear_591_5680" x1="309.839" y1="41.9157" x2="281.462" y2="9.55332" gradientUnits="userSpaceOnUse">
<stop stop-color="#25B770" stop-opacity="0.6"/>
<stop offset="1" stop-color="#1FCF79"/>
</linearGradient>
<linearGradient id="paint2_linear_591_5680" x1="236.506" y1="40.7343" x2="279.472" y2="13.6415" gradientUnits="userSpaceOnUse">
<stop stop-color="#33CF83"/>
<stop offset="1" stop-color="#32CE82"/>
</linearGradient>
<clipPath id="clip0_591_5680">
<rect width="441" height="362" fill="white"/>
</clipPath>
</defs>
</svg>
