<svg width="463" height="374" viewBox="0 0 463 374" fill="none" xmlns="http://www.w3.org/2000/svg">
<g clip-path="url(#clip0_1028_5808)">
<mask id="mask0_1028_5808" style="mask-type:alpha" maskUnits="userSpaceOnUse" x="0" y="-21" width="550" height="395">
<rect y="-21" width="550" height="395" fill="#C4C4C4"/>
</mask>
<g mask="url(#mask0_1028_5808)">
<path opacity="0.04" d="M76.5351 298.542C40.1783 366.883 290.753 373.817 344.535 349.042C398.318 324.267 409.848 229.878 391.035 199.542C385.168 190.137 463.493 255.055 460.035 244.266C452.504 220.66 463.264 114.804 450.035 94.5421C438.599 77.0033 328.488 108.603 313.535 94.5421C306.986 88.4581 239.035 2.04223 158.035 15.0422C98.8602 24.5394 21.5379 77.8506 5.53471 121.042C-10.4685 164.234 143.034 173.542 76.5351 298.542Z" fill="#276ED8"/>
</g>
<path opacity="0.2" d="M191.876 157.62L204 155.34V144.47L191.876 142.38C190.945 137.914 189.178 133.734 186.746 130.029L193.701 119.824L186.005 112.128L175.952 119.235C172.247 116.803 168.085 115.055 163.601 114.124L161.321 102H150.451L148.361 114.124C143.895 115.055 139.715 116.822 136.01 119.254L125.824 112.299L118.128 119.995L125.235 130.048C122.803 133.753 121.055 137.933 120.123 142.399L108 144.679V155.549L120.123 157.639C121.055 162.124 122.822 166.285 125.254 169.991L118.299 180.176L125.995 187.872L136.067 180.765C139.772 183.197 143.952 184.964 148.418 185.876L150.698 198H161.568L163.658 185.876C168.142 184.945 172.304 183.178 176.009 180.746L186.195 187.701L193.891 180.005L186.784 169.952C189.197 166.266 190.945 162.105 191.876 157.62ZM156 172.518C143.572 172.518 133.501 162.428 133.501 150.019C133.501 137.61 143.572 127.52 156 127.52C168.428 127.52 178.499 137.591 178.499 150.019C178.499 162.447 168.428 172.518 156 172.518Z" fill="#84B5FF"/>
<path d="M338.18 140.642V248.91C338.18 251.694 335.925 253.949 333.141 253.949H168.039C165.255 253.949 163 251.694 163 248.91V140.642C163 134.218 168.21 129 174.642 129H326.538C332.97 129 338.18 134.218 338.18 140.642Z" fill="white" stroke="#84B5FF" stroke-miterlimit="10"/>
<path d="M334.89 274C323.903 274 315 282.903 315 293.89C315 304.876 323.903 313.779 334.89 313.779C345.876 313.779 354.779 304.876 354.779 293.89C354.779 282.903 345.876 274 334.89 274ZM334.89 308.823C326.633 308.823 319.946 302.136 319.946 293.88C319.946 285.624 326.633 278.937 334.89 278.937C343.146 278.937 349.833 285.624 349.833 293.88C349.833 302.136 343.146 308.823 334.89 308.823Z" fill="#66D6A0"/>
<path d="M211.772 71.976H183.988C182.894 71.976 182 71.0914 182 69.988C182 68.8941 182.885 68 183.988 68H211.772C212.866 68 213.76 68.8846 213.76 69.988C213.76 71.0819 212.866 71.976 211.772 71.976Z" fill="#66D6A0"/>
<path d="M211.772 81.8969H183.988C182.894 81.8969 182 81.0123 182 79.9089C182 78.815 182.885 77.9209 183.988 77.9209H211.772C212.866 77.9209 213.76 78.8055 213.76 79.9089C213.76 81.0028 212.866 81.8969 211.772 81.8969Z" fill="#66D6A0"/>
<path d="M338.18 140.642V141.13H163V140.642C163 134.218 168.21 129 174.642 129H326.538C332.97 129 338.18 134.218 338.18 140.642Z" fill="#84B5FF"/>
<path opacity="0.3" d="M311.575 135.627C311.575 136.465 310.9 137.141 310.061 137.141C309.223 137.141 308.547 136.465 308.547 135.627C308.547 134.788 309.223 134.112 310.061 134.112C310.892 134.112 311.575 134.788 311.575 135.627Z" fill="white"/>
<path opacity="0.3" d="M319.864 135.627C319.864 136.465 319.189 137.141 318.35 137.141C317.512 137.141 316.836 136.465 316.836 135.627C316.836 134.788 317.512 134.112 318.35 134.112C319.181 134.112 319.864 134.788 319.864 135.627Z" fill="white"/>
<path opacity="0.3" d="M327.782 135.627C327.782 136.465 327.107 137.141 326.268 137.141C325.43 137.141 324.754 136.465 324.754 135.627C324.754 134.788 325.43 134.112 326.268 134.112C327.107 134.112 327.782 134.788 327.782 135.627Z" fill="white"/>
<path d="M338.18 140.642V248.91C338.18 251.694 335.925 253.949 333.141 253.949H168.039C165.255 253.949 163 251.694 163 248.91V140.642C163 134.218 168.21 129 174.642 129H326.538C332.97 129 338.18 134.218 338.18 140.642Z" stroke="#84B5FF" stroke-miterlimit="10"/>
<path opacity="0.5" d="M250.341 294.219C265.993 294.27 278.69 291.643 278.701 288.351C278.712 285.059 266.032 282.348 250.38 282.297C234.728 282.246 222.03 284.873 222.02 288.165C222.009 291.457 234.689 294.167 250.341 294.219Z" fill="url(#paint0_radial_1028_5808)"/>
<path d="M250.829 268.046C250.839 271.587 249.594 279.985 247.078 279.558C246.534 279.467 245.883 278.919 245.187 278.064C243.062 275.474 240.48 270.108 239.022 266.432C238.229 264.425 237.761 262.922 237.893 262.64C238.676 260.91 249.893 265.894 250.62 266.538C250.752 266.663 250.829 267.222 250.829 268.046Z" fill="#84B5FF"/>
<path d="M237.887 262.64C237.028 264.269 247.224 269.208 250.741 266.854C250.741 266.854 239.026 260.477 237.887 262.64Z" fill="#276ED8"/>
<path d="M262.979 264.235C262.893 264.546 262.791 264.873 262.695 265.21C261.15 270.335 258.456 277.798 256.428 280.348C255.945 280.961 255.498 281.288 255.116 281.238C255.015 281.228 254.913 281.193 254.817 281.147C254.476 280.991 254.146 280.644 253.83 280.157V280.152C251.858 277.114 250.435 268.61 250.725 266.186C250.761 265.884 250.822 265.678 250.913 265.587C252.57 263.963 263.462 259.246 263.894 260.076C264.006 260.297 263.635 261.946 262.979 264.235Z" fill="#84B5FF"/>
<path d="M250.727 266.185C250.31 266.874 261.055 266.819 263.896 260.075C263.896 260.075 254.666 259.713 250.727 266.185Z" fill="#276ED8"/>
<path d="M233.354 192.123C233.944 192.434 233.893 193.063 232.678 192.907C231.463 192.751 230.802 191.806 230.935 191.625C231.062 191.444 232.693 191.771 233.354 192.123Z" fill="white"/>
<path d="M263.752 256.776C262.786 262.429 257.668 266.201 250.334 266.201C243.95 266.201 238.537 263.847 237.109 258.657C235.681 253.477 236.235 243.892 238.141 237.922C238.425 237.032 238.771 236.172 239.167 235.358L239.172 235.347C239.533 234.608 239.935 233.904 240.377 233.245C240.382 233.24 240.382 233.235 240.382 233.235C242.71 229.765 246.12 227.497 249.978 227.497C253.993 227.497 257.063 229.132 259.152 231.545C260.123 232.667 260.885 233.964 261.429 235.337C262.06 236.922 262.588 238.601 263.005 240.331C263.005 240.341 263.01 240.361 263.015 240.382C264.337 245.808 264.616 251.722 263.752 256.776Z" fill="#84B5FF"/>
<path opacity="0.3" d="M263.752 256.777C262.786 262.429 257.668 266.201 250.334 266.201C243.95 266.201 238.537 263.847 237.109 258.657C235.681 253.477 236.235 243.892 238.141 237.923C238.425 237.032 238.771 236.172 239.167 235.358L239.172 235.348C239.172 235.348 235.31 248.021 238.395 256.093C241.485 264.164 255.869 263.993 260.738 258.632C265.373 253.528 263.229 241.538 263.015 240.392C264.337 245.808 264.616 251.722 263.752 256.777Z" fill="#0D6EB7"/>
<path d="M237.383 253.417C238.476 245.828 244.626 240.683 251.462 241.322C258.827 242.011 262.786 248.966 262.685 254.936C262.578 260.905 258.171 265.567 250.263 265.567C242.354 265.567 236.362 260.518 237.383 253.417Z" fill="#84B5FF"/>
<path d="M237.457 254.046C238.55 246.457 244.7 241.312 251.536 241.951C258.901 242.64 262.86 249.595 262.759 255.565C262.652 261.534 258.245 266.196 250.337 266.196C242.433 266.201 236.436 261.147 237.457 254.046Z" fill="url(#paint1_radial_1028_5808)"/>
<path opacity="0.5" d="M259.153 231.546C257.592 233.97 248.987 235.383 244.017 234.935C239.686 234.543 240.347 233.386 240.377 233.24C240.383 233.235 240.383 233.23 240.383 233.23C242.71 229.76 246.121 227.492 249.979 227.492C253.994 227.497 257.064 229.132 259.153 231.546Z" fill="#276ED8"/>
<path d="M227.665 223.036C232.534 234.151 268.982 230.685 273.338 221.553C278.1 211.565 267.147 186.887 249.683 188.039C234.928 189.015 221.409 208.749 227.665 223.036Z" fill="#84B5FF"/>
<path d="M229.677 221.468C234.332 230.585 266.15 229.076 270.795 220.698C274.74 213.582 265.423 191.912 249.438 192.681C233.453 193.456 225.204 212.717 229.677 221.468Z" fill="#276ED8"/>
<path d="M264.221 210.725C263.596 212.385 255.205 212.194 255.215 211.595C255.266 208.281 257.06 203.926 260.409 203.956C263.866 203.986 265.39 207.632 264.221 210.725Z" fill="#66D6A0"/>
<path d="M235.946 210.946C236.668 212.57 245.034 211.912 244.988 211.313C244.75 208.004 242.717 203.759 239.372 203.976C235.921 204.197 234.605 207.924 235.946 210.946Z" fill="#66D6A0"/>
<path d="M245.136 217.082C243.876 217.384 246.514 221.553 250.748 221.553C254.504 221.553 256.623 217.268 256.146 217.082C255.668 216.896 253.416 218.047 250.28 218.047C247.144 218.047 245.665 216.956 245.136 217.082Z" fill="#84B5FF"/>
<path d="M239.924 235.815C239.914 238.847 239.482 243.228 238.094 246.768C235.792 252.632 232.336 260.01 232.234 260.241L232.229 260.246C230.12 261.518 227.588 261.453 225.982 261.222C225.006 261.081 224.371 260.88 224.371 260.88C224.371 260.88 225.088 254.166 228.818 246.557C230.689 242.735 233.078 239.179 235.136 236.559C235.146 236.549 235.156 236.534 235.167 236.524C235.187 236.489 235.217 236.458 235.243 236.423C235.258 236.403 235.273 236.388 235.284 236.368C235.299 236.353 235.314 236.333 235.319 236.318C235.339 236.292 235.355 236.272 235.375 236.252C235.38 236.247 235.385 236.242 235.385 236.242C235.39 236.237 235.395 236.232 235.395 236.232C237.484 233.607 239.182 232.018 239.538 232.209C239.746 232.32 239.934 233.753 239.924 235.815Z" fill="#276ED8"/>
<path d="M224.402 260.613C224.402 260.613 227.122 256.173 229.927 256.751C232.733 257.33 232.23 260.246 232.23 260.246C232.23 260.246 228.641 262.816 224.402 260.613Z" fill="#84B5FF"/>
<path d="M239.924 235.814C239.914 238.847 239.482 243.227 238.094 246.768C235.792 252.632 232.336 260.009 232.234 260.241L232.229 260.246L225.982 261.221C225.006 261.08 224.371 260.879 224.371 260.879C224.371 260.879 225.088 254.166 228.818 246.557C230.689 242.734 233.078 239.179 235.136 236.559C233.957 238.098 229.032 244.791 227.705 250.479C226.196 256.952 232.28 254.457 234.77 250.479C237.256 246.501 239.853 235.819 239.853 235.819H239.924V235.814Z" fill="#84B5FF"/>
<path d="M224.366 260.875C224.366 260.875 226.043 258.526 228.468 258.209C230.892 257.898 231.761 258.561 232.224 260.241C232.691 261.926 229.25 268.056 224.981 272.678C223.136 272.829 222.582 270.591 222.312 269.153C222.318 267.895 223.537 262.851 224.366 260.875Z" fill="#84B5FF"/>
<path d="M230.256 258.194C230.256 258.194 225.707 264.445 224.264 268.041C223.486 269.982 223.039 271.255 223.039 271.255C223.039 271.255 224.223 274.217 226.18 271.738C228.955 268.227 232.676 262.947 232 260.407C231.431 258.26 231.049 257.852 230.256 258.194Z" fill="#276ED8"/>
<path opacity="0.5" d="M226.426 263.952C226.426 263.952 227.061 267.287 229.099 267.784L229.419 259.783C229.419 259.778 227.036 262.921 226.426 263.952Z" fill="#84B5FF"/>
<path d="M228.419 261.685C228.114 262.454 228.704 267.493 229.258 268.067C229.812 268.635 231.093 267.675 231.449 266.654C231.804 265.633 233.405 260.071 231.347 258.285C231.347 258.28 229.69 258.461 228.419 261.685Z" fill="#84B5FF"/>
<path d="M260.728 236.145C260.738 239.177 261.171 243.558 262.558 247.098C264.861 252.962 268.317 260.34 268.418 260.571L268.423 260.576C270.533 261.848 273.064 261.783 274.67 261.552C275.646 261.411 276.281 261.21 276.281 261.21C276.281 261.21 275.565 254.496 271.834 246.887C269.964 243.065 267.575 239.509 265.516 236.889C265.506 236.879 265.496 236.864 265.486 236.854C265.465 236.819 265.435 236.789 265.409 236.753C265.394 236.733 265.379 236.718 265.369 236.698C265.354 236.683 265.338 236.663 265.333 236.648C265.313 236.623 265.298 236.602 265.277 236.582C265.272 236.577 265.267 236.572 265.267 236.572C265.262 236.567 265.257 236.562 265.257 236.562C263.168 233.937 261.47 232.348 261.115 232.539C260.906 232.65 260.718 234.083 260.728 236.145Z" fill="#276ED8"/>
<path d="M276.25 260.944C276.25 260.944 273.531 256.503 270.725 257.081C267.92 257.66 268.423 260.576 268.423 260.576C268.423 260.576 272.011 263.146 276.25 260.944Z" fill="#84B5FF"/>
<path d="M260.728 236.145C260.738 239.177 261.171 243.557 262.558 247.098C264.861 252.962 268.317 260.339 268.418 260.571L268.423 260.576L274.67 261.551C275.646 261.411 276.281 261.209 276.281 261.209C276.281 261.209 275.565 254.496 271.834 246.887C269.964 243.065 267.575 239.509 265.516 236.889C266.695 238.428 271.62 245.121 272.947 250.809C274.457 257.282 268.373 254.787 265.882 250.809C263.397 246.831 260.799 236.15 260.799 236.15H260.728V236.145Z" fill="#84B5FF"/>
<path d="M276.286 261.205C276.286 261.205 274.609 258.856 272.185 258.539C269.76 258.228 268.891 258.891 268.429 260.571C267.961 262.256 271.402 268.386 275.671 273.008C277.516 273.159 278.07 270.921 278.34 269.483C278.335 268.225 277.115 263.181 276.286 261.205Z" fill="#84B5FF"/>
<path d="M270.396 258.524C270.396 258.524 274.945 264.775 276.388 268.371C277.166 270.312 277.613 271.585 277.613 271.585C277.613 271.585 276.429 274.547 274.472 272.068C271.697 268.557 267.977 263.277 268.653 260.737C269.222 258.59 269.603 258.182 270.396 258.524Z" fill="#276ED8"/>
<path opacity="0.5" d="M274.227 264.282C274.227 264.282 273.591 267.617 271.553 268.115L271.233 260.113C271.233 260.108 273.617 263.251 274.227 264.282Z" fill="#84B5FF"/>
<path d="M272.233 262.015C272.538 262.784 271.948 267.824 271.394 268.397C270.84 268.965 269.56 268.005 269.204 266.984C268.848 265.963 267.247 260.401 269.305 258.615C269.305 258.61 270.962 258.791 272.233 262.015Z" fill="#84B5FF"/>
<path d="M241.549 178.701L239.366 177.191L240.418 175.089L237.899 173.573L238.786 171.618L236.554 170.26L237.517 167.873L235.603 166.173L233.426 167.405L237.722 180.097L241.549 178.701Z" fill="#06B25F"/>
<path d="M220.282 155.552L233.028 177.031L236.073 175.209L230.543 158.795L220.282 155.552Z" fill="#66D6A0"/>
<path d="M233.841 138.73C234.141 138.845 240.768 143.864 240.605 144.008C240.444 144.155 230.032 159.788 230.032 159.788L221.08 153.92L233.841 138.73Z" fill="#66D6A0"/>
<path d="M229.004 161.246C226.801 163.249 223.396 163.094 221.396 160.897C219.397 158.7 219.56 155.296 221.762 153.293C223.965 151.29 227.37 151.445 229.37 153.642C231.37 155.834 231.207 159.238 229.004 161.246Z" fill="#06B25F"/>
<path d="M227.244 159.31C226.21 160.248 224.617 160.176 223.68 159.145C222.743 158.118 222.819 156.521 223.853 155.583C224.887 154.645 226.48 154.716 227.417 155.748C228.351 156.776 228.276 158.369 227.244 159.31Z" fill="#66D6A0"/>
<path d="M256.499 176.128L258.817 174.82L257.964 172.632L260.614 171.347L259.915 169.323L262.263 168.166L261.528 165.702L263.593 164.179L265.646 165.602L260.181 177.859L256.499 176.128Z" fill="#06B25F"/>
<path d="M279.844 154.968L265.138 175.222L262.281 173.139L269.32 157.285L279.844 154.968Z" fill="#66D6A0"/>
<path d="M245.193 89.1976L256.696 98.0747L254.659 132.254L243.65 134.003L245.193 89.1976Z" fill="#66D6A0"/>
<path d="M267.915 137.007C267.604 137.097 260.539 141.502 260.686 141.663C260.833 141.823 269.74 158.319 269.74 158.319L279.204 153.272L267.915 137.007Z" fill="#66D6A0"/>
<path d="M234.003 137.36C237.593 130.815 262.072 129.26 266.391 134.914C270.328 140.07 268.408 143.418 265.826 144.768C261.706 146.916 260.827 139.485 256.772 139.698C252.718 139.91 247.852 140.252 244.229 140.618C240.191 141.027 240.425 148.506 236.033 147.016C233.277 146.078 230.878 143.059 234.003 137.36Z" fill="#06B25F"/>
<path d="M270.623 159.861C272.628 162.053 276.035 162.2 278.233 160.191C280.431 158.183 280.585 154.778 278.581 152.585C276.573 150.394 273.169 150.246 270.971 152.254C268.775 154.265 268.619 157.668 270.623 159.861Z" fill="#06B25F"/>
<path d="M234.559 143.45C235.389 144.565 236.97 144.797 238.087 143.965C239.204 143.132 239.44 141.551 238.609 140.437C237.777 139.32 236.198 139.09 235.081 139.923C233.962 140.752 233.729 142.331 234.559 143.45Z" fill="#66D6A0"/>
<path d="M272.559 158.091C273.499 159.116 275.095 159.185 276.124 158.247C277.151 157.305 277.225 155.71 276.288 154.684C275.348 153.659 273.752 153.589 272.723 154.528C271.691 155.469 271.618 157.064 272.559 158.091Z" fill="#66D6A0"/>
<path d="M261.813 140.776C262.643 141.89 264.224 142.122 265.341 141.29C266.458 140.457 266.694 138.877 265.863 137.762C265.033 136.647 263.452 136.416 262.335 137.248C261.216 138.078 260.98 139.658 261.813 140.776Z" fill="#66D6A0"/>
<path d="M252.404 80.6982H332.273V82.6066H252.404V80.6982Z" fill="#66D6A0"/>
<path d="M327.986 78.0283H335.766V93.1706H327.986V78.0283Z" fill="#66D6A0"/>
<path d="M246.881 77H254.66V92.1422H246.881V77Z" fill="#66D6A0"/>
<path d="M333.73 89.281L324.69 104.706L252.406 102.847L248.85 88.7588L333.73 89.281Z" fill="#66D6A0"/>
<path d="M419.234 185.459C417.252 187.496 375.023 167.187 375.023 167.187L355.003 183.761L418.214 235.333L419.234 185.459Z" fill="#66D6A0"/>
<path d="M375.02 167.186L337.271 90.1152L324.688 104.706L354.999 183.761L375.02 167.186Z" fill="#66D6A0"/>
<path d="M413.791 176.42V234.532C413.791 237.222 415.977 239.403 418.673 239.403H448.461C451.158 239.403 453.344 237.222 453.344 234.532V176.42C453.344 173.73 451.158 171.549 448.461 171.549H418.673C415.977 171.549 413.791 173.73 413.791 176.42Z" fill="#66D6A0"/>
<path d="M365.823 189.223C358.168 189.223 351.963 183.032 351.963 175.395C351.963 167.758 358.168 161.566 365.823 161.566C373.478 161.566 379.684 167.758 379.684 175.395C379.684 183.032 373.478 189.223 365.823 189.223Z" fill="#06B25F"/>
<path d="M322.054 98.547C322.054 103.954 326.446 108.335 331.865 108.335C337.284 108.335 341.676 103.954 341.676 98.547C341.676 93.1405 337.284 88.7588 331.865 88.7588C326.446 88.7588 322.054 93.1405 322.054 98.547Z" fill="#06B25F"/>
<path d="M450.683 170.412V239.351C450.683 242.471 453.063 245 456 245V164.763C453.063 164.763 450.683 167.292 450.683 170.412Z" fill="#06B25F"/>
<path d="M367.285 168.493C367.285 167.475 334.893 98.5469 334.893 98.5469L330.3 100.038L358.357 172.563L367.285 168.493Z" fill="#06B25F"/>
<path d="M327.121 98.5409C327.121 101.162 329.251 103.284 331.875 103.284C334.499 103.284 336.629 101.159 336.629 98.5409C336.629 95.9197 334.499 93.7979 331.875 93.7979C329.251 93.7979 327.121 95.9197 327.121 98.5409Z" fill="#66D6A0"/>
<path d="M242.623 96.3203C242.623 100.81 246.27 104.453 250.774 104.453C255.275 104.453 258.926 100.814 258.926 96.3203C258.926 91.8302 255.278 88.1875 250.774 88.1875C246.274 88.1875 242.623 91.8269 242.623 96.3203Z" fill="#06B25F"/>
<path d="M324.691 94.5044L257.016 93.7949V97.073L324.691 100.972V94.5044Z" fill="#06B25F"/>
<path d="M247.128 95.7754C247.128 97.7823 248.757 99.4082 250.769 99.4082C252.781 99.4082 254.41 97.7823 254.41 95.7754C254.41 93.7685 252.781 92.1426 250.769 92.1426C248.761 92.1426 247.128 93.7685 247.128 95.7754Z" fill="#66D6A0"/>
<path d="M360 175.893C360 179.148 362.644 181.785 365.906 181.785C369.169 181.785 371.812 179.148 371.812 175.893C371.812 172.638 369.169 170 365.906 170C362.644 170 360 172.638 360 175.893Z" fill="#66D6A0"/>
<g filter="url(#filter0_d_1028_5808)">
<rect x="127" y="218" width="58" height="57" rx="6" fill="#276ED8"/>
</g>
<g clip-path="url(#clip1_1028_5808)">
<path d="M140 246C140 244.502 143.532 242.555 149.595 241.711C149.477 243.097 149.417 244.535 149.417 246C149.417 247.464 149.477 248.902 149.595 250.288C143.532 249.445 140 247.497 140 246Z" fill="white"/>
<path d="M155.999 262C154.502 262 152.554 258.468 151.711 252.405C153.097 252.523 154.535 252.583 155.999 252.583C157.464 252.583 158.902 252.523 160.288 252.405C159.444 258.468 157.497 262 155.999 262Z" fill="white"/>
<path d="M162.406 250.288C162.524 248.902 162.585 247.464 162.585 246C162.585 244.538 162.524 243.103 162.407 241.719C163.667 241.895 164.862 242.122 165.961 242.398L165.546 242.577C165.071 242.782 164.851 243.333 165.056 243.809C165.26 244.284 165.812 244.504 166.287 244.299L168.866 243.189C169.341 242.985 169.561 242.433 169.356 241.958L168.247 239.379C168.094 239.024 167.748 238.812 167.385 238.812C167.261 238.812 167.136 238.837 167.015 238.889C166.539 239.093 166.32 239.645 166.524 240.12L166.76 240.668C165.372 240.301 163.834 240.01 162.204 239.801C161.916 237.553 161.47 235.487 160.883 233.727C160.426 232.354 159.903 231.224 159.324 230.348C166.557 231.881 172.002 238.316 172.002 246C172.002 247.497 168.47 249.445 162.406 250.288V250.288Z" fill="white"/>
<path d="M151.494 250.507C151.365 249.111 151.293 247.606 151.293 246C151.293 244.393 151.365 242.888 151.494 241.493C152.89 241.364 154.395 241.291 156.001 241.291C157.539 241.291 159.055 241.362 160.509 241.499C160.637 242.893 160.71 244.396 160.71 246C160.71 247.606 160.637 249.111 160.508 250.507C159.113 250.636 157.607 250.708 156.001 250.708C154.395 250.708 152.89 250.636 151.494 250.507V250.507Z" fill="white"/>
<path d="M155.999 239.417C154.535 239.417 153.097 239.478 151.711 239.595C152.554 233.532 154.502 230 155.999 230C157.497 230 159.445 233.533 160.288 239.598C158.896 239.479 157.456 239.417 155.999 239.417V239.417Z" fill="white"/>
<path d="M152.677 230.348C152.098 231.225 151.576 232.355 151.118 233.727C150.532 235.487 150.086 237.552 149.798 239.799C147.551 240.087 145.487 240.532 143.727 241.119C142.354 241.576 141.224 242.099 140.348 242.678C141.654 236.517 146.516 231.655 152.677 230.348Z" fill="white"/>
<path d="M171.654 249.323C170.347 255.484 165.485 260.346 159.324 261.652C159.903 260.776 160.426 259.646 160.883 258.273C161.47 256.513 161.915 254.449 162.203 252.202C164.45 251.914 166.515 251.468 168.275 250.882C169.647 250.424 170.777 249.902 171.654 249.323V249.323Z" fill="white"/>
<path d="M143.727 250.882C145.487 251.468 147.551 251.914 149.798 252.202C150.086 254.449 150.532 256.513 151.118 258.273C151.576 259.646 152.098 260.776 152.677 261.652C146.516 260.346 141.654 255.484 140.348 249.323C141.224 249.902 142.354 250.424 143.727 250.882V250.882Z" fill="white"/>
</g>
</g>
<defs>
<filter id="filter0_d_1028_5808" x="121" y="212" width="80" height="79" filterUnits="userSpaceOnUse" color-interpolation-filters="sRGB">
<feFlood flood-opacity="0" result="BackgroundImageFix"/>
<feColorMatrix in="SourceAlpha" type="matrix" values="0 0 0 0 0 0 0 0 0 0 0 0 0 0 0 0 0 0 127 0" result="hardAlpha"/>
<feMorphology radius="3" operator="dilate" in="SourceAlpha" result="effect1_dropShadow_1028_5808"/>
<feOffset dx="5" dy="5"/>
<feGaussianBlur stdDeviation="4"/>
<feColorMatrix type="matrix" values="0 0 0 0 0 0 0 0 0 0 0 0 0 0 0 0 0 0 0.2 0"/>
<feBlend mode="normal" in2="BackgroundImageFix" result="effect1_dropShadow_1028_5808"/>
<feBlend mode="normal" in="SourceGraphic" in2="effect1_dropShadow_1028_5808" result="shape"/>
</filter>
<radialGradient id="paint0_radial_1028_5808" cx="0" cy="0" r="1" gradientUnits="userSpaceOnUse" gradientTransform="translate(250.361 288.259) rotate(0.187749) scale(28.3461 5.95771)">
<stop stop-color="#7B7EC9"/>
<stop offset="0.3883" stop-color="#BFD8F5"/>
<stop offset="1" stop-color="white"/>
</radialGradient>
<radialGradient id="paint1_radial_1028_5808" cx="0" cy="0" r="1" gradientUnits="userSpaceOnUse" gradientTransform="translate(250.473 262.428) scale(18.7404 18.5428)">
<stop stop-color="#81D884"/>
<stop offset="1" stop-color="#2DA531"/>
</radialGradient>
<clipPath id="clip0_1028_5808">
<rect width="463" height="374" fill="white"/>
</clipPath>
<clipPath id="clip1_1028_5808">
<rect width="32" height="32" fill="white" transform="matrix(1 0 0 -1 140 262)"/>
</clipPath>
</defs>
</svg>
