<svg width="453" height="351" viewBox="0 0 453 351" fill="none" xmlns="http://www.w3.org/2000/svg">
<g clip-path="url(#clip0_410_5592)">
<mask id="mask0_410_5592" style="mask-type:alpha" maskUnits="userSpaceOnUse" x="0" y="0" width="453" height="351">
<rect width="453" height="351" fill="#C4C4C4"/>
</mask>
<g mask="url(#mask0_410_5592)">
<path opacity="0.04" d="M73.5351 284.542C37.1783 352.883 287.753 359.817 341.535 335.042C395.318 310.267 406.848 215.878 388.035 185.542C382.168 176.137 460.493 241.055 457.035 230.266C449.504 206.66 460.264 100.804 447.035 80.5421C435.599 63.0033 325.488 94.6032 310.535 80.5421C303.986 74.4581 236.035 -11.9578 155.035 1.04221C95.8602 10.5394 18.5379 63.8506 2.53471 107.042C-13.4685 150.234 140.034 159.542 73.5351 284.542Z" fill="#276ED8"/>
<path opacity="0.2" d="M188.876 143.62L201 141.34V130.47L188.876 128.38C187.945 123.914 186.178 119.734 183.746 116.029L190.701 105.824L183.005 98.1283L172.952 105.235C169.247 102.803 165.085 101.055 160.601 100.124L158.321 88H147.451L145.361 100.124C140.895 101.055 136.715 102.822 133.01 105.254L122.824 98.2993L115.128 105.995L122.235 116.048C119.803 119.753 118.055 123.933 117.123 128.399L105 130.679V141.549L117.123 143.639C118.055 148.124 119.822 152.285 122.254 155.991L115.299 166.176L122.995 173.872L133.067 166.765C136.772 169.197 140.952 170.964 145.418 171.876L147.698 184H158.568L160.658 171.876C165.142 170.945 169.304 169.178 173.009 166.746L183.195 173.701L190.891 166.005L183.784 155.952C186.197 152.266 187.945 148.105 188.876 143.62ZM153 158.518C140.572 158.518 130.501 148.428 130.501 136.019C130.501 123.61 140.572 113.52 153 113.52C165.428 113.52 175.499 123.591 175.499 136.019C175.499 148.447 165.428 158.518 153 158.518Z" fill="#84B5FF"/>
<path d="M335.18 126.642V234.91C335.18 237.694 332.925 239.949 330.141 239.949H165.039C162.255 239.949 160 237.694 160 234.91V126.642C160 120.218 165.21 115 171.642 115H323.538C329.97 115 335.18 120.218 335.18 126.642Z" fill="white" stroke="#84B5FF" stroke-miterlimit="10"/>
<path d="M331.89 260C320.903 260 312 268.903 312 279.89C312 290.876 320.903 299.779 331.89 299.779C342.876 299.779 351.779 290.876 351.779 279.89C351.779 268.903 342.876 260 331.89 260ZM331.89 294.823C323.633 294.823 316.946 288.136 316.946 279.88C316.946 271.624 323.633 264.937 331.89 264.937C340.146 264.937 346.833 271.624 346.833 279.88C346.833 288.136 340.146 294.823 331.89 294.823Z" fill="#66D6A0"/>
<path d="M208.772 57.976H180.988C179.894 57.976 179 57.0914 179 55.988C179 54.8941 179.885 54 180.988 54H208.772C209.866 54 210.76 54.8846 210.76 55.988C210.76 57.0819 209.866 57.976 208.772 57.976Z" fill="#66D6A0"/>
<path d="M208.772 67.8972H180.988C179.894 67.8972 179 67.0125 179 65.9091C179 64.8153 179.885 63.9211 180.988 63.9211H208.772C209.866 63.9211 210.76 64.8058 210.76 65.9091C210.76 67.003 209.866 67.8972 208.772 67.8972Z" fill="#66D6A0"/>
<path d="M335.18 126.642V127.13H160V126.642C160 120.218 165.21 115 171.642 115H323.538C329.97 115 335.18 120.218 335.18 126.642Z" fill="#84B5FF"/>
<path opacity="0.3" d="M308.575 121.627C308.575 122.465 307.9 123.141 307.061 123.141C306.223 123.141 305.547 122.465 305.547 121.627C305.547 120.788 306.223 120.113 307.061 120.113C307.892 120.113 308.575 120.788 308.575 121.627Z" fill="white"/>
<path opacity="0.3" d="M316.864 121.627C316.864 122.465 316.189 123.141 315.35 123.141C314.512 123.141 313.836 122.465 313.836 121.627C313.836 120.788 314.512 120.113 315.35 120.113C316.181 120.113 316.864 120.788 316.864 121.627Z" fill="white"/>
<path opacity="0.3" d="M324.782 121.627C324.782 122.465 324.107 123.141 323.268 123.141C322.43 123.141 321.754 122.465 321.754 121.627C321.754 120.788 322.43 120.113 323.268 120.113C324.107 120.113 324.782 120.788 324.782 121.627Z" fill="white"/>
<path d="M335.18 126.642V234.91C335.18 237.694 332.925 239.949 330.141 239.949H165.039C162.255 239.949 160 237.694 160 234.91V126.642C160 120.218 165.21 115 171.642 115H323.538C329.97 115 335.18 120.218 335.18 126.642Z" stroke="#84B5FF" stroke-miterlimit="10"/>
<path opacity="0.5" d="M247.341 280.219C262.993 280.27 275.69 277.643 275.701 274.351C275.712 271.059 263.032 268.349 247.38 268.297C231.728 268.246 219.03 270.873 219.02 274.165C219.009 277.457 231.689 280.168 247.341 280.219Z" fill="url(#paint0_radial_410_5592)"/>
<path d="M247.829 254.047C247.839 257.587 246.594 265.986 244.078 265.558C243.534 265.468 242.883 264.919 242.187 264.064C240.062 261.474 237.48 256.108 236.022 252.432C235.229 250.426 234.761 248.922 234.893 248.64C235.676 246.91 246.893 251.894 247.62 252.538C247.752 252.664 247.829 253.222 247.829 254.047Z" fill="#84B5FF"/>
<path d="M234.887 248.64C234.028 250.27 244.224 255.208 247.741 252.855C247.741 252.855 236.026 246.478 234.887 248.64Z" fill="#276ED8"/>
<path d="M259.979 250.234C259.893 250.546 259.791 250.873 259.695 251.21C258.15 256.335 255.456 263.798 253.428 266.348C252.945 266.961 252.498 267.288 252.116 267.238C252.015 267.228 251.913 267.192 251.817 267.147C251.476 266.991 251.146 266.644 250.83 266.156V266.151C248.858 263.114 247.435 254.61 247.725 252.186C247.761 251.884 247.822 251.678 247.913 251.587C249.57 249.963 260.462 245.246 260.894 246.075C261.006 246.297 260.635 247.946 259.979 250.234Z" fill="#84B5FF"/>
<path d="M247.727 252.186C247.31 252.875 258.055 252.819 260.896 246.075C260.896 246.075 251.666 245.713 247.727 252.186Z" fill="#276ED8"/>
<path d="M230.354 178.123C230.944 178.434 230.893 179.063 229.678 178.907C228.463 178.751 227.802 177.806 227.935 177.625C228.062 177.444 229.693 177.771 230.354 178.123Z" fill="white"/>
<path d="M260.752 242.776C259.786 248.429 254.668 252.201 247.334 252.201C240.95 252.201 235.537 249.847 234.109 244.657C232.681 239.477 233.235 229.892 235.141 223.922C235.425 223.032 235.771 222.172 236.167 221.358L236.172 221.348C236.533 220.608 236.935 219.904 237.377 219.245C237.382 219.24 237.382 219.235 237.382 219.235C239.71 215.765 243.12 213.497 246.978 213.497C250.993 213.497 254.063 215.132 256.152 217.546C257.123 218.667 257.885 219.965 258.429 221.338C259.06 222.922 259.588 224.601 260.005 226.331C260.005 226.341 260.01 226.362 260.015 226.382C261.337 231.808 261.616 237.722 260.752 242.776Z" fill="#84B5FF"/>
<path opacity="0.3" d="M260.752 242.776C259.786 248.429 254.668 252.201 247.334 252.201C240.95 252.201 235.537 249.847 234.109 244.657C232.681 239.477 233.235 229.892 235.141 223.922C235.425 223.032 235.771 222.172 236.167 221.358L236.172 221.348C236.172 221.348 232.31 234.021 235.395 242.092C238.485 250.164 252.869 249.993 257.738 244.632C262.373 239.528 260.229 227.538 260.015 226.392C261.337 231.808 261.616 237.722 260.752 242.776Z" fill="#0D6EB7"/>
<path d="M234.383 239.417C235.476 231.828 241.626 226.683 248.462 227.322C255.827 228.011 259.786 234.966 259.685 240.936C259.578 246.905 255.171 251.567 247.263 251.567C239.354 251.567 233.362 246.518 234.383 239.417Z" fill="#84B5FF"/>
<path d="M234.457 240.046C235.55 232.457 241.7 227.312 248.536 227.951C255.901 228.64 259.86 235.595 259.759 241.564C259.652 247.534 255.245 252.196 247.337 252.196C239.433 252.201 233.436 247.147 234.457 240.046Z" fill="url(#paint1_radial_410_5592)"/>
<path opacity="0.5" d="M256.153 217.545C254.592 219.97 245.987 221.383 241.017 220.935C236.686 220.543 237.347 219.386 237.377 219.24C237.383 219.235 237.383 219.23 237.383 219.23C239.71 215.76 243.121 213.492 246.979 213.492C250.994 213.497 254.064 215.132 256.153 217.545Z" fill="#276ED8"/>
<path d="M224.665 209.036C229.534 220.151 265.982 216.685 270.338 207.553C275.1 197.565 264.147 172.887 246.683 174.039C231.928 175.015 218.409 194.749 224.665 209.036Z" fill="#84B5FF"/>
<path d="M226.677 207.467C231.332 216.585 263.15 215.076 267.795 206.698C271.74 199.582 262.423 177.911 246.438 178.681C230.453 179.455 222.204 198.717 226.677 207.467Z" fill="#276ED8"/>
<path d="M261.221 196.725C260.596 198.385 252.205 198.194 252.215 197.595C252.266 194.281 254.06 189.926 257.409 189.956C260.866 189.986 262.39 193.632 261.221 196.725Z" fill="#66D6A0"/>
<path d="M232.946 196.946C233.668 198.571 242.034 197.912 241.988 197.314C241.75 194.004 239.717 189.76 236.372 189.976C232.921 190.197 231.605 193.924 232.946 196.946Z" fill="#66D6A0"/>
<path d="M242.136 203.082C240.876 203.384 243.514 207.553 247.748 207.553C251.504 207.553 253.623 203.268 253.146 203.082C252.668 202.896 250.416 204.048 247.28 204.048C244.144 204.048 242.665 202.956 242.136 203.082Z" fill="#84B5FF"/>
<path d="M236.924 221.815C236.914 224.848 236.482 229.228 235.094 232.768C232.792 238.632 229.336 246.01 229.234 246.241L229.229 246.246C227.12 247.519 224.588 247.453 222.982 247.222C222.006 247.081 221.371 246.88 221.371 246.88C221.371 246.88 222.088 240.166 225.818 232.557C227.689 228.735 230.078 225.18 232.136 222.559C232.146 222.549 232.156 222.534 232.167 222.524C232.187 222.489 232.217 222.459 232.243 222.424C232.258 222.403 232.273 222.388 232.284 222.368C232.299 222.353 232.314 222.333 232.319 222.318C232.339 222.293 232.355 222.273 232.375 222.253C232.38 222.248 232.385 222.243 232.385 222.243C232.39 222.238 232.395 222.232 232.395 222.232C234.484 219.607 236.182 218.018 236.538 218.209C236.746 218.32 236.934 219.753 236.924 221.815Z" fill="#276ED8"/>
<path d="M221.402 246.613C221.402 246.613 224.122 242.173 226.927 242.751C229.733 243.329 229.23 246.246 229.23 246.246C229.23 246.246 225.641 248.816 221.402 246.613Z" fill="#84B5FF"/>
<path d="M236.924 221.815C236.914 224.848 236.482 229.228 235.094 232.768C232.792 238.632 229.336 246.01 229.234 246.241L229.229 246.246L222.982 247.222C222.006 247.081 221.371 246.88 221.371 246.88C221.371 246.88 222.088 240.166 225.818 232.557C227.689 228.735 230.078 225.18 232.136 222.559C230.957 224.098 226.032 230.792 224.705 236.48C223.196 242.952 229.28 240.458 231.77 236.48C234.256 232.502 236.853 221.82 236.853 221.82H236.924V221.815Z" fill="#84B5FF"/>
<path d="M221.366 246.875C221.366 246.875 223.043 244.526 225.468 244.21C227.892 243.898 228.761 244.562 229.224 246.241C229.691 247.926 226.25 254.057 221.981 258.678C220.136 258.829 219.582 256.591 219.312 255.153C219.318 253.896 220.537 248.851 221.366 246.875Z" fill="#84B5FF"/>
<path d="M227.256 244.194C227.256 244.194 222.707 250.446 221.264 254.041C220.486 255.983 220.039 257.255 220.039 257.255C220.039 257.255 221.223 260.217 223.18 257.738C225.955 254.227 229.676 248.947 229 246.407C228.431 244.26 228.049 243.852 227.256 244.194Z" fill="#276ED8"/>
<path opacity="0.5" d="M223.426 249.953C223.426 249.953 224.061 253.287 226.099 253.785L226.419 245.784C226.419 245.779 224.036 248.922 223.426 249.953Z" fill="#84B5FF"/>
<path d="M225.419 247.685C225.114 248.454 225.704 253.493 226.258 254.067C226.812 254.635 228.093 253.674 228.449 252.654C228.804 251.633 230.405 246.07 228.347 244.285C228.347 244.28 226.69 244.461 225.419 247.685Z" fill="#84B5FF"/>
<path d="M257.728 222.145C257.738 225.178 258.171 229.558 259.558 233.098C261.861 238.962 265.317 246.34 265.418 246.571L265.423 246.576C267.533 247.849 270.064 247.783 271.67 247.552C272.646 247.411 273.281 247.21 273.281 247.21C273.281 247.21 272.565 240.496 268.834 232.887C266.964 229.065 264.575 225.509 262.516 222.889C262.506 222.879 262.496 222.864 262.486 222.854C262.465 222.819 262.435 222.789 262.409 222.754C262.394 222.733 262.379 222.718 262.369 222.698C262.354 222.683 262.338 222.663 262.333 222.648C262.313 222.623 262.298 222.603 262.277 222.583C262.272 222.578 262.267 222.573 262.267 222.573C262.262 222.567 262.257 222.562 262.257 222.562C260.168 219.937 258.47 218.348 258.115 218.539C257.906 218.65 257.718 220.083 257.728 222.145Z" fill="#276ED8"/>
<path d="M273.25 246.943C273.25 246.943 270.531 242.503 267.725 243.081C264.92 243.659 265.423 246.576 265.423 246.576C265.423 246.576 269.011 249.146 273.25 246.943Z" fill="#84B5FF"/>
<path d="M257.728 222.145C257.738 225.178 258.171 229.558 259.558 233.098C261.861 238.962 265.317 246.34 265.418 246.571L265.423 246.576L271.67 247.552C272.646 247.411 273.281 247.21 273.281 247.21C273.281 247.21 272.565 240.496 268.834 232.887C266.964 229.065 264.575 225.509 262.516 222.889C263.695 224.428 268.62 231.122 269.947 236.81C271.457 243.282 265.373 240.788 262.882 236.81C260.397 232.832 257.799 222.15 257.799 222.15H257.728V222.145Z" fill="#84B5FF"/>
<path d="M273.286 247.205C273.286 247.205 271.609 244.856 269.185 244.54C266.76 244.228 265.891 244.892 265.429 246.571C264.961 248.256 268.402 254.386 272.671 259.008C274.516 259.159 275.07 256.921 275.34 255.483C275.335 254.226 274.115 249.181 273.286 247.205Z" fill="#84B5FF"/>
<path d="M267.396 244.524C267.396 244.524 271.945 250.775 273.388 254.371C274.166 256.312 274.613 257.585 274.613 257.585C274.613 257.585 273.429 260.547 271.472 258.068C268.697 254.557 264.977 249.277 265.653 246.737C266.222 244.59 266.603 244.182 267.396 244.524Z" fill="#276ED8"/>
<path opacity="0.5" d="M271.227 250.283C271.227 250.283 270.591 253.617 268.553 254.115L268.233 246.114C268.233 246.109 270.617 249.252 271.227 250.283Z" fill="#84B5FF"/>
<path d="M269.233 248.015C269.538 248.784 268.948 253.823 268.394 254.397C267.84 254.965 266.56 254.004 266.204 252.983C265.848 251.963 264.247 246.4 266.305 244.615C266.305 244.61 267.962 244.791 269.233 248.015Z" fill="#84B5FF"/>
<path d="M238.549 164.7L236.366 163.191L237.418 161.089L234.899 159.573L235.786 157.617L233.554 156.259L234.517 153.873L232.603 152.173L230.426 153.404L234.722 166.096L238.549 164.7Z" fill="#06B25F"/>
<path d="M217.282 141.551L230.028 163.03L233.073 161.209L227.543 144.795L217.282 141.551Z" fill="#66D6A0"/>
<path d="M230.841 124.729C231.141 124.844 237.768 129.863 237.605 130.008C237.444 130.155 227.032 145.787 227.032 145.787L218.08 139.919L230.841 124.729Z" fill="#66D6A0"/>
<path d="M226.004 147.246C223.801 149.249 220.396 149.094 218.396 146.897C216.397 144.7 216.56 141.296 218.762 139.293C220.965 137.29 224.37 137.445 226.37 139.642C228.37 141.834 228.207 145.238 226.004 147.246Z" fill="#06B25F"/>
<path d="M224.244 145.31C223.21 146.248 221.617 146.176 220.68 145.145C219.743 144.118 219.819 142.521 220.853 141.583C221.887 140.644 223.48 140.716 224.417 141.747C225.351 142.776 225.276 144.369 224.244 145.31Z" fill="#66D6A0"/>
<path d="M253.499 162.127L255.817 160.819L254.964 158.632L257.614 157.346L256.915 155.322L259.263 154.165L258.528 151.702L260.593 150.178L262.646 151.602L257.181 163.858L253.499 162.127Z" fill="#06B25F"/>
<path d="M276.844 140.968L262.138 161.222L259.281 159.139L266.32 143.285L276.844 140.968Z" fill="#66D6A0"/>
<path d="M242.193 75.1976L253.696 84.0747L251.659 118.254L240.65 120.003L242.193 75.1976Z" fill="#66D6A0"/>
<path d="M264.915 123.007C264.604 123.097 257.539 127.502 257.686 127.663C257.833 127.823 266.74 144.319 266.74 144.319L276.204 139.272L264.915 123.007Z" fill="#66D6A0"/>
<path d="M231.003 123.36C234.593 116.815 259.072 115.26 263.391 120.914C267.328 126.07 265.408 129.418 262.826 130.768C258.706 132.916 257.827 125.485 253.772 125.698C249.718 125.91 244.852 126.252 241.229 126.618C237.191 127.027 237.425 134.506 233.033 133.016C230.277 132.078 227.878 129.059 231.003 123.36Z" fill="#06B25F"/>
<path d="M267.623 145.861C269.628 148.054 273.035 148.2 275.233 146.191C277.431 144.183 277.585 140.778 275.581 138.585C273.573 136.394 270.169 136.246 267.971 138.255C265.775 140.266 265.619 143.668 267.623 145.861Z" fill="#06B25F"/>
<path d="M231.559 129.451C232.389 130.565 233.97 130.797 235.087 129.965C236.204 129.132 236.44 127.552 235.609 126.437C234.777 125.32 233.198 125.09 232.081 125.923C230.962 126.753 230.729 128.331 231.559 129.451Z" fill="#66D6A0"/>
<path d="M269.559 144.091C270.499 145.115 272.095 145.185 273.124 144.246C274.151 143.305 274.225 141.71 273.288 140.683C272.348 139.659 270.752 139.589 269.723 140.528C268.691 141.469 268.618 143.064 269.559 144.091Z" fill="#66D6A0"/>
<path d="M258.813 126.775C259.643 127.89 261.224 128.122 262.341 127.289C263.458 126.457 263.694 124.876 262.863 123.762C262.033 122.647 260.452 122.415 259.335 123.247C258.216 124.077 257.98 125.658 258.813 126.775Z" fill="#66D6A0"/>
<path d="M249.404 66.6985H329.273V68.6069H249.404V66.6985Z" fill="#66D6A0"/>
<path d="M324.986 64.0281H332.766V79.1703H324.986V64.0281Z" fill="#66D6A0"/>
<path d="M243.881 63H251.66V78.1422H243.881V63Z" fill="#66D6A0"/>
<path d="M330.73 75.2813L321.69 90.706L249.406 88.8469L245.85 74.759L330.73 75.2813Z" fill="#66D6A0"/>
<path d="M416.234 171.459C414.252 173.496 372.023 153.187 372.023 153.187L352.003 169.761L415.214 221.333L416.234 171.459Z" fill="#66D6A0"/>
<path d="M372.02 153.187L334.271 76.1156L321.688 90.706L351.999 169.761L372.02 153.187Z" fill="#66D6A0"/>
<path d="M410.791 162.42V220.532C410.791 223.222 412.977 225.403 415.673 225.403H445.461C448.158 225.403 450.344 223.222 450.344 220.532V162.42C450.344 159.73 448.158 157.549 445.461 157.549H415.673C412.977 157.549 410.791 159.73 410.791 162.42Z" fill="#66D6A0"/>
<path d="M362.823 175.223C355.168 175.223 348.963 169.032 348.963 161.395C348.963 153.758 355.168 147.567 362.823 147.567C370.478 147.567 376.684 153.758 376.684 161.395C376.684 169.032 370.478 175.223 362.823 175.223Z" fill="#06B25F"/>
<path d="M319.054 84.5473C319.054 89.9538 323.446 94.3355 328.865 94.3355C334.284 94.3355 338.676 89.9538 338.676 84.5473C338.676 79.1408 334.284 74.759 328.865 74.759C323.446 74.759 319.054 79.1408 319.054 84.5473Z" fill="#06B25F"/>
<path d="M447.683 156.412V225.351C447.683 228.471 450.063 231 453 231V150.763C450.063 150.763 447.683 153.292 447.683 156.412Z" fill="#06B25F"/>
<path d="M364.285 154.494C364.285 153.476 331.893 84.5474 331.893 84.5474L327.3 86.0386L355.357 158.564L364.285 154.494Z" fill="#06B25F"/>
<path d="M324.121 84.5408C324.121 87.1619 326.251 89.2838 328.875 89.2838C331.499 89.2838 333.629 87.1586 333.629 84.5408C333.629 81.9196 331.499 79.7977 328.875 79.7977C326.251 79.7977 324.121 81.9196 324.121 84.5408Z" fill="#66D6A0"/>
<path d="M239.623 82.3203C239.623 86.8104 243.27 90.4531 247.774 90.4531C252.275 90.4531 255.926 86.8137 255.926 82.3203C255.926 77.8302 252.278 74.1875 247.774 74.1875C243.274 74.1875 239.623 77.8269 239.623 82.3203Z" fill="#06B25F"/>
<path d="M321.691 80.5039L254.016 79.7944V83.0725L321.691 86.9714V80.5039Z" fill="#06B25F"/>
<path d="M244.128 81.775C244.128 83.782 245.757 85.4079 247.769 85.4079C249.781 85.4079 251.41 83.782 251.41 81.775C251.41 79.7681 249.781 78.1422 247.769 78.1422C245.761 78.1422 244.128 79.7681 244.128 81.775Z" fill="#66D6A0"/>
<path d="M357 161.893C357 165.148 359.644 167.785 362.906 167.785C366.169 167.785 368.812 165.148 368.812 161.893C368.812 158.638 366.169 156 362.906 156C359.644 156 357 158.638 357 161.893Z" fill="#66D6A0"/>
<g filter="url(#filter0_d_410_5592)">
<rect x="124" y="204" width="58" height="57" rx="6" fill="#276ED8"/>
</g>
<g clip-path="url(#clip1_410_5592)">
<path d="M137 232C137 230.503 140.532 228.555 146.595 227.712C146.477 229.098 146.417 230.535 146.417 232C146.417 233.464 146.477 234.902 146.595 236.288C140.532 235.445 137 233.497 137 232Z" fill="white"/>
<path d="M152.999 248C151.502 248 149.554 244.468 148.711 238.405C150.097 238.523 151.535 238.583 152.999 238.583C154.464 238.583 155.902 238.523 157.288 238.405C156.444 244.468 154.497 248 152.999 248Z" fill="white"/>
<path d="M159.406 236.288C159.524 234.902 159.585 233.464 159.585 232C159.585 230.538 159.524 229.103 159.407 227.719C160.667 227.895 161.862 228.123 162.961 228.399L162.546 228.577C162.071 228.782 161.851 229.333 162.056 229.809C162.26 230.285 162.812 230.504 163.287 230.299L165.866 229.19C166.341 228.985 166.561 228.434 166.356 227.958L165.247 225.379C165.094 225.025 164.748 224.812 164.385 224.812C164.261 224.812 164.136 224.837 164.015 224.889C163.539 225.094 163.32 225.645 163.524 226.121L163.76 226.668C162.372 226.302 160.834 226.011 159.204 225.801C158.916 223.554 158.47 221.488 157.883 219.727C157.426 218.355 156.903 217.225 156.324 216.348C163.557 217.882 169.002 224.317 169.002 232C169.002 233.497 165.47 235.445 159.406 236.288V236.288Z" fill="white"/>
<path d="M148.494 236.507C148.365 235.111 148.293 233.606 148.293 232C148.293 230.394 148.365 228.889 148.494 227.493C149.89 227.364 151.395 227.292 153.001 227.292C154.539 227.292 156.055 227.363 157.509 227.499C157.637 228.893 157.71 230.396 157.71 232C157.71 233.606 157.637 235.111 157.508 236.507C156.113 236.636 154.607 236.708 153.001 236.708C151.395 236.708 149.89 236.636 148.494 236.507V236.507Z" fill="white"/>
<path d="M152.999 225.417C151.535 225.417 150.097 225.478 148.711 225.595C149.554 219.532 151.502 216 152.999 216C154.497 216 156.445 219.533 157.288 225.598C155.896 225.478 154.456 225.417 152.999 225.417V225.417Z" fill="white"/>
<path d="M149.677 216.348C149.098 217.225 148.576 218.355 148.118 219.727C147.532 221.487 147.086 223.552 146.798 225.798C144.551 226.086 142.487 226.532 140.727 227.118C139.354 227.576 138.224 228.099 137.348 228.677C138.654 222.516 143.516 217.654 149.677 216.348Z" fill="white"/>
<path d="M168.654 235.323C167.347 241.484 162.485 246.346 156.324 247.652C156.903 246.775 157.426 245.645 157.883 244.273C158.47 242.513 158.915 240.448 159.203 238.202C161.45 237.914 163.515 237.468 165.275 236.882C166.647 236.424 167.777 235.901 168.654 235.323V235.323Z" fill="white"/>
<path d="M140.727 236.882C142.487 237.468 144.551 237.914 146.798 238.202C147.086 240.448 147.532 242.513 148.118 244.273C148.576 245.645 149.098 246.775 149.677 247.652C143.516 246.346 138.654 241.484 137.348 235.323C138.224 235.901 139.354 236.424 140.727 236.882V236.882Z" fill="white"/>
</g>
</g>
</g>
<defs>
<filter id="filter0_d_410_5592" x="118" y="198" width="80" height="79" filterUnits="userSpaceOnUse" color-interpolation-filters="sRGB">
<feFlood flood-opacity="0" result="BackgroundImageFix"/>
<feColorMatrix in="SourceAlpha" type="matrix" values="0 0 0 0 0 0 0 0 0 0 0 0 0 0 0 0 0 0 127 0" result="hardAlpha"/>
<feMorphology radius="3" operator="dilate" in="SourceAlpha" result="effect1_dropShadow_410_5592"/>
<feOffset dx="5" dy="5"/>
<feGaussianBlur stdDeviation="4"/>
<feColorMatrix type="matrix" values="0 0 0 0 0 0 0 0 0 0 0 0 0 0 0 0 0 0 0.2 0"/>
<feBlend mode="normal" in2="BackgroundImageFix" result="effect1_dropShadow_410_5592"/>
<feBlend mode="normal" in="SourceGraphic" in2="effect1_dropShadow_410_5592" result="shape"/>
</filter>
<radialGradient id="paint0_radial_410_5592" cx="0" cy="0" r="1" gradientUnits="userSpaceOnUse" gradientTransform="translate(247.361 274.26) rotate(0.187749) scale(28.3461 5.95771)">
<stop stop-color="#7B7EC9"/>
<stop offset="0.3883" stop-color="#BFD8F5"/>
<stop offset="1" stop-color="white"/>
</radialGradient>
<radialGradient id="paint1_radial_410_5592" cx="0" cy="0" r="1" gradientUnits="userSpaceOnUse" gradientTransform="translate(247.473 248.427) scale(18.7404 18.5428)">
<stop stop-color="#81D884"/>
<stop offset="1" stop-color="#2DA531"/>
</radialGradient>
<clipPath id="clip0_410_5592">
<rect width="453" height="351" fill="white"/>
</clipPath>
<clipPath id="clip1_410_5592">
<rect width="32" height="32" fill="white" transform="matrix(1 0 0 -1 137 248)"/>
</clipPath>
</defs>
</svg>
