<svg width="515" height="347" viewBox="0 0 515 347" fill="none" xmlns="http://www.w3.org/2000/svg">
<path d="M215.249 22.167C204.263 22.167 195.359 31.0702 195.359 42.0565C195.359 53.0429 204.263 61.9461 215.249 61.9461C226.235 61.9461 235.138 53.0429 235.138 42.0565C235.138 31.0702 226.235 22.167 215.249 22.167ZM215.249 56.9904C206.993 56.9904 200.306 50.3034 200.306 42.047C200.306 33.7906 206.993 27.1037 215.249 27.1037C223.505 27.1037 230.192 33.7906 230.192 42.047C230.192 50.3034 223.505 56.9904 215.249 56.9904Z" fill="#66D6A0"/>
<mask id="mask0_410_5593" style="mask-type:alpha" maskUnits="userSpaceOnUse" x="0" y="0" width="515" height="347">
<rect width="515" height="347" fill="#C4C4C4"/>
</mask>
<g mask="url(#mask0_410_5593)">
<path opacity="0.04" d="M304.557 331.307C207.766 349.507 34.129 368.5 8.00074 249.5C-18.1275 130.5 45.0196 89.6309 90.0007 86.5005C103.973 85.5652 141.584 115.034 184.322 95.4365C236.218 71.6396 236.776 4.4646 267.328 3.05498C293.762 1.81916 317.333 65.5425 342.95 70.4919C354.094 72.7139 400.858 -11.214 455.008 28.1446C489.566 53.2629 518.577 149.81 503.358 93.2133C488.138 36.6169 415.848 310.381 304.557 331.307Z" fill="#276ED8"/>
<path d="M294.569 250.626H266.785C265.691 250.626 264.797 249.741 264.797 248.638C264.797 247.544 265.681 246.65 266.785 246.65H294.569C295.663 246.65 296.557 247.534 296.557 248.638C296.557 249.732 295.663 250.626 294.569 250.626Z" fill="#66D6A0"/>
<path d="M294.569 260.547H266.785C265.691 260.547 264.797 259.662 264.797 258.559C264.797 257.465 265.681 256.571 266.785 256.571H294.569C295.663 256.571 296.557 257.455 296.557 258.559C296.557 259.653 295.663 260.547 294.569 260.547Z" fill="#66D6A0"/>
<path opacity="0.2" d="M155.401 95.1007L167.774 92.7735V81.6807L155.401 79.5475C154.451 74.9902 152.648 70.7237 150.165 66.9421L157.263 56.528L149.409 48.6739L139.15 55.9268C135.368 53.4445 131.121 51.6604 126.545 50.7101L124.217 38.3374H113.125L110.992 50.7101C106.434 51.6604 102.168 53.4639 98.3861 55.9462L87.9914 48.8484L80.1372 56.7026L87.3902 66.9615C84.9079 70.7431 83.1237 75.0095 82.1735 79.5669L69.8008 81.8941V92.9868L82.1735 95.1201C83.1237 99.6968 84.9273 103.944 87.4096 107.726L80.3118 118.12L88.1659 125.974L98.4442 118.721C102.226 121.204 106.492 123.007 111.05 123.938L113.377 136.311H124.47L126.603 123.938C131.18 122.988 135.427 121.184 139.208 118.702L149.603 125.8L157.457 117.946L150.204 107.687C152.667 103.924 154.451 99.6774 155.401 95.1007ZM118.787 110.305C106.104 110.305 95.8262 100.007 95.8262 87.3435C95.8262 74.6799 106.104 64.3822 118.787 64.3822C131.47 64.3822 141.749 74.6605 141.749 87.3435C141.749 100.027 131.47 110.305 118.787 110.305Z" fill="#84B5FF"/>
<path d="M88.8242 135.711V276.737C88.8242 283.756 92.0498 287.454 96.0234 287.454H194.818C198.791 287.454 202.017 283.756 202.017 276.737V135.711C202.017 128.692 198.791 124.994 194.818 124.994H96.0156C92.042 125.008 88.8242 128.692 88.8242 135.711ZM194.919 282.93H145.42H95.9221C94.4496 282.93 93.2575 280.824 93.2575 278.223V134.224C93.2575 131.623 94.4496 129.517 95.9221 129.517H194.919C196.391 129.517 197.584 131.623 197.584 134.224V278.223C197.584 280.824 196.391 282.93 194.919 282.93Z" fill="#66D6A0"/>
<path d="M315.382 91.8897V218.39C315.382 221.643 312.747 224.277 309.494 224.277H116.591C113.338 224.277 110.703 221.643 110.703 218.39V91.8897C110.703 84.3848 116.791 78.2876 124.305 78.2876H301.78C309.294 78.2876 315.382 84.3848 315.382 91.8897Z" fill="white" stroke="#84B5FF" stroke-miterlimit="10"/>
<path d="M315.382 91.8897V92.4605H110.703V91.8897C110.703 84.3848 116.791 78.2876 124.305 78.2876H301.78C309.294 78.2876 315.382 84.3848 315.382 91.8897Z" fill="#84B5FF"/>
<path d="M315.382 197.026V218.39C315.382 221.643 312.747 224.277 309.494 224.277H116.591C113.338 224.277 110.703 221.643 110.703 218.39V197.026H315.382Z" fill="#EDF1FF"/>
<path d="M284.296 86.0307C284.296 87.0104 283.507 87.7999 282.527 87.7999C281.547 87.7999 280.758 87.0104 280.758 86.0307C280.758 85.051 281.547 84.2615 282.527 84.2615C283.497 84.2615 284.296 85.051 284.296 86.0307Z" fill="#84B5FF"/>
<path d="M293.98 86.0307C293.98 87.0104 293.19 87.7999 292.211 87.7999C291.231 87.7999 290.441 87.0104 290.441 86.0307C290.441 85.051 291.231 84.2615 292.211 84.2615C293.181 84.2615 293.98 85.051 293.98 86.0307Z" fill="#84B5FF"/>
<path d="M303.234 86.0307C303.234 87.0104 302.444 87.7999 301.465 87.7999C300.485 87.7999 299.695 87.0104 299.695 86.0307C299.695 85.051 300.485 84.2615 301.465 84.2615C302.444 84.2615 303.234 85.051 303.234 86.0307Z" fill="#84B5FF"/>
<path d="M315.382 91.8897V218.39C315.382 221.643 312.747 224.277 309.494 224.277H116.591C113.338 224.277 110.703 221.643 110.703 218.39V91.8897C110.703 84.3848 116.791 78.2876 124.305 78.2876H301.78C309.294 78.2876 315.382 84.3848 315.382 91.8897Z" stroke="#84B5FF" stroke-miterlimit="10"/>
<g filter="url(#filter0_d_410_5593)">
<path d="M471.411 20.0439C452.368 11.7907 433.7 10.9275 423.778 16.8261C423.929 16.0921 424.137 15.3658 424.408 14.6668C429.43 1.71618 453.611 -0.0699523 478.411 10.6785C503.211 21.4269 519.248 40.6434 514.227 53.5939C513.06 56.6035 510.858 59.0082 507.853 60.7928C510.485 47.9472 494.869 30.2105 471.411 20.0439Z" fill="#043072"/>
<path d="M422.383 17.687C419.763 30.5355 435.371 48.2669 458.823 58.4309C467.922 62.3743 477.711 65.0417 487.432 65.4152C491.405 65.568 495.391 65.3267 499.193 64.4438C500.869 64.0529 502.524 63.5307 504.101 62.8939C505.569 62.3024 508.522 60.664 508.897 58.927C508.083 62.7089 505.411 66.0444 502.645 68.5689C490.053 80.0549 466.696 74.2403 451.825 67.7955C427.025 57.0474 410.996 37.8366 416.017 24.8874C417.183 21.8782 419.385 19.4736 422.383 17.687Z" fill="#84B5FF"/>
<path d="M424.501 14.7919C429.664 1.77217 453.882 -0.108287 478.586 10.593C503.29 21.2943 519.134 40.5286 513.97 53.5483C512.771 56.5739 510.542 58.9961 507.516 60.7985" stroke="#84B5FF" stroke-width="2" stroke-miterlimit="10"/>
<path d="M423.109 17.6522C420.369 30.5239 435.739 48.2018 459.002 58.2706C477.887 66.4445 496.473 67.2243 506.414 61.2765" stroke="#84B5FF" stroke-width="2" stroke-miterlimit="10"/>
<path d="M415.77 37.5383C432.42 56.8078 455.712 71.5973 484.098 83.1811C485.931 83.9273 487.951 83.1511 488.642 81.4175L499.681 53.7003C500.366 51.9817 499.502 49.9507 497.719 49.1261C473.142 37.7286 451.064 23.2592 431.945 5.15282C430.081 3.38849 427.105 3.89178 426.21 6.13645L415.117 33.9594C414.649 35.1318 414.891 36.5172 415.77 37.5383Z" fill="#276ED8"/>
<path d="M409.939 39.1342C426.59 58.4069 466.333 87.2699 466.333 87.2699L486.1 83.6264C487.281 83.3973 487.79 82.1367 488.085 80.995L493.885 55.3031C494.573 53.5791 493.695 51.548 491.907 50.7209C467.482 39.3902 447.62 22.6885 428.604 4.71347C428.36 4.47819 427.999 4.41015 427.704 4.54701C424.712 5.91981 408.824 10.9076 407.888 12.6359L409.288 35.5617C408.815 36.7321 409.057 38.1179 409.939 39.1342Z" fill="#276ED8"/>
<path opacity="0.21" d="M447.406 25.9614C446.028 26.4108 444.574 26.8036 443.095 27.2097C442.803 27.2724 442.51 27.3228 442.215 27.3782C446.327 25.9439 450.477 24.6023 454.594 23.1876C454.665 23.242 454.737 23.2964 454.81 23.3457C452.355 24.2684 449.887 25.1444 447.406 25.9614Z" fill="white"/>
<path opacity="0.21" d="M425.146 22.2275C433.341 27.9157 441.522 33.639 449.967 38.9437C455.977 42.7185 462.102 45.8466 468.308 49.2029C470.703 50.4981 474.757 52.6289 476.868 55.3303C472.795 56.5769 468.715 57.8089 464.628 59.0142C463.343 59.395 464.04 61.4016 465.325 61.0208C469.543 59.7786 473.743 58.505 477.947 57.2215C478.132 57.7289 478.232 58.2469 478.236 58.7759C473.005 60.4698 467.769 62.1615 462.431 63.5691C461.13 63.9136 461.832 65.9224 463.128 65.5757C465.263 65.0127 467.372 64.3915 469.48 63.7582C469.138 64.0787 468.796 64.3993 468.468 64.7316C465.841 67.3781 463.594 70.4114 461.676 73.6342C461.553 73.5576 461.435 73.4833 461.313 73.4067C459.741 72.3216 458.075 71.3656 456.495 70.4704C451.976 67.9092 447.447 65.6954 443.213 62.678C442.527 62.1699 441.846 61.664 441.163 61.1631C433.385 55.3681 425.964 49.119 418.524 42.9026C416.243 40.69 414.012 38.4289 411.81 36.1395C411.664 34.149 411.506 32.159 411.334 30.1745C411.254 27.2635 411.108 24.3476 410.931 21.4354C411.224 18.8032 411.582 16.176 411.946 13.5509C412.408 13.376 412.869 13.201 413.324 13.0288C416.923 16.4861 421.114 19.4264 425.146 22.2275Z" fill="white"/>
<path d="M475.887 84.4721L486.72 58.2792C487.743 55.8071 486.775 52.861 484.417 51.27L421.535 8.82357C420.666 8.23624 419.719 7.90858 418.777 7.80046C420.588 6.78018 422.991 6.8093 424.977 8.145L487.859 50.5915C490.217 52.1824 491.185 55.1285 490.162 57.6006L479.329 83.7936C478.596 85.5686 476.648 86.3768 474.819 85.8845C475.274 85.5293 475.648 85.0562 475.887 84.4721Z" fill="#06B25F"/>
<path d="M400.09 44.3189L462.417 86.4042C465.654 88.5929 469.943 87.4485 471.303 84.0373L480.449 61.0904C481.553 58.3204 480.284 55.0516 477.507 53.5144C455.839 41.5194 435.387 27.7075 416.038 12.2582C412.808 9.67937 408.149 10.6871 406.71 14.2987L397.643 37.0452C396.622 39.6222 397.642 42.6658 400.09 44.3189Z" fill="#84B5FF"/>
<path d="M431.314 31.656L455.263 47.8596C456.337 48.5868 457.758 48.1762 458.165 47.0239L458.259 46.7557C458.557 45.9113 458.196 44.9334 457.395 44.4233C448.798 38.9293 440.776 33.7656 433.453 28.555C432.4 27.8074 430.976 28.1642 430.529 29.2937C430.191 30.1323 430.523 31.1211 431.314 31.656Z" fill="#06B25F"/>
<path d="M400.565 44.3775L462.132 85.946C465.331 88.1066 469.566 86.974 470.908 83.6079L479.942 60.9414C481.033 58.2064 479.778 54.979 477.038 53.4577C455.636 41.6131 435.439 27.9644 416.327 12.706C413.133 10.1604 408.535 11.1535 407.114 14.72L398.159 37.1861C397.141 39.7408 398.152 42.7453 400.565 44.3775Z" stroke="#1351AC" stroke-width="3" stroke-miterlimit="10"/>
<path d="M476.843 80.0821C477.212 80.5306 477.811 80.7385 478.36 80.6037L490.961 77.5621L498.619 62.9983C498.923 62.4205 498.744 61.6905 498.196 61.261C497.822 60.965 497.346 60.8275 496.886 60.8692L484.106 62.1346C483.506 62.1939 483.004 62.5566 482.786 63.0938L476.563 78.4295C476.338 78.9694 476.442 79.6023 476.843 80.0821Z" fill="#194484"/>
<path d="M478.534 80.6811L491.072 79.2039C491.752 79.1242 492.314 78.7091 492.559 78.1056L498.67 63.0697C498.864 62.593 498.429 62.0692 497.897 62.1285L485.344 63.6112C484.71 63.6867 484.177 64.0783 483.948 64.6412L477.796 79.7786C477.605 80.2327 478.022 80.7372 478.534 80.6811Z" fill="#194484"/>
<path d="M485.896 75.909L490.539 75.3844C490.98 75.3357 491.351 75.0621 491.507 74.673L493.934 68.5941C494.269 67.7552 493.486 66.8192 492.535 66.9288L487.859 67.4569C487.436 67.5075 487.086 67.7605 486.937 68.1344L484.497 74.2437C484.162 75.0825 484.947 76.0135 485.896 75.909Z" fill="#276ED8"/>
<path d="M486.365 76.469L491.008 75.9444C491.449 75.8956 491.82 75.622 491.976 75.2329L494.403 69.1538C494.738 68.3149 493.955 67.3788 493.004 67.4884L488.327 68.0166C487.905 68.0672 487.555 68.3202 487.405 68.6942L484.966 74.8036C484.638 75.6397 485.421 76.5758 486.365 76.469Z" fill="#06B25F"/>
</g>
<g filter="url(#filter1_d_410_5593)">
<path d="M171.57 253.77C171.18 254.243 170.789 254.711 170.398 255.178C166.356 259.992 160.005 262.451 154.31 260.053C146.094 256.593 137.632 252.139 129.956 247.574C123.577 243.778 117.912 238.473 110.949 235.901C102.817 232.898 95.2168 228.743 88.168 223.875C85.1926 221.821 82.0657 219.693 79.27 217.425C77.866 216.284 76.3766 215.227 75.0154 214.043C74.2095 213.345 72.5539 211.97 73.0821 210.675C73.1216 210.578 73.172 210.475 73.1493 210.379C73.1328 210.293 73.067 210.233 73.0012 210.174C71.6896 208.969 70.3049 207.771 69.2301 206.359C68.3331 205.177 69.3685 203.847 70.1732 202.822C70.6308 202.239 72.6978 199.513 74.6694 199.641C72.0361 196.965 69.0899 194.547 66.5083 191.789C66.5024 191.784 66.4964 191.78 66.4961 191.774C68.0272 188.605 70.5062 185.858 73.6956 184.108C78.3018 188.164 82.9083 192.225 87.5088 196.281C89.9527 198.438 92.5709 200.672 95.8558 201.276C91.4471 198.253 87.6682 194.401 84.7718 189.977C82.3363 186.255 80.4632 182.093 77.4769 178.814C77.5588 178.67 77.6523 178.53 77.7399 178.386C77.909 178.184 78.084 177.988 78.2653 177.802C79.2783 176.758 80.393 175.902 81.6276 175.063C82.3834 174.545 83.164 174.064 83.9635 173.614C85.0508 173.34 86.2078 173.191 87.3922 173.122C91.4332 178.706 95.5776 184.22 100.46 189.115C106.583 195.253 113.95 200.426 122.555 202.723C124.298 203.188 126.159 203.265 127.943 202.824C137.549 200.469 130.562 184.848 128.471 179.218C128.654 179.065 128.85 178.922 129.062 178.787C131.402 177.306 134.655 177.191 137.372 177.283C138.761 177.332 140.145 177.469 141.519 177.634C141.564 177.821 141.609 178.014 141.661 178.217C142.588 181.611 144.657 187.96 145.939 191.229C148.417 197.551 152.968 202.766 154.278 209.621C156.073 219.018 155.34 226.726 164.624 232.058C165.808 232.738 166.986 233.413 168.17 234.093C175.202 238.125 176.842 247.373 171.57 253.77Z" fill="#84B5FF"/>
<path d="M118.125 203.558C106.924 200.81 96.0014 192.818 89.9463 183.8C88.3454 181.413 86.8645 178.949 85.1331 176.65C83.543 174.541 85.1696 173.673 84.9723 173.937C86.4212 171.55 91.8106 174.981 94.357 178.234C98.0129 182.906 100.023 185.923 103.74 189.944C106.339 192.753 111.336 195.975 114.47 198.276C117.594 200.574 118.574 200.329 122.424 201.432C129.301 203.403 127.554 201.616 131.737 200.398C131.737 200.398 131.965 192.729 131.993 191.866C132.086 188.557 126.467 182.716 128.654 179.993C128.908 179.68 129.193 179.448 129.545 179.177C131.751 179.249 131.158 178.987 131.762 179.437C131.423 178.778 132.366 179.888 131.762 179.437C133.194 182.223 134.034 185.149 134.774 188.181C135.932 192.944 135.726 201.362 130.378 204.588C126.439 206.967 122.363 204.597 118.125 203.558Z" fill="#06B25F"/>
<path d="M74.217 184.915C74.3502 185.043 74.4778 185.175 74.6111 185.303C78.4406 188.992 81.6576 190.355 86.2294 193.553C88.498 195.139 90.8519 196.689 93.3804 198.052C94.8722 198.857 96.3977 199.621 98.0413 200.235C98.6695 200.598 99.2919 200.957 99.92 201.316C100.631 202.719 99.0465 203.512 97.248 203.696C96.5 203.771 95.7221 203.744 95.0513 203.614C93.4403 203.293 92.1205 202.522 90.8637 201.759C84.5623 197.927 77.2393 193.812 72.7394 188.759C71.491 187.358 70.3844 186.459 73.4935 185.109C73.7265 185.005 73.9659 184.95 74.217 184.915Z" fill="#276ED8"/>
<path d="M91.2168 212.255C91.1441 212.576 90.86 212.89 90.2588 213.191C89.644 213.493 88.9286 213.489 88.283 213.348C86.5645 212.971 85.2272 211.75 83.9749 210.573C81.2615 208.02 78.1599 205.881 75.5349 203.349C74.8056 202.645 72.5849 200.47 75.4463 200.172C76.8543 200.026 78.592 201.473 79.4848 202.23C81.4923 203.93 83.5343 205.594 85.6104 207.213C86.6627 208.033 87.7041 208.898 88.786 209.674C89.5328 210.211 91.4415 211.246 91.2168 212.255Z" fill="#276ED8"/>
<path d="M133.52 251.11C130.389 249.23 127.445 247.376 124.107 244.959C124.208 244.939 124.574 244.83 124.68 244.81C138.12 242.831 150.491 234.749 156.921 222.908C156.956 222.84 156.998 222.782 157.034 222.719C159.111 225.477 160.454 228.584 163.007 230.707C156.186 240.724 145.193 247.411 133.52 251.11Z" fill="#276ED8"/>
<path d="M157.674 264.735C153.751 262.564 151.277 261.09 147.41 258.831C147.606 258.792 147.807 258.757 148.015 258.738C159.922 257.593 169.04 249.052 170.29 237.435C170.331 237.077 170.401 236.743 170.502 236.433C173.623 237.581 176.621 239.673 179.564 241.153C177.539 252.392 171.434 261.293 157.674 264.735Z" fill="#276ED8"/>
<path opacity="0.33" d="M133.676 251.138C132.783 250.602 131.9 250.066 131.023 249.523C129.058 248.014 127.145 246.441 125.302 244.802C132.236 243.719 138.867 241.027 144.524 237.034C146.183 238.516 147.944 239.898 149.725 241.256C150.21 241.737 150.706 242.216 151.202 242.685C145.904 246.375 139.889 249.185 133.676 251.138Z" fill="white"/>
<path opacity="0.33" d="M155.708 239.064C155.32 239.412 154.932 239.755 154.532 240.093C152.574 237.906 150.625 235.668 148.479 233.657C148.7 233.456 148.914 233.244 149.129 233.038C151.304 235.063 153.495 237.07 155.708 239.064Z" fill="white"/>
<path opacity="0.33" d="M169.237 251.334C170.743 252.561 172.294 253.772 173.954 254.826C173.602 255.29 173.244 255.744 172.858 256.19C170.34 254.048 167.742 251.996 165.16 249.926C165.477 249.535 165.776 249.136 166.062 248.721C167.123 249.594 168.177 250.467 169.237 251.334Z" fill="white"/>
<path opacity="0.33" d="M162.4 252.985C164.93 254.994 167.476 256.986 169.975 259.031C166.831 261.558 162.849 263.518 157.854 264.752C153.947 262.601 151.484 261.141 147.634 258.904C147.828 258.865 148.029 258.831 148.236 258.812C153.718 258.291 158.6 256.208 162.4 252.985Z" fill="white"/>
<path d="M154.553 266.873C151.435 266.31 147.954 265.239 144.431 263.654C136.852 260.244 129.645 257.106 128.363 253.358C127.975 252.223 129.651 249.582 130.107 248.693C132.07 244.87 141.666 245.376 151.537 249.816C157.59 252.541 162.175 255.872 164.8 258.999C165.219 259.497 165.776 260.519 165.544 261.199C165.409 261.597 164.15 264.207 163.33 264.487C160.62 265.404 157.279 266.039 154.553 266.873Z" fill="#194484"/>
<path d="M151.946 267.612C149.782 268.163 147.513 268.075 145.492 267.308C144.701 267.004 143.897 266.679 143.092 266.328C133.186 262.01 126.599 255.76 128.388 252.368C130.177 248.976 139.66 249.728 149.566 254.052C156.193 256.94 161.324 260.691 163.464 263.878C163.662 264.178 163.494 264.588 163.122 264.695C159.425 265.755 155.684 266.665 151.946 267.612Z" fill="#06B25F"/>
<path opacity="0.33" d="M118.208 214.375C125.256 217.148 129.284 223.515 127.204 228.597C125.125 233.68 117.727 235.552 110.679 232.779C103.631 230.006 99.6034 223.638 101.682 218.556C103.761 213.474 111.16 211.602 118.208 214.375Z" fill="white"/>
<path d="M122.672 226.692C124.024 223.586 121.439 219.681 116.9 217.965C112.361 216.249 107.586 217.374 106.24 220.48C104.888 223.586 107.473 227.491 112.011 229.207C116.544 230.918 121.32 229.793 122.672 226.692Z" fill="#276ED8"/>
<path opacity="0.33" d="M118.887 225.262C119.618 223.587 118.22 221.472 115.768 220.549C113.317 219.62 110.737 220.23 110.006 221.905C109.276 223.58 110.673 225.695 113.125 226.619C115.582 227.547 118.156 226.937 118.887 225.262Z" fill="white"/>
<path opacity="0.33" d="M92.5907 191.685C93.1274 190.453 92.1017 188.893 90.2921 188.212C88.4881 187.53 86.5876 187.975 86.0512 189.212C85.5145 190.445 86.5402 192.004 88.3498 192.686C90.1538 193.368 92.0543 192.923 92.5907 191.685Z" fill="white"/>
<path opacity="0.33" d="M141.733 194.005C143.439 193.428 144.358 191.541 143.789 189.789C143.219 188.037 141.37 187.081 139.664 187.658C137.958 188.236 137.039 190.123 137.609 191.875C138.179 193.627 140.027 194.583 141.733 194.005Z" fill="white"/>
<path opacity="0.33" d="M79.9085 195.746C81.6811 196.442 82.7658 197.866 82.3312 198.926C81.8966 199.986 80.1073 200.281 78.3347 199.585C76.562 198.889 75.4773 197.466 75.9119 196.406C76.3465 195.346 78.1358 195.05 79.9085 195.746Z" fill="white"/>
<path opacity="0.33" d="M81.3735 210.802C81.912 209.681 80.9005 208.28 79.1051 207.678C77.3096 207.077 75.4167 207.497 74.8781 208.618C74.3396 209.739 75.351 211.14 77.1465 211.742C78.9422 212.348 80.8293 211.923 81.3735 210.802Z" fill="white"/>
<path d="M152.42 267.911C151.885 267.716 151.336 267.494 150.786 267.24C146.632 265.35 143.874 262.653 144.616 261.217C145.364 259.78 149.331 260.15 153.484 262.04C156.206 263.279 158.313 264.866 159.244 266.217C156.974 266.799 154.697 267.355 152.42 267.911Z" fill="#194484"/>
<path d="M136.959 257.974L134.956 256.487L131.493 257.489L131.24 258.086L136.706 258.571L136.959 257.974Z" fill="#194484"/>
<path d="M136.72 258.635L134.715 257.109L131.252 258.107L133.257 259.632L136.72 258.635Z" fill="#194484"/>
<path d="M141.795 256.608L139.792 255.12L136.329 256.123L136.076 256.72L141.537 257.205L141.795 256.608Z" fill="#194484"/>
<path d="M141.551 257.27L139.551 255.744L136.088 256.741L138.093 258.267L141.551 257.27Z" fill="#194484"/>
<path d="M146.69 255.227L144.687 253.739L141.223 254.742L140.971 255.339L146.437 255.824L146.69 255.227Z" fill="#194484"/>
<path d="M146.451 255.888L144.446 254.362L140.982 255.36L142.987 256.885L146.451 255.888Z" fill="#194484"/>
<path d="M73.4894 208.985C73.472 208.975 73.455 208.971 73.4431 208.961C73.3739 208.927 73.5527 209.013 73.4894 208.985Z" fill="#194484"/>
<path opacity="0.43" d="M85.5231 218.859C81.8097 217.161 76.0144 213.855 72.4622 211.666C72.4844 211.361 72.5066 211.056 72.5397 210.749C76.3249 213.035 83.3226 217.041 86.9452 219.1C86.7378 219.069 85.7638 218.967 85.5231 218.859Z" fill="#276ED8"/>
</g>
<g filter="url(#filter2_d_410_5593)">
<rect x="294.285" y="119.189" width="55.1695" height="54.2183" rx="6" fill="#06B25F"/>
</g>
<path d="M321.872 134.408C314.089 134.408 307.443 139.141 304.75 145.823C307.443 152.504 314.089 157.237 321.872 157.237C329.654 157.237 336.3 152.504 338.993 145.823C336.3 139.141 329.654 134.408 321.872 134.408ZM321.872 153.432C317.576 153.432 314.089 150.023 314.089 145.823C314.089 141.622 317.576 138.213 321.872 138.213C326.168 138.213 329.654 141.622 329.654 145.823C329.654 150.023 326.168 153.432 321.872 153.432ZM321.872 141.257C319.288 141.257 317.202 143.296 317.202 145.823C317.202 148.349 319.288 150.388 321.872 150.388C324.455 150.388 326.541 148.349 326.541 145.823C326.541 143.296 324.455 141.257 321.872 141.257Z" fill="white"/>
<path fill-rule="evenodd" clip-rule="evenodd" d="M309.504 127.75V124.896L301.992 124.896C301.989 124.896 301.985 124.896 301.982 124.896H299.992V126.896V127.75V134.408H302.846V127.75L309.504 127.75Z" fill="white"/>
<path fill-rule="evenodd" clip-rule="evenodd" d="M334.234 164.847L334.234 167.7L343.746 167.7L343.746 164.847L343.746 164.847L343.746 158.188L340.892 158.188L340.892 164.847L334.234 164.847Z" fill="white"/>
<path fill-rule="evenodd" clip-rule="evenodd" d="M340.892 134.408L343.746 134.408L343.746 124.896L340.892 124.896L340.892 124.896L334.234 124.896L334.234 127.75L340.892 127.75L340.892 134.408Z" fill="white"/>
<path fill-rule="evenodd" clip-rule="evenodd" d="M302.846 158.188L299.992 158.188L299.992 164.847L299.992 167.7L299.992 167.7L302.846 167.7L302.846 167.7L309.504 167.7L309.504 164.847L302.846 164.847L302.846 158.188Z" fill="white"/>
</g>
<g clip-path="url(#clip0_410_5593)">
<path d="M248.831 165.918V160.535C248.831 159.543 248.029 158.741 247.037 158.741C246.046 158.741 245.243 159.544 245.243 160.535V160.589C242.01 155.576 238.492 151.086 236.565 148.724C235.94 147.954 234.81 147.835 234.043 148.468C233.274 149.093 233.16 150.224 233.787 150.991C237.287 155.282 240.054 159.089 242.212 162.421C241.264 162.117 240.265 162.62 239.955 163.556C239.641 164.497 240.149 165.513 241.088 165.825L245.053 167.147C249.004 174.335 249.437 178.493 248.244 179.685C246.973 180.955 242.302 180.515 233.335 175.106C227.901 171.828 221.849 167.303 215.664 161.943C218.203 159.646 220.75 157.228 223.271 154.706C232.264 145.711 239.957 136.413 245.244 128.219V128.239C245.244 129.231 246.046 130.033 247.037 130.033C248.029 130.033 248.831 129.231 248.831 128.239V122.856C248.831 122.688 248.761 122.537 248.716 122.379C252.837 114.62 253.534 109.304 250.781 106.552C245.445 101.217 231.337 110.198 223.401 116.028C222.602 116.613 222.431 117.736 223.017 118.535C223.601 119.331 224.724 119.503 225.524 118.919C238.415 109.452 246.344 107.185 248.244 109.089C249.397 110.243 249.104 114.226 245.012 121.641L241.089 122.949C240.15 123.261 239.642 124.277 239.955 125.218C240.262 126.141 241.239 126.641 242.176 126.358C237.03 134.319 229.525 143.375 220.735 152.168C218.154 154.75 215.549 157.212 212.956 159.549C210.362 157.212 207.758 154.75 205.176 152.168C196.386 143.375 188.88 134.319 183.735 126.358C184.672 126.641 185.649 126.142 185.956 125.218C186.269 124.277 185.761 123.261 184.822 122.949L180.898 121.641C176.806 114.226 176.513 110.243 177.666 109.089C179.572 107.183 187.502 109.454 200.404 118.933C201.199 119.518 202.325 119.346 202.911 118.549C203.497 117.752 203.326 116.629 202.527 116.042C194.588 110.204 180.462 101.212 175.13 106.552C172.377 109.304 173.073 114.621 177.194 122.379C177.149 122.537 177.079 122.688 177.079 122.856V128.239C177.079 129.231 177.882 130.033 178.873 130.033C179.865 130.033 180.667 129.231 180.667 128.239V128.219C185.954 136.413 193.647 145.711 202.639 154.706C205.161 157.228 207.707 159.646 210.247 161.943C204.062 167.303 198.01 171.828 192.576 175.106C183.599 180.519 178.931 180.948 177.666 179.685C176.475 178.492 176.907 174.334 180.858 167.146L184.822 165.825C185.761 165.513 186.269 164.497 185.956 163.556C185.645 162.621 184.647 162.118 183.7 162.421C185.849 159.103 188.599 155.317 192.078 151.049C192.704 150.281 192.588 149.151 191.821 148.524C191.055 147.9 189.925 148.019 189.296 148.781C187.38 151.133 183.884 155.598 180.667 160.586V160.535C180.667 159.543 179.865 158.741 178.873 158.741C177.882 158.741 177.079 159.543 177.079 160.535V165.918C177.079 166.111 177.152 166.286 177.211 166.464C173.847 172.826 171.976 179.069 175.13 182.222C176.23 183.322 177.738 183.871 179.649 183.871C183.202 183.871 188.145 181.97 194.429 178.18C200.135 174.737 206.487 169.968 212.955 164.336C219.423 169.968 225.776 174.737 231.482 178.18C237.765 181.972 242.708 183.873 246.263 183.871C248.172 183.871 249.68 183.322 250.781 182.222C253.934 179.07 252.065 172.829 248.699 166.465C248.758 166.286 248.831 166.111 248.831 165.918Z" fill="#84B5FF"/>
<path d="M195.012 128.247C195.012 129.239 195.814 130.042 196.806 130.042C197.798 130.042 198.6 129.239 198.6 128.247C198.6 127.257 199.405 126.453 200.395 126.453C201.385 126.453 202.189 127.257 202.189 128.247C202.189 129.237 201.385 130.042 200.395 130.042C199.403 130.042 198.6 130.844 198.6 131.836C198.6 132.828 199.403 133.63 200.395 133.63C201.385 133.63 202.189 134.435 202.189 135.425C202.189 136.415 201.385 137.219 200.395 137.219C199.405 137.219 198.6 136.415 198.6 135.425C198.6 134.433 197.798 133.63 196.806 133.63C195.814 133.63 195.012 134.433 195.012 135.424C195.012 138.393 197.426 140.807 200.395 140.807C203.363 140.807 205.778 138.393 205.778 135.424C205.778 134.047 205.257 132.789 204.404 131.836C205.257 130.883 205.778 129.624 205.778 128.247C205.778 125.279 203.363 122.864 200.395 122.864C197.426 122.864 195.012 125.279 195.012 128.247Z" fill="#84B5FF"/>
<path d="M225.516 140.807C228.484 140.807 230.899 138.393 230.899 135.424V128.247C230.899 125.279 228.484 122.864 225.516 122.864C222.547 122.864 220.133 125.279 220.133 128.247V135.424C220.133 138.393 222.547 140.807 225.516 140.807ZM223.722 128.247C223.722 127.257 224.526 126.453 225.516 126.453C226.506 126.453 227.31 127.257 227.31 128.247V135.425C227.31 136.415 226.506 137.219 225.516 137.219C224.526 137.219 223.722 136.415 223.722 135.425V128.247Z" fill="#84B5FF"/>
<path d="M212.953 140.807C215.922 140.807 218.336 138.393 218.336 135.424C218.336 132.456 215.922 130.042 212.953 130.042C212.402 130.042 211.88 130.149 211.379 130.304C211.784 128.671 212.973 126.453 216.542 126.453C217.534 126.453 218.336 125.65 218.336 124.659C218.336 123.667 217.534 122.864 216.542 122.864C209.445 122.864 207.57 128.732 207.57 131.836V135.424C207.57 138.393 209.985 140.807 212.953 140.807ZM212.953 133.63C213.943 133.63 214.748 134.435 214.748 135.425C214.748 136.415 213.943 137.219 212.953 137.219C211.963 137.219 211.159 136.415 211.159 135.424C211.159 134.435 211.963 133.63 212.953 133.63Z" fill="#84B5FF"/>
<path d="M238.076 122.864C238.076 120.886 236.465 119.276 234.487 119.276C232.509 119.276 230.898 120.886 230.898 122.864C230.898 124.843 232.509 126.453 234.487 126.453C236.465 126.453 238.076 124.843 238.076 122.864Z" fill="#84B5FF"/>
</g>
<defs>
<filter id="filter0_d_410_5593" x="388.285" y="-1.35742" width="135.648" height="101.915" filterUnits="userSpaceOnUse" color-interpolation-filters="sRGB">
<feFlood flood-opacity="0" result="BackgroundImageFix"/>
<feColorMatrix in="SourceAlpha" type="matrix" values="0 0 0 0 0 0 0 0 0 0 0 0 0 0 0 0 0 0 127 0" result="hardAlpha"/>
<feOffset dy="4"/>
<feGaussianBlur stdDeviation="4"/>
<feColorMatrix type="matrix" values="0 0 0 0 0.0223125 0 0 0 0 0.00468749 0 0 0 0 0.225 0 0 0 0.25 0"/>
<feBlend mode="normal" in2="BackgroundImageFix" result="effect1_dropShadow_410_5593"/>
<feBlend mode="normal" in="SourceGraphic" in2="effect1_dropShadow_410_5593" result="shape"/>
</filter>
<filter id="filter1_d_410_5593" x="58.4961" y="169.122" width="129.066" height="110.843" filterUnits="userSpaceOnUse" color-interpolation-filters="sRGB">
<feFlood flood-opacity="0" result="BackgroundImageFix"/>
<feColorMatrix in="SourceAlpha" type="matrix" values="0 0 0 0 0 0 0 0 0 0 0 0 0 0 0 0 0 0 127 0" result="hardAlpha"/>
<feOffset dy="4"/>
<feGaussianBlur stdDeviation="4"/>
<feColorMatrix type="matrix" values="0 0 0 0 0.0771528 0 0 0 0 0.152763 0 0 0 0 0.420833 0 0 0 0.25 0"/>
<feBlend mode="normal" in2="BackgroundImageFix" result="effect1_dropShadow_410_5593"/>
<feBlend mode="normal" in="SourceGraphic" in2="effect1_dropShadow_410_5593" result="shape"/>
</filter>
<filter id="filter2_d_410_5593" x="288.285" y="113.189" width="77.168" height="76.2183" filterUnits="userSpaceOnUse" color-interpolation-filters="sRGB">
<feFlood flood-opacity="0" result="BackgroundImageFix"/>
<feColorMatrix in="SourceAlpha" type="matrix" values="0 0 0 0 0 0 0 0 0 0 0 0 0 0 0 0 0 0 127 0" result="hardAlpha"/>
<feMorphology radius="3" operator="dilate" in="SourceAlpha" result="effect1_dropShadow_410_5593"/>
<feOffset dx="5" dy="5"/>
<feGaussianBlur stdDeviation="4"/>
<feColorMatrix type="matrix" values="0 0 0 0 0 0 0 0 0 0 0 0 0 0 0 0 0 0 0.2 0"/>
<feBlend mode="normal" in2="BackgroundImageFix" result="effect1_dropShadow_410_5593"/>
<feBlend mode="normal" in="SourceGraphic" in2="effect1_dropShadow_410_5593" result="shape"/>
</filter>
<clipPath id="clip0_410_5593">
<rect width="78.9494" height="78.9494" fill="white" transform="translate(173.48 104.921)"/>
</clipPath>
</defs>
</svg>
