<svg width="513" height="367" viewBox="0 0 513 367" fill="none" xmlns="http://www.w3.org/2000/svg">
<mask id="mask0_410_5590" style="mask-type:alpha" maskUnits="userSpaceOnUse" x="0" y="0" width="513" height="367">
<rect width="513" height="367" fill="#C4C4C4"/>
</mask>
<g mask="url(#mask0_410_5590)">
<path opacity="0.04" d="M176.318 354.822C275.482 384.608 435.712 355.056 489.084 296.573C542.456 238.09 485.242 168.007 445.934 141.513C433.704 133.316 420.021 127.248 410.036 116.103C388.235 91.6974 380.383 52.9502 353.308 35.6072C329.89 20.5869 302.519 33.9184 276.594 24.959C265.28 21.1241 246.679 5.0618 227.563 1.56468C185.284 -6.16981 83.2487 33.3049 71.8489 74.0818C60.449 114.859 40.5296 314.036 176.318 354.822Z" fill="#276ED8"/>
<path opacity="0.2" d="M317.75 163.199L330 160.895V149.913L317.75 147.801C316.809 143.289 315.024 139.065 312.566 135.32L319.593 125.01L311.817 117.234L301.66 124.415C297.916 121.957 293.711 120.191 289.18 119.25L286.876 107H275.893L273.781 119.25C269.269 120.191 265.045 121.976 261.301 124.434L251.01 117.407L243.234 125.183L250.415 135.34C247.957 139.084 246.191 143.308 245.25 147.82L233 150.124V161.106L245.25 163.219C246.191 167.75 247.976 171.955 250.434 175.699L243.407 185.99L251.183 193.766L261.359 186.585C265.103 189.043 269.327 190.829 273.839 191.75L276.143 204H287.126L289.238 191.75C293.769 190.809 297.974 189.024 301.718 186.566L312.009 193.593L319.785 185.817L312.605 175.66C315.043 171.935 316.809 167.731 317.75 163.199ZM281.5 178.252C268.943 178.252 258.767 168.057 258.767 155.519C258.767 142.981 268.943 132.786 281.5 132.786C294.057 132.786 304.233 142.962 304.233 155.519C304.233 168.076 294.057 178.252 281.5 178.252Z" fill="#84B5FF"/>
<path d="M53.5586 115.32V217.79C53.5586 222.89 57.6986 227.03 62.7986 227.03H189.599C194.699 227.03 198.839 222.89 198.839 217.79V115.32C198.839 110.22 194.699 106.08 189.599 106.08H62.7886C57.6886 106.09 53.5586 110.22 53.5586 115.32ZM189.729 222.29H126.199L62.9986 222C61.1086 222 59.2486 220.76 59.2486 218.87V114.24C59.2486 112.35 60.7786 110.82 62.6686 110.82H189.729C191.619 110.82 193.149 112.35 193.149 114.24V218.87C193.149 220.76 191.619 222.29 189.729 222.29Z" fill="#66D6A0"/>
<path d="M331.91 225C320.36 225 311 234.36 311 245.91C311 257.46 320.36 266.82 331.91 266.82C343.46 266.82 352.82 257.46 352.82 245.91C352.82 234.36 343.46 225 331.91 225ZM331.91 261.61C323.23 261.61 316.2 254.58 316.2 245.9C316.2 237.22 323.23 230.19 331.91 230.19C340.59 230.19 347.62 237.22 347.62 245.9C347.62 254.58 340.59 261.61 331.91 261.61Z" fill="#66D6A0"/>
<path d="M286.668 163.81V296.8C286.668 300.22 283.898 302.99 280.478 302.99H77.6783C74.2583 302.99 71.4883 300.22 71.4883 296.8V163.81C71.4883 155.92 77.8883 149.51 85.7883 149.51H272.368C280.268 149.51 286.668 155.92 286.668 163.81Z" fill="white" stroke="#84B5FF" stroke-miterlimit="10"/>
<path d="M286.668 163.81V164.41H71.4883V163.81C71.4883 155.92 77.8883 149.51 85.7883 149.51H272.368C280.268 149.51 286.668 155.92 286.668 163.81Z" fill="#84B5FF"/>
<path opacity="0.2" d="M204.55 175.04H193.17C192.16 175.04 191.34 174.22 191.34 173.21C191.34 172.2 192.16 171.38 193.17 171.38H204.55C205.56 171.38 206.38 172.2 206.38 173.21C206.38 174.22 205.56 175.04 204.55 175.04Z" fill="#276ED8"/>
<path opacity="0.2" d="M226.062 175.04H214.682C213.672 175.04 212.852 174.22 212.852 173.21C212.852 172.2 213.672 171.38 214.682 171.38H226.062C227.072 171.38 227.892 172.2 227.892 173.21C227.902 174.22 227.082 175.04 226.062 175.04Z" fill="#276ED8"/>
<path opacity="0.2" d="M247.909 175.04H236.529C235.519 175.04 234.699 174.22 234.699 173.21C234.699 172.2 235.519 171.38 236.529 171.38H247.909C248.919 171.38 249.739 172.2 249.739 173.21C249.739 174.22 248.919 175.04 247.909 175.04Z" fill="#276ED8"/>
<path opacity="0.2" d="M269.421 175.04H258.041C257.031 175.04 256.211 174.22 256.211 173.21C256.211 172.2 257.031 171.38 258.041 171.38H269.421C270.431 171.38 271.251 172.2 271.251 173.21C271.261 174.22 270.441 175.04 269.421 175.04Z" fill="#276ED8"/>
<path opacity="0.2" d="M246.719 203.58H198.899C197.969 203.58 197.219 202.83 197.219 201.9V196.13C197.219 195.2 197.969 194.45 198.899 194.45H246.719C247.649 194.45 248.399 195.2 248.399 196.13V201.9C248.399 202.82 247.649 203.58 246.719 203.58Z" fill="#276ED8"/>
<path opacity="0.2" d="M233.069 214.6H198.839C197.939 214.6 197.219 213.87 197.219 212.98C197.219 212.08 197.949 211.36 198.839 211.36H233.069C233.969 211.36 234.689 212.09 234.689 212.98C234.689 213.87 233.969 214.6 233.069 214.6Z" fill="#276ED8"/>
<path opacity="0.2" d="M267.319 222.44H198.839C197.939 222.44 197.219 221.71 197.219 220.82C197.219 219.92 197.949 219.2 198.839 219.2H267.319C268.219 219.2 268.939 219.93 268.939 220.82C268.939 221.71 268.219 222.44 267.319 222.44Z" fill="#276ED8"/>
<path opacity="0.2" d="M267.319 230.28H198.839C197.939 230.28 197.219 229.55 197.219 228.66C197.219 227.76 197.949 227.04 198.839 227.04H267.319C268.219 227.04 268.939 227.77 268.939 228.66C268.939 229.55 268.219 230.28 267.319 230.28Z" fill="#276ED8"/>
<path opacity="0.2" d="M267.096 238.24H198.616C197.716 238.24 196.996 237.51 196.996 236.62C196.996 235.72 197.726 235 198.616 235H267.096C267.996 235 268.716 235.73 268.716 236.62C268.716 237.51 267.996 238.24 267.096 238.24Z" fill="#276ED8"/>
<path opacity="0.1" d="M286.668 274.34V296.8C286.668 300.22 283.898 302.99 280.478 302.99H77.6783C74.2583 302.99 71.4883 300.22 71.4883 296.8V274.34H286.668Z" fill="#84B5FF"/>
<path d="M253.99 157.65C253.99 158.68 253.16 159.51 252.13 159.51C251.1 159.51 250.27 158.68 250.27 157.65C250.27 156.62 251.1 155.79 252.13 155.79C253.15 155.79 253.99 156.62 253.99 157.65Z" fill="#84B5FF"/>
<path d="M264.169 157.65C264.169 158.68 263.339 159.51 262.309 159.51C261.279 159.51 260.449 158.68 260.449 157.65C260.449 156.62 261.279 155.79 262.309 155.79C263.329 155.79 264.169 156.62 264.169 157.65Z" fill="#84B5FF"/>
<path d="M273.9 157.65C273.9 158.68 273.07 159.51 272.04 159.51C271.01 159.51 270.18 158.68 270.18 157.65C270.18 156.62 271.01 155.79 272.04 155.79C273.07 155.79 273.9 156.62 273.9 157.65Z" fill="#84B5FF"/>
<path opacity="0.1" d="M287 164.255V296.829C287 300.239 284.232 303 280.815 303H78.1848C74.7677 303 72 300.239 72 296.829V164.255C72 156.39 78.3946 150 86.288 150H272.712C280.605 150 287 156.39 287 164.255Z" stroke="#276ED8" stroke-miterlimit="10"/>
<g filter="url(#filter0_d_410_5590)">
<path d="M178.63 181.58V243.43C178.63 244.86 177.47 246.01 176.05 246.01H93.58C92.16 246.01 91 244.86 91 243.43V181.58C91 180.15 92.16 179 93.58 179H176.05C177.48 179.01 178.63 180.16 178.63 181.58Z" fill="#06B25F"/>
</g>
<path d="M178.63 220.99V243.43C178.63 244.86 177.47 246.01 176.05 246.01H93.58C92.16 246.01 91 244.86 91 243.43V221.84C91 221.84 105.07 197.58 115.05 197.58C127.49 197.58 134.56 225.89 140.74 225.89C146.92 225.89 154.97 206.42 163.15 206.42C168.07 206.41 174.37 214.5 178.63 220.99Z" fill="#66D6A0"/>
<path d="M167.381 192.87C167.381 196.02 164.821 198.58 161.671 198.58C158.521 198.58 155.961 196.02 155.961 192.87C155.961 189.72 158.521 187.16 161.671 187.16C164.831 187.17 167.381 189.72 167.381 192.87Z" fill="#66D6A0"/>
<g filter="url(#filter1_d_410_5590)">
<path d="M234.879 94.01V136.38C234.879 138.6 233.079 140.39 230.869 140.39H168.869C166.649 140.39 164.859 138.59 164.859 136.38V94.01C164.859 91.79 166.659 90 168.869 90H230.869C233.079 90 234.879 91.8 234.879 94.01Z" fill="#84B5FF"/>
</g>
<path d="M234.879 130.72V136.39C234.879 138.61 233.079 140.4 230.869 140.4H168.869C166.649 140.4 164.859 138.6 164.859 136.39V130.72H234.879Z" fill="#276ED8"/>
<path opacity="0.8" d="M202.028 136.03C202.028 136.5 202.168 136.93 202.418 137.3H171.098C170.398 137.3 169.828 136.74 169.828 136.03C169.828 135.33 170.398 134.76 171.098 134.76H202.418C202.178 135.13 202.028 135.56 202.028 136.03Z" fill="#84B5FF"/>
<path d="M212.859 136.03C212.859 136.73 212.289 137.3 211.589 137.3H202.429C202.179 136.93 202.039 136.5 202.039 136.03C202.039 135.56 202.179 135.13 202.429 134.76H211.589C212.279 134.77 212.859 135.34 212.859 136.03Z" fill="#84B5FF"/>
<path d="M206.529 136.03C206.529 136.5 206.389 136.93 206.139 137.3C205.739 137.89 205.059 138.28 204.279 138.28C203.509 138.28 202.829 137.89 202.429 137.3C202.179 136.93 202.039 136.5 202.039 136.03C202.039 135.56 202.179 135.13 202.429 134.76C202.829 134.17 203.509 133.78 204.279 133.78C205.059 133.78 205.739 134.17 206.139 134.76C206.379 135.13 206.529 135.56 206.529 136.03Z" fill="white"/>
<path d="M205.38 136.03C205.38 136.64 204.89 137.13 204.28 137.13C203.67 137.13 203.18 136.64 203.18 136.03C203.18 135.42 203.67 134.93 204.28 134.93C204.89 134.93 205.38 135.42 205.38 136.03Z" fill="#84B5FF"/>
<path d="M222.297 137.15V135.04C222.297 134.76 222.587 134.58 222.837 134.71L224.947 135.77C225.217 135.91 225.217 136.3 224.947 136.43L222.837 137.49C222.587 137.61 222.297 137.43 222.297 137.15Z" fill="#84B5FF"/>
<path d="M227.988 136.74V135.45C227.988 135.28 228.128 135.17 228.248 135.25L229.268 135.9C229.398 135.98 229.398 136.22 229.268 136.31L228.248 136.96C228.128 137.02 227.988 136.91 227.988 136.74Z" fill="#84B5FF"/>
<path d="M229.367 136.74V135.45C229.367 135.28 229.507 135.17 229.627 135.25L230.647 135.9C230.777 135.98 230.777 136.22 230.647 136.31L229.627 136.96C229.507 137.02 229.367 136.91 229.367 136.74Z" fill="#84B5FF"/>
<path d="M219.698 136.74V135.45C219.698 135.28 219.558 135.17 219.438 135.25L218.418 135.9C218.288 135.98 218.288 136.22 218.418 136.31L219.438 136.96C219.558 137.02 219.698 136.91 219.698 136.74Z" fill="#84B5FF"/>
<path d="M218.319 136.74V135.45C218.319 135.28 218.179 135.17 218.059 135.25L217.039 135.9C216.909 135.98 216.909 136.22 217.039 136.31L218.059 136.96C218.179 137.02 218.319 136.91 218.319 136.74Z" fill="#84B5FF"/>
<path d="M212.009 113.875C213.601 107.169 209.455 100.441 202.749 98.8491C196.042 97.257 189.315 101.403 187.723 108.109C186.131 114.816 190.276 121.543 196.983 123.135C203.689 124.727 210.417 120.581 212.009 113.875Z" fill="#FBF8FF"/>
<path d="M196.57 114.84V107.16C196.57 106.31 197.51 105.8 198.22 106.26L204.12 110.1C204.77 110.52 204.77 111.47 204.12 111.89L198.22 115.73C197.51 116.2 196.57 115.69 196.57 114.84Z" fill="#276ED8"/>
<g filter="url(#filter2_d_410_5590)">
<path d="M104.918 302.08L113 300.56V293.314L104.918 291.92C104.297 288.943 103.119 286.156 101.497 283.686L106.134 276.883L101.003 271.752L94.3017 276.49C91.8313 274.869 89.057 273.703 86.0673 273.082L84.5471 265H77.3008L75.9074 273.082C72.9303 273.703 70.1433 274.881 67.673 276.503L60.8828 271.866L55.7522 276.997L60.4901 283.698C58.8686 286.169 57.7031 288.956 57.0823 291.933L49 293.453V300.699L57.0823 302.093C57.7031 305.082 58.8812 307.857 60.5028 310.327L55.8662 317.117L60.9968 322.248L67.711 317.51C70.1813 319.131 72.9683 320.31 75.9454 320.918L77.4655 329H84.7118L86.1053 320.918C89.095 320.297 91.8693 319.119 94.3397 317.497L101.13 322.134L106.26 317.003L101.523 310.302C103.131 307.844 104.297 305.07 104.918 302.08ZM81 312.012C72.715 312.012 66.0008 305.285 66.0008 297.013C66.0008 288.74 72.715 282.013 81 282.013C89.285 282.013 95.9992 288.728 95.9992 297.013C95.9992 305.298 89.285 312.012 81 312.012Z" fill="#84B5FF"/>
</g>
<g filter="url(#filter3_d_410_5590)">
<path d="M38.687 263.322L44.5437 265.375L47.2811 260.649L42.5225 256.688C43.2387 254.508 43.5252 252.233 43.3978 250.022L49 247.333L47.5835 242.051L41.4244 242.623C40.4217 240.635 39.0371 238.821 37.3342 237.294L39.3873 231.439L34.6605 228.702L30.6976 233.459C28.5172 232.743 26.2414 232.457 24.0292 232.584L21.3395 227L16.0557 228.416L16.6287 234.589C14.6393 235.591 12.8249 236.975 11.2971 238.678L5.44033 236.625L2.70293 241.351L7.46153 245.312C6.74535 247.508 6.4589 249.751 6.58622 251.978L1 254.667L2.41642 259.949L8.59149 259.377C9.59415 261.365 10.9629 263.179 12.6817 264.706L10.6286 270.561L15.3554 273.298L19.3183 268.541C21.5146 269.257 23.7586 269.543 25.9868 269.416L28.6764 275L33.9602 273.584L33.3873 267.411C35.3448 266.425 37.1591 265.056 38.687 263.322ZM19.3183 260.793C13.9072 257.674 12.061 250.753 15.1804 245.344C18.2997 239.935 25.2228 238.089 30.6339 241.207C36.0451 244.326 37.8912 251.247 34.7719 256.656C31.6525 262.065 24.7295 263.911 19.3183 260.793Z" fill="#84B5FF"/>
</g>
<rect x="70" y="222" width="21" height="5" fill="#66D6A0"/>
<g clip-path="url(#clip0_410_5590)">
<path d="M156.364 317.007L166.614 266.967C168.65 257.033 178.124 250.924 187.508 253.652L191.75 254.884C193.272 255.327 194.848 255.553 196.435 255.557L205.904 255.577L244.868 255.661L255.129 255.683C256.882 255.687 258.631 255.456 260.331 254.994L265.112 253.695C275.951 250.751 287.268 257.445 289.749 268.452L302.533 325.156C304.671 334.639 299.295 343.703 290.065 346.305C279.798 349.2 268.706 342.761 265.88 332.434L261.491 316.398C260.581 313.07 257.588 310.66 254.192 310.503L197.289 307.877C194.212 307.735 191.527 309.758 190.715 312.817L186.835 327.441C184.363 336.754 174.868 341.261 166.357 337.299C158.924 333.84 154.688 325.194 156.364 317.007Z" fill="url(#paint0_linear_410_5590)"/>
<path opacity="0.3" d="M206.23 281.952L237.927 282.839C240.749 282.919 243.047 280.305 243.047 277.001V255.672L201.455 255.568V276.07C201.455 279.245 203.588 281.878 206.23 281.952Z" fill="url(#paint1_linear_410_5590)"/>
<path d="M248.697 276.868C248.697 286.139 256.263 293.901 265.722 294.209C275.326 294.523 283.219 287.057 283.219 277.529C283.219 268.001 275.326 260.234 265.722 260.179C256.262 260.125 248.697 267.597 248.697 276.868Z" fill="url(#paint2_linear_410_5590)"/>
<path d="M229.389 298.931C229.389 306.425 235.4 312.791 242.898 313.154C250.487 313.523 256.707 307.615 256.707 299.955C256.707 292.294 250.487 285.921 242.898 285.72C235.401 285.522 229.389 291.438 229.389 298.931Z" fill="#68A4FF"/>
<path d="M231.992 299.029C231.992 305.078 236.851 310.207 242.897 310.487C249.002 310.77 253.996 306.01 253.996 299.853C253.996 293.696 249.002 288.561 242.897 288.387C236.851 288.215 231.992 292.979 231.992 299.029Z" fill="#4389F2"/>
<path d="M235.614 299.206C235.614 302.607 238.346 305.491 241.746 305.649C245.18 305.808 247.988 303.132 247.988 299.67C247.988 296.207 245.18 293.32 241.746 293.222C238.346 293.124 235.614 295.804 235.614 299.206Z" fill="#276ED8"/>
<path d="M189.158 297.257C189.158 304.478 194.738 310.601 201.695 310.939C208.733 311.28 214.5 305.582 214.5 298.206C214.5 290.831 208.733 284.701 201.695 284.515C194.738 284.331 189.158 290.037 189.158 297.257Z" fill="#68A4FF"/>
<path d="M191.575 297.347C191.575 303.175 196.084 308.109 201.695 308.369C207.358 308.631 211.988 304.04 211.988 298.111C211.988 292.183 207.358 287.245 201.695 287.083C196.084 286.923 191.575 291.52 191.575 297.347Z" fill="#4389F2"/>
<path d="M193.911 297.499C193.911 300.9 196.643 303.784 200.043 303.943C203.477 304.102 206.285 301.425 206.285 297.963C206.285 294.501 203.477 291.614 200.043 291.516C196.643 291.418 193.911 294.098 193.911 297.499Z" fill="#276ED8"/>
<path d="M248.692 266.729C249.856 266.741 250.801 265.808 250.801 264.643V260.938C250.801 259.773 249.856 258.825 248.692 258.82C247.53 258.815 246.59 259.75 246.59 260.911V264.605C246.59 265.765 247.53 266.716 248.692 266.729Z" fill="#5483FC"/>
<path d="M197.547 266.108C198.608 266.12 199.469 265.228 199.469 264.117V260.578C199.469 259.466 198.607 258.56 197.547 258.555C196.488 258.55 195.631 259.445 195.631 260.553V264.079C195.631 265.188 196.488 266.097 197.547 266.108Z" fill="url(#paint3_linear_410_5590)"/>
<path d="M263.911 264.867L267.537 264.902C268.605 264.912 269.473 265.773 269.473 266.826V270.963C269.473 271.338 269.36 271.703 269.149 272.012L267.51 274.416C267.152 274.941 266.548 275.249 265.901 275.238L265.542 275.232C264.896 275.22 264.294 274.891 263.938 274.355L262.312 271.909C262.103 271.594 261.992 271.229 261.992 270.856V266.743C261.993 265.697 262.851 264.857 263.911 264.867Z" fill="url(#paint4_linear_410_5590)"/>
<path d="M263.911 289.451L267.537 289.556C268.605 289.587 269.473 288.759 269.473 287.707V283.569C269.473 283.194 269.36 282.825 269.149 282.508L267.51 280.04C267.152 279.501 266.548 279.17 265.901 279.156L265.542 279.149C264.896 279.136 264.294 279.441 263.938 279.964L262.312 282.348C262.103 282.654 261.992 283.015 261.992 283.389V287.502C261.993 288.547 262.851 289.421 263.911 289.451Z" fill="url(#paint5_linear_410_5590)"/>
<path d="M278.332 275.63V279.24C278.332 280.3 277.452 281.139 276.369 281.116L272.127 281.023C271.744 281.014 271.37 280.895 271.051 280.68L268.575 279.013C268.035 278.649 267.71 278.047 267.71 277.409V277.054C267.71 276.417 268.035 275.827 268.575 275.483L271.051 273.911C271.37 273.708 271.744 273.603 272.127 273.61L276.369 273.679C277.453 273.697 278.332 274.57 278.332 275.63Z" fill="url(#paint6_linear_410_5590)"/>
<path d="M253.362 275.187V278.727C253.362 279.766 254.209 280.628 255.255 280.651L259.384 280.742C259.76 280.75 260.127 280.649 260.44 280.45L262.884 278.896C263.42 278.556 263.742 277.969 263.742 277.333V276.979C263.742 276.343 263.42 275.744 262.884 275.382L260.44 273.736C260.127 273.525 259.76 273.409 259.384 273.403L255.255 273.336C254.209 273.319 253.362 274.148 253.362 275.187Z" fill="url(#paint7_linear_410_5590)"/>
<path d="M263.103 265.047L266.728 265.082C267.797 265.092 268.664 265.953 268.664 267.006V271.143C268.664 271.518 268.552 271.883 268.341 272.192L266.701 274.596C266.343 275.121 265.739 275.43 265.093 275.418L264.733 275.412C264.087 275.4 263.486 275.071 263.129 274.535L261.503 272.089C261.295 271.774 261.183 271.409 261.183 271.036V266.924C261.184 265.877 262.042 265.037 263.103 265.047Z" fill="#5483FC"/>
<path d="M263.103 289.631L266.728 289.736C267.797 289.767 268.664 288.939 268.664 287.886V283.749C268.664 283.374 268.552 283.005 268.341 282.688L266.701 280.22C266.343 279.681 265.739 279.35 265.093 279.336L264.733 279.329C264.087 279.315 263.486 279.621 263.129 280.144L261.503 282.528C261.295 282.834 261.183 283.195 261.183 283.568V287.681C261.184 288.727 262.042 289.601 263.103 289.631Z" fill="#5483FC"/>
<path d="M277.523 275.81V279.42C277.523 280.48 276.643 281.32 275.56 281.296L271.319 281.203C270.936 281.194 270.562 281.075 270.243 280.86L267.767 279.193C267.227 278.829 266.902 278.227 266.902 277.589V277.234C266.902 276.596 267.227 276.007 267.767 275.663L270.243 274.091C270.562 273.888 270.936 273.783 271.319 273.79L275.56 273.859C276.644 273.877 277.523 274.75 277.523 275.81Z" fill="#5483FC"/>
<path d="M252.554 275.367V278.907C252.554 279.946 253.4 280.808 254.446 280.831L258.575 280.922C258.951 280.93 259.318 280.829 259.631 280.629L262.075 279.076C262.611 278.735 262.934 278.149 262.934 277.513V277.159C262.934 276.523 262.611 275.924 262.075 275.562L259.631 273.916C259.318 273.705 258.951 273.589 258.575 273.583L254.446 273.516C253.4 273.499 252.554 274.328 252.554 275.367Z" fill="#5483FC"/>
<path d="M195.984 275.765C195.984 284.607 189.183 291.553 180.899 291.283C172.731 291.016 166.192 283.815 166.192 275.194C166.192 266.574 172.731 259.623 180.899 259.669C189.183 259.716 195.984 266.922 195.984 275.765Z" fill="url(#paint8_linear_410_5590)"/>
<path d="M177.118 265.507C177.118 267.723 178.808 269.545 180.901 269.574C182.999 269.604 184.707 267.819 184.707 265.587C184.707 263.356 182.999 261.535 180.901 261.52C178.808 261.505 177.118 263.29 177.118 265.507Z" fill="url(#paint9_linear_410_5590)"/>
<path d="M177.118 285.3C177.118 287.516 178.808 289.366 180.901 289.431C182.999 289.496 184.707 287.741 184.707 285.51C184.707 283.278 182.999 281.429 180.901 281.378C178.808 281.327 177.118 283.083 177.118 285.3Z" fill="url(#paint10_linear_410_5590)"/>
<path d="M190.331 271.597C188.206 271.564 186.488 273.348 186.488 275.582C186.488 277.817 188.206 279.667 190.331 279.715C192.464 279.764 194.199 277.98 194.199 275.73C194.199 273.481 192.464 271.631 190.331 271.597Z" fill="url(#paint11_linear_410_5590)"/>
<path d="M171.621 271.303C169.561 271.27 167.898 273.027 167.898 275.227C167.898 277.426 169.561 279.246 171.621 279.293C173.687 279.34 175.367 277.583 175.367 275.37C175.367 273.156 173.686 271.335 171.621 271.303Z" fill="url(#paint12_linear_410_5590)"/>
<path d="M176.31 265.687C176.31 267.903 178 269.725 180.092 269.754C182.191 269.784 183.898 267.999 183.898 265.767C183.898 263.536 182.191 261.715 180.092 261.7C178 261.685 176.31 263.47 176.31 265.687Z" fill="#5483FC"/>
<path d="M176.31 285.48C176.31 287.696 178 289.546 180.092 289.611C182.191 289.676 183.898 287.921 183.898 285.69C183.898 283.458 182.191 281.609 180.092 281.558C178 281.507 176.31 283.263 176.31 285.48Z" fill="#5483FC"/>
<path d="M189.523 271.777C187.397 271.744 185.68 273.528 185.68 275.762C185.68 277.997 187.397 279.847 189.523 279.895C191.656 279.944 193.391 278.16 193.391 275.911C193.391 273.661 191.656 271.811 189.523 271.777Z" fill="#5483FC"/>
<path d="M170.812 271.483C168.753 271.45 167.089 273.207 167.089 275.407C167.089 277.606 168.753 279.426 170.812 279.473C172.878 279.52 174.559 277.763 174.559 275.55C174.559 273.337 172.878 271.515 170.812 271.483Z" fill="#5483FC"/>
<path d="M233.3 336.18H204.09C202.94 336.18 202 335.25 202 334.09C202 332.94 202.93 332 204.09 332H233.3C234.45 332 235.39 332.93 235.39 334.09C235.39 335.24 234.45 336.18 233.3 336.18Z" fill="#66D6A0"/>
<path d="M233.3 346.61H204.09C202.94 346.61 202 345.68 202 344.52C202 343.37 202.93 342.43 204.09 342.43H233.3C234.45 342.43 235.39 343.36 235.39 344.52C235.39 345.67 234.45 346.61 233.3 346.61Z" fill="#66D6A0"/>
</g>
</g>
<defs>
<filter id="filter0_d_410_5590" x="81" y="173" width="107.629" height="87.01" filterUnits="userSpaceOnUse" color-interpolation-filters="sRGB">
<feFlood flood-opacity="0" result="BackgroundImageFix"/>
<feColorMatrix in="SourceAlpha" type="matrix" values="0 0 0 0 0 0 0 0 0 0 0 0 0 0 0 0 0 0 127 0" result="hardAlpha"/>
<feOffset dy="4"/>
<feGaussianBlur stdDeviation="5"/>
<feColorMatrix type="matrix" values="0 0 0 0 0.0901961 0 0 0 0 0.0392157 0 0 0 0 0.396078 0 0 0 0.25 0"/>
<feBlend mode="normal" in2="BackgroundImageFix" result="effect1_dropShadow_410_5590"/>
<feBlend mode="normal" in="SourceGraphic" in2="effect1_dropShadow_410_5590" result="shape"/>
</filter>
<filter id="filter1_d_410_5590" x="154.859" y="84" width="90.0195" height="70.39" filterUnits="userSpaceOnUse" color-interpolation-filters="sRGB">
<feFlood flood-opacity="0" result="BackgroundImageFix"/>
<feColorMatrix in="SourceAlpha" type="matrix" values="0 0 0 0 0 0 0 0 0 0 0 0 0 0 0 0 0 0 127 0" result="hardAlpha"/>
<feOffset dy="4"/>
<feGaussianBlur stdDeviation="5"/>
<feColorMatrix type="matrix" values="0 0 0 0 0.0901961 0 0 0 0 0.0392157 0 0 0 0 0.396078 0 0 0 0.25 0"/>
<feBlend mode="normal" in2="BackgroundImageFix" result="effect1_dropShadow_410_5590"/>
<feBlend mode="normal" in="SourceGraphic" in2="effect1_dropShadow_410_5590" result="shape"/>
</filter>
<filter id="filter2_d_410_5590" x="39" y="259" width="84" height="84" filterUnits="userSpaceOnUse" color-interpolation-filters="sRGB">
<feFlood flood-opacity="0" result="BackgroundImageFix"/>
<feColorMatrix in="SourceAlpha" type="matrix" values="0 0 0 0 0 0 0 0 0 0 0 0 0 0 0 0 0 0 127 0" result="hardAlpha"/>
<feOffset dy="4"/>
<feGaussianBlur stdDeviation="5"/>
<feColorMatrix type="matrix" values="0 0 0 0 0.0885677 0 0 0 0 0.0395834 0 0 0 0 0.395833 0 0 0 0.25 0"/>
<feBlend mode="normal" in2="BackgroundImageFix" result="effect1_dropShadow_410_5590"/>
<feBlend mode="normal" in="SourceGraphic" in2="effect1_dropShadow_410_5590" result="shape"/>
</filter>
<filter id="filter3_d_410_5590" x="-9" y="221" width="68" height="68" filterUnits="userSpaceOnUse" color-interpolation-filters="sRGB">
<feFlood flood-opacity="0" result="BackgroundImageFix"/>
<feColorMatrix in="SourceAlpha" type="matrix" values="0 0 0 0 0 0 0 0 0 0 0 0 0 0 0 0 0 0 127 0" result="hardAlpha"/>
<feOffset dy="4"/>
<feGaussianBlur stdDeviation="5"/>
<feColorMatrix type="matrix" values="0 0 0 0 0.0885677 0 0 0 0 0.0395834 0 0 0 0 0.395833 0 0 0 0.25 0"/>
<feBlend mode="normal" in2="BackgroundImageFix" result="effect1_dropShadow_410_5590"/>
<feBlend mode="normal" in="SourceGraphic" in2="effect1_dropShadow_410_5590" result="shape"/>
</filter>
<linearGradient id="paint0_linear_410_5590" x1="260.641" y1="251.445" x2="202.607" y2="358.92" gradientUnits="userSpaceOnUse">
<stop stop-color="#276ED8"/>
<stop offset="0.9964" stop-color="#84B5FF"/>
</linearGradient>
<linearGradient id="paint1_linear_410_5590" x1="209.998" y1="283" x2="233.498" y2="256" gradientUnits="userSpaceOnUse">
<stop stop-color="#84B5FF"/>
<stop offset="0.9964" stop-color="#276ED8"/>
</linearGradient>
<linearGradient id="paint2_linear_410_5590" x1="256.255" y1="293.041" x2="280.092" y2="254.36" gradientUnits="userSpaceOnUse">
<stop stop-color="#84B5FF"/>
<stop offset="0.805159" stop-color="#276ED8"/>
</linearGradient>
<linearGradient id="paint3_linear_410_5590" x1="205.751" y1="238.434" x2="200.545" y2="253.52" gradientUnits="userSpaceOnUse">
<stop stop-color="#AA80F9"/>
<stop offset="0.9964" stop-color="#6165D7"/>
</linearGradient>
<linearGradient id="paint4_linear_410_5590" x1="248.396" y1="285.973" x2="252.562" y2="281.981" gradientUnits="userSpaceOnUse">
<stop stop-color="#AA80F9"/>
<stop offset="0.9964" stop-color="#6165D7"/>
</linearGradient>
<linearGradient id="paint5_linear_410_5590" x1="256.304" y1="294.225" x2="260.469" y2="290.233" gradientUnits="userSpaceOnUse">
<stop stop-color="#AA80F9"/>
<stop offset="0.9964" stop-color="#6165D7"/>
</linearGradient>
<linearGradient id="paint6_linear_410_5590" x1="256.321" y1="294.243" x2="260.487" y2="290.25" gradientUnits="userSpaceOnUse">
<stop stop-color="#AA80F9"/>
<stop offset="0.9964" stop-color="#6165D7"/>
</linearGradient>
<linearGradient id="paint7_linear_410_5590" x1="248.435" y1="286.011" x2="252.6" y2="282.019" gradientUnits="userSpaceOnUse">
<stop stop-color="#AA80F9"/>
<stop offset="0.9964" stop-color="#6165D7"/>
</linearGradient>
<linearGradient id="paint8_linear_410_5590" x1="171.997" y1="290.37" x2="188.564" y2="264.041" gradientUnits="userSpaceOnUse">
<stop stop-color="#84B5FF"/>
<stop offset="0.9964" stop-color="#276ED8"/>
</linearGradient>
<linearGradient id="paint9_linear_410_5590" x1="160.404" y1="286.113" x2="166.085" y2="280.448" gradientUnits="userSpaceOnUse">
<stop stop-color="#AA80F9"/>
<stop offset="0.9964" stop-color="#6165D7"/>
</linearGradient>
<linearGradient id="paint10_linear_410_5590" x1="170.305" y1="296.042" x2="175.986" y2="290.377" gradientUnits="userSpaceOnUse">
<stop stop-color="#AA80F9"/>
<stop offset="0.9964" stop-color="#6165D7"/>
</linearGradient>
<linearGradient id="paint11_linear_410_5590" x1="170.161" y1="295.897" x2="175.842" y2="290.232" gradientUnits="userSpaceOnUse">
<stop stop-color="#AA80F9"/>
<stop offset="0.9964" stop-color="#6165D7"/>
</linearGradient>
<linearGradient id="paint12_linear_410_5590" x1="160.627" y1="286.335" x2="166.308" y2="280.67" gradientUnits="userSpaceOnUse">
<stop stop-color="#AA80F9"/>
<stop offset="0.9964" stop-color="#6165D7"/>
</linearGradient>
<clipPath id="clip0_410_5590">
<rect width="147" height="94" fill="white" transform="matrix(-1 0 0 1 303 253)"/>
</clipPath>
</defs>
</svg>
