<svg width="390" height="341" viewBox="0 0 390 341" fill="none" xmlns="http://www.w3.org/2000/svg">
<mask id="mask0_410_5591" style="mask-type:alpha" maskUnits="userSpaceOnUse" x="0" y="0" width="390" height="341">
<rect width="390" height="341" fill="#C4C4C4"/>
</mask>
<g mask="url(#mask0_410_5591)">
<path opacity="0.04" d="M61.5816 291.689C120.119 342.342 193.617 350.052 247.4 325.277C301.183 300.501 294.925 264.528 276.112 234.193C270.245 224.787 379.346 201.678 375.887 190.89C368.357 167.283 363.164 163.115 349.935 142.853C338.499 125.314 242.05 111.265 227.097 97.2042C220.549 91.1202 198.441 32.2377 132.75 7.67934C76.6123 -13.3074 30.1114 26.1926 14.1083 69.3842C-1.89492 112.576 -18.5754 222.329 61.5816 291.689Z" fill="#276ED8"/>
<path opacity="0.2" d="M380.396 157.669L389.109 156.03V148.218L380.396 146.716C379.726 143.506 378.456 140.501 376.708 137.838L381.707 130.504L376.175 124.972L368.95 130.08C366.287 128.332 363.296 127.076 360.073 126.406L358.434 117.693H350.621L349.119 126.406C345.909 127.076 342.905 128.346 340.241 130.094L332.921 125.095L327.389 130.627L332.497 137.852C330.749 140.515 329.492 143.52 328.823 146.729L320.109 148.368V156.181L328.823 157.683C329.492 160.906 330.763 163.897 332.511 166.561L327.512 173.881L333.043 179.413L340.282 174.305C342.945 176.053 345.95 177.323 349.16 177.979L350.799 186.693H358.611L360.114 177.979C363.337 177.309 366.328 176.039 368.991 174.291L376.312 179.29L381.843 173.758L376.735 166.533C378.47 163.884 379.726 160.893 380.396 157.669ZM354.609 168.377C345.677 168.377 338.438 161.125 338.438 152.206C338.438 143.288 345.677 136.035 354.609 136.035C363.542 136.035 370.78 143.274 370.78 152.206C370.78 161.138 363.542 168.377 354.609 168.377Z" fill="#84B5FF"/>
<path d="M206.109 170.561V257.824C206.109 262.167 209.643 265.693 213.996 265.693H322.223C326.576 265.693 330.109 262.167 330.109 257.824V170.561C330.109 166.218 326.576 162.693 322.223 162.693H213.987C209.634 162.701 206.109 166.218 206.109 170.561ZM322.334 261.656H268.109H213.885C212.272 261.656 210.966 260.353 210.966 258.744V169.641C210.966 168.032 212.272 166.729 213.885 166.729H322.334C323.947 166.729 325.253 168.032 325.253 169.641V258.744C325.253 260.353 323.947 261.656 322.334 261.656Z" fill="#66D6A0"/>
<path d="M320.019 63.6925C308.469 63.6925 299.109 73.0525 299.109 84.6025C299.109 96.1525 308.469 105.513 320.019 105.513C331.569 105.513 340.929 96.1525 340.929 84.6025C340.929 73.0525 331.569 63.6925 320.019 63.6925ZM320.019 100.303C311.339 100.303 304.309 93.2725 304.309 84.5925C304.309 75.9125 311.339 68.8825 320.019 68.8825C328.699 68.8825 335.729 75.9125 335.729 84.5925C335.729 93.2725 328.699 100.303 320.019 100.303Z" fill="#66D6A0"/>
<path d="M287.782 98.5026V231.493C287.782 234.913 285.012 237.683 281.592 237.683H78.7916C75.3716 237.683 72.6016 234.913 72.6016 231.493V98.5026C72.6016 90.6126 79.0016 84.2026 86.9016 84.2026H273.482C281.382 84.2026 287.782 90.6126 287.782 98.5026Z" fill="white" stroke="#84B5FF" stroke-miterlimit="10"/>
<path d="M172.25 116.013H148.113V118.042H172.25V116.013Z" fill="#84B5FF"/>
<path d="M200.558 116.013H176.422V118.042H200.558V116.013Z" fill="#06B25F"/>
<path d="M192.998 126.96H155.57V128.988H192.998V126.96Z" fill="#276ED8"/>
<path d="M218.199 126.96H199.18V128.988H218.199V126.96Z" fill="#84B5FF"/>
<path d="M184.981 137.892H168.547V139.92H184.981V137.892Z" fill="#06B25F"/>
<path d="M249.01 137.892H194.484V139.92H249.01V137.892Z" fill="#06B25F"/>
<path d="M243.628 148.833H181.312V150.861H243.628V148.833Z" fill="#276ED8"/>
<path d="M184.911 159.765H165.734V161.793H184.911V159.765Z" fill="#84B5FF"/>
<path d="M212.298 159.765H193.121V161.793H212.298V159.765Z" fill="#276ED8"/>
<path d="M176.005 216.525H148.113V218.553H176.005V216.525Z" fill="#84B5FF"/>
<path d="M213.657 216.525H185.766V218.553H213.657V216.525Z" fill="#06B25F"/>
<path d="M250.317 216.525H222.426V218.553H250.317V216.525Z" fill="#84B5FF"/>
<path d="M210.096 205.575H155.57V207.603H210.096V205.575Z" fill="#276ED8"/>
<path d="M273.112 205.575H218.586V207.603H273.112V205.575Z" fill="#84B5FF"/>
<path d="M222.653 194.646H168.547V196.674H222.653V194.646Z" fill="#84B5FF"/>
<path d="M242.426 194.646H227.371V196.674H242.426V194.646Z" fill="#06B25F"/>
<path d="M185.384 183.701H165.02V185.73H185.384V183.701Z" fill="#06B25F"/>
<path d="M216.559 183.701H196.195V185.73H216.559V183.701Z" fill="#276ED8"/>
<path d="M250.04 183.701H229.676V185.73H250.04V183.701Z" fill="#84B5FF"/>
<path d="M217.188 172.773H188.633V174.802H217.188V172.773Z" fill="#06B25F"/>
<path d="M177.856 172.773H149.301V174.802H177.856V172.773Z" fill="#276ED8"/>
<path d="M141.387 114.074H138.785V116.68H141.387V114.074Z" fill="#84B5FF"/>
<path d="M141.387 209.442H138.785V204.144H141.387V209.442V209.442ZM141.387 196.188H138.785V190.89H141.387V196.188V196.188ZM141.387 182.934H138.785V177.635H141.387V182.934V182.934ZM141.387 169.679H138.785V164.381H141.387V169.679V169.679ZM141.387 156.425H138.785V151.127H141.387V156.425V156.425ZM141.387 143.171H138.785V137.872H141.387V143.171V143.171ZM141.387 129.916H138.785V124.618H141.387V129.916V129.916Z" fill="#84B5FF"/>
<path d="M141.387 217.396H138.785V220.002H141.387V217.396Z" fill="#84B5FF"/>
<path opacity="0.7" d="M72.1094 100.692C72.1094 97.3787 74.7957 94.6924 78.1094 94.6924H128.109V237.692H78.1094C74.7957 237.692 72.1094 235.006 72.1094 231.692V100.692Z" fill="#84B5FF"/>
<path d="M100.726 118.016H76.5898V120.044H100.726V118.016Z" fill="#06B25F"/>
<path d="M119.197 130.41H81.7695V132.438H119.197V130.41Z" fill="#84B5FF"/>
<path d="M119.197 142.806H81.7695V144.834H119.197V142.806Z" fill="#84B5FF"/>
<path d="M119.197 155.202H81.7695V157.23H119.197V155.202Z" fill="#84B5FF"/>
<path d="M119.197 167.595H81.7695V169.623H119.197V167.595Z" fill="#84B5FF"/>
<path d="M121.142 192.384H83.7148V194.412H121.142V192.384Z" fill="#84B5FF"/>
<path d="M121.142 204.781H83.7148V206.81H121.142V204.781Z" fill="#84B5FF"/>
<path d="M121.142 217.173H83.7148V219.201H121.142V217.173Z" fill="#84B5FF"/>
<path d="M100.726 179.989H76.5898V182.018H100.726V179.989Z" fill="#06B25F"/>
<path d="M287.782 98.5026V99.1026H72.6016V98.5026C72.6016 90.6126 79.0016 84.2026 86.9016 84.2026H273.482C281.382 84.2026 287.782 90.6126 287.782 98.5026Z" fill="#84B5FF"/>
<path opacity="0.3" d="M255.099 92.3424C255.099 93.3724 254.269 94.2024 253.239 94.2024C252.209 94.2024 251.379 93.3724 251.379 92.3424C251.379 91.3124 252.209 90.4824 253.239 90.4824C254.259 90.4824 255.099 91.3124 255.099 92.3424Z" fill="white"/>
<path opacity="0.3" d="M265.279 92.3424C265.279 93.3724 264.449 94.2024 263.419 94.2024C262.389 94.2024 261.559 93.3724 261.559 92.3424C261.559 91.3124 262.389 90.4824 263.419 90.4824C264.439 90.4824 265.279 91.3124 265.279 92.3424Z" fill="white"/>
<path opacity="0.3" d="M275.009 92.3424C275.009 93.3724 274.179 94.2024 273.149 94.2024C272.119 94.2024 271.289 93.3724 271.289 92.3424C271.289 91.3124 272.119 90.4824 273.149 90.4824C274.179 90.4824 275.009 91.3124 275.009 92.3424Z" fill="white"/>
<path d="M287.782 98.5026V231.493C287.782 234.913 285.012 237.683 281.592 237.683H78.7916C75.3716 237.683 72.6016 234.913 72.6016 231.493V98.5026C72.6016 90.6126 79.0016 84.2026 86.9016 84.2026H273.482C281.382 84.2026 287.782 90.6126 287.782 98.5026Z" stroke="#84B5FF" stroke-miterlimit="10"/>
<g filter="url(#filter0_d_410_5591)">
<rect x="255.109" y="149.693" width="106" height="47.3467" rx="6" fill="#84B5FF"/>
</g>
<path d="M291.517 182.521L286.097 173.352L291.517 164.183L294.13 173.352L291.517 182.521ZM279.454 181.626L272.644 174.833H283.484L288.904 184.002L279.454 181.626ZM279.454 165.049L288.877 162.673L283.457 171.842H272.616L279.454 165.049ZM293.296 158.172L280.983 161.387L279.148 164.546L275.452 164.518L266.418 173.352L275.452 182.186L279.148 182.157L280.983 185.316L293.296 188.559L296.604 176.511L294.742 173.38L296.604 170.249L293.296 158.172ZM321.258 167.09C319.619 167.09 318.507 167.789 317.673 169.075H317.617V167.426H314.727V179.558H317.673V172.681C317.673 171.032 318.701 169.885 320.119 169.885C321.453 169.885 322.454 170.696 322.454 172.122V179.586H325.4V171.646C325.428 168.991 323.76 167.09 321.258 167.09ZM310.251 174.442C310.251 176.063 309.334 177.181 307.833 177.181C306.471 177.181 305.61 176.399 305.61 174.973V167.426H302.663V175.532C302.663 178.188 304.164 179.921 306.861 179.921C308.556 179.921 309.501 179.278 310.307 178.16H310.391V179.586H313.226V167.426H310.279V174.442H310.251ZM326.985 167.426H329.931V179.558H326.985V167.426ZM326.985 163.652H329.931V166.084H326.985V163.652ZM346.636 167.426L344.885 172.904C344.496 174.023 344.19 175.56 344.19 175.56H344.106C344.106 175.56 343.717 174.023 343.328 172.904L341.355 167.426H338.186L341.438 176.063C342.133 177.908 342.355 178.691 342.355 179.362C342.355 180.368 341.827 181.011 340.577 181.011H339.437V183.555H341.327C343.773 183.555 344.635 182.577 345.552 179.893L349.805 167.453H346.636V167.426ZM335.434 176.007V169.578H337.325V167.453H335.434V163.652H332.488V167.426H330.82V169.55H332.488V176.678C332.488 178.971 334.211 179.586 335.768 179.586C337.046 179.586 337.38 179.53 337.38 179.53V177.181H336.63C335.935 177.21 335.434 176.902 335.434 176.007Z" fill="white"/>
<g filter="url(#filter1_d_410_5591)">
<path d="M160.87 246.257L172.109 244.143V234.066L160.87 232.128C160.007 227.988 158.368 224.113 156.113 220.677L162.561 211.217L155.426 204.082L146.107 210.671C142.672 208.416 138.814 206.795 134.656 205.932L132.542 194.693H122.465L120.527 205.932C116.387 206.795 112.512 208.434 109.077 210.689L99.6339 204.241L92.4991 211.376L99.0878 220.695C96.8328 224.13 95.2121 228.006 94.3489 232.146L83.1094 234.26V244.337L94.3489 246.274C95.2121 250.432 96.8505 254.29 99.1054 257.725L92.6577 267.168L99.7924 274.303L109.129 267.714C112.565 269.969 116.44 271.607 120.58 272.453L122.694 283.693H132.771L134.709 272.453C138.866 271.59 142.725 269.951 146.16 267.696L155.602 274.144L162.737 267.009L156.149 257.69C158.386 254.272 160.007 250.414 160.87 246.257ZM127.609 260.068C116.088 260.068 106.751 250.714 106.751 239.21C106.751 227.706 116.088 218.352 127.609 218.352C139.131 218.352 148.468 227.689 148.468 239.21C148.468 250.732 139.131 260.068 127.609 260.068Z" fill="#276ED8"/>
</g>
<g filter="url(#filter2_d_410_5591)">
<path d="M208.796 307.015L214.653 309.067L217.391 304.342L212.632 300.38C213.348 298.201 213.635 295.926 213.507 293.714L219.109 291.025L217.693 285.743L211.534 286.316C210.531 284.327 209.146 282.514 207.444 280.986L209.497 275.131L204.77 272.395L200.807 277.152C198.627 276.436 196.351 276.15 194.139 276.277L191.449 270.693L186.165 272.108L186.738 278.282C184.749 279.284 182.934 280.668 181.406 282.37L175.55 280.318L172.812 285.043L177.571 289.005C176.855 291.2 176.568 293.444 176.696 295.671L171.109 298.36L172.526 303.642L178.701 303.069C179.704 305.058 181.072 306.871 182.791 308.399L180.738 314.254L185.465 316.99L189.428 312.233C191.624 312.949 193.868 313.235 196.096 313.108L198.786 318.693L204.07 317.277L203.497 311.104C205.454 310.117 207.269 308.749 208.796 307.015ZM189.428 304.485C184.017 301.367 182.17 294.446 185.29 289.037C188.409 283.627 195.332 281.782 200.743 284.9C206.154 288.018 208.001 294.939 204.881 300.348C201.762 305.758 194.839 307.603 189.428 304.485Z" fill="#84B5FF"/>
</g>
<g filter="url(#filter3_d_410_5591)">
<rect x="51.1094" y="67.6925" width="58" height="57" rx="6" fill="#06B25F"/>
</g>
<path d="M70.8529 105.619L57.5761 98.4382C56.7181 97.9415 56.2891 97.1738 56.2891 96.1351C56.2891 95.0513 56.7407 94.2836 57.6438 93.832L70.8529 86.584V89.2258C70.8529 89.4064 70.7851 89.6548 70.6497 89.9709C70.5142 90.2418 70.311 90.4451 70.04 90.5805L60.6243 95.7287C60.2631 95.9996 60.2631 96.2706 60.6243 96.5415L70.8529 102.028V105.619Z" fill="white"/>
<path d="M82.1618 84.4163H84.8036L78.233 106.906C78.0523 107.493 77.6459 107.786 77.0137 107.786H75.3202L82.1618 84.4163Z" fill="white"/>
<path d="M89.0677 86.584L102.277 93.832C103.225 94.3287 103.699 95.0965 103.699 96.1351C103.699 97.1738 103.225 97.9189 102.277 98.3705L89.0677 105.619V102.977C89.0677 102.841 89.1129 102.615 89.2032 102.299C89.3387 101.983 89.5419 101.757 89.8129 101.622L99.2963 96.5415C99.6575 96.2706 99.6575 95.9996 99.2963 95.7287L89.0677 90.1741V86.584Z" fill="white"/>
</g>
<defs>
<filter id="filter0_d_410_5591" x="249.109" y="143.693" width="128" height="69.3467" filterUnits="userSpaceOnUse" color-interpolation-filters="sRGB">
<feFlood flood-opacity="0" result="BackgroundImageFix"/>
<feColorMatrix in="SourceAlpha" type="matrix" values="0 0 0 0 0 0 0 0 0 0 0 0 0 0 0 0 0 0 127 0" result="hardAlpha"/>
<feMorphology radius="3" operator="dilate" in="SourceAlpha" result="effect1_dropShadow_410_5591"/>
<feOffset dx="5" dy="5"/>
<feGaussianBlur stdDeviation="4"/>
<feColorMatrix type="matrix" values="0 0 0 0 0 0 0 0 0 0 0 0 0 0 0 0 0 0 0.2 0"/>
<feBlend mode="normal" in2="BackgroundImageFix" result="effect1_dropShadow_410_5591"/>
<feBlend mode="normal" in="SourceGraphic" in2="effect1_dropShadow_410_5591" result="shape"/>
</filter>
<filter id="filter1_d_410_5591" x="73.1094" y="188.693" width="109" height="109" filterUnits="userSpaceOnUse" color-interpolation-filters="sRGB">
<feFlood flood-opacity="0" result="BackgroundImageFix"/>
<feColorMatrix in="SourceAlpha" type="matrix" values="0 0 0 0 0 0 0 0 0 0 0 0 0 0 0 0 0 0 127 0" result="hardAlpha"/>
<feOffset dy="4"/>
<feGaussianBlur stdDeviation="5"/>
<feColorMatrix type="matrix" values="0 0 0 0 0.0885677 0 0 0 0 0.0395834 0 0 0 0 0.395833 0 0 0 0.25 0"/>
<feBlend mode="normal" in2="BackgroundImageFix" result="effect1_dropShadow_410_5591"/>
<feBlend mode="normal" in="SourceGraphic" in2="effect1_dropShadow_410_5591" result="shape"/>
</filter>
<filter id="filter2_d_410_5591" x="161.109" y="264.693" width="68" height="68" filterUnits="userSpaceOnUse" color-interpolation-filters="sRGB">
<feFlood flood-opacity="0" result="BackgroundImageFix"/>
<feColorMatrix in="SourceAlpha" type="matrix" values="0 0 0 0 0 0 0 0 0 0 0 0 0 0 0 0 0 0 127 0" result="hardAlpha"/>
<feOffset dy="4"/>
<feGaussianBlur stdDeviation="5"/>
<feColorMatrix type="matrix" values="0 0 0 0 0.0885677 0 0 0 0 0.0395834 0 0 0 0 0.395833 0 0 0 0.25 0"/>
<feBlend mode="normal" in2="BackgroundImageFix" result="effect1_dropShadow_410_5591"/>
<feBlend mode="normal" in="SourceGraphic" in2="effect1_dropShadow_410_5591" result="shape"/>
</filter>
<filter id="filter3_d_410_5591" x="45.1094" y="61.6925" width="80" height="79" filterUnits="userSpaceOnUse" color-interpolation-filters="sRGB">
<feFlood flood-opacity="0" result="BackgroundImageFix"/>
<feColorMatrix in="SourceAlpha" type="matrix" values="0 0 0 0 0 0 0 0 0 0 0 0 0 0 0 0 0 0 127 0" result="hardAlpha"/>
<feMorphology radius="3" operator="dilate" in="SourceAlpha" result="effect1_dropShadow_410_5591"/>
<feOffset dx="5" dy="5"/>
<feGaussianBlur stdDeviation="4"/>
<feColorMatrix type="matrix" values="0 0 0 0 0 0 0 0 0 0 0 0 0 0 0 0 0 0 0.2 0"/>
<feBlend mode="normal" in2="BackgroundImageFix" result="effect1_dropShadow_410_5591"/>
<feBlend mode="normal" in="SourceGraphic" in2="effect1_dropShadow_410_5591" result="shape"/>
</filter>
</defs>
</svg>
