<svg width="516" height="317" viewBox="0 0 516 317" fill="none" xmlns="http://www.w3.org/2000/svg">
<g clip-path="url(#clip0_745_5844)">
<path opacity="0.04" d="M194.456 297.865C286.017 319.365 436.374 290.008 487.967 240.094C539.559 190.18 488.373 134.126 452.534 113.484C441.382 107.1 428.809 102.517 419.843 93.6312C400.268 74.169 394.146 42.4402 369.433 28.9697C348.058 17.3023 322.116 29.1523 298.215 22.5639C287.782 19.7506 270.932 7.07398 253.212 4.78154C214.021 -0.288603 117.631 35.4507 105.734 69.4518C93.836 103.453 69.0769 268.423 194.456 297.865Z" fill="#276ED8"/>
<path opacity="0.2" d="M349.75 142.691L362 140.387V129.405L349.75 127.293C348.809 122.781 347.024 118.557 344.566 114.813L351.593 104.502L343.817 96.7259L333.66 103.907C329.916 101.449 325.711 99.6827 321.18 98.7419L318.876 86.4921H307.893L305.781 98.7419C301.269 99.6827 297.045 101.468 293.301 103.926L283.01 96.8987L275.234 104.675L282.415 114.832C279.957 118.576 278.191 122.8 277.25 127.312L265 129.616V140.599L277.25 142.711C278.191 147.242 279.976 151.447 282.434 155.191L275.407 165.482L283.183 173.258L293.359 166.077C297.103 168.535 301.327 170.321 305.839 171.242L308.143 183.492H319.126L321.238 171.242C325.769 170.302 329.974 168.516 333.718 166.058L344.009 173.086L351.785 165.309L344.605 155.152C347.043 151.428 348.809 147.223 349.75 142.691ZM313.5 157.745C300.943 157.745 290.767 147.549 290.767 135.011C290.767 122.474 300.943 112.278 313.5 112.278C326.057 112.278 336.233 122.454 336.233 135.011C336.233 147.568 326.057 157.745 313.5 157.745Z" fill="#84B5FF"/>
<path d="M74.5586 94.8122V197.282C74.5586 202.382 78.6986 206.522 83.7986 206.522H221.599C226.699 206.522 230.839 202.382 230.839 197.282V94.8122C230.839 89.7122 226.699 85.5722 221.599 85.5722H83.7886C78.6886 85.5822 74.5586 89.7122 74.5586 94.8122ZM221.729 201.782H158.199L83.9986 201.492C82.1086 201.492 80.2486 200.252 80.2486 198.362V93.7322C80.2486 91.8422 81.7786 90.3122 83.6686 90.3122H221.729C223.619 90.3122 225.149 91.8422 225.149 93.7322V198.362C225.149 200.252 223.619 201.782 221.729 201.782Z" fill="#66D6A0"/>
<path d="M363.91 204.492C352.36 204.492 343 213.852 343 225.402C343 236.952 352.36 246.312 363.91 246.312C375.46 246.312 384.82 236.952 384.82 225.402C384.82 213.852 375.46 204.492 363.91 204.492ZM363.91 241.102C355.23 241.102 348.2 234.072 348.2 225.392C348.2 216.712 355.23 209.682 363.91 209.682C372.59 209.682 379.62 216.712 379.62 225.392C379.62 234.072 372.59 241.102 363.91 241.102Z" fill="#66D6A0"/>
<path d="M318.668 143.302V276.292C318.668 279.712 315.898 282.482 312.478 282.482H109.678C106.258 282.482 103.488 279.712 103.488 276.292V143.302C103.488 135.412 109.888 129.002 117.788 129.002H304.368C312.268 129.002 318.668 135.412 318.668 143.302Z" fill="white" stroke="#84B5FF" stroke-miterlimit="10"/>
<path d="M318.668 143.302V143.902H103.488V143.302C103.488 135.412 109.888 129.002 117.788 129.002H304.368C312.268 129.002 318.668 135.412 318.668 143.302Z" fill="#84B5FF"/>
<path opacity="0.1" d="M318.668 253.832V276.292C318.668 279.712 315.898 282.482 312.478 282.482H109.678C106.258 282.482 103.488 279.712 103.488 276.292V253.832H318.668Z" fill="#84B5FF"/>
<path d="M285.99 137.142C285.99 138.172 285.16 139.002 284.13 139.002C283.1 139.002 282.27 138.172 282.27 137.142C282.27 136.112 283.1 135.282 284.13 135.282C285.15 135.282 285.99 136.112 285.99 137.142Z" fill="#84B5FF"/>
<path d="M296.169 137.142C296.169 138.172 295.339 139.002 294.309 139.002C293.279 139.002 292.449 138.172 292.449 137.142C292.449 136.112 293.279 135.282 294.309 135.282C295.329 135.282 296.169 136.112 296.169 137.142Z" fill="#84B5FF"/>
<path d="M305.9 137.142C305.9 138.172 305.07 139.002 304.04 139.002C303.01 139.002 302.18 138.172 302.18 137.142C302.18 136.112 303.01 135.282 304.04 135.282C305.07 135.282 305.9 136.112 305.9 137.142Z" fill="#84B5FF"/>
<path opacity="0.1" d="M319 143.747V276.321C319 279.731 316.232 282.492 312.815 282.492H110.185C106.768 282.492 104 279.731 104 276.321V143.747C104 135.882 110.395 129.492 118.288 129.492H304.712C312.605 129.492 319 135.882 319 143.747Z" stroke="#276ED8" stroke-miterlimit="10"/>
<g filter="url(#filter0_d_745_5844)">
<path d="M127.918 287.08L136 285.56V278.313L127.918 276.92C127.297 273.943 126.119 271.156 124.497 268.686L129.134 261.883L124.003 256.752L117.302 261.49C114.831 259.869 112.057 258.703 109.067 258.082L107.547 250H100.301L98.9074 258.082C95.9303 258.703 93.1433 259.881 90.673 261.503L83.8828 256.866L78.7522 261.997L83.4901 268.698C81.8686 271.169 80.7031 273.956 80.0823 276.933L72 278.453V285.699L80.0823 287.093C80.7031 290.082 81.8812 292.857 83.5028 295.327L78.8662 302.117L83.9968 307.248L90.711 302.51C93.1813 304.131 95.9683 305.31 98.9454 305.918L100.466 314H107.712L109.105 305.918C112.095 305.297 114.869 304.119 117.34 302.497L124.13 307.134L129.26 302.003L124.523 295.302C126.131 292.844 127.297 290.07 127.918 287.08ZM104 297.012C95.715 297.012 89.0008 290.285 89.0008 282.013C89.0008 273.74 95.715 267.013 104 267.013C112.285 267.013 118.999 273.728 118.999 282.013C118.999 290.298 112.285 297.012 104 297.012Z" fill="#84B5FF"/>
</g>
<g filter="url(#filter1_d_745_5844)">
<path d="M40.687 226.322L46.5437 228.374L49.2811 223.649L44.5225 219.688C45.2387 217.508 45.5252 215.233 45.3978 213.021L51 210.333L49.5835 205.051L43.4244 205.623C42.4217 203.635 41.0371 201.821 39.3342 200.294L41.3873 194.439L36.6605 191.702L32.6976 196.459C30.5172 195.743 28.2414 195.457 26.0292 195.584L23.3395 190L18.0557 191.416L18.6287 197.589C16.6393 198.591 14.8249 199.975 13.2971 201.678L7.44033 199.625L4.70293 204.351L9.46153 208.312C8.74535 210.508 8.4589 212.751 8.58622 214.978L3 217.667L4.41642 222.949L10.5915 222.376C11.5941 224.365 12.9629 226.179 14.6817 227.706L12.6286 233.561L17.3554 236.298L21.3183 231.541C23.5146 232.256 25.7586 232.543 27.9868 232.416L30.6764 238L35.9602 236.584L35.3873 230.411C37.3448 229.425 39.1591 228.056 40.687 226.322ZM21.3183 223.792C15.9072 220.674 14.061 213.753 17.1804 208.344C20.2997 202.935 27.2228 201.089 32.6339 204.207C38.0451 207.326 39.8912 214.247 36.7719 219.656C33.6525 225.065 26.7295 226.911 21.3183 223.792Z" fill="#276ED8"/>
</g>
<rect x="102" y="201.492" width="21" height="5" fill="#66D6A0"/>
<g filter="url(#filter2_d_745_5844)">
<rect x="122" y="170" width="138" height="61.64" rx="6" fill="#06B25F"/>
</g>
<path d="M169.395 212.739L162.339 200.802L169.395 188.864L172.797 200.802L169.395 212.739ZM153.69 211.574L144.824 202.73H158.937L165.994 214.668L153.69 211.574ZM153.69 189.993L165.958 186.899L158.901 198.836H144.789L153.69 189.993ZM171.711 181.04L155.68 185.225L153.292 189.338L148.48 189.301L136.719 200.802L148.48 212.302L153.292 212.266L155.68 216.378L171.711 220.6L176.017 204.914L173.593 200.838L176.017 196.762L171.711 181.04ZM208.115 192.65C205.98 192.65 204.532 193.559 203.447 195.233H203.375V193.086H199.611V208.881H203.447V199.928C203.447 197.781 204.786 196.289 206.631 196.289C208.368 196.289 209.671 197.344 209.671 199.201V208.918H213.507V198.582C213.543 195.124 211.372 192.65 208.115 192.65V192.65ZM193.785 202.221C193.785 204.332 192.591 205.788 190.637 205.788C188.864 205.788 187.742 204.769 187.742 202.913V193.086H183.906V203.64C183.906 207.098 185.86 209.354 189.37 209.354C191.578 209.354 192.808 208.517 193.858 207.062H193.966V208.918H197.657V193.086H193.821V202.221H193.785ZM215.57 193.086H219.405V208.881H215.57V193.086ZM215.57 188.173H219.405V191.34H215.57V188.173ZM241.153 193.086L238.874 200.219C238.367 201.675 237.969 203.677 237.969 203.677H237.86C237.86 203.677 237.354 201.675 236.847 200.219L234.278 193.086H230.153L234.386 204.332C235.291 206.734 235.581 207.753 235.581 208.626C235.581 209.936 234.893 210.774 233.265 210.774H231.781V214.085H234.242C237.426 214.085 238.548 212.812 239.742 209.318L245.279 193.123H241.153V193.086ZM226.57 204.259V195.889H229.031V193.123H226.57V188.173H222.735V193.086H220.563V195.852H222.735V205.132C222.735 208.117 224.978 208.918 227.004 208.918C228.669 208.918 229.103 208.845 229.103 208.845V205.788H228.126C227.221 205.824 226.57 205.424 226.57 204.259Z" fill="white"/>
<g filter="url(#filter3_d_745_5844)">
<rect x="198" y="35" width="65.6797" height="64.5473" rx="6" fill="#276ED8"/>
</g>
<path d="M245.253 61.8749C244.181 57.0211 239.698 53.5 234.508 53.5C232.447 53.5 230.429 54.0541 228.675 55.1152C227.927 55.5673 227.24 56.1032 226.628 56.7107C226.045 56.5804 225.445 56.5134 224.84 56.5134C222.773 56.5134 220.793 57.2791 219.289 58.6958C218.432 59.5028 217.777 60.4775 217.367 61.5551C216.332 62.0454 215.395 62.7364 214.621 63.5991L245.253 61.8749ZM245.253 61.8749C247.669 63.2602 249.316 65.7426 249.486 68.6153L246.99 68.7624L249.486 68.6154C249.782 73.6444 245.59 77.5 240.721 77.5H221.186C216.508 77.5 212.5 73.8443 212.5 69.1C212.5 67.0662 213.263 65.1143 214.621 63.5992L245.253 61.8749Z" stroke="white" stroke-width="5"/>
<path d="M74.7725 38.976H46.988C45.8941 38.976 45 38.0914 45 36.988C45 35.8941 45.8846 35 46.988 35H74.7725C75.8664 35 76.7605 35.8846 76.7605 36.988C76.7605 38.0819 75.8664 38.976 74.7725 38.976Z" fill="#66D6A0"/>
<path d="M74.7725 48.8972H46.988C45.8941 48.8972 45 48.0125 45 46.9091C45 45.8153 45.8846 44.9211 46.988 44.9211H74.7725C75.8664 44.9211 76.7605 45.8058 76.7605 46.9091C76.7605 48.003 75.8664 48.8972 74.7725 48.8972Z" fill="#66D6A0"/>
</g>
<defs>
<filter id="filter0_d_745_5844" x="62" y="244" width="84" height="84" filterUnits="userSpaceOnUse" color-interpolation-filters="sRGB">
<feFlood flood-opacity="0" result="BackgroundImageFix"/>
<feColorMatrix in="SourceAlpha" type="matrix" values="0 0 0 0 0 0 0 0 0 0 0 0 0 0 0 0 0 0 127 0" result="hardAlpha"/>
<feOffset dy="4"/>
<feGaussianBlur stdDeviation="5"/>
<feColorMatrix type="matrix" values="0 0 0 0 0.0885677 0 0 0 0 0.0395834 0 0 0 0 0.395833 0 0 0 0.25 0"/>
<feBlend mode="normal" in2="BackgroundImageFix" result="effect1_dropShadow_745_5844"/>
<feBlend mode="normal" in="SourceGraphic" in2="effect1_dropShadow_745_5844" result="shape"/>
</filter>
<filter id="filter1_d_745_5844" x="-7" y="184" width="68" height="68" filterUnits="userSpaceOnUse" color-interpolation-filters="sRGB">
<feFlood flood-opacity="0" result="BackgroundImageFix"/>
<feColorMatrix in="SourceAlpha" type="matrix" values="0 0 0 0 0 0 0 0 0 0 0 0 0 0 0 0 0 0 127 0" result="hardAlpha"/>
<feOffset dy="4"/>
<feGaussianBlur stdDeviation="5"/>
<feColorMatrix type="matrix" values="0 0 0 0 0.0885677 0 0 0 0 0.0395834 0 0 0 0 0.395833 0 0 0 0.25 0"/>
<feBlend mode="normal" in2="BackgroundImageFix" result="effect1_dropShadow_745_5844"/>
<feBlend mode="normal" in="SourceGraphic" in2="effect1_dropShadow_745_5844" result="shape"/>
</filter>
<filter id="filter2_d_745_5844" x="118" y="166" width="152" height="75.64" filterUnits="userSpaceOnUse" color-interpolation-filters="sRGB">
<feFlood flood-opacity="0" result="BackgroundImageFix"/>
<feColorMatrix in="SourceAlpha" type="matrix" values="0 0 0 0 0 0 0 0 0 0 0 0 0 0 0 0 0 0 127 0" result="hardAlpha"/>
<feMorphology radius="1" operator="dilate" in="SourceAlpha" result="effect1_dropShadow_745_5844"/>
<feOffset dx="3" dy="3"/>
<feGaussianBlur stdDeviation="3"/>
<feColorMatrix type="matrix" values="0 0 0 0 0 0 0 0 0 0 0 0 0 0 0 0 0 0 0.2 0"/>
<feBlend mode="normal" in2="BackgroundImageFix" result="effect1_dropShadow_745_5844"/>
<feBlend mode="normal" in="SourceGraphic" in2="effect1_dropShadow_745_5844" result="shape"/>
</filter>
<filter id="filter3_d_745_5844" x="192" y="29" width="87.6797" height="86.5473" filterUnits="userSpaceOnUse" color-interpolation-filters="sRGB">
<feFlood flood-opacity="0" result="BackgroundImageFix"/>
<feColorMatrix in="SourceAlpha" type="matrix" values="0 0 0 0 0 0 0 0 0 0 0 0 0 0 0 0 0 0 127 0" result="hardAlpha"/>
<feMorphology radius="3" operator="dilate" in="SourceAlpha" result="effect1_dropShadow_745_5844"/>
<feOffset dx="5" dy="5"/>
<feGaussianBlur stdDeviation="4"/>
<feColorMatrix type="matrix" values="0 0 0 0 0 0 0 0 0 0 0 0 0 0 0 0 0 0 0.2 0"/>
<feBlend mode="normal" in2="BackgroundImageFix" result="effect1_dropShadow_745_5844"/>
<feBlend mode="normal" in="SourceGraphic" in2="effect1_dropShadow_745_5844" result="shape"/>
</filter>
<clipPath id="clip0_745_5844">
<rect width="516" height="317" fill="white"/>
</clipPath>
</defs>
</svg>
